<svg id="svg" version="1.1" xmlns="http://www.w3.org/2000/svg" xmlns:xlink="http://www.w3.org/1999/xlink" width="400" height="317.40696278511405" viewBox="0, 0, 400,317.40696278511405"><g id="svgg"><path id="path0" d="M0.000 158.730 L 0.000 317.460 200.000 317.460 L 400.000 317.460 400.000 158.730 L 400.000 0.000 200.000 0.000 L 0.000 0.000 0.000 158.730 M198.983 75.270 L 199.076 77.047 194.062 77.244 C 179.356 77.821,167.483 85.061,161.166 97.304 C 151.209 116.605,162.408 141.092,184.411 148.130 C 187.689 149.179,187.771 149.274,186.971 151.062 C 186.249 152.675,186.037 152.690,182.161 151.391 C 150.541 140.800,143.668 100.140,170.287 81.144 C 177.553 75.959,186.052 73.338,195.238 73.448 L 198.889 73.492 198.983 75.270 M213.712 75.233 C 225.969 79.331,236.032 87.994,241.439 99.104 C 243.607 103.559,243.633 105.569,241.576 109.917 C 240.002 113.245,240.670 116.180,245.100 125.401 C 248.366 132.198,248.317 133.321,244.735 133.813 C 241.787 134.219,240.782 135.935,242.381 137.836 C 243.802 139.525,243.507 140.106,240.873 140.810 L 238.571 141.424 240.372 141.587 C 242.543 141.783,242.462 141.712,242.573 143.532 C 242.647 144.740,242.511 145.181,241.807 146.017 C 240.835 147.172,240.733 148.178,241.447 149.559 C 243.147 152.847,241.383 154.220,236.114 153.711 C 232.553 153.367,231.105 153.113,224.227 151.623 C 221.561 151.045,214.889 148.856,212.752 147.858 C 210.510 146.811,208.618 144.643,206.564 140.769 C 205.552 138.862,204.202 136.587,203.564 135.714 L 202.402 134.127 202.169 135.397 C 202.040 136.095,201.835 138.556,201.712 140.865 L 201.490 145.063 203.983 150.230 C 207.932 158.415,208.214 158.720,213.945 160.986 C 215.791 161.717,217.407 162.472,217.535 162.665 C 217.994 163.356,217.819 176.078,217.345 176.472 C 216.554 177.129,184.956 176.804,184.827 176.138 C 184.739 175.676,192.035 151.854,197.006 136.377 C 199.218 129.490,199.369 130.362,195.046 125.065 C 190.172 119.094,189.318 116.531,191.064 113.108 C 194.648 106.084,203.162 108.852,203.172 117.045 C 203.175 120.375,203.199 120.382,207.060 118.159 L 210.317 116.285 210.481 113.936 C 210.731 110.341,211.876 108.801,215.319 107.428 C 228.040 102.354,224.749 88.286,209.206 81.292 C 207.897 80.703,206.755 80.160,206.668 80.086 C 206.463 79.909,206.670 74.219,206.895 73.855 C 207.184 73.388,209.733 73.903,213.712 75.233 M198.984 81.935 L 199.078 83.394 195.174 83.591 C 188.384 83.932,182.160 86.156,176.936 90.107 C 173.968 92.351,173.771 92.397,172.551 91.123 C 171.443 89.967,171.513 89.858,175.067 87.217 C 181.026 82.788,188.580 80.279,195.556 80.413 L 198.889 80.476 198.984 81.935 M200.494 88.594 C 206.641 89.449,216.621 95.276,215.397 97.296 C 214.361 99.006,213.523 98.955,211.424 97.056 C 207.124 93.164,202.349 91.511,195.173 91.431 C 195.050 91.430,194.855 90.927,194.740 90.314 C 194.346 88.210,195.422 87.889,200.494 88.594 M186.484 92.623 C 187.138 93.995,187.133 94.000,183.750 95.869 C 177.530 99.305,173.205 106.500,172.963 113.815 C 172.878 116.362,172.642 116.825,171.429 116.825 C 170.017 116.825,169.730 116.178,169.983 113.569 C 170.911 104.013,175.581 96.584,183.457 92.132 C 185.448 91.007,185.735 91.054,186.484 92.623 M169.407 95.264 C 170.711 96.070,170.734 96.493,169.567 98.197 C 165.683 103.861,164.038 112.315,165.495 119.121 C 165.996 121.465,165.980 121.504,164.189 122.215 C 162.836 122.752,162.667 122.554,162.075 119.737 C 160.560 112.536,162.142 103.336,166.016 96.815 C 167.445 94.409,167.778 94.257,169.407 95.264 M197.846 98.413 C 198.292 101.041,198.835 101.189,200.057 99.014 C 200.865 97.577,200.973 97.557,203.132 98.455 C 204.867 99.176,204.977 99.412,204.448 101.259 C 203.987 102.865,204.475 103.167,206.121 102.295 C 207.888 101.359,207.990 101.377,209.328 102.858 C 210.702 104.379,210.727 104.624,209.623 105.776 L 208.770 106.667 201.409 106.667 C 190.168 106.667,187.137 108.488,187.147 115.238 C 187.151 118.565,187.332 118.934,191.874 124.879 C 193.724 127.301,195.238 129.331,195.238 129.391 C 195.238 131.746,193.318 133.818,191.585 133.333 C 190.038 132.900,190.045 132.912,190.144 130.749 C 190.237 128.736,189.755 128.595,188.074 130.145 L 186.652 131.456 185.688 130.887 C 185.158 130.574,184.436 130.011,184.084 129.637 L 183.445 128.956 184.103 127.665 C 185.260 125.399,184.886 124.938,182.649 125.873 C 181.029 126.550,180.893 126.505,179.921 124.966 C 178.777 123.155,178.808 122.922,180.372 121.575 C 181.975 120.195,181.794 119.683,179.703 119.683 C 177.825 119.683,177.519 119.344,177.397 117.133 L 177.302 115.404 178.889 114.899 C 180.718 114.316,181.050 113.622,179.774 113.049 C 177.480 112.021,177.456 111.977,178.071 109.932 L 178.623 108.095 180.556 108.185 C 182.965 108.297,183.143 108.021,181.746 106.349 C 180.375 104.708,180.370 104.820,181.886 103.136 L 183.138 101.746 184.784 102.642 C 186.711 103.690,187.261 103.472,186.706 101.881 C 186.026 99.930,186.208 99.447,187.962 98.559 C 189.766 97.644,189.994 97.716,191.133 99.559 C 192.009 100.977,192.621 100.936,192.863 99.444 C 193.271 96.929,193.428 96.784,195.627 96.890 L 197.604 96.984 197.846 98.413 M175.502 122.500 C 176.217 122.953,175.833 124.586,174.983 124.707 C 174.117 124.830,173.333 124.264,173.333 123.517 C 173.333 122.447,174.532 121.885,175.502 122.500 M171.244 126.542 C 171.608 126.682,171.746 127.166,171.746 128.305 L 171.746 129.874 170.079 129.778 C 168.507 129.688,168.407 129.631,168.309 128.771 C 168.060 126.598,169.177 125.749,171.244 126.542 M178.072 131.877 C 178.296 132.147,178.406 133.127,178.349 134.337 L 178.254 136.349 175.794 136.442 L 173.333 136.535 173.333 134.167 C 173.333 132.570,173.462 131.747,173.730 131.639 C 174.641 131.271,177.709 131.439,178.072 131.877 M186.825 139.841 C 186.825 140.717,186.737 140.794,185.719 140.794 C 184.575 140.794,184.171 140.219,184.574 139.168 C 184.951 138.187,186.825 138.748,186.825 139.841 M205.664 191.950 C 209.944 193.194,210.454 194.062,208.322 196.470 L 206.810 198.178 205.161 197.343 C 199.656 194.553,194.388 200.114,197.222 205.724 C 198.921 209.087,205.043 210.110,205.336 207.081 L 205.434 206.066 203.749 205.970 L 202.063 205.873 202.063 203.810 L 202.063 201.746 206.508 201.746 L 210.952 201.746 211.041 205.758 C 211.176 211.877,209.335 213.492,202.222 213.492 C 195.222 213.492,191.527 210.128,191.179 203.438 C 190.743 195.065,197.619 189.611,205.664 191.950 M249.184 191.788 C 251.433 192.500,252.676 193.110,253.357 193.835 L 254.051 194.573 252.332 196.362 L 250.613 198.150 249.069 197.329 C 244.683 194.997,239.513 198.628,240.474 203.365 C 240.542 203.697,240.680 204.365,240.783 204.849 C 241.528 208.382,247.629 210.126,249.855 207.444 C 250.722 206.399,254.603 208.621,254.603 210.162 C 254.603 213.060,244.924 214.789,240.794 212.629 C 234.029 209.092,232.861 198.637,238.714 194.011 C 240.138 192.885,240.597 192.652,243.016 191.823 C 244.328 191.373,247.812 191.353,249.184 191.788 M89.459 194.367 C 89.572 196.945,89.087 197.304,85.828 197.054 C 83.032 196.839,83.197 196.344,83.101 205.253 L 83.016 213.175 80.504 213.268 C 77.274 213.389,77.471 213.935,77.465 204.841 L 77.460 197.143 74.785 197.143 C 71.544 197.143,71.111 196.844,71.111 194.606 C 71.111 191.848,70.376 192.043,80.433 192.138 L 89.365 192.222 89.459 194.367 M102.222 199.263 C 102.402 207.245,102.531 207.679,104.976 208.543 C 106.126 208.950,106.359 208.935,107.487 208.385 C 109.653 207.327,109.840 206.564,109.841 198.810 L 109.841 192.063 112.506 192.063 C 115.773 192.063,115.541 191.560,115.539 198.657 C 115.535 210.114,113.355 213.624,106.227 213.644 C 98.846 213.664,96.758 210.696,96.567 199.913 C 96.417 191.373,96.180 192.015,99.439 192.130 L 102.063 192.222 102.222 199.263 M138.068 193.175 C 141.704 195.646,141.974 200.992,138.614 204.013 L 136.998 205.465 138.817 208.887 C 141.255 213.477,141.276 213.379,137.875 213.266 L 135.115 213.175 133.175 209.524 C 130.439 204.373,129.841 204.306,129.841 209.145 C 129.841 213.357,129.810 213.397,126.617 213.268 L 124.286 213.175 124.202 202.595 L 124.118 192.016 130.393 192.119 L 136.667 192.222 138.068 193.175 M154.692 192.471 C 154.924 193.076,154.955 211.659,154.725 212.573 C 154.533 213.337,154.460 213.355,151.947 213.266 L 149.365 213.175 149.281 203.019 C 149.235 197.433,149.266 192.683,149.351 192.463 C 149.567 191.898,154.475 191.905,154.692 192.471 M172.097 195.888 C 175.793 201.910,176.421 202.897,176.794 203.270 C 177.048 203.524,177.143 202.042,177.143 197.841 L 177.143 192.063 179.846 192.063 L 182.548 192.063 182.465 202.619 L 182.381 213.175 179.571 213.175 L 176.760 213.175 173.497 207.990 C 171.702 205.138,170.074 202.645,169.879 202.450 C 169.617 202.189,169.523 203.470,169.519 207.317 C 169.513 213.664,169.655 213.387,166.480 213.268 L 163.968 213.175 163.884 203.019 C 163.784 190.852,163.447 192.063,166.928 192.063 L 169.749 192.063 172.097 195.888 M268.328 200.079 L 268.413 208.095 273.153 208.183 C 278.662 208.286,278.732 208.318,278.725 210.753 C 278.718 213.503,279.194 213.356,270.613 213.260 L 263.016 213.175 262.932 202.619 L 262.849 192.063 265.546 192.063 L 268.243 192.063 268.328 200.079 M290.846 198.968 C 290.973 207.196,291.641 208.889,294.762 208.889 C 297.744 208.889,298.229 207.624,298.413 199.365 L 298.571 192.222 301.370 192.130 L 304.168 192.038 304.068 199.749 C 303.920 211.196,302.009 213.907,294.310 213.598 C 287.140 213.310,285.397 210.454,285.397 198.990 L 285.397 192.063 288.068 192.063 L 290.740 192.063 290.846 198.968 M326.175 193.140 C 328.686 195.057,329.170 198.645,327.277 201.304 L 326.589 202.271 327.542 203.278 C 330.383 206.281,329.738 210.981,326.253 212.668 C 324.406 213.562,313.224 213.699,312.891 212.831 C 312.635 212.164,312.642 193.215,312.898 192.547 C 313.076 192.085,313.767 192.037,319.035 192.124 L 324.972 192.222 326.175 193.140 M129.841 198.889 L 129.841 200.635 132.183 200.635 C 134.736 200.635,135.317 200.311,135.317 198.889 C 135.317 197.467,134.736 197.143,132.183 197.143 L 129.841 197.143 129.841 198.889 M318.475 198.794 C 318.585 200.720,319.108 201.003,321.332 200.336 C 323.996 199.538,323.307 197.349,320.347 197.207 L 318.378 197.112 318.475 198.794 M318.539 205.525 C 318.445 205.771,318.414 206.449,318.470 207.033 L 318.571 208.095 320.873 208.189 C 323.596 208.299,324.441 207.519,323.371 205.886 C 322.745 204.930,318.878 204.641,318.539 205.525 M104.444 227.302 C 105.678 228.536,104.746 229.865,103.462 228.703 C 102.612 227.934,101.782 228.434,101.646 229.796 C 101.531 230.953,102.259 231.439,103.212 230.844 C 104.705 229.912,105.821 231.006,104.524 232.128 C 102.566 233.822,99.683 232.386,99.683 229.718 C 99.683 227.209,102.780 225.637,104.444 227.302 M114.734 227.643 C 116.051 229.209,115.569 232.032,113.894 232.563 C 111.529 233.314,109.841 232.101,109.841 229.650 C 109.841 226.782,112.939 225.511,114.734 227.643 M124.618 227.446 C 126.757 229.585,125.179 232.815,122.082 232.634 L 120.476 232.540 120.383 230.028 C 120.259 226.726,120.292 226.667,122.227 226.667 C 123.515 226.667,123.995 226.823,124.618 227.446 M131.915 227.388 C 132.425 229.419,131.938 232.540,131.111 232.540 C 130.324 232.540,129.728 228.565,130.293 227.092 C 130.566 226.381,131.715 226.590,131.915 227.388 M139.062 227.801 C 139.799 228.994,140.193 228.939,140.370 227.619 C 140.518 226.516,141.807 226.325,142.068 227.367 C 142.964 230.936,141.544 233.903,139.964 231.765 C 139.064 230.548,138.858 230.549,138.615 231.769 C 138.161 234.038,136.996 232.862,136.890 230.028 C 136.752 226.324,137.607 225.447,139.062 227.801 M151.413 227.444 C 151.869 227.929,152.067 228.422,151.939 228.754 C 151.827 229.047,151.898 229.483,152.097 229.722 C 152.667 230.409,151.826 232.062,150.660 232.550 C 147.856 233.721,145.644 230.834,147.136 227.949 C 147.933 226.409,150.191 226.143,151.413 227.444 M167.143 227.460 C 167.143 227.945,166.898 228.119,166.111 228.195 C 164.854 228.316,164.750 228.809,165.952 228.947 C 167.278 229.100,167.401 230.476,166.089 230.476 C 165.264 230.476,165.124 230.614,164.938 231.607 C 164.763 232.540,164.604 232.721,164.030 232.639 C 163.333 232.540,162.803 228.411,163.315 227.076 C 163.613 226.300,167.143 226.655,167.143 227.460 M176.956 227.643 C 178.864 229.911,176.981 233.462,174.228 232.787 C 173.171 232.528,172.660 232.049,172.157 230.846 C 170.852 227.723,174.804 225.086,176.956 227.643 M186.279 227.161 C 187.062 227.709,187.258 229.441,186.610 230.089 C 186.322 230.377,186.331 230.642,186.647 231.233 C 186.874 231.657,186.962 232.159,186.844 232.351 C 186.466 232.963,185.518 232.723,185.079 231.905 C 184.553 230.922,184.202 230.893,184.070 231.822 C 183.954 232.634,182.910 232.975,182.503 232.333 C 182.192 231.842,182.137 228.447,182.422 227.381 C 182.659 226.498,185.131 226.357,186.279 227.161 M202.698 227.460 C 202.698 227.877,202.453 228.130,201.984 228.197 C 201.340 228.288,201.269 228.475,201.265 230.101 C 201.255 233.635,199.585 233.920,199.430 230.414 C 199.346 228.504,199.268 228.285,198.637 228.195 C 198.187 228.131,197.900 227.835,197.833 227.367 C 197.732 226.655,197.783 226.641,200.214 226.732 C 202.456 226.816,202.698 226.887,202.698 227.460 M209.206 227.778 C 209.460 229.271,211.027 229.349,211.169 227.876 C 211.247 227.066,211.433 226.802,211.984 226.724 C 212.682 226.625,212.698 226.691,212.698 229.683 C 212.698 232.672,212.682 232.740,211.986 232.641 C 211.476 232.568,211.227 232.269,211.110 231.587 C 210.873 230.207,209.446 230.204,209.207 231.583 C 209.028 232.614,208.048 233.067,207.583 232.333 C 207.268 231.837,207.206 227.919,207.501 227.152 C 207.842 226.262,209.021 226.694,209.206 227.778 M221.728 226.955 C 222.103 227.562,221.502 228.254,220.601 228.254 C 219.432 228.254,219.396 228.814,220.556 228.947 C 221.818 229.092,221.771 230.252,220.494 230.473 C 219.266 230.686,219.384 231.228,220.702 231.429 C 222.728 231.736,221.991 232.540,219.683 232.540 L 217.619 232.540 217.525 230.028 C 217.474 228.647,217.505 227.325,217.595 227.092 C 217.783 226.601,221.435 226.480,221.728 226.955 M235.121 227.857 L 236.032 229.048 236.190 227.937 C 236.389 226.547,237.634 226.142,237.941 227.367 C 238.837 230.936,237.417 233.903,235.837 231.765 C 234.937 230.548,234.731 230.549,234.488 231.769 C 234.034 234.038,232.869 232.862,232.764 230.028 C 232.623 226.258,233.371 225.569,235.121 227.857 M246.825 227.460 C 246.825 227.945,246.581 228.119,245.794 228.195 C 244.634 228.307,244.370 228.886,245.476 228.894 C 246.490 228.901,247.110 229.374,246.882 229.968 C 246.762 230.279,246.314 230.476,245.724 230.476 C 245.080 230.476,244.762 230.634,244.762 230.952 C 244.762 231.287,245.100 231.429,245.896 231.429 C 246.806 231.429,247.009 231.539,246.924 231.984 C 246.836 232.439,246.474 232.540,244.916 232.540 L 243.016 232.540 242.922 230.028 C 242.796 226.630,242.804 226.616,244.996 226.730 C 246.582 226.813,246.825 226.910,246.825 227.460 M253.841 227.331 L 254.549 227.996 254.905 227.331 C 255.826 225.611,257.096 226.797,256.204 228.545 L 255.559 229.810 256.217 230.926 C 256.579 231.540,256.785 232.190,256.673 232.371 C 256.367 232.865,255.243 232.764,255.035 232.222 C 254.935 231.960,254.671 231.746,254.449 231.746 C 254.228 231.746,253.868 231.960,253.651 232.222 C 253.228 232.732,252.203 232.864,251.943 232.442 C 251.856 232.301,252.082 231.601,252.445 230.885 L 253.105 229.585 252.403 228.449 C 251.338 226.726,252.355 225.935,253.841 227.331 M266.449 227.104 C 266.641 227.603,266.103 228.254,265.498 228.254 C 265.035 228.254,264.807 229.055,264.687 231.111 C 264.540 233.612,263.362 233.149,263.238 230.542 C 263.154 228.755,263.061 228.513,262.365 228.248 C 261.893 228.069,261.587 227.700,261.587 227.309 C 261.587 226.500,266.143 226.307,266.449 227.104 M282.039 227.275 C 283.559 228.954,282.772 232.638,280.873 232.735 C 278.476 232.858,277.460 231.975,277.460 229.772 C 277.460 227.093,280.416 225.482,282.039 227.275 M291.587 227.460 C 291.587 227.945,291.343 228.119,290.556 228.195 C 289.395 228.307,289.132 228.886,290.238 228.894 C 291.252 228.901,291.871 229.374,291.644 229.968 C 291.524 230.279,291.076 230.476,290.486 230.476 C 289.842 230.476,289.524 230.634,289.524 230.952 C 289.524 231.287,289.861 231.429,290.658 231.429 C 291.568 231.429,291.771 231.539,291.686 231.984 C 291.598 232.439,291.236 232.540,289.678 232.540 L 287.778 232.540 287.684 230.028 C 287.557 226.630,287.566 226.616,289.758 226.730 C 291.344 226.813,291.587 226.910,291.587 227.460 M298.956 227.857 C 299.943 229.009,299.977 229.022,299.993 228.254 C 300.063 224.944,301.746 226.319,301.746 229.687 C 301.746 233.015,301.067 233.687,299.646 231.765 C 298.760 230.566,298.483 230.545,298.354 231.667 C 298.275 232.359,298.090 232.540,297.460 232.540 C 296.689 232.540,296.664 232.471,296.573 230.028 C 296.432 226.234,297.069 225.654,298.956 227.857 M111.786 228.945 C 111.417 229.934,111.822 230.930,112.642 231.052 C 113.144 231.127,113.365 230.937,113.528 230.289 C 113.926 228.702,112.334 227.473,111.786 228.945 M122.222 229.683 C 122.222 231.148,122.644 231.514,123.429 230.730 C 124.215 229.944,123.673 228.254,122.635 228.254 C 122.357 228.254,122.222 228.722,122.222 229.683 M148.697 228.703 C 148.364 229.570,148.715 230.944,149.298 231.055 C 149.759 231.142,149.829 231.014,149.668 230.374 C 149.527 229.812,149.628 229.497,150.018 229.279 C 150.319 229.110,150.465 228.811,150.343 228.613 C 150.029 228.105,148.902 228.167,148.697 228.703 M174.008 228.945 C 173.640 229.934,174.044 230.930,174.865 231.052 C 175.366 231.127,175.587 230.937,175.750 230.289 C 176.148 228.702,174.556 227.473,174.008 228.945 M184.127 228.730 C 184.127 228.992,184.341 229.206,184.603 229.206 C 184.865 229.206,185.079 228.992,185.079 228.730 C 185.079 228.468,184.865 228.254,184.603 228.254 C 184.341 228.254,184.127 228.468,184.127 228.730 M279.344 228.929 C 279.081 229.419,279.076 229.811,279.326 230.358 C 279.794 231.386,280.594 231.359,280.396 230.321 C 280.293 229.783,280.411 229.468,280.765 229.332 C 281.169 229.177,281.204 229.033,280.922 228.693 C 280.395 228.058,279.759 228.153,279.344 228.929 " stroke="none" fill="#0c0c43" fill-rule="evenodd"></path><path id="path1" d="M207.571 75.358 C 207.494 76.927,207.466 77.084,207.218 77.332 C 206.416 78.135,206.997 79.955,208.175 80.327 C 217.189 83.172,223.661 90.143,223.642 96.984 C 223.626 102.281,221.774 104.992,216.191 107.887 C 212.274 109.918,211.517 110.832,211.235 113.869 L 211.024 116.150 212.417 116.249 L 213.810 116.349 213.703 117.577 C 213.644 118.253,213.323 119.253,212.989 119.800 C 211.505 122.233,213.376 125.708,218.027 129.156 C 223.454 133.179,229.430 133.944,234.275 131.236 C 235.611 130.490,235.722 130.475,236.103 130.996 C 236.756 131.890,236.590 132.386,235.103 133.976 C 232.628 136.622,232.196 139.956,234.058 142.051 L 234.762 142.842 237.143 141.694 C 238.452 141.063,239.772 140.423,240.075 140.273 C 240.378 140.123,240.985 140.000,241.424 140.000 C 242.450 140.000,242.525 138.785,241.554 137.907 C 241.007 137.411,240.912 137.035,241.029 135.818 C 241.157 134.488,241.082 134.266,240.306 133.692 C 239.374 133.004,238.782 130.465,237.593 122.063 C 237.321 120.143,237.018 118.036,236.920 117.381 C 236.747 116.224,236.769 116.190,237.722 116.190 C 238.608 116.190,238.720 116.304,238.895 117.381 C 239.256 119.593,239.955 121.412,242.469 126.667 C 243.846 129.548,245.064 132.155,245.175 132.460 C 245.442 133.196,245.893 133.162,246.453 132.364 C 247.099 131.441,246.789 130.443,244.193 125.079 C 241.925 120.395,240.123 115.503,239.790 113.128 C 239.607 111.821,239.968 110.825,241.849 107.460 C 242.877 105.621,242.577 102.790,241.010 99.524 C 238.975 95.283,235.179 89.775,233.456 88.564 C 233.089 88.306,231.718 87.091,230.410 85.864 C 225.052 80.839,215.574 75.870,208.968 74.622 C 207.621 74.368,207.619 74.369,207.571 75.358 M195.794 89.070 C 194.934 89.944,195.573 90.669,197.222 90.688 C 198.139 90.698,200.139 90.839,201.667 91.001 C 205.885 91.449,204.854 90.134,200.476 89.484 C 199.603 89.354,198.246 89.153,197.460 89.038 C 196.675 88.923,195.925 88.937,195.794 89.070 M167.444 96.656 C 167.191 97.262,166.985 98.369,166.987 99.117 L 166.990 100.476 168.304 98.482 C 169.569 96.564,169.596 96.471,169.016 96.032 C 168.135 95.366,167.953 95.438,167.444 96.656 M200.560 99.680 C 199.200 102.045,197.143 102.064,197.143 99.712 C 197.143 99.114,197.055 98.712,196.947 98.820 C 196.694 99.073,196.692 105.051,196.944 105.304 C 198.374 106.734,209.524 106.149,209.524 104.645 C 209.524 103.067,207.644 102.276,206.125 103.215 C 204.302 104.341,203.356 103.680,203.632 101.472 C 203.857 99.665,203.760 99.489,202.147 98.801 C 201.324 98.450,201.241 98.496,200.560 99.680 M188.675 106.681 C 183.265 107.750,180.056 113.578,182.234 118.378 C 182.864 119.767,188.050 126.433,189.666 127.932 C 190.134 128.366,190.728 129.151,190.985 129.678 C 192.431 132.637,193.622 133.007,194.268 130.697 L 194.667 129.274 191.458 125.192 C 185.013 116.996,184.547 112.038,189.843 108.005 C 192.074 106.307,191.850 106.053,188.675 106.681 M194.402 110.768 C 192.580 111.879,191.138 114.430,191.622 115.689 C 191.786 116.118,192.571 116.190,197.046 116.190 L 202.278 116.190 202.052 114.841 C 201.693 112.704,201.381 112.148,199.964 111.122 C 198.336 109.942,196.000 109.794,194.402 110.768 M174.286 123.677 C 174.286 124.238,174.969 124.140,175.165 123.552 C 175.234 123.344,175.065 123.175,174.788 123.175 C 174.512 123.175,174.286 123.401,174.286 123.677 M195.982 141.937 C 195.780 142.530,195.306 144.087,194.928 145.397 C 194.550 146.706,194.116 148.063,193.964 148.413 C 193.812 148.762,193.590 149.543,193.470 150.148 C 193.351 150.754,193.144 151.468,193.010 151.736 C 192.877 152.003,192.451 153.294,192.063 154.603 C 191.676 155.913,191.040 157.984,190.651 159.206 C 190.262 160.429,189.640 162.429,189.268 163.651 C 187.356 169.939,186.911 171.374,186.513 172.540 C 186.275 173.238,185.986 174.274,185.872 174.841 L 185.664 175.873 195.848 175.873 C 201.449 175.873,206.032 175.782,206.032 175.672 C 206.032 175.561,205.125 174.097,204.016 172.418 C 202.079 169.484,198.201 161.705,197.193 158.730 C 196.832 157.663,196.664 155.221,196.529 149.080 C 196.380 142.284,196.286 141.045,195.982 141.937 M237.884 146.176 C 234.589 147.610,234.946 151.718,238.413 152.259 C 240.937 152.653,241.814 151.397,240.429 149.374 C 239.858 148.541,239.886 147.288,240.494 146.420 C 241.102 145.553,239.632 145.416,237.884 146.176 M198.889 192.472 C 186.662 196.197,190.629 214.419,203.407 213.226 C 208.842 212.718,210.523 210.959,210.406 205.900 L 210.317 202.063 206.412 201.974 L 202.507 201.885 202.603 203.720 L 202.698 205.556 204.286 205.714 C 207.974 206.083,206.105 209.350,202.222 209.321 C 195.559 209.270,193.425 199.803,199.365 196.646 C 200.935 195.812,203.920 195.874,205.415 196.772 L 206.544 197.451 207.927 196.042 C 209.522 194.416,209.444 194.130,207.090 192.990 C 205.363 192.154,200.866 191.870,198.889 192.472 M242.698 192.489 C 233.817 195.426,232.851 208.020,241.192 212.127 C 245.018 214.011,250.184 213.473,253.333 210.863 L 254.127 210.206 253.035 209.073 C 251.708 207.697,250.921 207.408,250.215 208.038 C 246.946 210.959,240.980 208.876,240.038 204.485 C 238.699 198.242,243.664 194.340,249.751 196.852 C 250.779 197.277,252.959 195.625,253.003 194.388 C 253.057 192.848,245.710 191.494,242.698 192.489 M72.063 194.427 L 72.063 196.484 75.000 196.575 L 77.937 196.667 78.095 204.603 L 78.254 212.540 80.391 212.633 L 82.529 212.727 82.614 204.697 L 82.698 196.667 85.381 196.573 C 88.663 196.459,88.947 196.260,88.824 194.155 L 88.730 192.540 80.397 192.455 L 72.063 192.370 72.063 194.427 M97.368 192.579 C 96.536 193.411,97.286 206.645,98.283 208.747 C 101.213 214.920,110.917 214.712,113.856 208.413 C 114.564 206.897,114.597 206.501,114.600 199.603 L 114.603 192.381 112.540 192.381 L 110.476 192.381 110.476 199.132 C 110.476 206.964,110.313 207.579,107.913 208.823 C 106.306 209.656,104.881 209.561,103.423 208.522 C 101.845 207.399,101.756 206.965,101.587 199.524 L 101.429 192.540 99.511 192.447 C 98.456 192.396,97.492 192.455,97.368 192.579 M125.000 192.561 C 124.869 192.695,124.762 197.280,124.762 202.751 L 124.762 212.698 126.825 212.698 L 128.889 212.698 128.889 209.218 C 128.889 203.400,130.625 203.340,133.666 209.051 L 135.608 212.698 137.794 212.698 C 139.752 212.698,139.955 212.641,139.747 212.143 C 139.517 211.591,138.625 209.868,136.996 206.825 L 136.146 205.238 137.034 204.603 C 141.293 201.559,141.446 196.034,137.343 193.405 C 136.010 192.552,125.699 191.846,125.000 192.561 M150.066 192.579 C 149.943 192.703,149.841 197.287,149.841 202.766 L 149.841 212.727 151.984 212.634 L 154.127 212.540 154.127 202.540 L 154.127 192.540 152.209 192.447 C 151.154 192.396,150.190 192.455,150.066 192.579 M164.669 192.580 C 164.545 192.703,164.444 197.280,164.444 202.751 L 164.444 212.698 166.667 212.698 L 168.889 212.698 168.889 206.640 C 168.889 199.213,168.637 199.206,173.433 206.771 L 177.191 212.698 179.548 212.698 L 181.905 212.698 181.905 202.540 L 181.905 192.381 179.841 192.381 L 177.778 192.381 177.778 198.235 C 177.778 206.336,177.916 206.340,172.764 198.095 L 169.294 192.540 167.093 192.448 C 165.883 192.397,164.792 192.457,164.669 192.580 M263.492 202.525 L 263.492 212.698 270.635 212.698 L 277.778 212.698 277.778 210.802 L 277.778 208.905 272.778 208.818 L 267.778 208.730 267.619 200.635 L 267.460 192.540 265.476 192.445 L 263.492 192.351 263.492 202.525 M286.153 192.839 C 285.513 194.508,286.217 207.179,287.036 208.730 C 290.335 214.980,299.718 214.814,302.596 208.455 C 303.297 206.905,303.333 206.477,303.333 199.683 L 303.333 192.540 301.349 192.445 L 299.365 192.351 299.341 198.794 C 299.311 206.799,298.898 208.150,296.199 209.080 C 294.107 209.801,292.197 209.104,290.929 207.158 C 290.382 206.320,290.306 205.485,290.211 199.301 L 290.105 192.381 288.217 192.381 C 286.865 192.381,286.279 192.511,286.153 192.839 M313.651 202.540 L 313.651 212.698 319.286 212.693 C 324.535 212.688,325.008 212.639,326.190 211.974 C 329.173 210.298,329.484 205.978,326.810 203.381 L 325.639 202.244 326.462 201.266 C 328.913 198.354,327.663 193.675,324.175 192.706 C 323.537 192.529,320.909 192.384,318.333 192.383 L 313.651 192.381 313.651 202.540 M134.957 196.845 C 137.856 198.396,135.799 201.270,131.789 201.270 C 129.049 201.270,128.050 199.698,129.082 197.010 C 129.312 196.410,133.903 196.281,134.957 196.845 M322.857 197.143 C 324.658 198.943,322.981 201.037,319.861 200.887 L 317.937 200.794 317.839 199.085 C 317.696 196.584,317.765 196.508,320.149 196.508 C 321.799 196.508,322.352 196.638,322.857 197.143 M323.665 205.224 C 325.673 207.232,324.424 208.730,320.740 208.730 L 317.937 208.730 317.840 207.038 C 317.707 204.725,318.016 204.444,320.688 204.444 C 322.598 204.444,322.988 204.546,323.665 205.224 M218.095 229.841 C 218.095 230.947,218.175 231.772,218.272 231.675 C 218.511 231.436,218.522 228.258,218.285 228.020 C 218.180 227.916,218.095 228.735,218.095 229.841 M236.743 230.079 C 236.659 230.734,236.715 231.406,236.867 231.571 C 237.027 231.746,237.143 231.246,237.143 230.381 C 237.143 228.587,236.952 228.443,236.743 230.079 M253.968 229.683 C 253.968 229.944,254.111 230.159,254.286 230.159 C 254.460 230.159,254.603 229.944,254.603 229.683 C 254.603 229.421,254.460 229.206,254.286 229.206 C 254.111 229.206,253.968 229.421,253.968 229.683 " stroke="none" fill="#b3d7f5" fill-rule="evenodd"></path><path id="path2" d="M207.217 74.159 C 207.089 74.287,206.984 75.106,206.984 75.979 C 206.984 76.852,207.089 77.461,207.218 77.332 C 207.466 77.084,207.494 76.927,207.571 75.358 C 207.725 72.202,223.657 79.530,230.410 85.864 C 231.718 87.091,233.090 88.284,233.458 88.515 C 235.472 89.778,227.988 83.142,225.589 81.538 C 219.863 77.707,208.309 73.067,207.217 74.159 M213.101 82.749 C 215.993 84.390,218.749 86.896,220.996 89.926 C 222.020 91.306,222.857 92.288,222.857 92.108 C 222.857 90.069,215.014 82.850,211.587 81.736 C 211.238 81.623,211.919 82.078,213.101 82.749 M195.038 89.603 C 195.143 89.996,195.231 90.496,195.234 90.714 C 195.237 90.992,195.884 91.113,197.381 91.117 C 202.685 91.130,207.824 93.151,211.804 96.789 C 213.489 98.329,214.921 98.372,214.921 96.883 C 214.921 95.659,209.015 91.643,205.217 90.286 C 202.531 89.326,196.896 88.387,198.571 89.179 C 198.921 89.344,199.706 89.489,200.317 89.500 C 201.711 89.526,204.444 90.486,204.444 90.949 C 204.444 91.196,203.645 91.211,201.667 91.001 C 200.139 90.839,198.127 90.698,197.195 90.688 C 195.524 90.670,195.503 90.658,195.632 89.779 C 195.724 89.155,195.626 88.889,195.305 88.889 C 194.985 88.889,194.904 89.104,195.038 89.603 M223.073 93.492 C 224.686 99.390,222.099 104.513,216.000 107.494 C 211.828 109.533,210.794 110.936,210.794 114.559 L 210.794 116.440 207.474 118.405 C 203.169 120.952,203.066 120.928,202.830 117.298 C 202.364 110.159,197.423 107.081,193.056 111.210 C 189.294 114.768,189.867 118.002,195.492 124.949 C 197.622 127.580,199.365 129.891,199.365 130.083 C 199.365 130.452,198.038 134.753,196.478 139.439 C 195.500 142.378,195.322 143.320,196.043 141.746 C 196.428 140.905,196.482 141.667,196.498 148.254 C 196.524 158.267,198.174 163.570,204.016 172.418 C 205.125 174.097,206.032 175.561,206.032 175.672 C 206.032 175.782,201.449 175.873,195.848 175.873 L 185.664 175.873 185.872 174.841 C 185.986 174.274,186.277 173.238,186.518 172.540 C 186.758 171.841,187.404 169.770,187.953 167.937 C 188.501 166.103,189.138 164.032,189.368 163.333 C 189.598 162.635,190.244 160.563,190.802 158.730 C 191.360 156.897,192.031 154.800,192.292 154.071 C 192.553 153.342,192.708 152.569,192.637 152.354 C 192.565 152.139,191.892 153.950,191.142 156.379 C 190.391 158.807,189.066 163.079,188.198 165.873 C 185.294 175.215,185.089 175.949,185.294 176.280 C 185.509 176.629,216.272 176.374,216.846 176.019 C 217.014 175.915,217.143 173.019,217.143 169.328 L 217.143 162.821 215.635 162.184 C 214.806 161.833,213.841 161.429,213.492 161.286 C 208.118 159.082,207.467 158.420,204.163 151.805 C 200.687 144.843,200.783 145.256,201.263 139.333 C 201.685 134.120,201.827 133.517,202.565 133.806 C 203.104 134.017,205.424 137.590,207.309 141.111 C 210.658 147.367,213.028 148.568,229.524 152.376 C 239.216 154.614,242.827 153.678,240.943 149.418 C 240.255 147.862,240.563 146.173,241.655 145.509 C 242.570 144.951,241.993 142.222,240.960 142.222 C 238.677 142.222,237.350 141.549,238.754 141.104 C 239.116 140.989,239.346 140.827,239.264 140.745 C 239.182 140.664,238.136 141.104,236.938 141.724 L 234.762 142.851 234.058 142.056 C 232.197 139.950,232.627 136.623,235.103 133.976 C 236.590 132.386,236.756 131.890,236.103 130.996 C 235.722 130.475,235.611 130.490,234.275 131.236 C 229.430 133.944,223.454 133.179,218.027 129.156 C 213.376 125.708,211.505 122.233,212.989 119.800 C 213.323 119.253,213.644 118.253,213.703 117.577 L 213.810 116.349 212.417 116.249 L 211.024 116.150 211.235 113.869 C 211.517 110.832,212.274 109.918,216.191 107.887 C 221.859 104.948,223.638 102.293,223.646 96.762 C 223.649 94.362,223.528 93.244,223.232 92.952 C 222.885 92.611,222.857 92.705,223.073 93.492 M166.773 96.434 C 162.658 103.349,161.178 110.942,162.436 118.679 L 162.970 121.962 163.936 121.768 C 165.376 121.480,165.432 121.298,164.918 118.610 C 163.560 111.514,165.015 104.645,169.373 97.573 L 170.184 96.258 169.102 95.589 C 167.701 94.723,167.816 94.682,166.773 96.434 M169.016 96.032 C 169.596 96.471,169.569 96.564,168.304 98.482 L 166.990 100.476 166.987 99.117 C 166.982 96.532,167.877 95.170,169.016 96.032 M194.086 97.386 C 193.890 97.514,193.627 98.229,193.502 98.975 C 193.077 101.519,192.051 101.766,190.657 99.659 C 190.203 98.973,189.727 98.415,189.599 98.418 C 188.957 98.432,186.839 99.953,186.928 100.335 C 187.746 103.837,187.243 104.521,184.782 103.253 L 183.163 102.419 182.229 103.511 C 181.061 104.878,181.055 104.762,182.381 106.349 C 184.062 108.361,183.682 108.952,180.796 108.816 L 178.973 108.730 178.548 110.146 C 178.314 110.925,178.163 111.602,178.212 111.651 C 178.260 111.699,178.933 112.074,179.706 112.483 C 181.737 113.557,181.673 114.520,179.524 115.236 C 176.658 116.191,176.992 118.857,180.021 119.209 C 182.538 119.501,182.748 120.021,181.005 121.647 C 179.474 123.075,179.469 123.094,180.349 124.585 C 181.109 125.874,181.234 125.902,183.073 125.200 C 185.369 124.323,185.980 125.112,184.762 127.385 C 183.910 128.973,183.933 129.069,185.396 130.037 L 186.664 130.877 188.113 129.542 C 189.918 127.878,190.476 128.136,190.476 130.635 C 190.476 132.426,190.755 132.838,192.135 133.086 C 192.714 133.191,193.170 133.055,193.513 132.675 C 193.990 132.148,193.984 132.119,193.430 132.264 C 192.864 132.412,190.794 130.079,190.794 129.293 C 190.794 129.136,190.350 128.588,189.807 128.075 C 188.028 126.395,182.880 119.803,182.234 118.378 C 179.870 113.169,183.577 107.325,189.762 106.509 C 191.794 106.241,191.833 106.510,189.962 107.887 C 188.485 108.973,186.651 111.481,186.687 112.364 C 186.698 112.635,186.848 112.500,187.020 112.063 C 188.517 108.271,192.327 106.086,197.606 105.992 C 199.584 105.957,199.686 105.927,198.498 105.733 C 197.759 105.613,197.064 105.424,196.953 105.313 C 196.694 105.054,196.689 99.078,196.947 98.820 C 197.055 98.712,197.143 99.124,197.143 99.735 C 197.143 102.098,199.195 102.051,200.573 99.656 C 201.240 98.497,201.326 98.450,202.147 98.801 C 203.760 99.489,203.857 99.665,203.632 101.472 C 203.356 103.680,204.302 104.341,206.125 103.215 C 207.574 102.319,208.003 102.361,208.829 103.479 C 209.662 104.606,209.671 104.708,208.998 105.451 C 208.709 105.770,208.602 106.027,208.760 106.022 C 210.070 105.976,210.164 104.426,208.938 103.111 L 207.690 101.773 206.328 102.675 C 204.274 104.034,203.574 103.283,204.244 100.438 C 204.493 99.380,204.650 99.503,201.390 98.201 C 201.194 98.123,200.648 98.718,200.175 99.524 C 199.022 101.493,198.082 101.434,197.620 99.365 C 197.143 97.224,195.633 96.378,194.086 97.386 M241.365 108.326 C 239.851 110.284,239.422 112.597,240.171 114.762 C 240.588 115.968,240.599 115.976,240.390 114.921 C 240.015 113.030,240.213 111.614,241.097 109.869 C 241.902 108.281,242.047 107.443,241.365 108.326 M199.964 111.122 C 201.381 112.148,201.693 112.704,202.052 114.841 L 202.278 116.190 197.046 116.190 C 191.335 116.190,191.203 116.145,191.629 114.340 C 192.490 110.692,196.979 108.959,199.964 111.122 M186.423 113.968 C 186.423 114.579,186.488 114.829,186.568 114.524 C 186.648 114.218,186.648 113.718,186.568 113.413 C 186.488 113.107,186.423 113.357,186.423 113.968 M186.423 116.508 C 186.423 117.119,186.488 117.369,186.568 117.063 C 186.648 116.758,186.648 116.258,186.568 115.952 C 186.488 115.647,186.423 115.897,186.423 116.508 M236.920 117.381 C 237.018 118.036,237.321 120.143,237.593 122.063 C 238.782 130.465,239.374 133.004,240.306 133.692 C 241.082 134.266,241.157 134.488,241.029 135.818 C 240.912 137.035,241.007 137.411,241.554 137.907 C 241.922 138.239,242.222 138.855,242.222 139.274 C 242.222 139.694,242.359 139.953,242.526 139.850 C 242.894 139.622,242.632 138.833,241.851 137.814 C 240.484 136.033,241.403 134.197,243.945 133.628 C 245.379 133.307,245.616 133.159,245.378 132.733 C 242.885 128.280,239.280 119.741,238.895 117.381 C 238.720 116.304,238.608 116.190,237.722 116.190 C 236.769 116.190,236.747 116.224,236.920 117.381 M241.927 120.159 C 241.927 120.333,242.131 120.833,242.381 121.270 C 242.630 121.706,242.835 121.921,242.835 121.746 C 242.835 121.571,242.630 121.071,242.381 120.635 C 242.131 120.198,241.927 119.984,241.927 120.159 M242.890 122.381 C 242.890 122.556,243.732 124.341,244.762 126.349 C 245.791 128.357,246.634 129.857,246.634 129.683 C 246.634 129.508,245.791 127.722,244.762 125.714 C 243.732 123.706,242.890 122.206,242.890 122.381 M173.968 123.492 C 173.968 124.344,174.072 124.474,174.683 124.387 C 175.206 124.313,175.397 124.073,175.397 123.492 C 175.397 122.911,175.206 122.671,174.683 122.597 C 174.072 122.510,173.968 122.640,173.968 123.492 M175.165 123.552 C 174.969 124.140,174.286 124.238,174.286 123.677 C 174.286 123.401,174.512 123.175,174.788 123.175 C 175.065 123.175,175.234 123.344,175.165 123.552 M168.889 128.254 C 168.889 129.486,168.921 129.524,169.966 129.524 C 171.154 129.524,171.446 129.124,171.200 127.837 C 170.895 126.242,168.889 126.604,168.889 128.254 M246.746 131.000 C 246.774 131.550,246.607 132.229,246.375 132.508 C 246.087 132.855,246.069 133.016,246.317 133.016 C 246.946 133.016,247.370 131.662,247.016 130.788 C 246.705 130.024,246.697 130.030,246.746 131.000 M240.151 140.330 C 240.017 140.547,240.256 140.586,240.846 140.444 C 242.063 140.152,242.178 140.000,241.183 140.000 C 240.727 140.000,240.263 140.149,240.151 140.330 M194.493 145.604 C 194.024 147.114,193.712 148.420,193.797 148.506 C 193.971 148.680,193.959 148.711,194.929 145.456 C 195.310 144.179,195.559 143.072,195.483 142.996 C 195.406 142.920,194.961 144.093,194.493 145.604 M240.494 146.420 C 239.886 147.288,239.858 148.541,240.429 149.374 C 241.367 150.744,241.358 151.728,240.404 152.094 C 237.312 153.282,234.010 149.482,236.217 147.275 C 237.741 145.751,241.488 145.002,240.494 146.420 M193.194 149.762 C 193.079 150.242,192.905 150.921,192.806 151.270 C 192.684 151.703,192.731 151.804,192.955 151.587 C 193.303 151.251,193.834 148.889,193.562 148.889 C 193.474 148.889,193.308 149.282,193.194 149.762 M201.190 191.976 C 201.758 192.046,202.687 192.046,203.254 191.976 C 203.821 191.905,203.357 191.848,202.222 191.848 C 201.087 191.848,200.623 191.905,201.190 191.976 M245.000 191.976 C 245.567 192.046,246.496 192.046,247.063 191.976 C 247.631 191.905,247.167 191.848,246.032 191.848 C 244.897 191.848,244.433 191.905,245.000 191.976 M71.878 192.496 C 71.786 192.734,71.764 193.769,71.828 194.797 L 71.943 196.667 72.003 194.514 L 72.063 192.361 80.446 192.450 C 85.057 192.499,88.763 192.433,88.681 192.302 C 88.389 191.830,72.061 192.019,71.878 192.496 M97.351 192.302 C 97.270 192.433,98.176 192.540,99.365 192.540 C 100.554 192.540,101.460 192.433,101.380 192.302 C 101.299 192.171,100.392 192.063,99.365 192.063 C 98.338 192.063,97.432 192.171,97.351 192.302 M111.672 192.294 C 112.243 192.364,113.100 192.363,113.577 192.290 C 114.054 192.218,113.587 192.160,112.540 192.162 C 111.492 192.164,111.102 192.223,111.672 192.294 M124.837 192.328 C 124.524 192.527,124.454 194.821,124.519 202.720 L 124.603 212.857 126.825 212.857 L 129.048 212.857 129.206 209.156 C 129.294 207.121,129.258 205.522,129.127 205.604 C 128.996 205.685,128.889 207.315,128.889 209.225 L 128.889 212.698 126.821 212.698 L 124.753 212.698 124.837 202.619 L 124.921 192.540 129.365 192.367 L 133.810 192.195 129.524 192.134 C 127.167 192.101,125.057 192.188,124.837 192.328 M149.905 192.444 C 149.622 192.728,149.542 195.356,149.596 202.683 L 149.669 212.540 149.834 202.540 L 150.000 192.540 152.113 192.540 C 153.276 192.540,154.160 192.433,154.079 192.302 C 153.836 191.911,150.317 192.032,149.905 192.444 M164.479 192.498 C 164.222 192.808,164.142 195.809,164.202 202.895 L 164.286 212.857 166.667 212.881 L 169.048 212.905 166.742 212.788 L 164.436 212.670 164.519 202.605 L 164.603 192.540 166.825 192.358 L 169.048 192.176 166.944 192.120 C 165.492 192.081,164.728 192.198,164.479 192.498 M177.685 192.262 C 177.561 192.386,177.460 195.011,177.460 198.095 C 177.460 203.907,177.384 204.376,176.537 203.745 C 176.114 203.430,176.118 203.462,176.557 203.944 C 177.605 205.093,177.778 204.283,177.778 198.235 L 177.778 192.381 179.841 192.381 L 181.905 192.381 181.905 202.540 L 181.905 212.698 179.550 212.698 C 177.201 212.698,177.193 212.696,176.508 211.587 C 175.882 210.575,175.210 209.943,175.748 210.873 C 176.985 213.012,177.051 213.047,179.634 212.949 L 182.063 212.857 182.063 202.540 L 182.063 192.222 179.987 192.130 C 178.844 192.079,177.809 192.139,177.685 192.262 M265.556 192.355 L 267.460 192.540 267.619 200.635 L 267.778 208.730 272.778 208.818 L 277.778 208.905 277.778 210.802 L 277.778 212.698 270.639 212.698 L 263.501 212.698 263.410 202.460 L 263.320 192.222 263.327 202.540 L 263.333 212.857 270.635 212.857 L 277.937 212.857 277.937 210.794 L 277.937 208.730 272.937 208.643 L 267.937 208.555 267.937 200.502 C 267.937 191.411,268.130 192.025,265.291 192.117 L 263.651 192.170 265.556 192.355 M286.111 192.274 C 285.808 192.396,285.731 193.990,285.784 198.995 L 285.853 205.556 286.022 199.048 L 286.190 192.540 288.095 192.355 L 290.000 192.170 288.254 192.142 C 287.294 192.126,286.329 192.186,286.111 192.274 M299.189 192.469 C 299.104 192.692,299.076 195.728,299.127 199.215 L 299.221 205.556 299.293 198.953 L 299.365 192.351 301.349 192.445 L 303.333 192.540 303.502 199.048 L 303.671 205.556 303.740 199.190 C 303.790 194.582,303.704 192.720,303.429 192.444 C 302.905 191.921,299.392 191.941,299.189 192.469 M313.477 192.463 C 313.393 192.683,313.362 197.362,313.408 202.860 L 313.492 212.857 319.127 212.868 L 324.762 212.880 319.207 212.782 L 313.651 212.684 313.651 202.541 L 313.651 192.399 318.016 192.301 L 322.381 192.203 318.006 192.133 C 314.729 192.081,313.592 192.164,313.477 192.463 M110.294 199.206 C 110.294 203.048,110.340 204.575,110.396 202.601 C 110.452 200.627,110.451 197.485,110.395 195.617 C 110.339 193.750,110.294 195.365,110.294 199.206 M114.739 199.365 C 114.739 203.294,114.784 204.901,114.840 202.937 C 114.896 200.972,114.896 197.758,114.840 195.794 C 114.784 193.829,114.739 195.437,114.739 199.365 M290.293 198.730 C 290.293 202.310,290.339 203.774,290.396 201.984 C 290.452 200.194,290.452 197.266,290.396 195.476 C 290.339 193.687,290.293 195.151,290.293 198.730 M207.619 193.104 C 207.619 193.164,208.083 193.554,208.651 193.969 C 209.289 194.437,209.511 194.513,209.232 194.170 C 208.810 193.650,207.619 192.863,207.619 193.104 M252.460 193.748 C 253.202 194.347,253.167 194.559,252.143 195.697 L 251.270 196.667 252.302 195.734 C 253.517 194.636,253.595 194.118,252.619 193.644 C 251.974 193.332,251.959 193.342,252.460 193.748 M138.933 194.762 C 139.418 195.460,139.857 196.091,139.908 196.164 C 139.959 196.237,140.000 196.160,140.000 195.993 C 140.000 195.827,139.561 195.196,139.025 194.591 L 138.049 193.492 138.933 194.762 M238.136 195.072 C 237.415 195.854,236.825 196.592,236.825 196.712 C 236.825 196.833,236.872 196.872,236.930 196.799 C 236.988 196.726,237.649 195.988,238.399 195.159 C 239.149 194.329,239.692 193.651,239.605 193.651 C 239.517 193.651,238.856 194.290,238.136 195.072 M207.763 196.270 L 206.508 197.619 207.857 196.364 C 208.599 195.674,209.206 195.067,209.206 195.015 C 209.206 194.775,208.930 195.015,207.763 196.270 M327.495 196.032 C 327.756 197.199,327.938 197.452,327.932 196.640 C 327.929 196.306,327.782 195.817,327.605 195.556 C 327.369 195.208,327.340 195.336,327.495 196.032 M201.667 196.092 C 201.972 196.172,202.472 196.172,202.778 196.092 C 203.083 196.012,202.833 195.947,202.222 195.947 C 201.611 195.947,201.361 196.012,201.667 196.092 M245.639 196.098 C 246.034 196.173,246.605 196.171,246.908 196.091 C 247.212 196.012,246.889 195.950,246.190 195.953 C 245.492 195.957,245.244 196.022,245.639 196.098 M140.159 198.889 C 140.159 200.185,140.256 201.001,140.375 200.702 C 140.493 200.403,140.590 199.587,140.590 198.889 C 140.590 198.190,140.493 197.374,140.375 197.075 C 140.256 196.776,140.159 197.592,140.159 198.889 M317.909 196.943 C 317.592 197.769,317.923 200.741,318.341 200.824 C 318.564 200.869,318.600 200.832,318.421 200.743 C 317.816 200.443,318.019 196.892,318.651 196.727 C 319.171 196.591,319.171 196.579,318.641 196.545 C 318.330 196.525,318.000 196.704,317.909 196.943 M241.466 198.096 C 240.834 198.795,240.322 199.545,240.327 199.763 C 240.332 199.981,240.494 199.873,240.686 199.524 C 240.879 199.175,241.474 198.425,242.009 197.857 C 242.544 197.290,242.899 196.825,242.798 196.825 C 242.696 196.825,242.097 197.397,241.466 198.096 M128.942 198.746 C 128.872 201.076,129.132 201.282,132.048 201.212 L 134.444 201.153 131.905 200.974 L 129.365 200.794 129.180 198.889 L 128.996 196.984 128.942 198.746 M172.658 197.937 C 172.829 198.286,173.202 198.857,173.486 199.206 L 174.003 199.841 173.692 199.206 C 173.520 198.857,173.147 198.286,172.863 197.937 L 172.346 197.302 172.658 197.937 M323.222 198.546 C 323.196 199.056,322.930 199.771,322.631 200.134 C 322.097 200.782,322.100 200.782,322.815 200.124 C 323.344 199.638,323.506 199.204,323.406 198.537 L 323.270 197.619 323.222 198.546 M168.914 201.190 C 168.930 201.544,168.999 201.597,169.104 201.336 C 169.238 201.001,169.364 201.001,169.793 201.336 C 170.262 201.702,170.271 201.687,169.882 201.190 C 169.642 200.885,169.321 200.635,169.167 200.635 C 169.014 200.635,168.900 200.885,168.914 201.190 M235.336 202.698 C 235.338 203.746,235.398 204.136,235.468 203.566 C 235.539 202.995,235.537 202.138,235.465 201.661 C 235.392 201.184,235.335 201.651,235.336 202.698 M326.182 201.597 C 325.615 202.223,325.615 202.258,326.194 202.788 C 326.760 203.305,326.769 203.304,326.367 202.772 C 326.007 202.294,326.029 202.116,326.513 201.581 C 326.826 201.235,327.011 200.952,326.924 200.952 C 326.837 200.952,326.502 201.243,326.182 201.597 M195.964 202.698 C 195.966 203.571,196.028 203.891,196.101 203.408 C 196.174 202.926,196.172 202.211,196.096 201.821 C 196.021 201.431,195.961 201.825,195.964 202.698 M202.259 203.730 C 202.239 204.821,202.330 205.714,202.463 205.714 C 202.595 205.714,202.659 205.036,202.606 204.206 C 202.450 201.794,202.299 201.586,202.259 203.730 M210.416 205.788 C 210.478 208.192,210.390 209.737,210.178 209.949 C 209.993 210.134,209.841 210.427,209.841 210.600 C 209.841 210.773,210.051 210.638,210.307 210.299 C 210.808 209.637,211.027 202.405,210.556 202.112 C 210.425 202.030,210.362 203.685,210.416 205.788 M327.272 203.754 C 327.465 204.114,327.779 204.506,327.970 204.624 C 328.219 204.778,328.218 204.653,327.966 204.183 C 327.774 203.822,327.459 203.431,327.268 203.313 C 327.019 203.159,327.020 203.284,327.272 203.754 M196.203 204.698 C 196.181 205.417,197.049 206.792,198.146 207.777 L 199.206 208.729 198.191 207.618 C 197.633 207.008,196.960 206.008,196.696 205.397 C 196.432 204.786,196.210 204.471,196.203 204.698 M318.117 204.895 C 317.901 205.154,317.784 206.063,317.840 207.038 L 317.937 208.730 320.398 208.752 L 322.859 208.773 320.462 208.659 L 318.064 208.544 318.159 206.732 L 318.254 204.921 320.429 204.826 C 322.002 204.758,322.838 204.873,323.445 205.242 L 324.286 205.752 323.536 205.098 C 322.606 204.287,318.742 204.142,318.117 204.895 M97.217 205.714 C 97.217 206.325,97.282 206.575,97.362 206.270 C 97.442 205.964,97.442 205.464,97.362 205.159 C 97.282 204.853,97.217 205.103,97.217 205.714 M101.620 205.333 C 101.581 206.208,102.284 207.651,103.056 208.277 C 103.426 208.578,103.368 208.395,102.885 207.735 C 102.485 207.188,102.043 206.259,101.905 205.672 C 101.720 204.891,101.644 204.800,101.620 205.333 M205.556 207.143 C 205.556 207.895,205.663 208.445,205.794 208.364 C 205.925 208.283,206.032 207.733,206.032 207.143 C 206.032 206.552,205.925 206.003,205.794 205.922 C 205.663 205.841,205.556 206.390,205.556 207.143 M290.496 205.983 C 290.466 206.636,291.422 208.098,292.180 208.558 C 292.718 208.884,292.682 208.781,292.002 208.056 C 291.532 207.554,291.006 206.786,290.832 206.349 C 290.658 205.913,290.507 205.748,290.496 205.983 M303.204 206.508 C 303.136 207.505,301.952 209.906,301.013 210.952 L 300.159 211.905 301.167 210.994 C 302.279 209.991,303.610 207.242,303.389 206.405 C 303.277 205.983,303.239 206.004,303.204 206.508 M324.170 206.723 C 324.146 207.191,323.902 207.798,323.628 208.073 C 323.354 208.347,323.277 208.571,323.458 208.571 C 323.960 208.571,324.501 207.355,324.349 206.571 C 324.234 205.977,324.207 206.000,324.170 206.723 M328.629 207.355 C 328.597 208.170,328.489 209.099,328.389 209.418 C 328.217 209.964,328.228 209.965,328.565 209.442 C 328.762 209.135,328.870 208.206,328.805 207.378 L 328.686 205.873 328.629 207.355 M242.123 207.857 C 242.696 208.425,243.346 208.885,243.567 208.879 C 243.788 208.874,243.683 208.712,243.333 208.519 C 242.984 208.327,242.335 207.867,241.890 207.497 C 241.445 207.128,241.551 207.290,242.123 207.857 M297.664 207.830 C 297.166 208.416,296.951 208.816,297.188 208.720 C 297.644 208.534,298.870 207.002,298.682 206.853 C 298.621 206.805,298.163 207.245,297.664 207.830 M249.885 207.947 C 249.473 208.290,249.248 208.571,249.384 208.571 C 249.521 208.571,249.884 208.344,250.190 208.067 C 251.288 207.073,254.516 209.539,253.638 210.701 C 253.231 211.241,253.241 211.241,253.827 210.698 C 254.434 210.136,254.419 210.101,252.955 208.714 C 251.290 207.135,250.959 207.052,249.885 207.947 M286.349 207.741 C 286.349 208.081,287.294 209.841,287.477 209.841 C 287.564 209.841,287.399 209.377,287.111 208.810 C 286.521 207.651,286.349 207.409,286.349 207.741 M113.802 208.594 C 113.679 208.982,112.993 209.957,112.277 210.761 L 110.975 212.222 112.181 211.111 C 113.383 210.004,114.471 208.333,114.179 208.042 C 114.095 207.958,113.926 208.206,113.802 208.594 M134.191 210.556 L 135.397 212.857 137.588 212.952 C 139.910 213.053,140.500 212.831,139.957 212.061 C 139.678 211.665,139.652 211.679,139.801 212.143 C 139.960 212.636,139.731 212.698,137.772 212.698 L 135.564 212.698 134.444 210.476 C 133.829 209.254,133.249 208.254,133.155 208.254 C 133.061 208.254,133.528 209.290,134.191 210.556 M98.372 209.365 C 98.543 209.714,98.916 210.286,99.201 210.635 L 99.718 211.270 99.406 210.635 C 99.234 210.286,98.862 209.714,98.577 209.365 L 98.060 208.730 98.372 209.365 M138.730 210.159 C 139.086 210.857,139.449 211.429,139.537 211.429 C 139.624 211.429,139.404 210.857,139.048 210.159 C 138.691 209.460,138.328 208.889,138.241 208.889 C 138.154 208.889,138.374 209.460,138.730 210.159 M194.444 210.476 C 195.126 211.175,195.756 211.746,195.843 211.746 C 195.930 211.746,195.444 211.175,194.762 210.476 C 194.080 209.778,193.451 209.206,193.363 209.206 C 193.276 209.206,193.762 209.778,194.444 210.476 M327.330 211.236 C 327.128 211.479,326.535 211.855,326.011 212.072 C 325.487 212.289,325.122 212.529,325.198 212.606 C 325.403 212.810,327.121 211.870,327.602 211.291 C 327.829 211.017,327.943 210.794,327.856 210.794 C 327.768 210.794,327.532 210.993,327.330 211.236 M100.875 211.984 C 101.286 212.377,101.793 212.694,102.002 212.689 C 102.210 212.683,102.095 212.521,101.746 212.327 C 101.397 212.133,100.890 211.816,100.619 211.622 C 100.349 211.428,100.464 211.591,100.875 211.984 M239.540 211.455 C 239.758 211.807,241.600 212.792,241.753 212.638 C 241.812 212.579,241.298 212.222,240.609 211.845 C 239.921 211.468,239.440 211.293,239.540 211.455 M251.587 211.929 C 250.889 212.347,250.460 212.690,250.635 212.692 C 251.016 212.697,253.016 211.507,253.016 211.275 C 253.016 211.067,253.082 211.037,251.587 211.929 M78.095 212.778 C 78.095 212.909,79.131 212.996,80.397 212.973 C 82.821 212.927,82.556 212.785,79.762 212.631 C 78.845 212.581,78.095 212.647,78.095 212.778 M151.905 212.698 L 149.683 212.904 151.984 212.960 C 153.344 212.993,154.286 212.886,154.286 212.698 C 154.286 212.524,154.250 212.406,154.206 212.437 C 154.163 212.468,153.127 212.585,151.905 212.698 M105.476 213.552 C 105.782 213.632,106.282 213.632,106.587 213.552 C 106.893 213.472,106.643 213.407,106.032 213.407 C 105.421 213.407,105.171 213.472,105.476 213.552 M201.667 213.552 C 201.972 213.632,202.472 213.632,202.778 213.552 C 203.083 213.472,202.833 213.407,202.222 213.407 C 201.611 213.407,201.361 213.472,201.667 213.552 M245.639 213.558 C 246.034 213.634,246.605 213.631,246.908 213.551 C 247.212 213.472,246.889 213.410,246.190 213.413 C 245.492 213.417,245.244 213.482,245.639 213.558 M101.178 227.623 C 98.567 229.677,101.312 233.887,103.986 231.931 C 104.825 231.318,104.315 230.903,103.354 231.417 C 102.375 231.941,101.663 231.670,101.265 230.621 C 100.548 228.736,101.899 227.126,103.382 228.098 C 104.433 228.787,104.818 228.374,103.854 227.592 C 102.896 226.816,102.194 226.824,101.178 227.623 M111.544 227.348 C 110.060 228.082,109.731 230.394,110.938 231.602 C 112.560 233.224,114.984 232.066,114.984 229.669 C 114.984 227.794,113.148 226.555,111.544 227.348 M147.912 227.912 C 146.728 229.096,146.671 230.509,147.763 231.602 C 148.725 232.564,150.229 232.629,151.111 231.746 C 152.031 230.826,151.949 229.841,150.952 229.841 C 150.142 229.841,149.893 230.275,150.492 230.644 C 150.719 230.785,150.707 230.992,150.453 231.298 C 149.437 232.522,147.703 230.993,148.093 229.217 C 148.387 227.880,149.327 227.417,150.366 228.098 C 151.418 228.787,151.802 228.374,150.838 227.592 C 149.793 226.744,148.992 226.832,147.912 227.912 M173.751 227.297 C 172.220 227.929,171.890 230.332,173.160 231.602 C 174.815 233.257,177.143 232.106,177.143 229.632 C 177.143 227.741,175.468 226.588,173.751 227.297 M183.020 227.382 C 182.385 227.737,182.340 231.503,182.966 232.022 C 183.501 232.466,183.810 232.172,183.810 231.217 C 183.810 230.229,184.673 230.252,185.129 231.252 C 185.761 232.640,186.437 232.572,186.196 231.144 C 186.068 230.384,186.118 229.825,186.327 229.696 C 188.038 228.639,184.811 226.379,183.020 227.382 M199.048 227.241 C 198.021 227.380,197.997 227.407,198.730 227.598 C 199.426 227.778,199.534 227.997,199.607 229.378 C 199.795 232.943,200.555 233.547,200.700 230.246 C 200.784 228.333,200.876 228.070,201.587 227.711 C 202.339 227.332,202.344 227.311,201.693 227.306 C 201.314 227.304,200.814 227.254,200.582 227.196 C 200.349 227.137,199.659 227.157,199.048 227.241 M218.252 227.305 C 218.194 227.399,218.250 227.972,218.376 228.579 C 218.503 229.186,218.504 230.254,218.379 230.952 C 218.098 232.511,218.020 232.440,219.887 232.314 L 221.429 232.210 220.317 231.880 C 218.736 231.410,218.579 230.241,220.057 229.931 L 221.111 229.709 220.159 229.534 C 218.673 229.261,218.790 227.844,220.317 227.601 C 221.393 227.430,221.380 227.419,219.893 227.279 C 219.049 227.199,218.310 227.211,218.252 227.305 M243.463 227.320 C 243.282 227.431,243.185 228.533,243.239 229.869 L 243.333 232.222 244.872 232.320 C 245.894 232.385,246.340 232.306,246.202 232.082 C 246.088 231.897,245.641 231.746,245.209 231.746 C 243.705 231.746,243.951 230.046,245.499 229.745 C 246.186 229.611,246.186 229.610,245.515 229.567 C 243.785 229.456,243.905 227.773,245.658 227.547 C 246.295 227.465,246.166 227.399,245.144 227.281 C 244.394 227.194,243.637 227.212,243.463 227.320 M262.698 227.267 L 261.746 227.488 262.619 227.718 C 263.435 227.934,263.492 228.060,263.492 229.663 C 263.492 230.605,263.578 231.602,263.684 231.877 C 264.072 232.888,264.444 231.972,264.444 230.008 C 264.444 228.095,264.490 227.973,265.317 227.671 C 266.007 227.419,266.057 227.346,265.556 227.322 C 265.206 227.306,264.635 227.237,264.286 227.169 C 263.937 227.101,263.222 227.145,262.698 227.267 M279.122 227.306 C 276.820 228.253,277.762 232.381,280.280 232.381 C 281.951 232.381,283.203 230.129,281.659 229.901 C 281.100 229.818,280.997 229.950,281.049 230.682 C 281.126 231.767,280.240 232.061,279.341 231.248 C 277.553 229.630,279.617 226.877,281.516 228.348 C 282.104 228.804,282.426 228.320,281.886 227.791 C 281.256 227.175,279.985 226.952,279.122 227.306 M120.701 229.762 L 120.794 232.222 122.139 232.320 C 123.890 232.446,125.079 231.386,125.079 229.697 C 125.079 228.042,124.192 227.302,122.209 227.302 L 120.608 227.302 120.701 229.762 M130.621 228.037 C 130.324 229.222,130.596 231.842,131.032 231.986 C 131.326 232.083,131.429 231.493,131.429 229.709 C 131.429 227.376,131.006 226.502,130.621 228.037 M137.354 227.513 C 137.090 227.777,137.075 231.199,137.335 231.877 C 137.641 232.676,138.095 232.124,138.095 230.952 C 138.095 229.356,138.549 229.355,139.855 230.949 C 141.440 232.883,141.587 232.787,141.587 229.815 C 141.587 227.121,140.901 226.244,140.695 228.675 C 140.569 230.168,140.205 230.146,139.124 228.583 C 138.282 227.366,137.796 227.072,137.354 227.513 M163.558 229.762 C 163.647 232.124,164.165 233.055,164.389 231.254 C 164.460 230.677,164.797 230.293,165.500 229.987 C 166.302 229.638,166.370 229.546,165.833 229.536 C 163.995 229.502,164.256 227.765,166.135 227.529 C 166.720 227.456,166.372 227.382,165.304 227.352 L 163.465 227.302 163.558 229.762 M207.937 229.868 C 207.937 232.469,208.603 233.451,208.828 231.181 C 209.008 229.369,211.313 229.391,211.489 231.206 C 211.672 233.096,212.222 232.084,212.315 229.685 C 212.392 227.709,212.324 227.302,211.918 227.302 C 211.585 227.302,211.429 227.608,211.429 228.264 C 211.429 229.344,210.885 229.695,209.682 229.393 C 209.058 229.237,208.889 228.992,208.889 228.248 C 208.889 227.618,208.729 227.302,208.413 227.302 C 208.029 227.302,207.937 227.798,207.937 229.868 M233.082 229.762 C 233.183 232.432,233.649 232.934,234.066 230.822 C 234.387 229.203,234.516 229.214,235.810 230.973 C 236.387 231.757,236.994 232.314,237.159 232.212 C 237.541 231.976,237.558 227.302,237.177 227.302 C 236.810 227.302,236.508 228.102,236.508 229.074 C 236.508 230.178,236.042 230.023,235.021 228.578 C 233.533 226.476,232.971 226.819,233.082 229.762 M252.977 228.494 C 253.574 229.666,253.574 229.708,252.985 230.857 C 252.257 232.276,252.641 232.662,253.681 231.556 L 254.438 230.750 255.141 231.632 C 256.036 232.754,256.515 232.333,255.788 231.065 C 255.105 229.875,255.099 229.396,255.757 228.392 C 256.476 227.294,256.043 227.033,255.044 227.962 L 254.217 228.730 253.736 228.016 C 252.879 226.742,252.276 227.121,252.977 228.494 M288.003 229.762 L 288.095 232.222 289.633 232.320 C 290.656 232.385,291.102 232.306,290.964 232.082 C 290.850 231.897,290.403 231.746,289.971 231.746 C 288.467 231.746,288.713 230.046,290.261 229.745 C 290.948 229.611,290.948 229.610,290.277 229.567 C 288.548 229.456,288.665 227.795,290.420 227.527 C 290.887 227.455,290.514 227.375,289.590 227.349 L 287.910 227.302 288.003 229.762 M296.977 228.669 C 296.864 229.422,296.819 230.458,296.878 230.971 C 297.027 232.278,297.892 232.200,298.095 230.861 C 298.303 229.495,298.580 229.539,299.724 231.118 C 300.853 232.676,301.587 232.423,301.587 230.477 C 301.587 227.751,300.772 226.133,300.575 228.468 C 300.439 230.075,299.874 230.116,298.865 228.592 C 297.761 226.924,297.235 226.945,296.977 228.669 M114.054 228.987 C 114.394 230.007,113.750 231.529,112.910 231.691 C 111.380 231.985,110.523 229.477,111.739 228.261 C 112.540 227.460,113.662 227.812,114.054 228.987 M123.421 228.113 C 124.867 229.126,123.758 232.466,122.283 231.542 C 121.303 230.928,121.493 227.619,122.508 227.619 C 122.622 227.619,123.033 227.841,123.421 228.113 M175.692 228.118 C 176.674 229.100,176.056 231.746,174.844 231.746 C 173.466 231.746,172.867 229.355,173.968 228.254 C 174.734 227.488,175.038 227.464,175.692 228.118 M185.373 228.210 C 185.787 228.983,185.076 230.030,184.332 229.744 C 183.818 229.547,183.607 228.245,184.021 227.831 C 184.415 227.437,185.056 227.616,185.373 228.210 M237.143 230.381 C 237.143 231.246,237.027 231.746,236.867 231.571 C 236.610 231.290,236.746 228.889,237.019 228.889 C 237.087 228.889,237.143 229.560,237.143 230.381 M254.603 229.683 C 254.603 229.944,254.460 230.159,254.286 230.159 C 254.111 230.159,253.968 229.944,253.968 229.683 C 253.968 229.421,254.111 229.206,254.286 229.206 C 254.460 229.206,254.603 229.421,254.603 229.683 " stroke="none" fill="#72b4df" fill-rule="evenodd"></path><path id="path3" d="M189.524 73.674 C 146.386 79.310,140.868 137.560,182.161 151.391 C 186.037 152.690,186.249 152.675,186.971 151.062 C 187.771 149.274,187.689 149.179,184.411 148.130 C 162.408 141.092,151.209 116.605,161.166 97.304 C 167.483 85.061,179.356 77.821,194.062 77.244 L 199.076 77.047 198.983 75.270 L 198.889 73.492 195.238 73.448 C 193.230 73.424,190.659 73.526,189.524 73.674 M188.889 81.078 C 183.341 82.293,179.245 84.112,175.067 87.217 C 171.513 89.858,171.443 89.967,172.551 91.123 C 173.771 92.397,173.968 92.351,176.936 90.107 C 182.160 86.156,188.384 83.932,195.174 83.591 L 199.078 83.394 198.984 81.935 L 198.889 80.476 195.556 80.413 C 193.068 80.365,191.377 80.534,188.889 81.078 M183.457 92.132 C 175.581 96.584,170.911 104.013,169.983 113.569 C 169.730 116.178,170.017 116.825,171.429 116.825 C 172.642 116.825,172.878 116.362,172.963 113.815 C 173.205 106.500,177.530 99.305,183.750 95.869 C 187.133 94.000,187.138 93.995,186.484 92.623 C 185.735 91.054,185.448 91.007,183.457 92.132 M173.730 131.639 C 173.462 131.747,173.333 132.570,173.333 134.167 L 173.333 136.535 175.794 136.442 L 178.254 136.349 178.349 134.337 C 178.472 131.751,178.193 131.422,175.914 131.454 C 174.931 131.467,173.948 131.551,173.730 131.639 M184.574 139.168 C 184.171 140.219,184.575 140.794,185.719 140.794 C 186.737 140.794,186.825 140.717,186.825 139.841 C 186.825 138.748,184.951 138.187,184.574 139.168 " stroke="none" fill="#cf4f8d" fill-rule="evenodd"></path><path id="path4" d="M206.895 73.855 C 206.670 74.219,206.463 79.909,206.668 80.086 C 206.755 80.160,207.897 80.703,209.206 81.292 C 224.749 88.286,228.040 102.354,215.319 107.428 C 211.876 108.801,210.731 110.341,210.481 113.936 L 210.317 116.285 207.060 118.159 C 203.199 120.382,203.175 120.375,203.172 117.045 C 203.162 108.852,194.648 106.084,191.064 113.108 C 189.318 116.531,190.172 119.094,195.046 125.065 C 199.369 130.362,199.218 129.490,197.006 136.377 C 192.035 151.854,184.739 175.676,184.827 176.138 C 184.956 176.804,216.554 177.129,217.345 176.472 C 217.819 176.078,217.994 163.356,217.535 162.665 C 217.407 162.472,215.791 161.717,213.945 160.986 C 208.214 158.720,207.932 158.415,203.983 150.230 L 201.490 145.063 201.712 140.865 C 201.835 138.556,202.040 136.095,202.169 135.397 L 202.402 134.127 203.564 135.714 C 204.202 136.587,205.552 138.862,206.564 140.769 C 208.618 144.643,210.510 146.811,212.752 147.858 C 214.889 148.856,221.561 151.045,224.227 151.623 C 230.784 153.043,232.409 153.347,234.444 153.535 C 237.607 153.825,236.883 153.437,233.483 153.019 C 231.917 152.826,230.135 152.539,229.524 152.381 C 228.913 152.223,226.512 151.651,224.188 151.109 C 213.438 148.602,210.336 146.765,207.309 141.111 C 205.424 137.590,203.104 134.017,202.565 133.806 C 201.827 133.517,201.685 134.120,201.263 139.333 C 200.783 145.256,200.687 144.843,204.163 151.805 C 207.467 158.420,208.118 159.082,213.492 161.286 C 213.841 161.429,214.808 161.834,215.641 162.187 L 217.156 162.827 217.070 169.429 L 216.984 176.032 209.683 176.268 C 205.667 176.397,198.524 176.469,193.810 176.426 L 185.238 176.349 185.325 175.556 C 185.373 175.119,186.061 172.690,186.854 170.159 C 188.717 164.212,190.695 157.869,192.549 151.905 C 194.796 144.672,198.401 133.334,198.911 131.894 C 199.592 129.972,199.645 130.078,195.492 124.949 C 189.867 118.002,189.294 114.768,193.056 111.210 C 197.423 107.081,202.364 110.159,202.830 117.298 C 203.066 120.928,203.169 120.952,207.474 118.405 L 210.794 116.440 210.794 114.559 C 210.794 110.936,211.828 109.533,216.000 107.494 C 225.672 102.766,226.137 93.725,217.123 85.621 C 215.236 83.924,209.676 80.755,207.686 80.241 C 206.986 80.060,206.963 79.947,207.051 77.090 L 207.143 74.127 208.298 74.193 C 216.757 74.675,232.005 84.710,237.862 93.651 C 242.989 101.477,243.603 104.413,241.203 109.622 C 239.546 113.216,240.205 116.381,244.393 124.938 C 248.039 132.389,248.041 132.611,244.445 133.492 C 241.360 134.248,240.371 135.915,241.876 137.827 C 242.992 139.246,242.857 139.787,241.270 140.260 C 237.339 141.432,237.214 142.222,240.960 142.222 C 241.993 142.222,242.570 144.951,241.655 145.509 C 240.563 146.173,240.255 147.862,240.943 149.418 C 242.133 152.107,241.265 153.526,238.304 153.735 L 236.667 153.851 238.449 153.910 C 241.483 154.009,242.846 152.003,241.429 149.524 C 240.736 148.312,240.862 147.140,241.807 146.017 C 242.511 145.181,242.647 144.740,242.573 143.532 C 242.462 141.712,242.543 141.783,240.372 141.587 L 238.571 141.424 240.873 140.810 C 243.507 140.106,243.802 139.525,242.381 137.836 C 240.782 135.935,241.787 134.219,244.735 133.813 C 248.317 133.321,248.366 132.198,245.100 125.401 C 240.670 116.180,240.002 113.245,241.576 109.917 C 243.633 105.569,243.607 103.559,241.439 99.104 C 237.155 90.302,229.671 82.752,220.623 78.104 C 215.707 75.579,207.416 73.013,206.895 73.855 M194.924 88.727 C 194.524 89.208,194.728 91.426,195.173 91.431 C 202.349 91.511,207.124 93.164,211.424 97.056 C 213.523 98.955,214.361 99.006,215.397 97.296 C 215.792 96.645,212.496 93.451,209.694 91.770 C 205.296 89.132,196.151 87.247,194.924 88.727 M200.096 89.044 C 204.428 89.412,209.625 91.806,213.333 95.140 C 215.129 96.754,215.202 96.972,214.214 97.772 C 213.516 98.337,213.485 98.325,211.804 96.789 C 207.824 93.151,202.685 91.130,197.381 91.117 C 195.884 91.113,195.237 90.992,195.234 90.714 C 195.231 90.496,195.146 90.008,195.045 89.629 C 194.845 88.884,195.552 88.595,197.143 88.771 C 197.579 88.820,198.908 88.942,200.096 89.044 M166.016 96.815 C 162.142 103.336,160.560 112.536,162.075 119.737 C 162.667 122.554,162.836 122.752,164.189 122.215 C 165.980 121.504,165.996 121.465,165.495 119.121 C 164.038 112.315,165.683 103.861,169.567 98.197 C 170.734 96.493,170.711 96.070,169.407 95.264 C 167.778 94.257,167.445 94.409,166.016 96.815 M169.102 95.589 L 170.184 96.258 169.373 97.573 C 165.015 104.645,163.560 111.514,164.918 118.610 C 165.432 121.298,165.376 121.480,163.936 121.768 L 162.970 121.962 162.436 118.679 C 161.178 110.942,162.658 103.349,166.773 96.434 C 167.816 94.682,167.701 94.723,169.102 95.589 M193.354 97.525 C 193.190 97.926,192.969 98.790,192.863 99.444 C 192.621 100.936,192.009 100.977,191.133 99.559 C 189.994 97.716,189.766 97.644,187.962 98.559 C 186.208 99.447,186.026 99.930,186.706 101.881 C 187.261 103.472,186.711 103.690,184.784 102.642 L 183.138 101.746 181.886 103.136 C 180.370 104.820,180.375 104.708,181.746 106.349 C 183.143 108.021,182.965 108.297,180.556 108.185 L 178.623 108.095 178.071 109.932 C 177.456 111.977,177.480 112.021,179.774 113.049 C 181.050 113.622,180.718 114.316,178.889 114.899 L 177.302 115.404 177.397 117.133 C 177.519 119.344,177.825 119.683,179.703 119.683 C 181.794 119.683,181.975 120.195,180.372 121.575 C 178.808 122.922,178.777 123.155,179.921 124.966 C 180.893 126.505,181.029 126.550,182.649 125.873 C 184.886 124.938,185.260 125.399,184.103 127.665 L 183.445 128.956 184.084 129.637 C 184.436 130.011,185.158 130.574,185.688 130.887 L 186.652 131.456 188.074 130.145 C 189.755 128.595,190.237 128.736,190.144 130.749 C 190.045 132.912,190.038 132.900,191.585 133.333 C 193.318 133.818,195.238 131.746,195.238 129.391 C 195.238 129.331,193.724 127.301,191.874 124.879 C 187.332 118.934,187.151 118.565,187.147 115.238 C 187.137 108.488,190.168 106.667,201.409 106.667 L 208.770 106.667 209.623 105.776 C 210.727 104.624,210.702 104.379,209.328 102.858 C 207.990 101.377,207.888 101.359,206.121 102.295 C 204.475 103.167,203.987 102.865,204.448 101.259 C 204.977 99.412,204.867 99.176,203.132 98.455 C 200.973 97.557,200.865 97.577,200.057 99.014 C 198.835 101.189,198.292 101.041,197.846 98.413 L 197.604 96.984 195.627 96.890 C 193.820 96.803,193.626 96.857,193.354 97.525 M197.045 97.540 C 197.186 97.758,197.445 98.579,197.620 99.365 C 198.082 101.434,199.022 101.493,200.175 99.524 C 200.648 98.718,201.194 98.123,201.390 98.201 C 204.650 99.503,204.493 99.380,204.244 100.438 C 203.574 103.283,204.274 104.034,206.328 102.675 L 207.690 101.773 208.938 103.111 C 210.176 104.438,210.181 104.454,209.616 105.230 L 209.048 106.012 202.210 106.022 C 191.949 106.037,188.839 107.303,186.977 112.222 C 185.433 116.299,186.539 118.731,194.641 129.074 C 195.407 130.052,193.372 133.309,192.135 133.086 C 190.755 132.838,190.476 132.426,190.476 130.635 C 190.476 128.136,189.918 127.878,188.113 129.542 L 186.664 130.877 185.396 130.037 C 183.933 129.069,183.910 128.973,184.762 127.385 C 185.980 125.112,185.369 124.323,183.073 125.200 C 181.234 125.902,181.109 125.874,180.349 124.585 C 179.469 123.094,179.474 123.075,181.005 121.647 C 182.748 120.021,182.538 119.501,180.021 119.209 C 176.992 118.857,176.658 116.191,179.524 115.236 C 181.673 114.520,181.737 113.557,179.706 112.483 C 178.933 112.074,178.260 111.699,178.212 111.651 C 178.163 111.602,178.314 110.925,178.548 110.146 L 178.973 108.730 180.796 108.816 C 183.682 108.952,184.062 108.361,182.381 106.349 C 181.055 104.762,181.061 104.878,182.229 103.511 L 183.163 102.419 184.782 103.253 C 187.243 104.521,187.746 103.837,186.928 100.335 C 186.839 99.953,188.957 98.432,189.599 98.418 C 189.727 98.415,190.203 98.973,190.657 99.659 C 192.051 101.766,193.077 101.519,193.502 98.975 C 193.627 98.229,193.890 97.514,194.086 97.386 C 194.674 97.003,196.768 97.112,197.045 97.540 M173.714 122.603 C 172.806 123.511,173.642 124.897,174.983 124.707 C 175.523 124.630,175.742 124.363,175.819 123.685 C 175.967 122.387,174.622 121.695,173.714 122.603 M175.397 123.492 C 175.397 124.073,175.206 124.313,174.683 124.387 C 174.072 124.474,173.968 124.344,173.968 123.492 C 173.968 122.640,174.072 122.510,174.683 122.597 C 175.206 122.671,175.397 122.911,175.397 123.492 M168.394 127.104 C 167.900 129.072,168.280 129.675,170.079 129.778 L 171.746 129.874 171.746 128.305 C 171.746 126.573,171.508 126.349,169.663 126.349 C 168.791 126.349,168.547 126.494,168.394 127.104 M171.200 127.837 C 171.446 129.124,171.154 129.524,169.966 129.524 C 168.921 129.524,168.889 129.486,168.889 128.254 C 168.889 126.604,170.895 126.242,171.200 127.837 M198.451 192.054 C 187.940 195.633,188.992 212.581,199.784 213.510 L 201.429 213.651 199.683 213.236 C 194.280 211.952,191.587 208.446,191.587 202.698 C 191.587 195.660,196.296 191.299,203.317 191.835 C 204.652 191.937,205.299 191.899,204.921 191.740 C 203.811 191.274,200.233 191.448,198.451 192.054 M243.603 191.672 C 243.401 191.800,244.566 191.905,246.191 191.905 C 247.816 191.905,248.981 191.800,248.779 191.672 C 248.578 191.543,247.413 191.438,246.190 191.438 C 244.968 191.438,243.804 191.543,243.603 191.672 M71.304 192.566 C 70.146 195.584,71.331 197.143,74.785 197.143 L 77.460 197.143 77.465 204.841 C 77.471 213.935,77.274 213.389,80.504 213.268 L 83.016 213.175 83.101 205.253 C 83.197 196.344,83.032 196.839,85.828 197.054 C 89.079 197.303,89.572 196.942,89.459 194.393 C 89.407 193.227,89.222 192.225,89.048 192.167 C 88.850 192.102,88.769 192.889,88.834 194.252 L 88.938 196.443 86.045 196.555 C 82.330 196.698,82.550 196.147,82.545 205.317 L 82.540 213.016 80.317 213.016 L 78.095 213.016 78.095 205.072 L 78.095 197.127 77.281 196.818 C 76.833 196.647,75.393 196.508,74.080 196.508 L 71.694 196.508 71.799 194.285 C 71.901 192.152,71.713 191.500,71.304 192.566 M96.626 192.532 C 96.049 194.034,96.699 206.847,97.435 208.501 C 98.707 211.358,101.983 213.736,104.481 213.614 C 105.122 213.583,105.141 213.555,104.603 213.435 C 98.308 212.024,97.302 210.140,97.302 199.762 C 97.302 192.781,97.150 191.164,96.626 192.532 M101.595 198.968 C 101.799 207.462,102.221 208.568,105.458 209.093 C 109.291 209.715,110.156 207.914,110.158 199.312 C 110.158 194.107,110.255 192.395,110.556 192.274 C 110.793 192.178,110.729 192.104,110.397 192.089 C 109.884 192.065,109.841 192.587,109.841 198.810 C 109.840 206.564,109.653 207.327,107.487 208.385 C 106.359 208.935,106.126 208.950,104.976 208.543 C 102.532 207.679,102.402 207.242,102.222 199.289 C 102.126 195.039,101.938 192.232,101.746 192.168 C 101.538 192.099,101.486 194.432,101.595 198.968 M114.524 192.274 C 115.154 192.528,115.075 205.395,114.431 207.566 C 113.615 210.313,111.444 212.367,108.525 213.152 C 107.214 213.505,107.043 213.612,107.778 213.623 C 113.165 213.702,115.536 209.131,115.539 198.657 C 115.541 192.644,115.460 192.050,114.649 192.089 C 114.319 192.104,114.273 192.173,114.524 192.274 M124.202 202.619 L 124.286 213.175 126.617 213.268 C 129.810 213.397,129.841 213.357,129.841 209.145 C 129.841 204.306,130.439 204.373,133.175 209.524 L 135.115 213.175 137.875 213.266 C 141.276 213.379,141.255 213.477,138.817 208.887 L 136.998 205.465 138.614 204.013 C 143.035 200.038,140.895 192.705,135.170 192.208 L 133.492 192.063 135.282 192.475 C 141.011 193.794,142.567 201.262,137.747 204.305 C 136.218 205.270,136.151 204.808,138.435 209.089 C 140.611 213.168,140.627 213.104,137.427 212.953 L 135.397 212.857 133.492 209.206 C 131.615 205.608,131.571 205.556,130.476 205.556 L 129.365 205.556 129.206 209.206 L 129.048 212.857 126.825 212.857 L 124.603 212.857 124.519 202.720 C 124.454 194.821,124.524 192.527,124.837 192.328 C 125.126 192.144,125.082 192.072,124.678 192.068 C 124.153 192.064,124.124 192.714,124.202 202.619 M149.351 192.463 C 149.266 192.683,149.235 197.433,149.281 203.019 L 149.365 213.175 151.947 213.266 C 154.460 213.355,154.533 213.337,154.725 212.573 C 154.955 211.659,154.924 193.076,154.692 192.471 C 154.220 191.241,154.135 193.027,154.215 202.540 L 154.302 213.016 152.106 213.016 C 150.396 213.016,149.867 212.905,149.717 212.514 C 149.327 211.498,149.502 192.848,149.905 192.444 C 150.201 192.148,150.199 192.063,149.895 192.063 C 149.680 192.063,149.435 192.243,149.351 192.463 M163.954 192.463 C 163.869 192.683,163.838 197.433,163.884 203.019 L 163.968 213.175 166.480 213.268 C 169.655 213.387,169.513 213.664,169.519 207.317 C 169.523 203.470,169.617 202.189,169.879 202.450 C 170.074 202.645,171.702 205.138,173.497 207.990 L 176.760 213.175 179.571 213.175 L 182.381 213.175 182.465 202.619 C 182.511 196.813,182.439 192.063,182.306 192.063 C 182.173 192.063,182.063 196.742,182.063 202.460 L 182.063 212.857 179.537 212.857 L 177.011 212.857 174.617 209.035 C 173.300 206.932,171.604 204.228,170.848 203.024 C 169.033 200.134,168.900 200.432,168.894 207.395 L 168.889 213.044 166.587 212.950 L 164.286 212.857 164.202 202.895 C 164.142 195.809,164.222 192.808,164.479 192.498 C 164.749 192.173,164.747 192.063,164.473 192.063 C 164.272 192.063,164.038 192.243,163.954 192.463 M169.162 192.347 C 169.400 192.498,171.191 195.174,173.143 198.294 C 175.095 201.415,176.829 203.933,176.997 203.890 C 177.355 203.799,177.736 192.062,177.381 192.063 C 177.250 192.063,177.143 194.663,177.143 197.841 C 177.143 202.042,177.048 203.524,176.794 203.270 C 176.421 202.897,175.793 201.910,172.097 195.888 C 170.659 193.547,169.551 192.065,169.239 192.068 C 168.831 192.072,168.816 192.128,169.162 192.347 M207.143 192.796 C 209.728 194.020,209.823 194.324,208.166 196.077 L 206.751 197.575 205.062 196.848 C 198.102 193.854,192.765 202.796,198.504 207.835 C 200.926 209.962,205.556 209.506,205.556 207.141 L 205.556 205.873 203.889 205.777 L 202.222 205.681 202.222 203.784 L 202.222 201.886 206.429 201.975 L 210.635 202.063 210.724 205.906 L 210.812 209.748 209.789 210.748 C 208.520 211.989,206.517 212.979,204.530 213.348 L 203.016 213.629 204.694 213.495 C 209.415 213.117,211.157 210.994,211.041 205.758 L 210.952 201.746 206.508 201.746 L 202.063 201.746 202.063 203.810 L 202.063 205.873 203.749 205.970 L 205.434 206.066 205.336 207.081 C 205.043 210.110,198.921 209.087,197.222 205.724 C 194.388 200.114,199.656 194.553,205.161 197.343 L 206.810 198.178 208.322 196.470 C 209.154 195.531,209.836 194.585,209.838 194.369 C 209.842 193.865,207.627 192.461,206.455 192.225 C 205.872 192.108,206.115 192.309,207.143 192.796 M240.794 192.593 C 237.252 194.469,235.330 197.555,235.093 201.746 L 234.950 204.286 235.248 201.943 C 235.813 197.511,237.710 194.609,241.111 192.978 C 242.159 192.475,242.730 192.070,242.381 192.076 C 242.032 192.083,241.317 192.316,240.794 192.593 M250.317 192.485 C 253.645 193.790,253.843 194.205,252.044 196.111 C 250.568 197.675,250.672 197.651,248.964 196.825 C 244.815 194.821,239.995 197.846,240.002 202.450 C 240.010 207.836,245.416 210.970,249.694 208.067 C 251.091 207.119,251.559 207.232,253.191 208.914 L 254.444 210.206 253.492 211.005 C 252.283 212.019,250.211 212.976,248.486 213.316 L 247.143 213.581 248.254 213.613 C 250.208 213.669,254.603 211.280,254.603 210.162 C 254.603 208.621,250.722 206.399,249.855 207.444 C 247.629 210.126,241.528 208.382,240.783 204.849 C 240.680 204.365,240.542 203.697,240.474 203.365 C 239.513 198.628,244.683 194.997,249.069 197.329 L 250.613 198.150 252.329 196.365 C 254.025 194.600,254.038 194.572,253.451 193.922 C 252.715 193.109,250.695 192.055,249.933 192.088 C 249.575 192.103,249.718 192.250,250.317 192.485 M262.932 202.619 L 263.016 213.175 270.613 213.260 C 279.194 213.356,278.718 213.503,278.725 210.753 C 278.732 208.318,278.662 208.286,273.153 208.183 L 268.413 208.095 268.328 200.079 C 268.250 192.708,268.199 192.066,267.693 192.089 C 267.361 192.104,267.301 192.177,267.540 192.274 C 267.843 192.396,267.937 194.343,267.937 200.495 L 267.937 208.555 272.937 208.643 L 277.937 208.730 277.937 210.794 L 277.937 212.857 270.635 212.857 L 263.333 212.857 263.249 202.720 C 263.184 194.821,263.254 192.527,263.567 192.328 C 263.856 192.144,263.812 192.072,263.408 192.068 C 262.883 192.064,262.854 192.714,262.932 202.619 M285.397 198.990 C 285.397 209.507,287.100 212.951,292.565 213.483 L 294.127 213.635 292.713 213.331 C 289.381 212.615,286.772 209.925,286.084 206.498 C 285.562 203.900,285.584 192.486,286.111 192.274 C 286.348 192.178,286.284 192.104,285.952 192.089 C 285.439 192.065,285.397 192.595,285.397 198.990 M290.079 192.274 C 290.379 192.395,290.476 194.029,290.476 198.926 C 290.476 203.716,290.590 205.685,290.911 206.439 C 292.357 209.832,296.654 210.050,298.521 206.825 C 298.999 206.000,299.350 192.014,298.889 192.168 C 298.696 192.233,298.509 195.073,298.413 199.391 C 298.229 207.621,297.742 208.889,294.762 208.889 C 291.641 208.889,290.973 207.196,290.846 198.968 C 290.751 192.768,290.686 192.066,290.211 192.089 C 289.881 192.104,289.832 192.174,290.079 192.274 M303.484 192.530 C 304.251 193.454,303.781 206.504,302.913 208.409 C 301.713 211.042,299.558 212.763,296.779 213.310 C 295.426 213.575,295.421 213.582,296.508 213.609 C 298.863 213.668,301.729 211.705,303.111 209.086 C 304.221 206.981,304.678 192.063,303.632 192.063 C 303.197 192.063,303.169 192.151,303.484 192.530 M312.891 192.566 C 312.785 192.842,312.698 197.402,312.698 202.698 C 312.698 207.995,312.785 212.555,312.891 212.831 C 313.224 213.699,324.406 213.562,326.253 212.668 C 329.738 210.981,330.383 206.281,327.542 203.278 L 326.589 202.271 327.277 201.304 C 329.888 197.638,327.797 192.501,323.569 192.193 L 322.063 192.083 323.434 192.378 C 327.650 193.285,329.392 197.775,326.829 201.134 L 325.930 202.314 326.925 203.141 C 329.892 205.608,329.405 210.604,326.030 212.308 C 324.685 212.988,324.285 213.024,319.048 212.943 L 313.492 212.857 313.492 202.460 C 313.492 192.809,313.397 191.247,312.891 192.566 M129.747 196.710 C 129.265 196.852,129.192 197.177,129.271 198.836 L 129.365 200.794 131.971 200.886 C 135.512 201.011,136.993 199.511,135.317 197.498 C 134.752 196.818,131.128 196.306,129.747 196.710 M318.651 196.712 C 317.650 197.000,317.858 200.563,318.891 200.823 C 321.677 201.522,324.641 198.755,322.770 197.202 C 322.301 196.813,319.469 196.476,318.651 196.712 M134.921 197.620 C 136.318 199.303,135.109 200.635,132.183 200.635 L 129.841 200.635 129.841 198.889 L 129.841 197.143 132.183 197.143 C 133.880 197.143,134.635 197.274,134.921 197.620 M322.633 197.808 C 323.537 199.249,321.586 200.902,319.351 200.586 C 318.650 200.487,318.562 200.307,318.475 198.794 L 318.378 197.112 320.347 197.207 C 321.727 197.273,322.410 197.453,322.633 197.808 M235.270 205.176 C 235.149 208.557,239.785 213.112,243.732 213.490 L 245.238 213.635 243.895 213.343 C 239.658 212.422,236.519 209.453,235.584 205.481 C 235.336 204.429,235.298 204.392,235.270 205.176 M318.307 204.974 C 318.190 205.090,318.095 205.947,318.095 206.878 L 318.095 208.571 320.612 208.571 C 323.972 208.571,325.530 206.733,323.421 205.256 C 322.706 204.755,318.744 204.536,318.307 204.974 M323.371 205.886 C 324.441 207.519,323.596 208.299,320.873 208.189 L 318.571 208.095 318.470 207.033 C 318.299 205.248,318.497 205.079,320.776 205.079 C 322.639 205.079,322.895 205.159,323.371 205.886 M100.504 227.643 C 98.055 230.555,101.674 234.594,104.524 232.128 C 105.821 231.006,104.705 229.912,103.212 230.844 C 102.259 231.439,101.531 230.953,101.646 229.796 C 101.782 228.434,102.612 227.934,103.462 228.703 C 104.746 229.865,105.678 228.536,104.444 227.302 C 103.416 226.274,101.518 226.438,100.504 227.643 M110.620 227.446 C 108.932 229.135,110.007 232.701,112.224 232.764 C 114.343 232.824,115.556 231.660,115.556 229.564 C 115.556 227.072,112.364 225.702,110.620 227.446 M120.452 227.092 C 120.362 227.325,120.331 228.647,120.383 230.028 L 120.476 232.540 122.082 232.634 C 125.179 232.815,126.757 229.585,124.618 227.446 C 123.719 226.548,120.757 226.296,120.452 227.092 M130.293 227.092 C 129.728 228.565,130.324 232.540,131.111 232.540 C 131.938 232.540,132.425 229.419,131.915 227.388 C 131.715 226.590,130.566 226.381,130.293 227.092 M136.960 227.092 C 136.441 228.444,136.989 232.540,137.702 232.642 C 138.282 232.724,138.457 232.556,138.615 231.769 C 138.858 230.549,139.064 230.548,139.964 231.765 C 141.544 233.903,142.964 230.936,142.068 227.367 C 141.807 226.325,140.518 226.516,140.370 227.619 C 140.193 228.939,139.799 228.994,139.062 227.801 C 138.349 226.647,137.270 226.283,136.960 227.092 M148.009 226.879 C 145.884 227.734,146.504 232.351,148.802 232.790 C 150.740 233.160,153.115 230.949,152.097 229.722 C 151.898 229.483,151.827 229.047,151.939 228.754 C 152.444 227.438,149.780 226.167,148.009 226.879 M163.315 227.076 C 162.803 228.411,163.333 232.540,164.030 232.639 C 164.604 232.721,164.763 232.540,164.938 231.607 C 165.124 230.614,165.264 230.476,166.089 230.476 C 167.401 230.476,167.278 229.100,165.952 228.947 C 164.750 228.809,164.854 228.316,166.111 228.195 C 166.898 228.119,167.143 227.945,167.143 227.460 C 167.143 226.655,163.613 226.300,163.315 227.076 M173.111 227.144 C 171.070 228.573,171.786 232.188,174.228 232.787 C 176.981 233.462,178.864 229.911,176.956 227.643 C 176.019 226.530,174.306 226.307,173.111 227.144 M182.422 227.381 C 182.137 228.447,182.192 231.842,182.503 232.333 C 182.910 232.975,183.954 232.634,184.070 231.822 C 184.202 230.893,184.553 230.922,185.079 231.905 C 185.518 232.723,186.466 232.963,186.844 232.351 C 186.962 232.159,186.874 231.657,186.647 231.233 C 186.331 230.642,186.322 230.377,186.610 230.089 C 187.258 229.441,187.062 227.709,186.279 227.161 C 185.131 226.357,182.659 226.498,182.422 227.381 M197.833 227.367 C 197.900 227.835,198.187 228.131,198.637 228.195 C 199.268 228.285,199.346 228.504,199.430 230.414 C 199.585 233.920,201.255 233.635,201.265 230.101 C 201.269 228.475,201.340 228.288,201.984 228.197 C 204.049 227.903,202.749 226.827,200.214 226.732 C 197.783 226.641,197.732 226.655,197.833 227.367 M207.501 227.152 C 207.206 227.919,207.268 231.837,207.583 232.333 C 208.048 233.067,209.028 232.614,209.207 231.583 C 209.446 230.204,210.873 230.207,211.110 231.587 C 211.227 232.269,211.476 232.568,211.986 232.641 C 212.682 232.740,212.698 232.672,212.698 229.683 C 212.698 226.691,212.682 226.625,211.984 226.724 C 211.433 226.802,211.247 227.066,211.169 227.876 C 211.027 229.349,209.460 229.271,209.206 227.778 C 209.021 226.694,207.842 226.262,207.501 227.152 M217.595 227.092 C 217.505 227.325,217.474 228.647,217.525 230.028 L 217.619 232.540 219.683 232.540 C 221.991 232.540,222.728 231.736,220.702 231.429 C 219.384 231.228,219.266 230.686,220.494 230.473 C 221.771 230.252,221.818 229.092,220.556 228.947 C 219.396 228.814,219.432 228.254,220.601 228.254 C 221.502 228.254,222.103 227.562,221.728 226.955 C 221.435 226.480,217.783 226.601,217.595 227.092 M232.833 227.092 C 232.314 228.444,232.862 232.540,233.575 232.642 C 234.155 232.724,234.330 232.556,234.488 231.769 C 234.731 230.549,234.937 230.548,235.837 231.765 C 237.417 233.903,238.837 230.936,237.941 227.367 C 237.634 226.142,236.389 226.547,236.190 227.937 L 236.032 229.048 235.121 227.857 C 234.205 226.660,233.136 226.302,232.833 227.092 M242.998 227.076 C 242.905 227.318,242.871 228.647,242.922 230.028 L 243.016 232.540 244.916 232.540 C 246.474 232.540,246.836 232.439,246.924 231.984 C 247.009 231.539,246.806 231.429,245.896 231.429 C 245.100 231.429,244.762 231.287,244.762 230.952 C 244.762 230.634,245.080 230.476,245.724 230.476 C 246.314 230.476,246.762 230.279,246.882 229.968 C 247.110 229.374,246.490 228.901,245.476 228.894 C 244.370 228.886,244.634 228.307,245.794 228.195 C 246.581 228.119,246.825 227.945,246.825 227.460 C 246.825 226.655,243.295 226.300,242.998 227.076 M251.901 226.990 C 251.791 227.168,252.017 227.824,252.403 228.449 L 253.105 229.585 252.445 230.885 C 252.082 231.601,251.856 232.301,251.943 232.442 C 252.203 232.864,253.228 232.732,253.651 232.222 C 253.868 231.960,254.228 231.746,254.449 231.746 C 254.671 231.746,254.935 231.960,255.035 232.222 C 255.243 232.764,256.367 232.865,256.673 232.371 C 256.785 232.190,256.579 231.540,256.217 230.926 L 255.559 229.810 256.204 228.545 C 257.096 226.797,255.826 225.611,254.905 227.331 L 254.549 227.996 253.841 227.331 C 253.081 226.618,252.225 226.467,251.901 226.990 M261.587 227.309 C 261.587 227.700,261.893 228.069,262.365 228.248 C 263.061 228.513,263.154 228.755,263.238 230.542 C 263.362 233.149,264.540 233.612,264.687 231.111 C 264.807 229.055,265.035 228.254,265.498 228.254 C 266.103 228.254,266.641 227.603,266.449 227.104 C 266.143 226.307,261.587 226.500,261.587 227.309 M278.240 227.446 C 276.637 229.048,277.479 232.497,279.524 232.707 C 282.054 232.965,282.956 232.106,282.742 229.638 C 282.487 226.693,280.137 225.549,278.240 227.446 M287.760 227.076 C 287.667 227.318,287.633 228.647,287.684 230.028 L 287.778 232.540 289.678 232.540 C 291.236 232.540,291.598 232.439,291.686 231.984 C 291.771 231.539,291.568 231.429,290.658 231.429 C 289.861 231.429,289.524 231.287,289.524 230.952 C 289.524 230.634,289.842 230.476,290.486 230.476 C 291.076 230.476,291.524 230.279,291.644 229.968 C 291.871 229.374,291.252 228.901,290.238 228.894 C 289.132 228.886,289.395 228.307,290.556 228.195 C 291.343 228.119,291.587 227.945,291.587 227.460 C 291.587 226.655,288.057 226.300,287.760 227.076 M296.642 227.092 C 296.077 228.565,296.673 232.540,297.460 232.540 C 298.090 232.540,298.275 232.359,298.354 231.667 C 298.483 230.545,298.760 230.566,299.646 231.765 C 301.067 233.687,301.746 233.015,301.746 229.687 C 301.746 226.319,300.063 224.944,299.993 228.254 C 299.977 229.022,299.943 229.009,298.956 227.857 C 297.920 226.647,296.938 226.322,296.642 227.092 M103.854 227.592 C 104.818 228.374,104.433 228.787,103.382 228.098 C 101.899 227.126,100.548 228.736,101.265 230.621 C 101.663 231.670,102.375 231.941,103.354 231.417 C 104.315 230.903,104.825 231.318,103.986 231.931 C 101.312 233.887,98.567 229.677,101.178 227.623 C 102.194 226.824,102.896 226.816,103.854 227.592 M114.397 227.918 C 115.241 228.745,115.171 230.645,114.262 231.612 C 112.278 233.724,109.267 231.193,110.512 228.460 C 111.197 226.958,113.142 226.687,114.397 227.918 M150.838 227.592 C 151.802 228.374,151.418 228.787,150.366 228.098 C 149.327 227.417,148.387 227.880,148.093 229.217 C 147.703 230.993,149.437 232.522,150.453 231.298 C 150.707 230.992,150.719 230.785,150.492 230.644 C 149.893 230.275,150.142 229.841,150.952 229.841 C 151.949 229.841,152.031 230.826,151.111 231.746 C 150.229 232.629,148.725 232.564,147.763 231.602 C 145.641 229.479,148.525 225.717,150.838 227.592 M176.587 227.852 C 177.402 228.586,177.326 230.717,176.453 231.646 C 174.463 233.764,171.303 230.861,172.719 228.215 C 173.396 226.951,175.381 226.765,176.587 227.852 M186.270 227.696 C 186.755 228.085,186.793 229.408,186.327 229.696 C 186.118 229.825,186.068 230.384,186.196 231.144 C 186.437 232.572,185.761 232.640,185.129 231.252 C 184.673 230.252,183.810 230.229,183.810 231.217 C 183.810 232.172,183.501 232.466,182.966 232.022 C 182.340 231.503,182.385 227.737,183.020 227.382 C 183.607 227.053,185.725 227.258,186.270 227.696 M201.693 227.306 C 202.344 227.311,202.339 227.332,201.587 227.711 C 200.876 228.070,200.784 228.333,200.700 230.246 C 200.555 233.547,199.795 232.943,199.607 229.378 C 199.534 227.997,199.426 227.778,198.730 227.598 C 197.997 227.407,198.021 227.380,199.048 227.241 C 199.659 227.157,200.349 227.137,200.582 227.196 C 200.814 227.254,201.314 227.304,201.693 227.306 M220.317 227.601 C 218.790 227.844,218.673 229.261,220.159 229.534 L 221.111 229.709 220.079 229.926 C 218.926 230.168,218.606 231.309,219.603 231.624 C 221.350 232.175,221.386 232.339,219.762 232.359 L 218.095 232.381 218.095 229.894 C 218.095 226.941,217.986 227.099,219.898 227.279 C 221.383 227.420,221.395 227.429,220.317 227.601 M245.658 227.547 C 243.905 227.773,243.785 229.456,245.515 229.567 C 246.186 229.610,246.186 229.611,245.499 229.745 C 243.951 230.046,243.705 231.746,245.209 231.746 C 245.641 231.746,246.088 231.897,246.202 232.082 C 246.340 232.306,245.894 232.385,244.872 232.320 L 243.333 232.222 243.239 229.869 C 243.132 227.204,243.238 227.061,245.144 227.281 C 246.166 227.399,246.295 227.465,245.658 227.547 M265.556 227.322 C 266.057 227.346,266.007 227.419,265.317 227.671 C 264.490 227.973,264.444 228.095,264.444 230.008 C 264.444 231.972,264.072 232.888,263.684 231.877 C 263.578 231.602,263.492 230.605,263.492 229.663 C 263.492 228.060,263.435 227.934,262.619 227.718 L 261.746 227.488 262.698 227.267 C 263.222 227.145,263.937 227.101,264.286 227.169 C 264.635 227.237,265.206 227.306,265.556 227.322 M281.886 227.791 C 282.426 228.320,282.104 228.804,281.516 228.348 C 279.617 226.877,277.553 229.630,279.341 231.248 C 280.240 232.061,281.126 231.767,281.049 230.682 C 280.997 229.950,281.100 229.818,281.659 229.901 C 282.597 230.039,282.669 230.544,281.890 231.534 C 280.064 233.855,276.984 231.335,278.091 228.425 C 278.625 227.020,280.738 226.668,281.886 227.791 M124.444 227.937 C 126.130 229.622,124.616 232.499,122.139 232.320 L 120.794 232.222 120.701 229.762 L 120.608 227.302 122.209 227.302 C 123.386 227.302,123.977 227.469,124.444 227.937 M131.429 229.709 C 131.429 231.493,131.326 232.083,131.032 231.986 C 130.596 231.842,130.324 229.222,130.621 228.037 C 131.006 226.502,131.429 227.376,131.429 229.709 M139.124 228.583 C 140.205 230.146,140.569 230.168,140.695 228.675 C 140.901 226.244,141.587 227.121,141.587 229.815 C 141.587 232.787,141.440 232.883,139.855 230.949 C 138.549 229.355,138.095 229.356,138.095 230.952 C 138.095 232.124,137.641 232.676,137.335 231.877 C 137.075 231.199,137.090 227.777,137.354 227.513 C 137.796 227.072,138.282 227.366,139.124 228.583 M166.135 227.529 C 164.256 227.765,163.995 229.502,165.833 229.536 C 166.370 229.546,166.302 229.638,165.500 229.987 C 164.797 230.293,164.460 230.677,164.389 231.254 C 164.165 233.055,163.647 232.124,163.558 229.762 L 163.465 227.302 165.304 227.352 C 166.372 227.382,166.720 227.456,166.135 227.529 M208.889 228.248 C 208.889 228.992,209.058 229.237,209.682 229.393 C 210.885 229.695,211.429 229.344,211.429 228.264 C 211.429 227.608,211.585 227.302,211.918 227.302 C 212.324 227.302,212.392 227.709,212.315 229.685 C 212.222 232.084,211.672 233.096,211.489 231.206 C 211.313 229.391,209.008 229.369,208.828 231.181 C 208.603 233.451,207.937 232.469,207.937 229.868 C 207.937 227.798,208.029 227.302,208.413 227.302 C 208.729 227.302,208.889 227.618,208.889 228.248 M235.021 228.578 C 236.042 230.023,236.508 230.178,236.508 229.074 C 236.508 228.102,236.810 227.302,237.177 227.302 C 237.558 227.302,237.541 231.976,237.159 232.212 C 236.994 232.314,236.387 231.757,235.810 230.973 C 234.516 229.214,234.387 229.203,234.066 230.822 C 233.649 232.934,233.183 232.432,233.082 229.762 C 232.971 226.819,233.533 226.476,235.021 228.578 M253.736 228.016 L 254.217 228.730 255.044 227.962 C 256.043 227.033,256.476 227.294,255.757 228.392 C 255.099 229.396,255.105 229.875,255.788 231.065 C 256.515 232.333,256.036 232.754,255.141 231.632 L 254.438 230.750 253.681 231.556 C 252.641 232.662,252.257 232.276,252.985 230.857 C 253.574 229.708,253.574 229.666,252.977 228.494 C 252.276 227.121,252.879 226.742,253.736 228.016 M290.420 227.527 C 288.665 227.795,288.548 229.456,290.277 229.567 C 290.948 229.610,290.948 229.611,290.261 229.745 C 288.713 230.046,288.467 231.746,289.971 231.746 C 290.403 231.746,290.850 231.897,290.964 232.082 C 291.102 232.306,290.656 232.385,289.633 232.320 L 288.095 232.222 288.003 229.762 L 287.910 227.302 289.590 227.349 C 290.514 227.375,290.887 227.455,290.420 227.527 M298.865 228.592 C 299.874 230.116,300.439 230.075,300.575 228.468 C 300.772 226.133,301.587 227.751,301.587 230.477 C 301.587 232.423,300.853 232.676,299.724 231.118 C 298.580 229.539,298.303 229.495,298.095 230.861 C 297.892 232.200,297.027 232.278,296.878 230.971 C 296.507 227.718,297.500 226.529,298.865 228.592 M111.739 228.261 C 110.940 229.060,110.932 230.533,111.722 231.248 C 112.540 231.988,113.394 231.774,113.909 230.699 C 114.795 228.852,113.077 226.923,111.739 228.261 M121.924 228.072 C 121.381 228.726,121.630 231.132,122.283 231.542 C 123.758 232.466,124.867 229.126,123.421 228.113 C 122.553 227.505,122.398 227.501,121.924 228.072 M173.968 228.254 C 172.867 229.355,173.466 231.746,174.844 231.746 C 175.528 231.746,176.190 230.731,176.190 229.683 C 176.190 227.874,175.069 227.153,173.968 228.254 M184.021 227.831 C 183.607 228.245,183.818 229.547,184.332 229.744 C 185.076 230.030,185.787 228.983,185.373 228.210 C 185.056 227.616,184.415 227.437,184.021 227.831 M113.425 228.919 C 113.950 229.752,113.430 231.170,112.642 231.052 C 111.822 230.930,111.417 229.934,111.786 228.945 C 112.091 228.124,112.916 228.111,113.425 228.919 M123.429 228.635 C 124.215 229.421,123.673 231.111,122.635 231.111 C 122.357 231.111,122.222 230.643,122.222 229.683 C 122.222 228.217,122.644 227.851,123.429 228.635 M150.343 228.613 C 150.465 228.811,150.319 229.110,150.018 229.279 C 149.628 229.497,149.527 229.812,149.668 230.374 C 149.829 231.014,149.759 231.142,149.298 231.055 C 148.715 230.944,148.364 229.570,148.697 228.703 C 148.902 228.167,150.029 228.105,150.343 228.613 M175.648 228.919 C 176.172 229.752,175.652 231.170,174.865 231.052 C 174.044 230.930,173.640 229.934,174.008 228.945 C 174.314 228.124,175.139 228.111,175.648 228.919 M185.079 228.730 C 185.079 228.992,184.865 229.206,184.603 229.206 C 184.341 229.206,184.127 228.992,184.127 228.730 C 184.127 228.468,184.341 228.254,184.603 228.254 C 184.865 228.254,185.079 228.468,185.079 228.730 M280.922 228.693 C 281.204 229.033,281.169 229.177,280.765 229.332 C 280.411 229.468,280.293 229.783,280.396 230.321 C 280.594 231.359,279.794 231.386,279.326 230.358 C 278.692 228.966,280.008 227.593,280.922 228.693 " stroke="none" fill="#577caa" fill-rule="evenodd"></path></g></svg>