<svg id="svg" version="1.1" xmlns="http://www.w3.org/2000/svg" xmlns:xlink="http://www.w3.org/1999/xlink" width="400" height="317.2905525846702" viewBox="0, 0, 400,317.2905525846702"><g id="svgg"><path id="path0" d="M206.171 73.037 C 205.841 73.402,205.787 73.658,206.011 73.797 C 206.197 73.912,206.349 73.787,206.349 73.521 C 206.349 73.240,206.533 73.106,206.784 73.203 C 207.024 73.295,207.296 73.171,207.389 72.928 C 207.630 72.301,206.768 72.378,206.171 73.037 M205.746 78.378 C 205.699 80.931,205.705 80.952,206.500 80.952 C 206.941 80.952,207.302 81.095,207.302 81.270 C 207.302 81.444,207.730 81.587,208.254 81.587 C 208.778 81.587,209.207 81.694,209.207 81.825 C 209.208 81.956,210.029 82.487,211.033 83.004 C 212.036 83.521,212.929 84.021,213.016 84.115 C 213.103 84.209,213.460 84.336,213.810 84.397 C 214.159 84.458,214.535 84.653,214.645 84.831 C 214.777 85.044,215.046 85.025,215.438 84.775 C 215.897 84.482,215.911 84.434,215.499 84.560 C 215.207 84.650,214.778 84.491,214.547 84.206 C 214.242 83.830,214.236 83.753,214.524 83.926 C 214.751 84.063,214.921 84.005,214.921 83.791 C 214.921 83.049,217.869 84.126,220.349 85.773 C 224.221 88.346,226.341 91.964,228.127 99.048 C 228.545 100.706,229.025 102.563,229.194 103.175 C 230.538 108.046,232.175 116.395,231.917 117.067 C 231.352 118.538,223.660 115.190,221.739 112.636 C 220.663 111.206,219.381 110.730,217.553 111.081 C 214.951 111.582,214.680 111.963,214.555 115.304 C 214.469 117.600,214.286 118.556,213.730 119.613 C 212.384 122.174,212.946 123.746,216.338 126.909 C 218.933 129.328,223.338 131.746,225.151 131.746 C 225.523 131.746,226.293 131.914,226.860 132.119 C 227.910 132.499,231.163 132.019,231.889 131.377 C 232.055 131.231,232.439 131.111,232.744 131.111 C 233.048 131.111,233.797 130.816,234.408 130.455 C 236.796 129.047,238.339 131.808,236.377 133.979 C 235.751 134.673,235.238 135.359,235.238 135.504 C 235.238 136.144,235.724 136.143,236.409 135.499 C 237.003 134.941,237.230 134.882,237.544 135.200 C 237.856 135.517,237.823 135.682,237.381 136.009 C 236.799 136.439,236.627 137.143,237.104 137.143 C 237.257 137.143,237.572 136.915,237.803 136.636 C 238.118 136.257,238.536 136.180,239.466 136.329 C 240.443 136.485,240.801 136.406,241.138 135.962 C 241.630 135.314,241.723 134.799,241.302 135.059 C 240.648 135.464,238.994 134.844,239.148 134.252 C 239.249 133.869,239.085 133.605,238.664 133.471 C 238.155 133.309,238.066 133.084,238.215 132.338 C 238.317 131.826,238.262 130.733,238.091 129.910 C 237.921 129.086,237.640 127.198,237.467 125.714 C 237.294 124.230,236.856 121.087,236.494 118.730 C 236.131 116.373,235.635 113.016,235.391 111.270 C 233.558 98.121,231.577 92.537,226.648 86.614 C 223.616 82.971,217.446 79.114,212.793 77.953 C 209.187 77.054,208.114 76.726,207.666 76.385 C 207.048 75.915,206.350 75.869,206.344 76.298 C 206.341 76.531,206.239 76.508,206.066 76.235 C 205.898 75.970,205.774 76.798,205.746 78.378 M195.134 78.598 C 195.240 78.875,195.414 78.968,195.520 78.805 C 195.787 78.397,196.884 78.425,197.460 78.853 C 197.874 79.160,197.879 79.134,197.501 78.651 C 196.920 77.910,194.852 77.864,195.134 78.598 M233.139 86.879 C 232.774 87.012,232.816 94.340,233.185 94.937 C 233.284 95.098,233.572 96.022,233.824 96.990 C 234.648 100.152,237.400 104.496,239.855 106.508 C 240.494 107.032,241.295 107.718,241.636 108.032 C 242.016 108.384,242.493 108.528,242.873 108.408 C 243.763 108.125,243.635 107.683,242.619 107.529 L 241.746 107.397 242.619 107.349 C 243.273 107.314,243.492 107.138,243.492 106.648 C 243.492 106.288,243.607 106.066,243.749 106.153 C 243.890 106.240,244.012 105.606,244.021 104.743 C 244.031 103.800,243.897 103.173,243.685 103.170 C 243.492 103.167,243.548 103.026,243.810 102.857 C 244.127 102.652,244.153 102.548,243.889 102.545 C 243.671 102.542,243.492 102.183,243.492 101.746 C 243.492 101.310,243.349 100.952,243.175 100.952 C 243.000 100.952,242.857 100.531,242.857 100.016 C 242.857 99.501,242.679 98.965,242.460 98.825 C 241.951 98.499,240.919 96.647,241.129 96.437 C 241.218 96.348,240.944 95.943,240.520 95.536 C 240.097 95.128,239.822 94.609,239.909 94.382 C 239.999 94.148,239.846 93.968,239.558 93.968 C 239.277 93.968,239.048 93.754,239.048 93.492 C 239.048 93.230,238.905 93.016,238.730 93.016 C 238.556 93.016,238.413 92.765,238.413 92.457 C 238.413 92.150,238.127 91.720,237.778 91.502 C 237.429 91.284,237.143 90.876,237.143 90.595 C 237.143 90.314,236.598 89.565,235.931 88.931 C 234.015 87.107,233.516 86.741,233.139 86.879 M167.845 95.873 C 167.936 96.222,168.204 96.508,168.440 96.508 C 168.705 96.508,168.794 96.704,168.672 97.021 C 168.500 97.468,168.571 97.483,169.219 97.136 L 169.963 96.738 169.091 95.988 C 168.024 95.071,167.625 95.034,167.845 95.873 M204.299 98.391 C 204.082 98.742,204.583 99.120,204.876 98.827 C 205.178 98.526,205.122 98.095,204.781 98.095 C 204.616 98.095,204.400 98.228,204.299 98.391 M204.762 100.622 C 204.762 100.978,204.913 101.270,205.098 101.270 C 205.283 101.270,205.364 101.384,205.278 101.523 C 205.192 101.662,205.255 101.984,205.419 102.237 C 205.636 102.572,205.700 102.432,205.653 101.722 C 205.576 100.569,204.762 99.563,204.762 100.622 M209.783 103.983 C 209.897 104.965,209.973 105.012,211.071 104.786 C 211.136 104.773,211.016 104.554,210.805 104.300 C 210.594 104.045,210.504 103.704,210.604 103.542 C 210.704 103.380,210.534 103.181,210.224 103.100 C 209.756 102.977,209.682 103.124,209.783 103.983 M189.206 109.524 C 188.770 109.664,188.484 109.803,188.571 109.834 C 189.306 110.093,189.825 110.025,189.968 109.651 C 190.062 109.407,190.108 109.221,190.069 109.238 C 190.031 109.255,189.643 109.384,189.206 109.524 M186.349 110.301 C 186.349 110.946,184.872 112.470,184.399 112.313 C 184.134 112.225,184.229 111.962,184.691 111.500 C 185.670 110.521,185.067 110.369,183.751 111.263 C 180.451 113.506,181.383 117.794,186.550 124.137 C 188.039 125.965,189.385 127.782,189.541 128.175 C 189.829 128.898,191.123 130.435,192.849 132.103 C 194.030 133.246,194.921 133.308,194.921 132.249 C 194.921 131.827,195.052 131.434,195.212 131.376 C 195.798 131.162,195.955 129.016,195.423 128.484 C 195.147 128.208,194.921 127.841,194.921 127.668 C 194.921 127.496,194.788 127.307,194.627 127.249 C 194.465 127.190,194.287 126.929,194.230 126.667 C 194.173 126.405,193.556 125.618,192.857 124.918 C 191.471 123.529,190.665 122.053,190.997 121.514 C 191.121 121.315,191.061 121.263,190.856 121.390 C 190.361 121.696,189.206 120.910,189.206 120.268 C 189.206 119.975,189.056 119.685,188.872 119.624 C 188.687 119.562,188.502 119.301,188.460 119.042 C 188.417 118.783,188.186 118.214,187.947 117.778 C 187.708 117.341,187.536 116.948,187.565 116.905 C 187.762 116.613,187.561 116.189,187.302 116.349 C 186.914 116.589,186.914 116.590,187.281 115.309 C 187.451 114.717,187.456 114.349,187.294 114.449 C 187.137 114.546,187.047 114.141,187.094 113.549 C 187.168 112.608,187.097 112.491,186.526 112.620 C 186.026 112.734,186.133 112.534,186.984 111.768 C 188.059 110.801,188.075 110.753,187.479 110.305 C 186.699 109.718,186.349 109.717,186.349 110.301 M187.836 112.185 C 187.732 112.456,187.774 112.756,187.928 112.852 C 188.333 113.102,188.575 112.583,188.277 112.101 C 188.080 111.782,187.983 111.801,187.836 112.185 M209.524 113.810 C 209.524 114.246,209.665 114.603,209.838 114.603 C 210.010 114.603,210.122 114.246,210.086 113.810 C 210.050 113.373,209.909 113.016,209.772 113.016 C 209.636 113.016,209.524 113.373,209.524 113.810 M240.238 114.822 C 239.108 115.117,239.721 119.900,241.274 122.908 C 241.665 123.666,242.103 124.523,242.247 124.812 C 242.391 125.102,243.230 126.766,244.112 128.511 C 244.993 130.255,245.714 131.889,245.714 132.141 C 245.714 132.393,246.025 132.872,246.404 133.205 C 246.783 133.537,246.989 133.631,246.861 133.413 C 246.717 133.166,246.816 133.016,247.124 133.016 C 247.771 133.016,247.768 131.850,247.119 131.201 C 246.611 130.693,247.083 129.986,247.683 130.357 C 247.823 130.443,247.937 130.362,247.937 130.177 C 247.937 129.993,247.579 129.841,247.143 129.841 C 246.624 129.841,246.349 129.664,246.349 129.328 C 246.349 128.978,246.543 128.866,246.960 128.975 C 247.399 129.089,247.522 129.005,247.396 128.676 C 247.299 128.424,247.024 128.293,246.784 128.384 C 246.538 128.479,246.349 128.350,246.349 128.085 C 246.349 127.829,246.468 127.619,246.614 127.619 C 246.759 127.619,246.878 127.405,246.878 127.143 C 246.878 126.881,246.814 126.731,246.735 126.810 C 246.444 127.101,245.714 126.054,245.709 125.340 C 245.704 124.565,245.308 123.736,244.965 123.782 C 244.018 123.909,243.781 123.765,243.968 123.175 C 244.125 122.682,244.025 122.540,243.523 122.540 C 243.069 122.540,242.933 122.393,243.067 122.045 C 243.171 121.773,243.452 121.626,243.692 121.718 C 243.939 121.813,244.127 121.683,244.127 121.419 C 244.127 121.162,244.020 120.969,243.889 120.990 C 243.262 121.089,243.064 120.912,243.492 120.635 C 243.877 120.386,243.832 120.326,243.254 120.322 C 242.534 120.317,242.293 119.873,242.830 119.541 C 242.990 119.442,243.193 119.541,243.281 119.760 C 243.378 120.000,243.452 120.018,243.467 119.805 C 243.481 119.611,243.118 119.077,242.660 118.620 C 241.952 117.912,241.905 117.758,242.341 117.591 C 242.623 117.482,242.773 117.264,242.675 117.104 C 242.576 116.945,242.341 116.911,242.151 117.028 C 241.955 117.149,241.897 117.094,242.017 116.900 C 242.133 116.713,242.012 116.344,241.749 116.080 C 241.485 115.817,241.270 115.376,241.270 115.102 C 241.270 114.591,241.197 114.571,240.238 114.822 M173.968 123.357 C 173.968 124.399,175.030 124.306,175.181 123.251 C 175.258 122.711,175.124 122.540,174.625 122.540 C 174.131 122.540,173.968 122.742,173.968 123.357 M247.937 131.587 C 247.937 131.849,248.079 132.063,248.254 132.063 C 248.429 132.063,248.571 131.849,248.571 131.587 C 248.571 131.325,248.429 131.111,248.254 131.111 C 248.079 131.111,247.937 131.325,247.937 131.587 M241.347 139.057 C 241.672 139.582,241.666 139.752,241.315 139.970 C 241.015 140.157,240.991 140.304,241.236 140.455 C 241.429 140.575,241.587 140.532,241.587 140.361 C 241.587 140.190,242.028 139.954,242.566 139.835 L 243.545 139.620 242.897 139.017 C 241.964 138.147,240.801 138.178,241.347 139.057 M242.608 151.261 C 242.733 151.399,242.685 151.791,242.503 152.132 C 242.320 152.474,242.231 152.813,242.304 152.886 C 242.377 152.959,242.597 152.666,242.794 152.235 C 243.065 151.640,243.058 151.398,242.766 151.230 C 242.554 151.109,242.483 151.122,242.608 151.261 M97.257 191.039 C 97.381 191.240,97.170 191.426,96.751 191.485 L 96.032 191.587 95.967 199.197 C 95.930 203.571,96.027 206.883,96.195 206.987 C 96.356 207.086,96.522 207.623,96.565 208.179 C 96.607 208.735,96.826 209.260,97.051 209.347 C 97.276 209.433,97.460 209.803,97.460 210.168 C 97.460 210.532,97.603 210.743,97.778 210.635 C 97.952 210.527,98.095 210.601,98.095 210.800 C 98.095 211.436,100.735 213.651,101.494 213.651 C 101.894 213.651,102.222 213.794,102.222 213.968 C 102.222 214.429,108.640 214.367,110.164 213.891 C 110.859 213.674,111.429 213.388,111.429 213.256 C 111.429 213.124,111.581 213.016,111.767 213.016 C 112.206 213.016,114.286 210.814,114.286 210.349 C 114.286 210.154,114.638 209.613,115.069 209.149 L 115.853 208.304 115.873 200.580 C 115.885 196.333,115.889 192.560,115.883 192.196 C 115.872 191.458,115.950 191.482,112.808 191.236 C 110.965 191.091,110.375 191.163,109.684 191.616 C 108.790 192.201,108.789 192.221,109.386 195.159 C 109.523 195.831,109.473 196.190,109.242 196.190 C 109.048 196.190,108.889 196.413,108.889 196.685 C 108.889 196.964,109.041 197.086,109.238 196.965 C 109.492 196.808,109.492 196.927,109.238 197.401 C 108.788 198.242,108.795 198.508,109.260 198.221 C 109.522 198.059,109.558 198.171,109.383 198.599 C 109.247 198.933,109.060 200.885,108.969 202.937 C 108.837 205.871,108.705 206.667,108.350 206.667 C 108.102 206.667,107.987 206.810,108.095 206.984 C 108.203 207.159,108.069 207.302,107.797 207.302 C 107.524 207.302,107.302 207.444,107.302 207.619 C 107.302 208.307,104.776 207.954,103.860 207.137 L 102.963 206.338 102.889 199.122 C 102.805 190.891,102.986 191.393,100.057 191.272 C 98.832 191.222,97.652 191.071,97.437 190.938 C 97.194 190.788,97.126 190.826,97.257 191.039 M123.830 191.480 C 123.220 192.134,123.089 193.671,123.599 194.181 C 123.945 194.527,123.844 203.433,123.492 203.651 C 123.317 203.759,123.175 204.259,123.175 204.762 C 123.175 205.265,123.317 205.765,123.492 205.873 C 123.667 205.981,123.810 207.347,123.810 208.908 C 123.810 210.588,123.680 211.746,123.492 211.746 C 123.317 211.746,123.175 211.969,123.175 212.241 C 123.175 212.513,123.317 212.648,123.492 212.540 C 123.667 212.432,123.810 212.638,123.810 212.997 C 123.810 213.577,124.005 213.651,125.537 213.651 C 126.487 213.651,127.352 213.794,127.460 213.968 C 127.568 214.143,127.799 214.286,127.974 214.286 C 128.149 214.286,128.194 214.129,128.076 213.937 C 127.924 213.691,128.060 213.695,128.533 213.948 C 128.977 214.185,129.206 214.196,129.206 213.979 C 129.206 213.799,129.421 213.651,129.683 213.651 C 130.096 213.651,130.459 209.706,130.188 208.151 C 130.163 208.007,130.289 207.980,130.468 208.090 C 130.647 208.201,130.794 208.145,130.794 207.965 C 130.794 207.786,131.007 207.721,131.268 207.821 C 131.529 207.921,131.663 208.131,131.567 208.287 C 131.470 208.444,131.614 208.571,131.886 208.571 C 132.164 208.571,132.381 208.841,132.381 209.188 C 132.381 209.527,132.524 209.892,132.698 210.000 C 132.873 210.108,133.016 210.473,133.016 210.812 C 133.016 211.151,133.159 211.429,133.333 211.429 C 133.508 211.429,133.651 211.724,133.651 212.086 C 133.651 213.249,134.512 213.765,136.369 213.716 C 137.305 213.692,138.156 213.810,138.260 213.979 C 138.365 214.148,138.736 214.286,139.085 214.286 C 139.434 214.286,139.643 214.161,139.548 214.008 C 139.454 213.855,139.742 213.730,140.188 213.730 C 140.635 213.730,141.146 213.584,141.325 213.405 C 141.705 213.025,141.357 211.654,140.946 211.909 C 140.793 212.003,140.724 211.791,140.792 211.437 C 140.877 210.997,140.746 210.792,140.379 210.789 C 139.916 210.785,139.907 210.741,140.317 210.476 C 140.635 210.271,140.661 210.167,140.397 210.164 C 140.179 210.161,140.000 209.873,140.000 209.524 C 140.000 209.175,139.857 208.889,139.683 208.889 C 139.508 208.889,139.365 208.675,139.365 208.413 C 139.365 208.151,139.222 207.937,139.048 207.937 C 138.873 207.937,138.730 207.571,138.730 207.124 C 138.730 206.677,138.600 206.392,138.441 206.491 C 137.890 206.831,138.292 205.725,138.989 204.983 C 139.374 204.574,139.580 204.119,139.447 203.973 C 139.315 203.827,139.359 203.794,139.545 203.900 C 139.732 204.006,140.089 203.797,140.339 203.436 C 140.589 203.075,140.957 202.608,141.156 202.399 C 141.598 201.936,141.752 195.099,141.314 195.370 C 141.152 195.469,140.931 195.195,140.821 194.760 C 140.712 194.324,140.483 193.968,140.311 193.968 C 140.140 193.968,140.000 193.730,140.000 193.439 C 140.000 193.148,139.914 192.996,139.810 193.100 C 139.579 193.331,137.143 192.100,137.143 191.752 C 137.143 191.523,133.597 191.344,128.043 191.291 C 126.791 191.280,125.660 191.163,125.529 191.032 C 125.109 190.611,124.486 190.776,123.830 191.480 M153.158 191.138 C 153.019 191.363,152.306 191.409,151.102 191.269 C 148.479 190.964,148.571 190.539,148.571 202.967 L 148.571 213.594 150.397 213.765 C 151.401 213.859,152.848 214.032,153.613 214.148 C 154.549 214.291,154.937 214.252,154.799 214.028 C 154.686 213.846,154.846 213.616,155.154 213.518 C 155.675 213.353,155.714 212.582,155.714 202.565 L 155.714 191.789 154.872 191.291 C 153.880 190.705,153.449 190.667,153.158 191.138 M198.887 191.077 C 198.713 191.249,198.168 191.443,197.675 191.508 C 197.182 191.573,196.682 191.776,196.564 191.961 C 196.446 192.145,196.045 192.390,195.673 192.506 C 194.800 192.779,193.651 193.776,193.651 194.262 C 193.651 194.470,193.508 194.552,193.333 194.444 C 193.159 194.337,193.016 194.471,193.016 194.743 C 193.016 195.015,192.802 195.238,192.540 195.238 C 192.275 195.238,192.063 195.520,192.063 195.873 C 192.063 196.222,191.921 196.508,191.746 196.508 C 191.571 196.508,191.429 196.865,191.429 197.302 C 191.429 197.738,191.286 198.095,191.111 198.095 C 190.937 198.095,190.794 198.730,190.794 199.505 C 190.794 200.280,190.646 201.006,190.465 201.118 C 190.285 201.230,190.177 201.939,190.227 202.693 C 190.277 203.448,190.425 204.000,190.556 203.919 C 190.687 203.838,190.794 204.568,190.794 205.541 C 190.794 207.215,191.196 208.451,191.905 208.957 C 192.079 209.081,192.222 209.298,192.222 209.439 C 192.222 209.914,195.505 213.016,196.008 213.016 C 196.283 213.016,196.508 213.159,196.508 213.333 C 196.508 213.508,197.000 213.651,197.600 213.651 C 198.201 213.651,198.781 213.794,198.889 213.968 C 199.000 214.148,200.579 214.286,202.540 214.286 C 204.500 214.286,206.079 214.148,206.190 213.968 C 206.298 213.794,206.780 213.651,207.260 213.651 C 207.741 213.651,208.411 213.398,208.750 213.089 C 209.088 212.780,209.842 212.229,210.425 211.864 C 211.008 211.499,211.473 211.109,211.457 210.997 C 211.257 209.570,211.498 203.180,211.746 203.333 C 212.214 203.623,212.114 202.157,211.622 201.508 C 211.253 201.022,210.599 200.952,206.394 200.952 L 201.587 200.952 201.587 203.730 L 201.587 206.508 203.248 206.608 C 205.198 206.725,205.315 206.794,204.664 207.445 C 203.879 208.229,200.276 208.125,199.683 207.302 C 199.431 206.952,199.042 206.667,198.819 206.667 C 198.595 206.667,198.413 206.429,198.413 206.138 C 198.413 205.847,198.320 205.702,198.206 205.815 C 198.092 205.929,197.806 205.651,197.571 205.197 C 197.076 204.242,196.988 200.635,197.460 200.635 C 197.635 200.635,197.778 200.414,197.778 200.144 C 197.778 199.521,199.048 198.239,199.948 197.953 C 200.326 197.833,200.635 197.602,200.635 197.439 C 200.635 197.276,201.492 197.143,202.540 197.143 C 204.053 197.143,204.444 197.245,204.444 197.638 C 204.444 197.910,204.587 198.044,204.762 197.937 C 204.937 197.829,205.079 197.934,205.079 198.170 C 205.079 198.435,205.503 198.629,206.183 198.675 C 207.335 198.752,209.206 197.406,209.206 196.500 C 209.206 196.272,209.299 196.178,209.413 196.291 C 209.527 196.405,209.800 196.251,210.021 195.949 C 210.323 195.536,210.331 195.343,210.052 195.166 C 209.808 195.010,209.864 194.929,210.218 194.925 C 210.557 194.922,210.737 194.687,210.706 194.286 C 210.680 193.937,210.538 193.651,210.390 193.651 C 210.242 193.651,210.210 193.508,210.317 193.333 C 210.425 193.159,210.220 193.016,209.860 193.016 C 209.500 193.016,209.206 192.873,209.206 192.698 C 209.206 192.524,209.010 192.381,208.769 192.381 C 208.529 192.381,208.154 192.167,207.937 191.905 C 207.719 191.643,207.130 191.429,206.628 191.429 C 206.125 191.429,205.714 191.303,205.714 191.149 C 205.714 190.761,199.276 190.693,198.887 191.077 M242.779 191.136 C 242.475 191.313,241.785 191.514,241.247 191.582 C 240.708 191.650,240.029 191.980,239.737 192.316 C 239.445 192.651,238.885 193.027,238.492 193.151 C 238.099 193.275,237.778 193.518,237.778 193.691 C 237.778 193.864,237.659 193.932,237.514 193.843 C 237.369 193.753,237.056 194.173,236.820 194.776 C 236.583 195.379,236.238 195.874,236.052 195.875 C 235.611 195.879,234.921 197.381,234.921 198.336 C 234.921 198.748,234.788 199.003,234.625 198.902 C 234.449 198.794,234.330 200.261,234.330 202.534 C 234.330 204.678,234.459 206.349,234.625 206.349 C 234.788 206.349,234.921 206.778,234.921 207.302 C 234.921 207.825,235.048 208.254,235.204 208.254 C 235.359 208.254,235.576 208.611,235.686 209.048 C 235.795 209.484,236.025 209.841,236.197 209.841 C 236.368 209.841,236.508 210.064,236.508 210.336 C 236.508 210.608,236.629 210.756,236.778 210.664 C 236.926 210.573,237.236 210.850,237.466 211.281 C 237.728 211.769,238.163 212.063,238.625 212.063 C 239.032 212.063,239.365 212.255,239.365 212.489 C 239.365 212.972,240.673 213.651,241.602 213.651 C 241.943 213.651,242.222 213.794,242.222 213.968 C 242.222 214.447,250.152 214.377,251.204 213.889 C 251.674 213.671,252.060 213.385,252.061 213.254 C 252.062 213.123,252.248 213.016,252.474 213.016 C 253.274 213.016,255.556 210.566,255.556 209.707 C 255.556 209.184,255.380 208.889,255.069 208.889 C 254.802 208.889,254.501 208.675,254.401 208.413 C 254.300 208.151,254.050 207.937,253.846 207.937 C 253.641 207.937,253.268 207.651,253.016 207.302 C 252.764 206.952,252.367 206.667,252.133 206.667 C 251.900 206.667,251.779 206.553,251.864 206.415 C 251.950 206.277,251.601 206.132,251.089 206.093 C 250.577 206.054,250.159 206.167,250.159 206.344 C 250.159 206.522,249.944 206.667,249.683 206.667 C 249.421 206.667,249.206 206.810,249.206 206.984 C 249.206 207.159,248.984 207.302,248.711 207.302 C 248.439 207.302,248.291 207.423,248.383 207.571 C 248.475 207.720,247.555 207.870,246.338 207.905 C 244.961 207.946,244.127 207.844,244.127 207.636 C 244.127 207.452,243.914 207.302,243.654 207.302 C 242.964 207.302,241.905 206.298,241.905 205.644 C 241.905 205.333,241.762 205.079,241.587 205.079 C 241.403 205.079,241.270 204.062,241.270 202.662 L 241.270 200.244 242.896 198.693 C 244.492 197.171,247.937 196.329,247.937 197.460 C 247.937 197.635,248.144 197.778,248.397 197.778 C 248.650 197.778,248.983 198.002,249.136 198.276 C 249.531 198.981,251.818 198.781,251.925 198.032 C 252.011 197.435,253.452 195.873,253.917 195.873 C 254.377 195.873,254.605 194.565,254.258 193.917 C 254.086 193.596,254.058 193.330,254.195 193.326 C 254.332 193.322,253.944 193.077,253.333 192.781 C 252.722 192.485,252.065 192.038,251.874 191.787 C 251.682 191.537,251.386 191.418,251.216 191.523 C 251.046 191.628,250.508 191.507,250.020 191.254 C 248.981 190.715,243.651 190.628,242.779 191.136 M302.726 191.032 C 302.596 191.163,301.465 191.341,300.213 191.429 L 297.937 191.587 297.851 198.997 C 297.765 206.496,297.637 207.302,296.531 207.302 C 296.344 207.302,296.190 207.444,296.190 207.619 C 296.190 209.201,292.242 207.264,291.927 205.527 C 291.840 205.047,291.624 204.565,291.447 204.456 C 291.029 204.198,291.038 193.645,291.457 193.140 C 292.672 191.676,287.134 190.317,285.092 191.579 C 284.521 191.932,284.690 207.820,285.271 208.401 C 285.515 208.644,285.714 209.079,285.714 209.368 C 285.714 210.160,289.493 213.651,290.351 213.651 C 290.748 213.651,291.162 213.794,291.270 213.968 C 291.381 214.149,292.966 214.286,294.939 214.286 C 297.043 214.286,298.413 214.161,298.413 213.968 C 298.413 213.794,298.841 213.651,299.365 213.651 C 299.889 213.651,300.317 213.508,300.317 213.333 C 300.317 213.159,300.532 213.016,300.794 213.016 C 301.056 213.016,301.270 212.909,301.270 212.778 C 301.271 212.421,302.730 210.794,303.053 210.791 C 303.405 210.788,304.127 209.265,304.127 208.527 C 304.127 208.223,304.270 207.886,304.444 207.778 C 304.643 207.655,304.762 204.564,304.762 199.556 L 304.762 191.530 303.953 191.162 C 302.996 190.726,303.027 190.729,302.726 191.032 M70.865 191.825 C 70.785 192.131,70.629 192.381,70.519 192.381 C 70.408 192.381,70.312 193.453,70.305 194.762 C 70.295 196.870,70.361 197.143,70.880 197.143 C 71.202 197.143,71.386 197.273,71.287 197.432 C 71.072 197.780,71.727 197.712,72.351 197.323 C 72.680 197.117,72.730 197.161,72.542 197.491 C 72.336 197.851,72.369 197.861,72.715 197.540 C 73.207 197.083,76.641 196.988,76.363 197.438 C 76.262 197.601,76.335 197.829,76.524 197.946 C 76.759 198.091,76.835 200.479,76.767 205.511 C 76.668 212.769,76.676 212.874,77.383 213.637 C 77.938 214.236,78.184 214.324,78.478 214.030 C 78.972 213.536,80.077 213.545,80.618 214.048 C 80.965 214.370,80.998 214.355,80.794 213.968 C 80.601 213.603,80.633 213.576,80.932 213.851 C 81.542 214.414,83.130 213.709,82.935 212.963 C 82.831 212.563,82.956 212.381,83.335 212.381 C 83.814 212.381,83.829 212.309,83.452 211.844 C 83.142 211.462,83.132 211.377,83.420 211.549 C 83.742 211.743,83.812 210.410,83.769 204.938 C 83.707 197.036,83.486 197.620,86.493 197.732 C 89.904 197.859,90.159 197.626,90.159 194.389 C 90.159 191.131,91.030 191.393,79.940 191.325 C 71.676 191.274,70.999 191.311,70.865 191.825 M163.280 191.587 C 162.850 191.901,162.807 193.271,162.927 202.719 L 163.065 213.492 166.559 213.581 C 169.732 213.662,170.052 213.619,170.049 213.105 C 170.018 208.135,170.213 204.123,170.476 204.286 C 170.651 204.394,170.794 204.759,170.794 205.098 C 170.794 205.437,170.937 205.714,171.111 205.714 C 171.286 205.714,171.429 205.929,171.429 206.190 C 171.429 206.452,171.571 206.667,171.746 206.667 C 171.921 206.667,172.063 206.874,172.063 207.127 C 172.063 207.380,172.266 207.702,172.514 207.841 C 172.762 207.981,173.012 208.304,173.070 208.559 C 173.127 208.814,173.425 209.305,173.730 209.651 C 174.036 209.996,174.286 210.537,174.286 210.854 C 174.286 211.170,174.500 211.429,174.762 211.429 C 175.024 211.429,175.238 211.643,175.238 211.905 C 175.238 212.167,175.364 212.381,175.519 212.381 C 175.673 212.381,175.874 212.667,175.965 213.016 C 176.118 213.600,176.398 213.651,179.494 213.651 L 182.857 213.651 182.857 204.021 C 182.857 198.725,182.947 194.301,183.058 194.191 C 183.168 194.081,183.289 193.476,183.327 192.847 C 183.371 192.136,183.297 191.862,183.132 192.122 C 182.928 192.443,182.866 192.419,182.862 192.018 C 182.854 191.213,179.706 190.777,177.460 191.270 L 176.524 191.476 176.437 196.452 C 176.360 200.824,176.300 201.316,175.940 200.503 C 175.715 199.994,175.251 199.334,174.908 199.037 C 174.566 198.740,174.286 198.291,174.286 198.038 C 174.286 197.786,174.000 197.273,173.651 196.899 C 173.302 196.524,173.016 195.997,173.016 195.728 C 173.016 195.458,172.802 195.238,172.540 195.238 C 172.265 195.238,172.063 194.951,172.063 194.561 C 172.063 194.189,171.795 193.651,171.466 193.366 C 171.138 193.081,170.816 192.574,170.752 192.238 C 170.624 191.575,170.374 191.525,166.250 191.340 C 164.734 191.272,163.579 191.368,163.280 191.587 M262.622 191.460 L 261.915 191.722 261.927 202.544 C 261.936 212.036,261.999 213.389,262.432 213.555 C 262.703 213.660,265.589 213.773,268.844 213.806 C 272.099 213.840,275.291 213.977,275.938 214.110 C 278.377 214.612,279.048 213.915,279.048 210.882 C 279.048 208.042,278.174 206.632,277.011 207.597 C 276.705 207.850,276.499 207.862,276.359 207.634 C 276.095 207.208,273.318 207.202,272.204 207.626 C 271.616 207.850,271.226 207.846,270.947 207.615 C 270.725 207.430,270.421 207.301,270.272 207.328 C 269.231 207.515,269.206 207.338,269.206 199.535 C 269.206 192.329,269.164 191.746,268.624 191.457 C 267.931 191.086,263.628 191.088,262.622 191.460 M312.264 192.143 C 312.158 192.536,312.070 197.461,312.068 203.087 L 312.063 213.317 313.052 213.828 C 313.763 214.196,314.138 214.243,314.386 213.995 C 314.801 213.580,319.279 213.558,322.376 213.957 C 323.595 214.114,324.666 214.145,324.757 214.025 C 324.847 213.905,325.318 213.761,325.803 213.705 C 326.605 213.612,328.254 212.432,328.254 211.951 C 328.254 211.551,329.328 210.514,329.580 210.670 C 329.842 210.832,329.979 208.631,329.863 206.116 C 329.804 204.838,329.490 204.274,327.850 202.499 C 327.361 201.970,327.350 201.866,327.771 201.705 C 328.036 201.603,328.254 201.189,328.254 200.786 C 328.254 200.383,328.420 199.998,328.623 199.930 C 328.840 199.858,328.996 199.099,329.003 198.078 C 329.017 196.047,328.829 194.603,328.571 194.762 C 328.471 194.824,328.204 194.457,327.977 193.945 C 327.751 193.434,327.428 193.016,327.261 193.016 C 327.093 193.016,326.598 192.659,326.162 192.222 L 325.368 191.429 318.911 191.429 C 312.484 191.429,312.454 191.432,312.264 192.143 M133.333 197.651 C 133.333 197.538,133.682 197.674,134.109 197.954 C 135.617 198.942,134.616 200.000,132.171 200.000 C 130.215 200.000,129.479 199.505,130.498 198.876 C 130.684 198.760,130.760 198.466,130.667 198.222 C 130.550 197.917,130.736 197.778,131.261 197.778 C 131.682 197.778,132.119 197.628,132.232 197.445 C 132.372 197.217,132.579 197.230,132.885 197.484 C 133.132 197.688,133.333 197.763,133.333 197.651 M321.295 197.945 C 322.338 198.276,322.024 199.222,320.741 199.616 C 319.330 200.049,319.048 199.907,319.048 198.764 C 319.048 197.447,319.364 197.332,321.295 197.945 M322.831 206.159 C 323.126 206.515,323.012 206.739,322.266 207.271 C 321.322 207.943,319.154 208.218,319.524 207.619 C 319.632 207.444,319.569 207.302,319.384 207.302 C 319.199 207.302,319.048 206.944,319.048 206.508 C 319.048 205.568,322.107 205.286,322.831 206.159 M274.841 207.838 C 274.536 207.918,274.036 207.918,273.730 207.838 C 273.425 207.758,273.675 207.693,274.286 207.693 C 274.897 207.693,275.147 207.758,274.841 207.838 " stroke="none" fill="#bde2fb" fill-rule="evenodd"></path><path id="path1" d="M192.381 73.636 C 192.381 73.820,193.044 73.968,193.862 73.968 C 195.622 73.968,195.514 73.664,193.680 73.454 C 192.893 73.363,192.381 73.435,192.381 73.636 M196.032 73.651 C 195.533 73.865,195.669 73.927,196.667 73.941 C 197.598 73.954,197.810 73.877,197.460 73.651 C 196.905 73.292,196.867 73.292,196.032 73.651 M182.672 74.400 C 182.812 74.831,182.739 74.943,182.401 74.813 C 182.090 74.694,181.995 74.787,182.114 75.096 C 182.339 75.682,184.560 75.745,184.365 75.159 C 184.293 74.940,183.959 74.710,183.624 74.646 C 183.290 74.582,182.895 74.368,182.748 74.170 C 182.586 73.952,182.556 74.043,182.672 74.400 M180.240 74.814 C 180.459 74.903,180.562 75.099,180.468 75.251 C 180.374 75.403,180.086 75.447,179.827 75.347 C 179.569 75.248,179.117 75.362,178.824 75.599 C 178.366 75.971,178.328 75.965,178.557 75.556 C 178.774 75.168,178.743 75.153,178.396 75.476 C 178.161 75.694,177.707 75.873,177.387 75.873 C 177.067 75.873,176.728 76.075,176.634 76.321 C 176.539 76.567,175.829 76.956,175.056 77.184 C 174.283 77.412,173.651 77.711,173.651 77.847 C 173.651 77.984,173.365 78.095,173.016 78.095 C 172.667 78.095,172.381 78.238,172.381 78.413 C 172.381 78.587,172.173 78.730,171.919 78.730 C 171.665 78.730,171.100 79.087,170.664 79.524 C 170.227 79.960,169.790 80.317,169.693 80.317 C 169.236 80.317,167.309 81.791,167.306 82.143 C 167.303 82.361,167.194 82.541,167.063 82.544 C 166.344 82.556,161.587 87.162,161.587 87.848 C 161.587 87.988,161.230 88.371,160.794 88.699 C 160.357 89.027,160.000 89.490,160.000 89.727 C 160.000 89.964,159.857 90.159,159.683 90.159 C 159.508 90.159,159.365 90.373,159.365 90.635 C 159.365 90.897,159.222 91.111,159.048 91.111 C 158.873 91.111,158.730 91.363,158.730 91.671 C 158.730 91.978,158.373 92.498,157.937 92.826 C 157.500 93.154,157.143 93.612,157.143 93.844 C 157.143 94.076,156.857 94.775,156.508 95.397 C 156.159 96.019,155.873 96.880,155.873 97.311 C 155.873 97.742,155.730 98.095,155.556 98.095 C 155.381 98.095,155.238 98.391,155.238 98.753 C 155.238 99.115,155.024 99.625,154.762 99.887 C 154.500 100.149,154.286 100.853,154.286 101.451 C 154.286 102.050,154.143 102.540,153.968 102.540 C 153.794 102.540,153.651 103.031,153.651 103.632 C 153.651 104.233,153.508 104.813,153.333 104.921 C 153.136 105.043,153.016 107.986,153.016 112.698 C 153.016 117.410,153.136 120.354,153.333 120.476 C 153.508 120.584,153.651 121.156,153.651 121.746 C 153.651 122.337,153.794 122.908,153.968 123.016 C 154.143 123.124,154.286 123.780,154.286 124.473 C 154.286 125.301,154.449 125.797,154.762 125.917 C 155.024 126.017,155.238 126.433,155.238 126.841 C 155.238 127.248,155.381 127.670,155.556 127.778 C 155.730 127.886,155.873 128.323,155.873 128.749 C 155.873 129.175,156.016 129.524,156.190 129.524 C 156.365 129.524,156.508 129.810,156.508 130.159 C 156.508 130.508,156.651 130.794,156.825 130.794 C 157.000 130.794,157.143 131.151,157.143 131.587 C 157.143 132.081,157.323 132.381,157.619 132.381 C 157.884 132.381,158.095 132.663,158.095 133.016 C 158.095 133.365,158.238 133.651,158.413 133.651 C 158.587 133.651,158.730 133.976,158.730 134.374 C 158.730 134.772,159.016 135.304,159.365 135.556 C 159.714 135.807,160.000 136.200,160.000 136.429 C 160.000 136.658,160.214 136.928,160.476 137.028 C 160.738 137.129,160.952 137.342,160.952 137.503 C 160.952 138.001,163.335 140.463,168.362 145.159 C 169.249 145.988,170.160 146.667,170.385 146.667 C 170.610 146.667,170.794 146.792,170.794 146.946 C 170.794 147.099,171.258 147.414,171.825 147.646 C 172.393 147.879,173.046 148.253,173.277 148.479 C 173.507 148.704,173.900 148.889,174.150 148.889 C 174.399 148.889,174.603 149.032,174.603 149.206 C 174.603 149.381,174.819 149.524,175.084 149.524 C 175.524 149.524,176.764 150.097,177.143 150.476 C 177.230 150.563,177.648 150.684,178.072 150.744 C 178.496 150.804,179.165 151.064,179.559 151.322 C 180.124 151.692,180.420 151.714,180.961 151.424 C 181.585 151.090,181.627 151.120,181.427 151.750 L 181.207 152.444 181.895 151.756 C 182.448 151.203,182.507 150.978,182.198 150.606 C 181.987 150.352,181.914 150.044,182.036 149.922 C 182.157 149.800,182.395 149.911,182.563 150.168 C 182.824 150.566,182.939 150.543,183.343 150.013 C 183.774 149.448,183.756 149.359,183.141 149.030 C 182.563 148.721,182.540 148.639,182.979 148.471 C 183.261 148.363,183.492 147.975,183.492 147.610 C 183.492 147.189,183.626 147.030,183.859 147.173 C 184.091 147.317,184.139 147.260,183.989 147.018 C 183.859 146.808,183.516 146.660,183.226 146.688 C 182.058 146.803,181.243 146.649,181.429 146.349 C 181.540 146.169,181.273 146.032,180.812 146.032 C 180.302 146.032,180.000 145.855,180.000 145.556 C 180.000 145.259,179.700 145.079,179.206 145.079 C 178.770 145.079,178.413 144.937,178.413 144.762 C 178.413 144.587,178.103 144.444,177.725 144.444 C 177.347 144.444,177.130 144.351,177.244 144.238 C 177.471 144.011,176.032 143.175,175.414 143.175 C 175.202 143.175,174.837 142.817,174.603 142.381 C 174.370 141.944,173.988 141.587,173.756 141.587 C 173.523 141.587,173.333 141.444,173.333 141.270 C 173.333 141.095,173.109 140.952,172.834 140.952 C 172.304 140.952,171.429 140.223,171.429 139.781 C 171.429 139.635,171.046 139.232,170.578 138.885 C 169.497 138.084,168.583 137.170,167.782 136.089 C 167.435 135.621,166.971 135.238,166.750 135.238 C 166.386 135.238,166.213 134.831,166.312 134.206 C 166.332 134.075,166.206 133.968,166.032 133.968 C 165.857 133.968,165.714 133.786,165.714 133.562 C 165.714 133.339,165.429 132.950,165.079 132.698 C 164.730 132.447,164.444 131.982,164.444 131.666 C 164.444 131.350,164.230 131.009,163.968 130.908 C 163.706 130.808,163.492 130.455,163.492 130.125 C 163.492 129.794,163.349 129.524,163.175 129.524 C 163.000 129.524,162.857 129.238,162.857 128.889 C 162.857 128.540,162.714 128.254,162.540 128.254 C 162.365 128.254,162.222 127.897,162.222 127.460 C 162.222 127.024,162.098 126.667,161.947 126.667 C 161.795 126.667,161.590 126.063,161.491 125.325 C 161.308 123.958,161.705 123.014,162.307 123.386 C 162.501 123.506,162.543 123.436,162.408 123.218 C 162.282 123.014,162.045 122.929,161.883 123.029 C 161.720 123.130,161.587 122.926,161.587 122.577 C 161.587 122.228,161.435 121.848,161.248 121.733 C 161.062 121.617,160.986 121.322,161.081 121.076 C 161.175 120.830,161.105 120.242,160.924 119.767 C 160.403 118.396,160.594 106.868,161.154 105.962 C 161.282 105.755,161.221 105.707,161.001 105.843 C 160.800 105.967,160.635 105.918,160.635 105.733 C 160.635 105.548,160.349 105.397,160.000 105.397 C 159.367 105.397,159.116 104.636,159.642 104.311 C 159.794 104.217,160.012 103.673,160.127 103.102 C 160.246 102.512,160.435 102.215,160.565 102.415 C 160.792 102.765,161.794 102.756,162.149 102.401 C 162.251 102.299,162.059 101.992,161.723 101.719 C 161.386 101.446,161.290 101.313,161.508 101.424 C 161.726 101.534,161.905 101.469,161.905 101.279 C 161.905 101.088,161.691 100.851,161.430 100.750 C 160.741 100.486,161.175 100.000,162.101 100.000 C 162.537 100.000,162.816 99.873,162.721 99.719 C 162.625 99.564,162.761 99.259,163.023 99.042 C 163.444 98.692,163.439 98.603,162.980 98.267 C 162.599 97.989,162.531 97.684,162.722 97.119 C 162.866 96.695,162.965 96.272,162.942 96.177 C 162.919 96.082,163.189 95.983,163.541 95.957 C 164.004 95.922,164.128 96.048,163.988 96.412 C 163.836 96.808,163.887 96.839,164.228 96.556 C 164.467 96.358,164.745 96.279,164.847 96.381 C 165.120 96.654,164.948 95.790,164.619 95.238 C 164.442 94.941,164.591 94.986,165.017 95.359 C 165.689 95.949,165.702 95.947,166.000 95.163 C 166.494 93.862,167.867 92.957,168.685 93.392 C 169.292 93.715,169.280 93.664,168.571 92.914 C 168.135 92.452,167.635 92.074,167.460 92.074 C 167.286 92.073,167.353 92.206,167.610 92.369 C 167.867 92.531,167.977 92.763,167.856 92.885 C 167.734 93.007,167.396 92.909,167.105 92.667 C 166.631 92.274,166.599 92.302,166.800 92.937 C 166.979 93.499,166.923 93.607,166.531 93.457 C 166.258 93.352,166.124 93.123,166.233 92.947 C 166.342 92.771,166.234 92.490,165.993 92.321 C 165.655 92.085,165.645 91.979,165.952 91.854 C 166.171 91.766,166.349 91.491,166.349 91.243 C 166.349 90.996,166.497 90.794,166.677 90.794 C 167.104 90.794,169.206 88.691,169.206 88.265 C 169.206 88.084,169.321 87.937,169.462 87.937 C 169.827 87.937,172.063 85.843,172.063 85.501 C 172.063 85.343,172.361 85.192,172.725 85.165 C 173.089 85.137,173.642 84.821,173.953 84.462 C 174.264 84.103,174.681 83.810,174.879 83.810 C 175.076 83.810,175.238 83.667,175.238 83.492 C 175.238 83.317,175.532 83.175,175.892 83.175 C 176.251 83.175,176.475 83.060,176.388 82.921 C 176.302 82.781,176.523 82.485,176.879 82.262 C 177.235 82.040,177.433 82.010,177.318 82.195 C 177.010 82.694,178.133 82.208,178.869 81.524 C 179.398 81.033,179.998 80.867,180.838 80.979 C 180.949 80.994,181.140 80.844,181.263 80.646 C 181.385 80.448,181.794 80.262,182.171 80.234 C 182.549 80.206,182.857 79.996,182.857 79.769 C 182.857 79.481,183.169 79.406,183.889 79.520 C 184.668 79.643,184.792 79.606,184.395 79.366 C 184.064 79.167,183.932 78.806,184.039 78.396 C 184.206 77.758,183.247 76.508,182.590 76.508 C 182.428 76.508,182.222 76.222,182.130 75.873 C 182.039 75.524,181.737 75.238,181.458 75.238 C 181.180 75.238,180.952 75.095,180.952 74.921 C 180.952 74.746,180.702 74.614,180.397 74.628 C 180.062 74.643,179.999 74.717,180.240 74.814 M192.584 76.411 C 192.226 76.768,192.366 77.143,192.857 77.143 C 193.119 77.143,193.333 77.008,193.333 76.844 C 193.333 76.444,192.838 76.157,192.584 76.411 M193.968 76.804 C 193.968 76.967,194.397 77.088,194.921 77.073 C 195.444 77.058,195.873 76.925,195.873 76.777 C 195.873 76.629,195.444 76.508,194.921 76.508 C 194.397 76.508,193.968 76.641,193.968 76.804 M184.479 78.348 C 184.166 78.933,184.188 79.004,184.628 78.835 C 184.915 78.725,185.268 78.834,185.424 79.081 C 185.578 79.324,185.707 79.373,185.709 79.188 C 185.723 78.230,184.858 77.640,184.479 78.348 M192.698 79.011 C 192.698 79.165,193.020 79.377,193.413 79.482 C 194.463 79.764,194.603 79.732,194.603 79.206 C 194.603 78.889,194.286 78.730,193.651 78.730 C 193.127 78.730,192.698 78.856,192.698 79.011 M191.557 79.316 C 191.711 79.565,191.420 79.695,190.654 79.722 C 188.837 79.786,188.725 79.828,188.823 80.404 C 188.880 80.734,188.714 80.952,188.408 80.952 C 188.128 80.952,187.987 80.810,188.095 80.635 C 188.212 80.446,187.828 80.317,187.143 80.317 C 186.511 80.317,186.074 80.447,186.172 80.605 C 186.270 80.763,186.622 80.822,186.954 80.735 C 187.370 80.626,187.623 80.783,187.769 81.241 C 188.047 82.119,188.496 82.078,189.409 81.093 C 189.823 80.647,190.289 80.360,190.445 80.457 C 190.600 80.553,191.051 80.369,191.447 80.049 C 192.001 79.600,192.071 79.407,191.749 79.208 C 191.471 79.036,191.407 79.073,191.557 79.316 M195.952 79.266 C 196.258 79.346,196.758 79.346,197.063 79.266 C 197.369 79.187,197.119 79.121,196.508 79.121 C 195.897 79.121,195.647 79.187,195.952 79.266 M192.000 81.016 C 192.296 81.312,192.466 81.312,192.762 81.016 C 193.058 80.720,192.974 80.635,192.381 80.635 C 191.788 80.635,191.704 80.720,192.000 81.016 M184.569 81.326 C 184.461 81.500,184.123 81.577,183.819 81.498 C 183.095 81.308,182.149 81.846,182.423 82.291 C 182.541 82.482,182.498 82.552,182.328 82.446 C 182.157 82.341,181.631 82.456,181.157 82.701 C 180.562 83.010,180.363 83.030,180.512 82.764 C 180.669 82.486,180.610 82.490,180.301 82.778 C 180.065 82.996,179.616 83.175,179.302 83.175 C 178.987 83.175,178.730 83.317,178.730 83.492 C 178.730 83.667,178.462 83.810,178.134 83.810 C 177.806 83.810,177.360 84.024,177.143 84.286 C 176.925 84.548,176.585 84.762,176.387 84.762 C 176.188 84.762,175.847 85.048,175.629 85.397 C 175.411 85.746,175.020 86.032,174.759 86.032 C 174.499 86.032,174.286 86.175,174.286 86.349 C 174.286 86.524,174.082 86.667,173.833 86.667 C 173.583 86.667,173.098 87.024,172.755 87.460 C 172.412 87.897,172.034 88.254,171.916 88.254 C 171.134 88.254,170.213 90.147,170.598 90.963 C 171.282 92.411,175.556 93.900,175.556 92.690 C 175.556 92.579,175.913 92.297,176.349 92.063 C 176.786 91.830,177.143 91.514,177.143 91.360 C 177.143 90.816,178.676 89.524,178.840 89.930 C 178.962 90.229,179.003 90.227,179.023 89.921 C 179.036 89.702,179.209 89.524,179.407 89.524 C 179.605 89.524,179.999 89.274,180.283 88.968 C 181.642 87.505,182.248 87.148,182.554 87.632 C 182.776 87.982,182.849 87.887,182.852 87.241 C 182.855 86.771,183.008 86.294,183.192 86.180 C 183.414 86.043,183.358 85.716,183.026 85.209 C 182.750 84.788,182.671 84.444,182.850 84.444 C 183.028 84.444,183.175 84.286,183.175 84.093 C 183.175 83.900,183.533 83.460,183.971 83.116 C 184.409 82.771,184.696 82.373,184.608 82.231 C 184.521 82.089,184.822 81.879,185.278 81.764 C 185.734 81.650,186.014 81.464,185.901 81.351 C 185.556 81.005,184.776 80.991,184.569 81.326 M183.598 86.825 C 183.598 87.087,183.702 87.302,183.828 87.302 C 183.955 87.302,184.141 87.087,184.242 86.825 C 184.347 86.552,184.248 86.349,184.011 86.349 C 183.784 86.349,183.598 86.563,183.598 86.825 M168.296 89.950 C 168.101 90.184,168.036 90.470,168.151 90.585 C 168.491 90.925,169.841 90.823,169.841 90.457 C 169.841 90.273,169.700 90.209,169.527 90.315 C 169.347 90.426,169.294 90.299,169.403 90.016 C 169.639 89.400,168.794 89.349,168.296 89.950 M182.573 91.811 C 182.368 92.138,182.063 92.320,181.894 92.216 C 181.725 92.111,181.587 92.186,181.587 92.381 C 181.587 92.576,181.466 92.661,181.318 92.569 C 181.170 92.478,180.741 92.689,180.366 93.039 C 179.990 93.389,179.683 93.593,179.683 93.492 C 179.683 93.391,179.483 93.493,179.240 93.718 C 178.996 93.943,178.862 94.234,178.941 94.365 C 179.020 94.496,178.862 94.603,178.590 94.603 C 178.318 94.603,178.095 94.722,178.095 94.867 C 178.095 95.012,177.743 95.319,177.312 95.550 C 176.882 95.780,176.591 96.069,176.667 96.191 C 176.742 96.313,176.237 96.888,175.545 97.469 C 174.852 98.050,174.286 98.754,174.286 99.034 C 174.286 99.314,174.000 99.748,173.651 100.000 C 173.302 100.252,173.016 100.720,173.016 101.041 C 173.016 101.362,172.899 101.553,172.756 101.464 C 172.405 101.247,170.782 104.424,170.789 105.317 C 170.791 105.710,170.651 106.032,170.476 106.032 C 170.302 106.032,170.159 106.646,170.159 107.397 C 170.159 108.148,170.013 108.908,169.834 109.087 C 169.438 109.482,169.194 110.488,169.033 112.381 C 168.966 113.167,168.822 114.650,168.712 115.677 C 168.497 117.697,168.718 118.081,170.098 118.090 C 170.572 118.094,170.751 117.966,170.605 117.729 C 170.480 117.527,170.507 117.438,170.665 117.530 C 171.125 117.798,173.809 117.333,173.814 116.984 C 173.817 116.810,173.909 116.524,174.018 116.349 C 174.128 116.175,174.227 114.817,174.239 113.333 C 174.252 111.849,174.336 110.278,174.428 109.841 C 174.520 109.405,174.684 108.619,174.794 108.095 C 174.904 107.571,175.228 106.958,175.513 106.732 C 175.798 106.507,175.996 106.257,175.952 106.177 C 175.734 105.777,175.914 105.067,176.190 105.238 C 176.371 105.349,176.508 105.083,176.508 104.622 C 176.508 104.175,176.620 103.810,176.758 103.810 C 176.895 103.810,177.029 103.522,177.056 103.171 C 177.110 102.453,177.858 101.587,178.424 101.587 C 178.630 101.587,178.718 101.378,178.619 101.121 C 178.521 100.865,178.599 100.557,178.793 100.437 C 179.019 100.298,179.063 100.379,178.914 100.665 C 178.787 100.910,178.886 100.863,179.135 100.560 C 179.383 100.258,179.703 100.115,179.844 100.243 C 179.986 100.371,179.998 100.297,179.872 100.077 C 179.738 99.844,179.849 99.599,180.139 99.488 C 180.412 99.383,180.635 99.027,180.635 98.696 C 180.635 98.344,180.857 98.095,181.170 98.095 C 181.464 98.095,182.059 97.774,182.491 97.381 C 182.923 96.988,183.174 96.845,183.048 97.063 C 182.923 97.282,182.971 97.460,183.156 97.460 C 183.341 97.460,183.492 97.103,183.492 96.667 C 183.492 96.230,183.643 95.873,183.828 95.873 C 184.013 95.873,184.076 96.016,183.968 96.190 C 183.860 96.365,183.933 96.508,184.130 96.508 C 184.353 96.508,184.406 96.239,184.271 95.794 C 183.924 94.645,183.494 94.370,183.286 95.164 C 183.081 95.946,182.540 96.134,182.540 95.423 C 182.540 95.176,182.374 94.918,182.172 94.851 C 181.766 94.716,182.782 93.333,183.288 93.333 C 183.616 93.333,185.078 91.713,185.079 91.349 C 185.079 91.218,184.937 91.111,184.762 91.111 C 184.587 91.111,184.444 91.254,184.444 91.429 C 184.444 91.603,184.222 91.746,183.950 91.746 C 183.677 91.746,183.528 91.627,183.618 91.481 C 183.708 91.336,183.593 91.217,183.363 91.217 C 183.132 91.217,182.777 91.484,182.573 91.811 M172.364 130.615 C 172.642 130.950,172.651 131.241,172.398 131.715 C 171.935 132.580,172.105 136.137,172.619 136.335 C 172.837 136.419,173.016 136.671,173.016 136.895 C 173.016 137.331,178.297 137.448,178.978 137.027 C 179.551 136.673,179.396 131.746,178.812 131.746 C 178.446 131.746,178.418 131.646,178.693 131.315 C 178.989 130.958,178.599 130.872,176.430 130.821 C 174.989 130.787,173.674 130.624,173.508 130.459 C 172.980 129.933,171.919 130.078,172.364 130.615 M182.857 151.861 C 182.857 152.151,183.119 152.243,183.651 152.141 C 184.087 152.058,184.444 151.863,184.444 151.709 C 184.444 151.555,184.087 151.429,183.651 151.429 C 183.193 151.429,182.857 151.611,182.857 151.861 " stroke="none" fill="#da5993" fill-rule="evenodd"></path><path id="path2" d="M194.451 87.917 C 194.335 88.282,194.102 88.495,193.934 88.391 C 193.754 88.280,193.659 88.672,193.704 89.339 C 193.746 89.965,193.910 90.476,194.067 90.476 C 194.225 90.476,194.268 90.253,194.163 89.980 C 194.058 89.707,194.197 89.051,194.470 88.522 C 194.744 87.993,194.899 87.491,194.814 87.407 C 194.730 87.323,194.566 87.552,194.451 87.917 M167.126 92.091 C 166.860 92.521,167.518 93.229,167.852 92.872 C 167.986 92.729,167.916 92.547,167.696 92.469 C 167.477 92.391,167.378 92.196,167.477 92.036 C 167.576 91.877,167.585 91.746,167.498 91.746 C 167.410 91.746,167.243 91.901,167.126 92.091 M208.639 91.988 C 208.054 92.183,208.179 92.605,208.874 92.787 C 209.215 92.876,209.738 92.771,210.036 92.553 C 210.617 92.128,209.533 91.690,208.639 91.988 M166.255 92.804 C 166.154 93.066,166.277 93.360,166.528 93.456 C 167.040 93.652,167.107 93.384,166.706 92.751 C 166.488 92.407,166.403 92.417,166.255 92.804 M167.153 93.699 C 166.685 94.068,166.166 94.726,166.000 95.163 C 165.702 95.947,165.689 95.949,165.017 95.359 C 164.591 94.986,164.442 94.941,164.619 95.238 C 165.244 96.286,164.758 96.946,164.034 96.032 C 163.894 95.854,163.824 95.994,163.876 96.349 C 163.927 96.698,164.111 97.089,164.286 97.217 C 164.460 97.346,164.139 97.453,163.571 97.455 C 162.462 97.461,162.219 97.884,163.057 98.353 C 163.410 98.551,163.460 98.712,163.215 98.864 C 163.018 98.985,162.857 98.910,162.857 98.696 C 162.857 98.482,162.765 98.399,162.653 98.511 C 162.541 98.623,162.617 98.917,162.823 99.165 C 163.111 99.512,163.103 99.714,162.789 100.046 C 162.564 100.282,162.331 100.905,162.271 101.429 C 162.210 101.952,162.116 102.427,162.062 102.484 C 161.810 102.747,160.773 102.736,160.600 102.468 C 160.492 102.302,160.333 102.358,160.243 102.594 C 160.153 102.828,160.276 103.203,160.516 103.427 C 160.768 103.662,160.952 103.695,160.952 103.505 C 160.952 103.323,161.095 103.175,161.270 103.175 C 161.444 103.175,161.587 103.603,161.587 104.127 C 161.587 104.651,161.453 105.079,161.290 105.079 C 161.126 105.079,160.996 105.329,161.001 105.635 C 161.006 105.940,160.917 107.548,160.803 109.206 C 160.494 113.689,160.552 118.789,160.924 119.767 C 161.105 120.242,161.175 120.830,161.081 121.076 C 160.986 121.322,161.062 121.617,161.248 121.733 C 161.435 121.848,161.587 122.211,161.587 122.540 C 161.587 122.868,161.752 123.239,161.954 123.364 C 162.195 123.513,162.241 123.437,162.089 123.144 C 161.962 122.899,162.078 122.970,162.347 123.301 C 162.768 123.819,162.911 123.843,163.360 123.470 C 163.648 123.231,164.211 123.019,164.612 122.997 C 166.009 122.923,167.404 118.730,166.032 118.730 C 165.834 118.730,165.714 116.885,165.714 113.828 C 165.714 110.903,165.842 108.847,166.032 108.730 C 166.206 108.622,166.349 108.034,166.349 107.423 C 166.349 106.763,166.478 106.391,166.667 106.508 C 166.841 106.616,166.995 106.589,167.008 106.447 C 167.132 105.090,167.593 103.821,168.901 101.231 C 169.057 100.923,169.011 100.554,168.787 100.312 C 168.557 100.063,168.548 99.982,168.763 100.102 C 168.955 100.209,169.384 100.076,169.715 99.805 C 170.303 99.325,170.302 99.318,169.683 99.499 C 169.057 99.681,169.057 99.677,169.664 99.207 C 170.003 98.945,170.396 98.730,170.537 98.730 C 170.678 98.730,170.794 98.373,170.794 97.937 C 170.794 97.417,170.616 97.143,170.280 97.143 C 169.909 97.143,169.808 97.355,169.913 97.908 C 170.011 98.420,169.932 98.623,169.674 98.524 C 169.462 98.443,169.203 98.599,169.099 98.871 C 168.994 99.143,168.693 99.365,168.429 99.365 C 167.951 99.365,167.469 100.612,167.541 101.660 C 167.562 101.962,167.481 102.195,167.361 102.178 C 166.524 102.059,166.285 102.239,166.667 102.698 C 166.884 102.960,166.937 103.175,166.785 103.176 C 166.633 103.176,166.244 103.819,165.921 104.604 C 165.293 106.131,165.205 106.185,164.056 105.748 C 163.059 105.369,163.217 103.645,164.445 101.512 C 164.619 101.209,164.762 100.673,164.762 100.322 C 164.762 99.970,164.905 99.683,165.079 99.683 C 165.254 99.683,165.397 99.482,165.397 99.236 C 165.397 98.991,165.700 98.170,166.071 97.411 C 166.442 96.652,166.845 95.827,166.965 95.577 C 167.641 94.179,169.382 94.522,170.406 96.255 C 171.067 97.374,171.442 97.390,171.351 96.295 C 171.303 95.715,170.953 95.254,170.244 94.835 C 169.673 94.498,169.206 94.099,169.206 93.948 C 169.206 93.192,167.986 93.044,167.153 93.699 M210.097 93.941 C 209.519 94.616,209.653 94.921,210.529 94.921 C 211.468 94.921,211.197 95.558,210.096 95.943 C 209.210 96.251,209.159 96.325,209.699 96.522 C 210.039 96.646,210.490 96.609,210.700 96.441 C 210.911 96.273,211.232 96.228,211.415 96.341 C 211.597 96.453,211.746 96.394,211.746 96.209 C 211.746 96.024,211.897 95.873,212.081 95.873 C 212.270 95.873,212.200 96.183,211.923 96.579 C 211.651 96.967,211.429 97.389,211.429 97.517 C 211.429 97.806,214.495 97.675,214.797 97.373 C 214.918 97.252,215.200 97.401,215.423 97.703 C 215.770 98.173,215.892 98.189,216.248 97.810 C 216.597 97.441,216.587 97.395,216.190 97.532 C 215.861 97.646,215.700 97.465,215.669 96.944 C 215.643 96.529,215.786 96.188,215.986 96.186 C 216.190 96.183,216.147 96.053,215.888 95.889 C 215.635 95.729,215.319 95.664,215.187 95.746 C 215.056 95.827,214.724 95.461,214.450 94.931 C 214.176 94.401,213.876 93.968,213.783 93.968 C 213.690 93.968,213.721 94.147,213.852 94.365 C 214.023 94.649,213.942 94.642,213.568 94.339 C 213.281 94.106,212.771 94.003,212.434 94.110 C 212.041 94.235,211.755 94.131,211.635 93.819 C 211.381 93.157,210.724 93.209,210.097 93.941 M222.296 97.143 C 222.296 97.754,222.361 98.004,222.441 97.698 C 222.521 97.393,222.521 96.893,222.441 96.587 C 222.361 96.282,222.296 96.532,222.296 97.143 M192.155 98.095 C 192.064 98.444,191.863 98.730,191.709 98.730 C 191.555 98.730,191.429 98.869,191.429 99.038 C 191.429 99.669,192.321 98.975,192.463 98.233 C 192.640 97.305,192.391 97.194,192.155 98.095 M186.508 98.413 C 186.616 98.587,186.481 98.730,186.209 98.730 C 185.827 98.730,185.714 99.091,185.714 100.314 C 185.714 101.809,185.670 101.894,184.921 101.832 C 184.484 101.796,184.127 101.583,184.127 101.359 C 184.127 101.119,183.738 100.952,183.175 100.952 C 182.651 100.952,182.222 101.100,182.222 101.280 C 182.222 101.461,181.722 102.108,181.111 102.720 C 179.896 103.935,179.552 105.792,180.476 106.147 C 181.795 106.653,180.770 107.627,179.174 107.384 C 178.189 107.234,177.521 107.900,177.954 108.600 C 178.052 108.759,178.003 108.889,177.845 108.889 C 177.686 108.889,177.298 109.463,176.982 110.164 C 176.330 111.610,176.739 113.016,177.813 113.016 C 179.195 113.016,178.458 114.568,177.063 114.593 C 175.151 114.628,176.709 120.311,178.632 120.315 C 179.364 120.316,180.051 120.460,180.159 120.635 C 180.267 120.810,180.168 120.954,179.939 120.956 C 179.711 120.958,179.191 121.474,178.784 122.102 C 178.377 122.730,178.177 123.162,178.339 123.061 C 178.501 122.961,178.647 123.335,178.663 123.893 C 178.679 124.451,178.843 124.958,179.028 125.020 C 179.214 125.082,179.365 125.311,179.365 125.528 C 179.365 125.746,179.722 126.116,180.159 126.349 C 180.595 126.583,180.952 126.880,180.952 127.010 C 180.952 127.291,181.793 127.202,182.107 126.887 C 182.514 126.481,183.704 126.658,183.704 127.125 C 183.704 127.377,183.556 127.556,183.376 127.522 C 183.196 127.488,183.031 128.067,183.011 128.810 C 182.980 129.919,183.076 130.159,183.554 130.159 C 184.633 130.159,186.167 131.270,185.833 131.810 C 185.747 131.950,185.820 132.063,185.994 132.063 C 186.169 132.063,186.396 131.927,186.499 131.760 C 186.603 131.593,186.861 131.498,187.074 131.549 C 187.286 131.600,187.353 131.582,187.222 131.509 C 186.743 131.241,187.002 130.794,187.638 130.794 C 187.997 130.794,188.203 130.937,188.095 131.111 C 187.987 131.286,188.035 131.429,188.201 131.429 C 188.367 131.429,188.598 131.183,188.713 130.882 C 188.894 130.411,188.967 130.400,189.240 130.803 C 189.496 131.178,189.535 131.145,189.443 130.635 C 189.379 130.286,189.190 130.025,189.023 130.055 C 188.855 130.085,188.768 129.585,188.829 128.944 C 188.927 127.914,188.723 127.518,187.082 125.556 C 183.433 121.191,182.306 119.528,181.809 117.775 C 180.771 114.112,180.687 113.656,181.018 113.451 C 181.196 113.341,181.614 112.636,181.947 111.883 C 183.177 109.102,187.357 106.043,189.394 106.432 C 189.823 106.514,190.247 106.462,190.337 106.317 C 190.427 106.172,190.922 106.137,191.437 106.240 C 192.212 106.395,192.419 106.302,192.642 105.699 C 192.819 105.221,192.990 105.099,193.141 105.343 C 193.486 105.901,193.904 105.792,194.307 105.039 C 194.529 104.625,194.552 104.287,194.368 104.166 C 193.870 103.838,193.627 101.969,194.060 101.793 C 194.353 101.675,194.350 101.631,194.048 101.612 C 193.829 101.599,193.642 101.337,193.631 101.032 C 193.616 100.615,193.537 100.659,193.317 101.208 C 193.029 101.925,193.008 101.928,192.259 101.367 C 191.838 101.052,191.556 100.691,191.632 100.566 C 191.708 100.441,191.479 100.156,191.123 99.934 C 190.767 99.712,190.476 99.295,190.476 99.008 C 190.476 98.397,189.581 98.106,187.680 98.100 C 186.848 98.097,186.389 98.220,186.508 98.413 M193.085 99.074 C 193.063 99.824,193.169 100.009,193.539 99.867 C 193.803 99.766,194.066 99.683,194.123 99.683 C 194.180 99.683,194.061 99.327,193.859 98.891 C 193.368 97.832,193.118 97.891,193.085 99.074 M172.063 117.778 C 172.063 117.952,172.269 118.095,172.521 118.095 C 172.773 118.095,173.067 117.952,173.175 117.778 C 173.283 117.603,173.077 117.460,172.717 117.460 C 172.358 117.460,172.063 117.603,172.063 117.778 M203.667 117.857 C 203.415 118.677,203.602 119.303,204.048 119.132 C 204.391 119.000,204.405 118.902,204.107 118.718 C 203.893 118.585,203.805 118.248,203.912 117.969 C 204.019 117.689,204.036 117.460,203.948 117.460 C 203.861 117.460,203.735 117.639,203.667 117.857 M194.603 121.431 C 194.603 121.820,196.306 123.458,196.553 123.306 C 197.085 122.977,196.813 122.352,195.903 121.814 C 194.954 121.254,194.603 121.150,194.603 121.431 M175.677 123.413 C 175.760 125.023,176.306 125.085,176.412 123.497 C 176.474 122.580,176.374 122.222,176.057 122.222 C 175.748 122.222,175.634 122.579,175.677 123.413 M239.532 122.527 C 239.262 122.963,239.501 123.290,239.970 123.128 C 240.162 123.062,240.187 122.838,240.030 122.585 C 239.831 122.266,239.702 122.251,239.532 122.527 M199.945 123.804 C 199.463 124.353,199.274 124.785,199.485 124.856 C 199.734 124.939,199.703 125.236,199.380 125.842 C 198.981 126.590,198.980 126.746,199.371 126.988 C 199.619 127.141,199.700 127.382,199.551 127.522 C 199.401 127.663,199.214 127.599,199.136 127.381 C 199.058 127.163,198.792 126.984,198.545 126.984 C 198.298 126.984,198.095 126.770,198.095 126.508 C 198.095 125.959,197.818 125.913,197.143 126.349 C 196.825 126.554,196.799 126.659,197.063 126.662 C 197.282 126.664,197.460 126.854,197.460 127.083 C 197.460 127.312,197.746 127.806,198.095 128.181 C 198.799 128.937,198.970 130.231,198.333 129.987 C 198.086 129.892,197.919 130.139,197.890 130.643 C 197.852 131.301,197.926 131.383,198.287 131.084 C 198.641 130.790,198.730 130.844,198.730 131.356 C 198.730 131.708,198.516 132.078,198.254 132.178 C 197.992 132.279,197.778 132.588,197.778 132.866 C 197.778 133.148,197.626 133.277,197.433 133.158 C 197.208 133.019,197.124 133.260,197.191 133.853 C 197.264 134.489,197.165 134.734,196.863 134.670 C 196.552 134.603,196.471 134.845,196.574 135.543 C 196.656 136.105,196.573 136.512,196.374 136.518 C 196.186 136.523,196.281 136.672,196.586 136.850 C 197.108 137.154,197.104 137.211,196.524 137.833 C 196.004 138.392,195.976 138.561,196.343 138.928 C 196.687 139.272,196.783 141.144,196.805 147.990 C 196.833 156.787,196.954 157.894,198.180 160.635 C 198.532 161.421,199.501 163.601,200.335 165.480 C 201.169 167.359,202.863 170.405,204.100 172.248 C 205.337 174.091,206.349 175.779,206.349 175.998 C 206.349 177.546,208.187 177.961,212.857 177.468 C 213.032 177.450,213.589 177.533,214.095 177.652 C 214.748 177.807,214.950 177.764,214.790 177.506 C 214.631 177.249,215.128 177.143,216.498 177.143 L 218.431 177.143 218.401 169.489 C 218.373 162.200,218.342 161.827,217.757 161.674 C 217.419 161.586,217.143 161.387,217.143 161.233 C 217.143 161.079,216.643 160.952,216.032 160.952 C 215.421 160.952,214.921 160.810,214.921 160.635 C 214.921 160.460,214.626 160.317,214.267 160.317 C 213.907 160.317,213.702 160.460,213.810 160.635 C 213.917 160.810,213.864 160.952,213.692 160.952 C 213.519 160.952,213.332 160.631,213.276 160.238 C 213.202 159.715,212.962 159.524,212.381 159.524 C 211.944 159.524,211.473 159.345,211.333 159.127 C 211.194 158.909,210.868 158.730,210.609 158.730 C 209.988 158.730,208.071 156.798,207.779 155.878 C 207.601 155.315,207.488 155.252,207.272 155.593 C 207.071 155.911,206.993 155.808,206.989 155.221 C 206.984 154.357,205.632 151.356,204.792 150.342 C 204.370 149.834,204.365 149.772,204.762 149.969 C 205.185 150.179,205.185 150.159,204.762 149.785 C 204.308 149.385,203.876 148.579,203.175 146.825 C 203.000 146.389,202.722 145.710,202.556 145.317 C 201.995 143.986,201.900 139.048,202.436 139.048 C 202.750 139.048,202.886 138.759,202.847 138.175 C 202.816 137.694,202.817 136.944,202.849 136.508 L 202.909 135.714 203.305 136.610 C 203.523 137.102,203.830 137.459,203.989 137.403 C 204.147 137.347,204.329 137.573,204.393 137.906 C 204.457 138.238,204.781 138.992,205.112 139.582 C 205.443 140.172,205.714 140.864,205.714 141.121 C 205.714 141.377,205.839 141.587,205.991 141.587 C 206.144 141.587,206.536 142.207,206.864 142.964 C 207.192 143.722,207.567 144.364,207.698 144.393 C 207.829 144.421,207.901 144.526,207.857 144.626 C 207.813 144.725,208.036 144.951,208.351 145.127 C 208.666 145.304,209.061 145.808,209.228 146.247 C 209.395 146.686,209.815 147.120,210.163 147.211 C 210.510 147.301,210.794 147.502,210.794 147.656 C 210.794 147.810,211.064 147.937,211.395 147.937 C 211.725 147.937,212.074 148.140,212.169 148.388 C 212.278 148.672,212.615 148.780,213.076 148.678 C 213.662 148.549,213.714 148.585,213.333 148.856 C 212.803 149.235,212.804 149.236,214.099 149.386 C 214.607 149.445,215.107 149.608,215.210 149.748 C 215.313 149.888,215.825 150.051,216.349 150.111 C 216.873 150.170,217.349 150.348,217.407 150.506 C 217.466 150.664,217.901 150.794,218.376 150.794 C 218.850 150.794,219.395 150.951,219.587 151.143 C 219.779 151.335,220.441 151.492,221.058 151.492 C 221.674 151.492,222.244 151.662,222.323 151.869 C 222.403 152.077,223.016 152.283,223.685 152.328 C 224.354 152.373,224.990 152.554,225.099 152.730 C 225.207 152.906,225.426 153.025,225.585 152.995 C 226.581 152.807,228.266 153.058,228.076 153.365 C 227.929 153.603,228.304 153.691,229.247 153.640 C 231.679 153.509,232.603 153.619,232.063 153.974 C 231.483 154.356,232.611 154.263,233.227 153.878 C 233.430 153.751,233.655 153.821,233.726 154.034 C 233.877 154.488,240.317 154.714,240.317 154.265 C 240.317 154.113,240.533 154.071,240.797 154.172 C 241.157 154.310,241.248 154.170,241.163 153.607 C 241.066 152.971,240.813 152.827,239.493 152.657 C 233.477 151.881,234.004 146.193,240.155 145.499 C 240.856 145.420,241.564 145.221,241.730 145.058 C 242.222 144.575,242.540 144.718,242.540 145.423 C 242.540 145.811,242.704 146.030,242.937 145.952 C 243.414 145.793,243.484 145.071,243.076 144.524 C 242.875 144.255,242.920 144.125,243.215 144.122 C 243.560 144.118,243.551 144.047,243.175 143.780 C 242.816 143.527,242.797 143.404,243.095 143.283 C 243.566 143.092,243.634 141.905,243.175 141.905 C 243.000 141.905,242.857 141.690,242.857 141.429 C 242.857 141.167,243.024 140.952,243.228 140.952 C 243.431 140.952,243.512 140.866,243.406 140.761 C 243.301 140.655,242.755 140.798,242.193 141.078 C 241.632 141.358,240.444 141.590,239.554 141.594 C 238.635 141.598,237.339 141.872,236.553 142.229 C 234.524 143.150,234.081 143.052,233.294 141.511 C 232.443 139.842,232.357 137.094,233.129 136.241 C 233.416 135.924,233.651 135.517,233.651 135.337 C 233.651 135.157,234.233 134.349,234.944 133.541 C 236.954 131.257,236.507 130.550,233.880 131.861 C 230.005 133.794,222.922 133.172,219.466 130.595 C 218.910 130.180,218.329 129.841,218.176 129.841 C 217.948 129.841,215.562 127.533,213.360 125.182 C 212.963 124.757,212.867 124.785,212.525 125.424 L 212.139 126.145 211.708 125.453 C 211.161 124.578,207.190 124.401,206.869 125.238 C 206.632 125.857,205.587 125.850,205.068 125.225 C 204.786 124.885,204.560 124.836,204.331 125.066 C 203.884 125.512,202.755 125.485,202.286 125.016 C 202.076 124.806,201.900 124.771,201.894 124.937 C 201.888 125.102,201.631 124.706,201.323 124.055 L 200.763 122.872 199.945 123.804 M198.144 123.631 C 198.205 123.922,198.397 124.153,198.571 124.144 C 199.043 124.119,198.956 123.409,198.462 123.244 C 198.195 123.155,198.076 123.300,198.144 123.631 M196.491 124.965 C 196.316 125.425,196.245 125.874,196.333 125.962 C 196.622 126.252,197.460 125.331,197.460 124.723 C 197.460 123.847,196.859 123.997,196.491 124.965 M239.365 125.140 C 239.365 125.822,239.355 125.823,238.873 125.219 C 238.412 124.643,238.392 124.685,238.563 125.873 C 238.663 126.571,238.874 128.071,239.032 129.206 C 239.553 132.944,241.336 135.260,242.559 133.786 C 242.766 133.537,243.357 133.333,243.874 133.333 C 245.050 133.333,244.928 132.375,243.345 129.206 C 242.778 128.071,242.146 126.734,241.942 126.235 C 241.663 125.557,241.411 125.369,240.943 125.491 C 240.482 125.612,240.317 125.496,240.317 125.050 C 240.317 124.717,240.103 124.444,239.841 124.444 C 239.563 124.444,239.365 124.733,239.365 125.140 M167.739 126.905 C 167.307 127.971,167.165 130.514,167.571 129.894 C 167.785 129.567,167.886 129.615,168.014 130.103 C 168.154 130.640,168.498 130.753,170.284 130.844 C 171.813 130.923,172.350 130.849,172.244 130.576 C 172.164 130.369,172.212 130.155,172.349 130.100 C 172.856 129.898,172.987 127.673,172.517 127.282 C 172.267 127.076,172.063 126.710,172.063 126.469 C 172.063 125.505,168.145 125.900,167.739 126.905 M183.838 175.045 C 183.594 175.338,183.555 175.556,183.745 175.556 C 183.926 175.556,184.337 175.640,184.657 175.744 C 185.006 175.857,185.099 175.826,184.889 175.665 C 184.697 175.517,184.477 175.203,184.401 174.965 C 184.290 174.621,184.177 174.637,183.838 175.045 M102.990 198.730 C 102.990 202.135,103.037 203.528,103.094 201.825 C 103.151 200.123,103.151 197.337,103.094 195.635 C 103.037 193.933,102.990 195.325,102.990 198.730 M76.630 201.905 C 76.630 204.087,76.681 204.980,76.743 203.889 C 76.805 202.798,76.805 201.012,76.743 199.921 C 76.681 198.829,76.630 199.722,76.630 201.905 M155.670 205.079 C 155.670 206.738,155.724 207.417,155.789 206.587 C 155.854 205.758,155.854 204.401,155.789 203.571 C 155.724 202.742,155.670 203.421,155.670 205.079 " stroke="none" fill="#70b7e2" fill-rule="evenodd"></path><path id="path3" d="M207.185 72.853 C 207.287 73.117,207.201 73.333,206.995 73.333 C 206.227 73.333,205.872 74.121,206.066 75.397 C 206.172 76.095,206.279 76.501,206.304 76.298 C 206.356 75.870,207.047 75.915,207.666 76.385 C 208.114 76.726,209.187 77.054,212.793 77.953 C 217.446 79.114,223.616 82.971,226.648 86.614 C 231.577 92.537,233.558 98.121,235.391 111.270 C 235.635 113.016,236.131 116.373,236.494 118.730 C 236.856 121.087,237.294 124.230,237.467 125.714 C 237.640 127.198,237.921 129.086,238.091 129.910 C 238.262 130.733,238.317 131.826,238.215 132.338 C 238.066 133.084,238.155 133.309,238.664 133.471 C 239.085 133.605,239.249 133.869,239.148 134.252 C 238.994 134.844,240.648 135.464,241.302 135.059 C 241.723 134.799,241.630 135.314,241.138 135.962 C 240.801 136.406,240.443 136.485,239.466 136.329 C 238.536 136.180,238.118 136.257,237.803 136.636 C 237.572 136.915,237.257 137.143,237.104 137.143 C 236.627 137.143,236.799 136.439,237.381 136.009 C 237.823 135.682,237.856 135.517,237.544 135.200 C 237.230 134.882,237.003 134.941,236.409 135.499 C 235.724 136.143,235.238 136.144,235.238 135.504 C 235.238 135.359,235.751 134.673,236.377 133.979 C 238.339 131.808,236.796 129.047,234.408 130.455 C 233.797 130.816,233.048 131.111,232.744 131.111 C 232.439 131.111,232.055 131.231,231.889 131.377 C 231.163 132.019,227.910 132.499,226.860 132.119 C 226.293 131.914,225.523 131.746,225.151 131.746 C 223.338 131.746,218.933 129.328,216.338 126.909 C 212.946 123.746,212.384 122.174,213.730 119.613 C 214.286 118.556,214.469 117.600,214.555 115.304 C 214.680 111.963,214.951 111.582,217.553 111.081 C 219.381 110.730,220.663 111.206,221.739 112.636 C 223.660 115.190,231.352 118.538,231.917 117.067 C 232.175 116.395,230.538 108.046,229.194 103.175 C 229.025 102.563,228.545 100.706,228.127 99.048 C 226.341 91.964,224.221 88.346,220.349 85.773 C 217.869 84.126,214.921 83.049,214.921 83.791 C 214.921 83.997,214.807 84.094,214.669 84.009 C 214.531 83.923,214.394 84.163,214.366 84.542 C 214.337 84.920,214.415 85.089,214.538 84.917 C 214.661 84.744,215.048 84.564,215.397 84.516 C 215.980 84.436,215.986 84.456,215.472 84.772 C 214.872 85.140,215.378 86.032,216.187 86.032 C 216.384 86.032,216.457 86.175,216.349 86.349 C 216.241 86.524,216.316 86.667,216.516 86.667 C 217.138 86.667,220.886 90.833,220.718 91.338 C 220.661 91.510,220.833 91.833,221.101 92.055 C 221.368 92.277,221.587 92.715,221.587 93.028 C 221.587 93.342,221.747 93.651,221.941 93.716 C 223.062 94.089,222.049 101.905,220.880 101.905 C 220.745 101.905,220.635 102.178,220.635 102.511 C 220.635 102.845,220.171 103.511,219.603 103.991 C 219.036 104.471,218.607 104.984,218.651 105.130 C 218.694 105.277,218.349 105.397,217.884 105.397 C 217.418 105.397,217.130 105.490,217.244 105.604 C 217.511 105.871,215.982 106.667,215.202 106.667 C 214.873 106.667,214.603 106.810,214.603 106.984 C 214.603 107.159,214.246 107.302,213.810 107.302 C 213.360 107.302,213.016 107.485,213.016 107.724 C 213.016 107.957,212.659 108.338,212.222 108.571 C 211.786 108.805,211.429 109.134,211.429 109.302 C 211.429 109.470,211.132 109.865,210.770 110.179 C 210.240 110.639,210.093 111.190,210.020 113.003 C 209.923 115.369,208.494 117.409,206.905 117.447 C 206.599 117.454,206.349 117.603,206.349 117.778 C 206.349 117.952,206.135 118.095,205.873 118.095 C 205.611 118.095,205.397 118.207,205.397 118.343 C 205.397 119.095,203.621 119.248,203.559 118.502 C 203.516 117.978,203.619 117.812,203.891 117.966 C 204.202 118.141,204.202 118.098,203.889 117.761 C 203.653 117.507,203.492 116.466,203.492 115.193 C 203.492 114.016,203.349 112.965,203.175 112.857 C 203.000 112.749,202.857 112.384,202.857 112.045 C 202.857 111.706,202.724 111.429,202.561 111.429 C 202.398 111.429,202.174 111.141,202.062 110.789 C 201.950 110.437,201.726 110.231,201.564 110.332 C 201.402 110.432,201.270 110.372,201.270 110.199 C 201.270 110.026,200.948 109.784,200.556 109.661 C 200.163 109.539,199.745 109.288,199.627 109.105 C 199.485 108.882,199.226 108.923,198.852 109.227 C 198.501 109.512,198.380 109.534,198.529 109.286 C 198.696 109.009,198.498 108.875,197.876 108.845 C 196.182 108.760,194.444 108.954,194.339 109.238 C 194.280 109.395,194.029 109.524,193.780 109.524 C 193.202 109.524,191.429 111.206,191.429 111.754 C 191.429 111.982,191.334 112.075,191.219 111.960 C 191.104 111.844,190.810 112.034,190.567 112.381 C 190.032 113.146,189.943 119.769,190.467 119.944 C 190.646 120.004,190.794 120.305,190.794 120.612 C 190.794 121.214,191.564 122.005,192.460 122.323 C 192.766 122.431,193.016 122.810,193.016 123.165 C 193.016 123.519,193.135 123.810,193.280 123.810 C 193.425 123.810,193.746 124.202,193.994 124.683 C 194.242 125.163,194.909 126.001,195.476 126.545 C 196.044 127.090,196.508 127.697,196.508 127.895 C 196.508 128.092,196.634 128.254,196.788 128.254 C 196.943 128.254,197.140 128.526,197.227 128.857 C 197.313 129.189,197.687 129.623,198.057 129.821 C 198.974 130.312,199.001 129.153,198.095 128.181 C 197.746 127.806,197.460 127.312,197.460 127.083 C 197.460 126.854,197.282 126.664,197.063 126.662 C 196.799 126.659,196.825 126.554,197.143 126.349 C 197.818 125.913,198.095 125.959,198.095 126.508 C 198.095 126.770,198.298 126.984,198.545 126.984 C 198.792 126.984,199.058 127.163,199.136 127.381 C 199.214 127.599,199.401 127.663,199.551 127.522 C 199.700 127.382,199.619 127.141,199.371 126.988 C 198.980 126.746,198.981 126.590,199.380 125.842 C 199.703 125.236,199.734 124.939,199.485 124.856 C 199.274 124.785,199.463 124.353,199.945 123.804 L 200.763 122.872 201.323 124.055 C 201.631 124.706,201.888 125.102,201.894 124.937 C 201.900 124.771,202.076 124.806,202.286 125.016 C 202.755 125.485,203.884 125.512,204.331 125.066 C 204.560 124.836,204.786 124.885,205.068 125.225 C 205.587 125.850,206.632 125.857,206.869 125.238 C 207.190 124.401,211.161 124.578,211.708 125.453 L 212.139 126.145 212.525 125.424 C 212.867 124.785,212.963 124.757,213.360 125.182 C 215.562 127.533,217.948 129.841,218.176 129.841 C 218.329 129.841,218.910 130.180,219.466 130.595 C 222.922 133.172,230.005 133.794,233.880 131.861 C 236.507 130.550,236.954 131.257,234.944 133.541 C 234.233 134.349,233.651 135.157,233.651 135.337 C 233.651 135.517,233.416 135.924,233.129 136.241 C 232.357 137.094,232.443 139.842,233.294 141.511 C 234.081 143.052,234.524 143.150,236.553 142.229 C 237.317 141.882,238.635 141.598,239.497 141.594 C 241.240 141.586,243.207 140.848,243.735 140.001 C 244.056 139.488,243.985 139.469,242.835 139.760 C 242.149 139.935,241.587 140.211,241.587 140.375 C 241.587 140.538,241.429 140.575,241.236 140.455 C 240.991 140.304,241.015 140.157,241.315 139.970 C 241.666 139.752,241.672 139.582,241.347 139.057 C 240.985 138.475,241.023 138.413,241.743 138.413 C 242.181 138.413,242.540 138.540,242.540 138.696 C 242.540 138.852,242.754 139.062,243.016 139.162 C 243.664 139.411,243.647 138.296,242.993 137.642 C 242.719 137.367,242.612 137.138,242.755 137.133 C 242.899 137.127,242.741 136.915,242.406 136.661 C 241.427 135.920,243.542 134.310,245.159 134.566 C 245.290 134.586,245.397 134.465,245.397 134.296 C 245.397 134.127,245.610 134.070,245.870 134.170 C 246.140 134.273,246.428 134.134,246.539 133.844 C 246.646 133.565,246.869 133.421,247.034 133.523 C 247.200 133.625,247.623 133.378,247.974 132.973 C 248.342 132.549,248.469 132.188,248.275 132.123 C 247.852 131.982,247.826 131.111,248.244 131.111 C 248.413 131.111,248.473 130.907,248.378 130.658 C 248.279 130.402,247.919 130.260,247.551 130.331 C 246.635 130.507,246.567 130.648,247.128 131.209 C 247.807 131.889,247.744 132.909,247.011 133.101 C 246.336 133.277,245.714 132.810,245.714 132.127 C 245.714 131.882,244.993 130.255,244.112 128.511 C 243.230 126.766,242.391 125.102,242.247 124.812 C 242.103 124.523,241.665 123.666,241.274 122.908 C 239.541 119.551,239.107 115.134,240.476 114.790 C 241.203 114.608,241.270 114.444,241.270 112.832 C 241.270 111.741,241.390 111.148,241.587 111.270 C 241.768 111.382,241.905 111.108,241.905 110.635 C 241.905 110.162,242.041 109.888,242.222 110.000 C 242.397 110.108,242.540 109.931,242.540 109.606 C 242.540 109.281,242.718 108.836,242.937 108.616 C 243.255 108.296,243.228 108.256,242.802 108.418 C 242.491 108.537,242.011 108.380,241.644 108.040 C 241.299 107.721,240.494 107.032,239.855 106.508 C 237.400 104.496,234.648 100.152,233.824 96.990 C 233.572 96.022,233.284 95.098,233.185 94.937 C 232.882 94.448,232.764 86.984,233.059 86.984 C 233.210 86.984,233.333 86.761,233.333 86.489 C 233.333 86.217,233.190 86.083,233.016 86.190 C 232.841 86.298,232.698 86.224,232.698 86.026 C 232.698 85.606,230.152 83.199,229.683 83.176 C 229.508 83.167,229.008 82.866,228.571 82.505 C 228.135 82.145,227.992 81.954,228.254 82.083 C 228.585 82.244,228.633 82.211,228.413 81.974 C 228.238 81.786,227.891 81.587,227.642 81.531 C 227.193 81.430,226.355 80.850,225.543 80.079 C 225.313 79.861,224.900 79.683,224.626 79.683 C 224.351 79.683,224.127 79.550,224.127 79.387 C 224.127 79.225,223.806 79.043,223.413 78.983 C 222.978 78.916,222.740 78.690,222.804 78.405 C 222.862 78.147,222.804 78.042,222.675 78.172 C 222.545 78.301,222.248 78.248,222.013 78.054 C 221.779 77.859,221.587 77.795,221.587 77.910 C 221.587 78.025,221.275 77.829,220.893 77.473 C 220.510 77.117,219.863 76.825,219.454 76.825 C 219.045 76.825,218.631 76.620,218.535 76.369 C 218.439 76.118,218.176 75.984,217.951 76.070 C 217.726 76.156,217.320 76.004,217.048 75.733 C 216.776 75.461,216.327 75.238,216.050 75.238 C 215.773 75.238,215.299 75.113,214.996 74.960 C 213.937 74.425,212.169 73.968,211.158 73.968 C 210.565 73.968,210.066 73.778,209.964 73.512 C 209.867 73.261,209.599 73.129,209.367 73.218 C 209.136 73.307,208.509 73.153,207.974 72.876 C 207.123 72.437,207.024 72.434,207.185 72.853 M195.934 87.533 C 195.357 87.604,194.806 87.866,194.710 88.115 C 194.615 88.364,194.387 88.475,194.203 88.362 C 194.011 88.243,193.964 88.308,194.093 88.516 C 194.215 88.714,194.151 89.182,193.951 89.556 C 193.751 89.929,193.727 90.149,193.897 90.044 C 194.067 89.939,194.206 90.207,194.206 90.640 C 194.206 92.120,194.674 92.307,198.502 92.358 C 200.461 92.385,202.111 92.543,202.169 92.711 C 202.228 92.879,202.694 93.016,203.205 93.016 C 204.142 93.016,205.356 93.538,205.789 94.127 C 205.944 94.339,206.025 94.339,206.032 94.127 C 206.038 93.915,206.120 93.915,206.277 94.127 C 206.869 94.923,209.698 96.099,210.398 95.840 C 211.257 95.522,211.342 94.921,210.529 94.921 C 209.653 94.921,209.519 94.616,210.097 93.941 C 210.724 93.209,211.381 93.157,211.635 93.819 C 211.755 94.131,212.041 94.235,212.434 94.110 C 212.771 94.003,213.241 94.077,213.479 94.275 C 213.803 94.543,213.971 94.538,214.148 94.252 C 214.292 94.019,214.250 93.953,214.040 94.083 C 213.851 94.199,213.605 94.007,213.494 93.655 C 213.382 93.304,213.113 93.016,212.896 93.016 C 212.678 93.016,212.194 92.730,211.819 92.381 C 211.444 92.032,211.038 91.746,210.916 91.746 C 210.794 91.746,210.217 91.382,209.633 90.936 C 209.049 90.491,208.571 90.210,208.571 90.312 C 208.571 90.415,208.250 90.316,207.857 90.092 C 207.128 89.677,206.938 89.624,205.934 89.560 C 205.618 89.540,205.448 89.381,205.556 89.206 C 205.672 89.017,205.294 88.889,204.622 88.889 C 204.000 88.889,203.492 88.746,203.492 88.571 C 203.492 88.391,202.561 88.254,201.333 88.254 C 200.046 88.254,199.002 88.094,198.747 87.857 C 198.401 87.536,198.369 87.546,198.578 87.912 C 198.767 88.245,198.636 88.224,198.077 87.833 C 197.660 87.541,197.244 87.324,197.152 87.352 C 197.059 87.380,196.512 87.461,195.934 87.533 M210.036 92.553 C 209.484 92.956,208.254 92.831,208.254 92.370 C 208.254 91.995,208.919 91.840,209.800 92.008 C 210.506 92.143,210.527 92.193,210.036 92.553 M167.192 95.184 C 166.903 95.503,166.667 95.927,166.667 96.126 C 166.667 96.326,166.381 96.997,166.032 97.619 C 165.683 98.241,165.397 98.959,165.397 99.216 C 165.397 99.473,165.254 99.683,165.079 99.683 C 164.905 99.683,164.762 99.970,164.762 100.322 C 164.762 100.673,164.619 101.209,164.445 101.512 C 163.217 103.645,163.059 105.369,164.056 105.748 C 165.205 106.185,165.293 106.131,165.921 104.604 C 166.244 103.819,166.633 103.176,166.785 103.176 C 166.937 103.175,166.884 102.960,166.667 102.698 C 166.285 102.239,166.524 102.059,167.361 102.178 C 167.481 102.195,167.562 101.962,167.541 101.660 C 167.469 100.612,167.951 99.365,168.429 99.365 C 168.693 99.365,168.994 99.143,169.099 98.871 C 169.203 98.599,169.462 98.443,169.674 98.524 C 169.936 98.625,170.010 98.413,169.905 97.862 C 169.763 97.120,169.822 97.069,170.592 97.262 C 171.422 97.471,171.426 97.464,170.876 96.778 C 169.105 94.571,168.129 94.149,167.192 95.184 M214.485 95.000 C 214.615 95.218,215.008 95.791,215.358 96.272 C 215.852 96.950,215.910 97.233,215.617 97.526 C 215.323 97.819,215.238 97.815,215.238 97.505 C 215.238 97.260,215.084 97.205,214.841 97.362 C 214.623 97.503,214.087 97.634,213.651 97.654 C 213.214 97.674,212.504 97.710,212.072 97.734 L 211.287 97.778 212.072 98.315 C 212.504 98.610,212.945 98.981,213.053 99.139 C 213.162 99.297,213.692 99.196,214.244 98.911 C 214.791 98.628,215.238 98.505,215.238 98.638 C 215.238 98.770,215.511 98.381,215.844 97.773 C 216.448 96.670,216.448 96.665,215.765 96.118 C 215.388 95.816,215.197 95.566,215.340 95.563 C 215.638 95.555,214.754 94.603,214.448 94.603 C 214.338 94.603,214.355 94.782,214.485 95.000 M169.091 95.988 L 169.963 96.738 169.219 97.136 C 168.571 97.483,168.500 97.468,168.672 97.021 C 168.794 96.704,168.705 96.508,168.440 96.508 C 168.204 96.508,167.936 96.222,167.845 95.873 C 167.625 95.034,168.024 95.071,169.091 95.988 M193.810 96.097 C 193.075 96.287,192.610 96.970,192.451 98.089 C 192.309 99.095,191.623 99.566,191.489 98.749 C 191.372 98.030,190.725 97.717,189.127 97.608 C 187.540 97.499,187.600 97.960,189.206 98.217 C 190.126 98.364,190.476 98.573,190.476 98.975 C 190.476 99.280,190.767 99.712,191.123 99.934 C 191.479 100.156,191.708 100.441,191.632 100.566 C 191.556 100.691,191.838 101.052,192.259 101.367 C 193.008 101.928,193.029 101.925,193.317 101.208 C 193.520 100.703,193.617 100.640,193.631 101.005 C 193.642 101.296,193.829 101.606,194.048 101.695 C 194.352 101.817,194.354 101.860,194.056 101.880 C 193.608 101.909,193.872 103.839,194.368 104.166 C 194.552 104.287,194.529 104.625,194.307 105.039 C 193.904 105.792,193.486 105.901,193.141 105.343 C 192.990 105.099,192.819 105.221,192.642 105.699 C 192.419 106.302,192.212 106.395,191.437 106.240 C 190.922 106.137,190.427 106.172,190.337 106.317 C 190.247 106.462,189.823 106.514,189.394 106.432 C 187.357 106.043,183.177 109.102,181.947 111.883 C 181.614 112.636,181.196 113.341,181.018 113.451 C 180.687 113.656,180.771 114.112,181.809 117.775 C 182.306 119.528,183.433 121.191,187.082 125.556 C 188.723 127.518,188.927 127.914,188.829 128.944 C 188.765 129.618,188.854 130.087,189.042 130.055 C 189.219 130.025,189.389 130.571,189.419 131.270 C 189.448 131.968,189.501 132.683,189.536 132.857 C 189.570 133.032,189.592 133.251,189.584 133.345 C 189.570 133.503,190.507 133.676,191.802 133.754 C 192.095 133.772,192.265 133.899,192.180 134.036 C 191.998 134.332,192.577 134.352,193.571 134.086 C 194.550 133.823,194.466 133.295,193.326 132.540 C 192.798 132.190,191.994 131.369,191.537 130.714 C 191.081 130.060,190.577 129.524,190.417 129.524 C 190.257 129.524,189.928 129.060,189.686 128.492 C 189.444 127.925,188.030 125.965,186.544 124.137 C 181.382 117.786,180.453 113.504,183.751 111.263 C 185.067 110.369,185.670 110.521,184.691 111.500 C 184.229 111.962,184.134 112.225,184.399 112.313 C 184.872 112.470,186.349 110.946,186.349 110.301 C 186.349 109.717,186.699 109.718,187.479 110.305 C 188.075 110.753,188.059 110.801,186.984 111.768 C 186.133 112.534,186.026 112.734,186.526 112.620 C 187.094 112.492,187.168 112.608,187.096 113.522 C 187.038 114.256,187.133 114.526,187.411 114.420 C 187.629 114.336,187.819 113.878,187.833 113.403 C 187.886 111.621,187.913 111.536,188.254 112.063 C 188.499 112.443,188.563 112.384,188.567 111.771 C 188.569 111.348,188.821 110.717,189.127 110.367 C 189.433 110.018,189.514 109.830,189.308 109.951 C 189.101 110.071,188.853 110.040,188.755 109.881 C 188.657 109.723,189.079 109.499,189.692 109.384 C 190.306 109.269,190.982 108.896,191.195 108.556 C 191.407 108.215,191.833 107.937,192.140 107.937 C 192.447 107.937,192.698 107.794,192.698 107.619 C 192.698 107.416,195.582 107.301,200.714 107.301 L 208.730 107.301 209.628 106.528 C 210.122 106.104,210.561 105.521,210.603 105.234 C 210.645 104.946,210.855 104.603,211.069 104.470 C 211.360 104.290,211.320 104.117,210.908 103.782 C 210.423 103.387,210.381 103.397,210.557 103.866 C 210.668 104.162,210.553 104.566,210.299 104.778 C 209.859 105.142,209.626 104.097,209.817 102.620 C 209.915 101.863,208.751 101.043,207.527 101.007 C 206.821 100.986,206.402 101.098,206.514 101.279 C 206.618 101.449,206.481 101.587,206.209 101.587 C 205.937 101.587,205.712 101.837,205.709 102.143 C 205.705 102.604,205.655 102.620,205.413 102.237 C 205.253 101.984,205.192 101.662,205.278 101.523 C 205.364 101.384,205.283 101.270,205.098 101.270 C 204.913 101.270,204.773 100.948,204.787 100.556 C 204.801 100.163,204.884 100.020,204.972 100.238 C 205.195 100.791,205.714 100.735,205.714 100.159 C 205.714 99.897,205.560 99.683,205.370 99.683 C 205.181 99.683,205.087 99.504,205.160 99.286 C 205.324 98.799,204.490 98.119,203.711 98.105 C 203.396 98.100,203.207 97.982,203.293 97.844 C 203.378 97.705,203.151 97.570,202.788 97.542 C 202.425 97.515,201.987 97.352,201.815 97.180 C 201.398 96.763,200.002 97.677,199.995 98.370 C 199.991 98.821,199.950 98.827,199.683 98.413 C 199.443 98.042,199.374 98.129,199.370 98.810 C 199.367 99.372,199.196 99.683,198.889 99.683 C 198.548 99.683,198.413 99.335,198.413 98.462 C 198.413 96.489,196.364 95.436,193.810 96.097 M211.746 96.181 C 211.746 96.350,211.555 96.415,211.321 96.325 C 211.087 96.235,210.727 96.365,210.520 96.613 C 210.220 96.975,210.270 97.098,210.772 97.229 C 211.199 97.341,211.558 97.151,211.898 96.633 C 212.171 96.215,212.249 95.873,212.071 95.873 C 211.892 95.873,211.746 96.011,211.746 96.181 M193.859 98.891 C 194.061 99.327,194.180 99.683,194.123 99.683 C 194.066 99.683,193.803 99.766,193.539 99.867 C 193.169 100.009,193.063 99.824,193.085 99.074 C 193.118 97.891,193.368 97.832,193.859 98.891 M242.094 117.728 C 241.984 117.906,242.049 118.147,242.238 118.264 C 242.726 118.565,243.041 118.152,242.634 117.745 C 242.406 117.517,242.228 117.511,242.094 117.728 M242.706 119.670 C 242.437 120.105,242.675 120.432,243.145 120.271 C 243.337 120.205,243.361 119.981,243.204 119.728 C 243.006 119.409,242.877 119.394,242.706 119.670 M195.903 121.814 C 196.410 122.114,196.825 122.534,196.825 122.748 C 196.825 123.537,196.257 123.449,195.441 122.534 C 194.189 121.128,194.341 120.892,195.903 121.814 M173.571 122.029 C 173.203 122.309,173.016 122.885,173.016 123.739 L 173.016 125.026 174.402 125.026 L 175.788 125.026 175.695 123.624 C 175.623 122.553,175.712 122.222,176.073 122.222 C 176.333 122.222,176.457 122.079,176.349 121.905 C 176.068 121.449,174.227 121.532,173.571 122.029 M243.065 122.050 C 242.933 122.393,243.072 122.540,243.528 122.540 C 243.890 122.540,244.124 122.372,244.054 122.163 C 243.858 121.575,243.273 121.508,243.065 122.050 M239.970 123.128 C 239.501 123.290,239.262 122.963,239.532 122.527 C 239.702 122.251,239.831 122.266,240.030 122.585 C 240.187 122.838,240.162 123.062,239.970 123.128 M175.181 123.251 C 175.030 124.306,173.968 124.399,173.968 123.357 C 173.968 122.742,174.131 122.540,174.625 122.540 C 175.124 122.540,175.258 122.711,175.181 123.251 M244.190 122.921 C 243.678 123.433,243.710 123.810,244.266 123.810 C 244.527 123.810,244.702 123.537,244.675 123.175 C 244.648 122.825,244.614 122.540,244.599 122.540 C 244.584 122.540,244.400 122.711,244.190 122.921 M198.889 123.757 C 198.889 124.331,198.268 124.226,198.144 123.631 C 198.076 123.300,198.195 123.155,198.462 123.244 C 198.697 123.322,198.889 123.553,198.889 123.757 M197.460 124.723 C 197.460 125.331,196.622 126.252,196.333 125.962 C 196.081 125.710,196.773 124.127,197.135 124.127 C 197.314 124.127,197.460 124.395,197.460 124.723 M240.317 125.050 C 240.317 125.496,240.482 125.612,240.943 125.491 C 241.411 125.369,241.663 125.557,241.942 126.235 C 242.146 126.734,242.778 128.071,243.345 129.206 C 244.928 132.375,245.050 133.333,243.874 133.333 C 243.357 133.333,242.766 133.537,242.559 133.786 C 241.336 135.260,239.553 132.944,239.032 129.206 C 238.874 128.071,238.663 126.571,238.563 125.873 C 238.392 124.685,238.412 124.643,238.873 125.219 C 239.355 125.823,239.365 125.822,239.365 125.140 C 239.365 124.733,239.563 124.444,239.841 124.444 C 240.103 124.444,240.317 124.717,240.317 125.050 M246.905 128.790 C 246.149 128.988,246.198 129.841,246.964 129.841 C 247.384 129.841,247.564 129.639,247.532 129.206 C 247.505 128.857,247.479 128.588,247.472 128.608 C 247.466 128.629,247.210 128.710,246.905 128.790 M185.152 131.171 C 185.221 131.378,185.448 131.604,185.655 131.673 C 185.887 131.751,185.958 131.606,185.839 131.296 C 185.618 130.719,184.962 130.599,185.152 131.171 M186.761 131.395 C 186.403 131.969,186.429 131.975,187.320 131.531 C 188.389 130.997,188.493 130.794,187.695 130.794 C 187.388 130.794,186.968 131.064,186.761 131.395 M198.248 131.111 C 197.456 132.334,197.205 133.017,197.482 133.188 C 197.645 133.289,197.778 133.155,197.778 132.892 C 197.778 132.628,198.007 132.284,198.287 132.128 C 198.566 131.971,198.742 131.571,198.676 131.239 C 198.574 130.726,198.510 130.707,198.248 131.111 M195.985 137.641 C 195.939 138.426,195.958 138.435,196.500 137.879 C 197.089 137.274,197.050 136.825,196.410 136.826 C 196.202 136.826,196.011 137.193,195.985 137.641 M195.698 139.021 C 195.796 139.180,195.713 139.366,195.512 139.433 C 195.311 139.499,195.103 139.963,195.050 140.463 C 194.997 140.962,194.838 141.455,194.698 141.559 C 194.557 141.662,194.392 142.175,194.331 142.698 C 194.271 143.222,194.086 143.734,193.922 143.837 C 193.758 143.939,193.661 144.571,193.706 145.242 C 193.756 145.983,193.636 146.513,193.402 146.591 C 193.190 146.662,193.016 146.931,193.016 147.190 C 193.016 147.449,192.847 147.973,192.641 148.354 C 192.435 148.736,192.218 149.476,192.159 150.000 C 192.101 150.524,191.912 151.000,191.741 151.058 C 191.569 151.116,191.429 151.581,191.429 152.090 C 191.429 152.599,191.286 153.016,191.111 153.016 C 190.937 153.016,190.794 153.516,190.794 154.127 C 190.794 154.738,190.651 155.238,190.476 155.238 C 190.302 155.238,190.159 155.587,190.159 156.013 C 190.159 156.439,190.003 156.884,189.814 157.001 C 189.624 157.119,189.539 157.484,189.625 157.814 C 189.724 158.190,189.655 158.335,189.440 158.202 C 189.225 158.069,189.172 158.184,189.298 158.510 C 189.407 158.796,189.289 159.237,189.034 159.492 C 188.780 159.746,188.565 160.215,188.557 160.533 C 188.538 161.341,187.803 164.049,187.529 164.323 C 187.404 164.448,187.302 164.884,187.302 165.291 C 187.302 165.698,187.183 166.032,187.037 166.032 C 186.892 166.032,186.756 166.210,186.737 166.429 C 186.614 167.788,186.386 168.662,186.073 168.975 C 185.876 169.172,185.714 169.733,185.714 170.222 C 185.714 170.711,185.603 171.111,185.466 171.111 C 185.330 171.111,185.186 171.498,185.147 171.970 C 185.108 172.443,184.934 172.971,184.760 173.145 C 184.309 173.595,184.369 175.468,184.841 175.685 C 185.060 175.785,184.917 175.787,184.524 175.690 C 183.907 175.537,183.813 175.635,183.832 176.407 C 183.851 177.193,183.887 177.225,184.127 176.667 C 184.360 176.124,184.403 176.112,184.422 176.587 C 184.443 177.106,185.204 177.143,195.778 177.143 C 204.593 177.143,207.026 177.058,206.730 176.762 C 206.521 176.552,206.349 176.205,206.349 175.990 C 206.349 175.775,205.337 174.091,204.100 172.248 C 202.863 170.405,201.169 167.359,200.335 165.480 C 199.501 163.601,198.532 161.421,198.180 160.635 C 196.958 157.904,196.835 156.784,196.805 148.113 C 196.773 139.222,196.730 138.730,195.979 138.730 C 195.726 138.730,195.599 138.861,195.698 139.021 M201.984 139.875 C 201.984 140.459,202.064 140.576,202.257 140.272 C 202.612 139.711,202.615 139.048,202.262 139.048 C 202.109 139.048,201.984 139.420,201.984 139.875 M241.730 145.058 C 241.564 145.221,240.856 145.420,240.155 145.499 C 233.979 146.196,233.481 151.853,239.524 152.671 C 240.507 152.804,241.081 153.031,241.032 153.268 C 240.988 153.479,241.175 153.651,241.447 153.651 C 241.720 153.651,241.854 153.508,241.746 153.333 C 241.638 153.159,241.686 153.016,241.852 153.016 C 242.594 153.016,243.008 150.355,242.365 149.712 C 242.112 149.459,241.905 149.027,241.905 148.753 C 241.905 148.478,241.762 148.254,241.587 148.254 C 241.008 148.254,241.259 147.461,242.018 146.891 C 242.556 146.487,242.723 146.110,242.615 145.546 C 242.456 144.711,242.217 144.580,241.730 145.058 M232.241 153.934 C 232.519 154.213,233.651 154.289,233.651 154.030 C 233.651 153.891,233.298 153.778,232.868 153.778 C 232.437 153.778,232.155 153.848,232.241 153.934 M155.646 196.032 C 155.649 196.905,155.710 197.224,155.783 196.742 C 155.856 196.259,155.854 195.545,155.779 195.154 C 155.704 194.764,155.644 195.159,155.646 196.032 M109.101 198.307 C 108.984 198.423,108.905 199.030,108.925 199.656 L 108.962 200.794 109.209 199.524 C 109.469 198.190,109.449 197.959,109.101 198.307 M162.964 209.524 C 162.964 210.833,163.020 211.369,163.088 210.714 C 163.157 210.060,163.157 208.988,163.088 208.333 C 163.020 207.679,162.964 208.214,162.964 209.524 M273.730 207.838 C 274.036 207.918,274.536 207.918,274.841 207.838 C 275.147 207.758,274.897 207.693,274.286 207.693 C 273.675 207.693,273.425 207.758,273.730 207.838 M155.660 210.000 C 155.661 211.222,155.719 211.683,155.787 211.025 C 155.856 210.366,155.855 209.366,155.785 208.802 C 155.715 208.239,155.658 208.778,155.660 210.000 M82.913 212.874 C 83.045 213.506,83.589 213.500,83.682 212.866 C 83.721 212.599,83.541 212.381,83.282 212.381 C 83.023 212.381,82.857 212.603,82.913 212.874 " stroke="none" fill="#8ccbf7" fill-rule="evenodd"></path><path id="path4" d="M189.530 72.890 C 188.780 73.111,187.603 73.285,186.914 73.275 C 186.226 73.266,185.503 73.418,185.308 73.613 C 185.112 73.808,184.481 73.968,183.905 73.968 C 183.329 73.968,182.857 74.120,182.857 74.304 C 182.857 74.489,182.714 74.552,182.540 74.444 C 182.365 74.337,182.222 74.386,182.222 74.555 C 182.222 74.723,181.937 74.786,181.587 74.695 C 181.232 74.602,180.952 74.685,180.952 74.884 C 180.952 75.079,181.180 75.238,181.458 75.238 C 181.737 75.238,182.039 75.524,182.130 75.873 C 182.222 76.222,182.428 76.508,182.590 76.508 C 183.234 76.508,184.174 77.740,184.073 78.452 C 183.955 79.283,184.979 79.723,185.410 79.026 C 185.546 78.806,186.176 78.645,186.810 78.668 C 187.485 78.694,187.884 78.584,187.772 78.404 C 187.574 78.083,188.786 78.032,195.136 78.094 C 199.594 78.137,200.000 77.893,200.000 75.175 C 200.000 72.610,199.486 72.310,195.280 72.421 C 193.532 72.466,192.173 72.619,192.260 72.760 C 192.347 72.901,192.267 73.016,192.082 73.016 C 191.897 73.016,191.746 72.897,191.746 72.751 C 191.746 72.382,191.117 72.421,189.530 72.890 M195.161 73.786 C 195.262 73.886,194.677 73.968,193.862 73.968 C 193.044 73.968,192.381 73.820,192.381 73.636 C 192.381 73.300,194.806 73.430,195.161 73.786 M197.460 73.651 C 197.810 73.877,197.598 73.954,196.667 73.941 C 195.669 73.927,195.533 73.865,196.032 73.651 C 196.867 73.292,196.905 73.292,197.460 73.651 M184.367 75.159 C 184.455 75.427,184.128 75.556,183.360 75.556 C 182.734 75.556,182.222 75.425,182.222 75.265 C 182.222 74.567,184.141 74.473,184.367 75.159 M193.333 76.844 C 193.333 77.008,193.119 77.143,192.857 77.143 C 192.366 77.143,192.226 76.768,192.584 76.411 C 192.838 76.157,193.333 76.444,193.333 76.844 M195.873 76.777 C 195.873 76.925,195.444 77.058,194.921 77.073 C 194.397 77.088,193.968 76.967,193.968 76.804 C 193.968 76.641,194.397 76.508,194.921 76.508 C 195.444 76.508,195.873 76.629,195.873 76.777 M185.397 78.394 C 185.397 78.538,185.114 78.730,184.767 78.821 C 184.229 78.961,184.186 78.896,184.466 78.373 C 184.773 77.799,185.397 77.814,185.397 78.394 M191.891 79.343 C 192.110 79.697,190.804 80.679,190.426 80.445 C 190.280 80.355,189.823 80.647,189.409 81.093 C 188.502 82.072,188.047 82.119,187.775 81.262 C 187.555 80.568,185.798 80.531,185.951 81.224 C 185.993 81.418,185.673 81.665,185.238 81.774 C 184.804 81.883,184.521 82.089,184.608 82.231 C 184.696 82.373,184.409 82.771,183.971 83.116 C 183.533 83.460,183.175 83.900,183.175 84.093 C 183.175 84.286,183.028 84.444,182.850 84.444 C 182.671 84.444,182.750 84.788,183.026 85.209 C 183.358 85.716,183.414 86.043,183.192 86.180 C 182.719 86.472,182.774 87.385,183.254 87.209 C 183.472 87.129,183.612 86.893,183.564 86.685 C 183.517 86.477,183.731 86.343,184.041 86.387 C 184.900 86.508,186.737 86.007,187.227 85.517 C 187.468 85.276,188.217 85.079,188.893 85.079 C 189.568 85.079,190.210 84.937,190.317 84.762 C 190.433 84.575,192.314 84.444,194.888 84.444 L 199.263 84.444 199.632 83.636 C 200.517 81.692,199.373 77.840,198.377 79.413 C 198.227 79.648,198.103 79.698,198.100 79.524 C 198.094 79.128,194.837 79.089,194.558 79.482 C 194.439 79.649,193.923 79.618,193.320 79.408 C 192.064 78.970,191.649 78.951,191.891 79.343 M192.762 81.016 C 192.466 81.312,192.296 81.312,192.000 81.016 C 191.704 80.720,191.788 80.635,192.381 80.635 C 192.974 80.635,193.058 80.720,192.762 81.016 M184.762 90.476 C 184.319 90.763,184.548 90.938,185.205 90.816 C 185.362 90.786,185.229 91.162,184.909 91.651 C 184.191 92.749,183.621 93.333,183.268 93.333 C 182.776 93.333,181.775 94.719,182.172 94.851 C 182.374 94.918,182.540 95.176,182.540 95.423 C 182.540 96.115,183.079 95.956,183.275 95.206 C 183.371 94.839,183.602 94.633,183.788 94.749 C 184.217 95.013,184.233 95.873,183.810 95.873 C 183.635 95.873,183.492 96.044,183.492 96.254 C 183.492 96.550,183.577 96.550,183.873 96.254 C 184.083 96.044,184.571 95.873,184.958 95.873 C 185.345 95.873,185.712 95.722,185.773 95.538 C 185.834 95.354,186.096 95.161,186.355 95.110 C 187.638 94.855,187.883 94.572,187.619 93.652 C 187.476 93.154,187.454 92.641,187.569 92.513 C 187.684 92.384,187.599 92.382,187.381 92.508 C 187.124 92.656,186.984 92.527,186.984 92.142 C 186.984 90.942,185.622 89.921,184.762 90.476 M183.374 91.494 C 183.592 91.846,184.444 91.810,184.444 91.448 C 184.444 91.285,184.169 91.171,183.832 91.197 C 183.494 91.222,183.289 91.356,183.374 91.494 M175.000 137.370 C 175.480 137.443,176.266 137.443,176.746 137.370 C 177.226 137.298,176.833 137.238,175.873 137.238 C 174.913 137.238,174.520 137.298,175.000 137.370 M183.899 138.651 C 183.009 140.623,185.373 142.572,187.166 141.344 C 187.605 141.044,188.041 139.898,187.616 140.160 C 187.416 140.284,187.403 140.091,187.582 139.621 C 188.125 138.193,184.532 137.246,183.899 138.651 M183.492 147.788 C 183.492 148.055,183.261 148.363,182.979 148.471 C 182.540 148.639,182.563 148.721,183.141 149.030 C 183.756 149.359,183.774 149.448,183.343 150.013 C 182.939 150.543,182.824 150.566,182.563 150.168 C 182.395 149.911,182.157 149.800,182.036 149.922 C 181.914 150.044,182.006 150.375,182.241 150.658 C 182.604 151.095,182.587 151.218,182.128 151.475 C 181.392 151.887,181.446 152.352,182.222 152.294 C 182.571 152.267,182.857 152.062,182.857 151.837 C 182.857 151.612,183.214 151.429,183.651 151.429 C 184.087 151.429,184.444 151.571,184.444 151.746 C 184.444 151.921,184.149 152.063,183.787 152.063 C 183.202 152.063,183.182 152.116,183.605 152.540 C 184.411 153.346,186.376 153.146,187.212 152.173 C 188.058 151.188,188.118 150.704,187.460 150.159 C 186.907 149.700,186.835 149.206,187.320 149.206 C 187.505 149.206,187.574 149.339,187.474 149.502 C 187.373 149.664,187.437 149.888,187.616 149.998 C 188.141 150.322,188.349 149.288,187.885 148.660 C 187.652 148.343,186.960 148.039,186.349 147.984 C 185.738 147.928,185.102 147.752,184.937 147.592 C 184.454 147.127,183.492 147.257,183.492 147.788 " stroke="none" fill="#f0c5dd" fill-rule="evenodd"></path></g></svg>