<svg id="svg" version="1.1" xmlns="http://www.w3.org/2000/svg" xmlns:xlink="http://www.w3.org/1999/xlink" width="400" height="317.2905525846702" viewBox="0, 0, 400,317.2905525846702"><g id="svgg"><path id="path0" d="M190.866 72.751 C 190.739 72.876,189.778 73.001,188.730 73.029 C 186.687 73.081,184.762 73.535,184.762 73.963 C 184.762 74.108,184.512 74.189,184.206 74.143 C 183.901 74.097,183.838 74.122,184.066 74.199 C 184.862 74.468,184.314 75.397,183.360 75.397 C 182.763 75.397,182.377 75.597,182.243 75.976 C 182.131 76.294,181.937 76.544,181.813 76.531 C 181.454 76.494,181.446 76.630,181.775 77.217 C 181.992 77.605,182.534 77.784,183.611 77.825 C 184.548 77.861,185.203 78.047,185.302 78.307 C 185.508 78.842,186.348 78.864,186.354 78.333 C 186.358 78.037,186.427 78.043,186.628 78.360 C 186.775 78.594,187.007 78.784,187.143 78.784 C 187.278 78.784,187.512 78.594,187.663 78.360 C 187.887 78.013,187.993 78.023,188.249 78.413 C 188.458 78.731,188.563 78.757,188.567 78.492 C 188.570 78.213,189.230 78.095,190.794 78.095 C 192.357 78.095,193.017 77.978,193.021 77.698 C 193.025 77.388,193.079 77.386,193.273 77.691 C 193.662 78.303,198.817 78.054,199.481 77.390 C 200.244 76.626,200.195 73.608,199.407 72.895 C 198.790 72.337,191.410 72.212,190.866 72.751 M182.698 74.604 C 182.589 74.780,182.152 74.836,181.727 74.729 C 181.146 74.583,180.952 74.662,180.952 75.045 C 180.952 75.326,181.089 75.556,181.255 75.556 C 181.785 75.556,183.175 74.829,183.175 74.552 C 183.175 74.190,182.937 74.216,182.698 74.604 M198.700 77.097 C 198.231 77.258,197.993 76.931,198.262 76.495 C 198.433 76.219,198.561 76.234,198.760 76.553 C 198.917 76.806,198.892 77.031,198.700 77.097 M197.143 77.007 C 197.143 77.303,196.927 77.465,196.614 77.404 C 195.817 77.250,195.708 76.508,196.481 76.508 C 196.871 76.508,197.143 76.713,197.143 77.007 M205.758 78.942 C 205.701 79.837,206.015 80.635,206.422 80.635 C 206.638 80.635,206.637 80.504,206.418 80.238 C 206.239 80.020,206.027 79.484,205.947 79.048 C 205.820 78.356,205.795 78.343,205.758 78.942 M182.731 79.206 C 182.400 79.457,182.043 79.610,181.937 79.547 C 181.832 79.484,181.570 79.622,181.356 79.854 C 180.762 80.497,182.230 80.317,182.947 79.659 C 183.283 79.351,183.831 79.201,184.296 79.289 C 184.751 79.376,185.079 79.290,185.079 79.085 C 185.079 78.580,183.447 78.664,182.731 79.206 M195.435 79.591 C 195.398 79.627,194.407 79.684,193.230 79.716 C 192.054 79.749,191.016 79.897,190.924 80.046 C 190.832 80.195,189.907 80.317,188.870 80.317 C 187.703 80.317,186.984 80.451,186.984 80.669 C 186.984 80.862,186.762 80.935,186.491 80.831 C 186.220 80.727,186.077 80.768,186.172 80.923 C 186.268 81.077,186.125 81.288,185.855 81.392 C 185.574 81.500,185.447 81.446,185.558 81.266 C 185.664 81.094,185.600 80.952,185.416 80.952 C 185.119 80.952,184.934 81.619,185.042 82.302 C 185.062 82.433,184.785 82.540,184.426 82.540 C 184.007 82.540,183.855 82.406,184.002 82.168 C 184.154 81.922,184.061 81.862,183.723 81.992 C 183.444 82.099,183.161 82.023,183.095 81.824 C 183.027 81.620,182.880 81.704,182.760 82.017 C 182.643 82.322,182.677 82.492,182.835 82.395 C 183.213 82.161,184.186 83.140,183.952 83.518 C 183.853 83.678,183.566 83.810,183.315 83.810 C 183.063 83.810,182.893 83.987,182.937 84.203 C 182.989 84.461,182.688 84.566,182.063 84.507 L 181.111 84.419 181.905 85.059 C 182.341 85.412,182.948 85.703,183.254 85.707 C 183.934 85.716,183.988 86.300,183.333 86.552 C 183.071 86.652,182.857 86.865,182.857 87.025 C 182.857 87.185,183.190 87.098,183.597 86.832 C 184.004 86.565,184.423 86.433,184.528 86.539 C 184.761 86.771,187.320 85.683,187.158 85.421 C 187.095 85.319,187.778 85.192,188.675 85.137 C 189.571 85.083,190.385 84.909,190.483 84.751 C 190.581 84.592,192.727 84.423,195.251 84.374 L 199.841 84.286 199.940 82.719 C 200.117 79.930,199.981 79.752,197.592 79.630 C 196.442 79.572,195.471 79.554,195.435 79.591 M180.129 88.618 C 179.528 89.294,179.529 89.296,180.220 88.933 C 180.992 88.529,181.467 87.937,181.020 87.937 C 180.862 87.937,180.461 88.243,180.129 88.618 M184.426 91.318 C 184.250 91.781,183.611 92.669,183.005 93.293 C 181.716 94.620,181.710 94.646,182.547 95.169 C 183.216 95.587,184.327 95.251,184.828 94.479 C 184.987 94.234,185.168 94.248,185.447 94.526 C 185.761 94.840,185.731 94.921,185.302 94.921 C 185.005 94.921,184.762 95.135,184.762 95.397 C 184.762 95.659,184.976 95.873,185.238 95.873 C 185.500 95.873,185.714 95.730,185.714 95.556 C 185.714 95.381,186.004 95.238,186.359 95.238 C 186.714 95.238,187.096 94.988,187.209 94.683 C 187.322 94.377,187.512 94.056,187.632 93.968 C 187.752 93.881,187.743 93.524,187.612 93.175 C 187.396 92.596,187.354 92.618,187.145 93.413 C 186.858 94.503,186.349 94.554,186.349 93.492 C 186.349 93.056,186.490 92.698,186.663 92.698 C 186.836 92.698,186.948 92.352,186.913 91.928 C 186.878 91.504,186.737 91.226,186.599 91.311 C 186.462 91.396,186.349 91.306,186.349 91.111 C 186.349 90.916,186.216 90.838,186.054 90.939 C 185.891 91.039,185.668 90.976,185.559 90.799 C 185.212 90.238,184.757 90.447,184.426 91.318 M180.140 93.170 C 179.576 93.602,179.612 93.613,180.556 93.298 C 181.633 92.939,181.880 92.698,181.172 92.698 C 180.943 92.698,180.479 92.911,180.140 93.170 M181.270 95.873 C 181.270 96.048,181.484 96.190,181.746 96.190 C 182.008 96.190,182.222 96.048,182.222 95.873 C 182.222 95.698,182.008 95.556,181.746 95.556 C 181.484 95.556,181.270 95.698,181.270 95.873 M183.492 96.015 C 183.492 96.257,183.328 96.510,183.127 96.577 C 182.926 96.644,182.819 96.863,182.889 97.064 C 182.965 97.282,183.288 97.123,183.690 96.670 C 184.214 96.079,184.267 95.873,183.928 95.743 C 183.688 95.651,183.492 95.773,183.492 96.015 M174.815 109.735 C 174.698 109.852,174.615 110.316,174.630 110.767 C 174.657 111.572,174.663 111.570,174.937 110.651 C 175.226 109.685,175.183 109.367,174.815 109.735 M184.118 138.743 C 183.861 139.099,183.665 139.528,183.683 139.695 C 183.700 139.863,183.736 140.223,183.762 140.495 C 183.788 140.767,183.952 140.902,184.127 140.794 C 184.302 140.686,184.444 140.831,184.444 141.117 C 184.444 141.522,184.705 141.615,185.635 141.540 C 187.160 141.417,188.273 139.974,187.466 139.167 C 187.201 138.902,186.984 138.552,186.984 138.390 C 186.984 137.780,184.600 138.073,184.118 138.743 M180.000 146.349 C 180.000 146.524,180.286 146.667,180.635 146.667 C 180.988 146.667,181.270 146.878,181.270 147.143 C 181.270 147.405,181.413 147.619,181.587 147.619 C 182.015 147.619,181.972 147.257,181.463 146.587 C 181.010 145.991,180.000 145.826,180.000 146.349 M182.425 147.143 C 182.525 147.405,182.735 147.619,182.891 147.619 C 183.434 147.619,183.170 148.181,182.551 148.343 C 181.940 148.503,181.831 149.903,182.362 150.763 C 182.465 150.930,182.405 151.157,182.227 151.267 C 182.050 151.376,181.905 151.331,181.905 151.167 C 181.905 151.002,181.609 150.790,181.247 150.696 C 180.164 150.413,181.291 151.842,182.417 152.180 C 182.921 152.332,183.554 152.564,183.823 152.697 C 184.702 153.131,186.918 153.011,187.107 152.519 C 187.210 152.251,187.090 152.063,186.815 152.063 C 186.559 152.063,186.349 151.914,186.349 151.732 C 186.349 151.550,186.584 151.443,186.870 151.494 C 187.190 151.551,187.633 151.158,188.017 150.476 L 188.644 149.365 187.924 150.000 L 187.203 150.635 187.742 149.798 C 188.400 148.773,187.810 147.937,186.428 147.937 C 185.419 147.937,183.492 147.270,183.492 146.920 C 183.492 146.781,183.211 146.667,182.867 146.667 C 182.442 146.667,182.301 146.819,182.425 147.143 " stroke="none" fill="#e6c3dc" fill-rule="evenodd"></path><path id="path1" d="M230.794 84.044 C 230.794 84.240,231.018 84.624,231.293 84.898 C 231.567 85.172,231.638 85.397,231.451 85.397 C 231.264 85.397,231.111 85.555,231.111 85.748 C 231.111 85.945,231.343 86.011,231.637 85.898 C 231.956 85.775,232.485 85.979,232.986 86.418 L 233.810 87.141 232.988 86.189 C 231.123 84.028,230.794 83.706,230.794 84.044 M197.028 87.778 C 197.166 88.136,196.974 88.254,196.251 88.254 C 195.723 88.254,195.232 88.432,195.159 88.649 C 195.087 88.867,194.754 89.046,194.419 89.046 C 193.791 89.048,193.562 89.842,194.084 90.206 C 194.246 90.320,194.394 90.808,194.412 91.291 C 194.430 91.775,194.627 92.207,194.849 92.252 C 195.072 92.297,195.108 92.261,194.929 92.172 C 194.510 91.964,194.504 91.111,194.921 91.111 C 195.095 91.111,195.238 90.611,195.238 90.000 C 195.238 89.018,195.333 88.889,196.054 88.889 C 196.503 88.889,197.051 88.709,197.270 88.489 C 197.693 88.066,197.600 87.302,197.126 87.302 C 196.972 87.302,196.928 87.516,197.028 87.778 M203.366 88.624 C 203.456 88.770,203.315 88.889,203.053 88.889 C 202.322 88.889,202.110 89.502,202.758 89.741 C 203.074 89.858,203.406 90.060,203.496 90.191 C 203.585 90.321,203.822 90.082,204.022 89.658 C 204.236 89.203,204.260 88.889,204.078 88.889 C 203.910 88.889,203.846 88.770,203.936 88.624 C 204.025 88.479,203.897 88.360,203.651 88.360 C 203.404 88.360,203.276 88.479,203.366 88.624 M204.865 89.272 C 204.692 89.498,204.362 90.183,204.131 90.794 C 203.900 91.405,203.497 92.079,203.236 92.293 C 202.819 92.633,202.832 92.709,203.345 92.906 C 203.695 93.040,203.981 92.979,204.056 92.754 C 204.125 92.546,204.306 92.454,204.458 92.548 C 204.610 92.642,204.654 92.928,204.555 93.185 C 204.245 93.994,204.894 93.688,205.543 92.720 C 205.885 92.209,206.278 91.861,206.416 91.946 C 206.835 92.205,206.696 92.698,206.203 92.698 C 205.885 92.698,205.761 92.997,205.806 93.650 C 205.858 94.381,206.026 94.602,206.534 94.603 C 206.898 94.603,207.303 94.710,207.434 94.841 C 207.659 95.066,207.775 95.102,208.590 95.198 C 208.775 95.220,208.861 95.345,208.782 95.476 C 208.646 95.701,209.569 96.756,209.754 96.587 C 210.077 96.293,210.420 96.601,210.254 97.036 C 210.112 97.406,210.169 97.491,210.447 97.320 C 210.857 97.066,212.063 98.108,212.063 98.717 C 212.063 98.899,212.171 99.059,212.302 99.074 C 212.433 99.088,212.903 99.161,213.348 99.235 C 213.873 99.322,214.534 99.091,215.234 98.574 C 216.258 97.819,216.821 96.766,216.121 96.915 C 215.941 96.953,215.728 96.806,215.648 96.587 C 215.568 96.369,215.645 96.190,215.819 96.190 C 215.993 96.190,215.292 95.333,214.261 94.286 C 213.150 93.158,212.113 92.381,211.718 92.381 C 211.310 92.381,210.985 92.125,210.879 91.719 C 210.744 91.204,210.640 91.151,210.408 91.481 C 210.175 91.812,210.075 91.818,209.949 91.508 C 209.861 91.290,209.407 91.109,208.942 91.106 C 208.413 91.103,208.242 91.008,208.485 90.854 C 209.073 90.480,207.808 89.524,206.727 89.524 C 206.240 89.524,205.692 89.375,205.510 89.193 C 205.281 88.963,205.083 88.988,204.865 89.272 M205.397 91.410 C 205.397 91.749,205.254 92.114,205.079 92.222 C 204.899 92.333,204.762 92.067,204.762 91.606 C 204.762 91.159,204.905 90.794,205.079 90.794 C 205.254 90.794,205.397 91.071,205.397 91.410 M168.576 93.590 C 168.574 93.819,168.457 93.935,168.318 93.849 C 168.179 93.763,167.862 93.818,167.615 93.971 C 167.347 94.136,167.009 94.120,166.782 93.932 C 166.498 93.697,166.443 93.784,166.570 94.268 C 166.667 94.640,166.588 94.921,166.385 94.921 C 166.190 94.921,165.782 95.492,165.480 96.190 C 165.177 96.889,164.820 97.460,164.687 97.460 C 164.554 97.460,164.444 97.734,164.444 98.069 C 164.444 98.403,164.294 98.727,164.110 98.789 C 163.926 98.850,163.737 99.159,163.691 99.476 C 163.644 99.792,163.473 100.146,163.309 100.263 C 162.919 100.544,162.222 102.563,162.222 103.417 C 162.222 103.787,162.079 104.178,161.905 104.286 C 161.730 104.394,161.587 104.965,161.587 105.556 C 161.587 106.146,161.465 106.705,161.316 106.797 C 160.517 107.291,160.594 120.549,161.394 120.103 C 161.588 119.995,161.567 120.099,161.349 120.334 C 160.876 120.845,160.820 121.389,161.270 121.111 C 161.444 121.003,161.587 121.058,161.587 121.232 C 161.587 121.407,161.437 121.643,161.254 121.756 C 161.050 121.882,161.188 122.194,161.613 122.562 C 161.993 122.891,162.419 123.091,162.559 123.004 C 162.699 122.918,162.903 122.992,163.013 123.170 C 163.144 123.383,163.410 123.388,163.787 123.187 C 164.103 123.018,164.431 122.949,164.516 123.035 C 164.602 123.120,164.852 122.972,165.073 122.706 C 165.294 122.440,165.671 122.222,165.912 122.222 C 166.446 122.222,166.545 117.936,166.019 117.611 C 165.607 117.357,165.651 108.571,166.063 108.571 C 166.220 108.571,166.349 107.996,166.349 107.292 C 166.349 106.543,166.518 105.947,166.757 105.855 C 166.981 105.769,167.196 105.316,167.235 104.848 C 167.274 104.379,167.447 103.854,167.621 103.681 C 167.794 103.507,167.937 103.108,167.937 102.794 C 167.937 102.479,168.079 102.222,168.254 102.222 C 168.429 102.222,168.571 101.865,168.571 101.429 C 168.571 100.992,168.714 100.635,168.889 100.635 C 169.063 100.635,169.206 100.364,169.206 100.034 C 169.206 99.703,169.435 99.345,169.715 99.238 C 170.015 99.123,170.147 98.841,170.037 98.552 C 169.922 98.255,169.980 98.144,170.184 98.269 C 170.368 98.383,170.597 98.176,170.693 97.810 C 170.789 97.443,170.994 97.143,171.148 97.143 C 171.302 97.143,171.429 96.865,171.429 96.524 C 171.429 95.881,170.004 94.127,169.482 94.127 C 169.317 94.127,169.048 93.913,168.882 93.651 C 168.664 93.306,168.580 93.289,168.576 93.590 M168.840 95.420 C 169.836 95.917,170.359 97.778,169.502 97.778 C 169.316 97.778,168.676 98.295,168.079 98.928 C 167.166 99.895,166.961 99.993,166.788 99.542 C 166.675 99.246,166.732 98.855,166.916 98.671 C 167.099 98.488,167.174 97.874,167.082 97.308 C 166.944 96.457,167.368 94.921,167.740 94.921 C 167.795 94.921,168.289 95.145,168.840 95.420 M193.766 96.347 C 193.666 96.608,193.456 96.743,193.300 96.646 C 193.144 96.550,193.016 96.693,193.016 96.965 C 193.016 97.238,192.766 97.470,192.460 97.483 C 191.985 97.502,191.997 97.544,192.540 97.778 C 193.083 98.011,193.094 98.054,192.619 98.073 C 192.244 98.088,192.063 98.353,192.063 98.889 C 192.063 99.773,191.434 100.005,191.418 99.127 C 191.395 97.818,187.937 96.478,187.937 97.778 C 187.937 97.952,187.641 98.095,187.279 98.095 C 185.905 98.095,184.875 101.831,186.111 102.329 C 186.390 102.442,186.397 102.497,186.134 102.515 C 185.928 102.528,185.568 102.348,185.334 102.114 C 184.329 101.109,182.222 100.611,182.222 101.378 C 182.222 101.538,181.722 102.223,181.111 102.899 C 179.905 104.233,179.552 106.032,180.495 106.032 C 180.767 106.032,180.902 106.175,180.794 106.349 C 180.686 106.524,180.820 106.667,181.092 106.667 C 182.394 106.667,181.384 107.280,179.945 107.364 C 178.158 107.469,177.223 108.407,177.161 110.159 C 177.146 110.595,177.009 111.149,176.857 111.388 C 176.539 111.890,177.351 113.016,178.030 113.016 C 178.265 113.016,178.641 113.199,178.864 113.422 C 179.439 113.997,178.725 114.603,177.474 114.603 L 176.508 114.603 176.508 116.630 C 176.508 118.437,177.150 120.623,177.615 120.397 C 178.093 120.164,180.635 120.364,180.635 120.635 C 180.635 120.810,180.410 120.952,180.136 120.952 C 178.972 120.952,178.065 123.996,179.048 124.603 C 179.222 124.711,179.365 125.085,179.365 125.434 C 179.365 125.784,179.508 125.981,179.683 125.873 C 179.857 125.765,180.000 125.871,180.000 126.108 C 180.000 127.231,182.822 127.317,183.567 126.218 C 183.712 126.003,183.802 126.068,183.805 126.390 C 183.807 126.674,183.595 127.084,183.333 127.302 C 183.060 127.529,182.857 128.221,182.857 128.928 C 182.857 129.810,182.992 130.159,183.333 130.159 C 183.595 130.159,183.810 130.302,183.810 130.476 C 183.810 130.651,184.080 130.794,184.410 130.794 C 184.741 130.794,185.098 131.019,185.204 131.294 C 185.666 132.500,187.708 131.735,188.555 130.039 L 189.331 128.482 188.713 127.450 C 188.091 126.410,187.612 125.786,184.479 121.942 C 182.608 119.645,181.587 117.604,181.587 116.160 C 181.587 115.648,181.419 114.961,181.214 114.632 C 180.914 114.151,180.944 113.931,181.373 113.502 C 181.665 113.210,181.905 112.764,181.905 112.511 C 181.905 112.082,182.943 110.328,183.877 109.180 C 184.363 108.582,186.427 107.418,188.095 106.801 C 189.339 106.340,193.279 106.384,193.462 106.860 C 193.555 107.103,193.814 107.299,194.038 107.297 C 194.322 107.293,194.301 107.199,193.968 106.984 C 193.603 106.748,193.714 106.676,194.444 106.676 C 195.175 106.676,195.286 106.748,194.921 106.984 C 194.538 107.232,194.588 107.293,195.177 107.297 C 195.581 107.299,195.840 107.187,195.753 107.047 C 195.666 106.906,195.908 106.793,196.290 106.795 C 199.422 106.811,200.355 105.884,197.559 105.534 C 195.912 105.329,195.814 105.273,196.374 104.860 C 196.709 104.612,196.943 104.204,196.892 103.954 C 196.841 103.704,196.965 103.176,197.169 102.781 C 197.464 102.207,197.458 102.138,197.139 102.440 C 196.830 102.730,196.577 102.709,196.022 102.345 C 195.181 101.795,195.544 100.147,196.578 99.819 C 197.268 99.600,197.310 99.180,196.667 98.933 C 196.138 98.730,196.007 97.778,196.508 97.778 C 196.683 97.778,196.825 97.921,196.825 98.095 C 196.825 98.617,197.376 98.454,197.602 97.866 C 197.735 97.520,197.601 97.161,197.240 96.891 C 196.924 96.656,196.702 96.330,196.746 96.168 C 196.790 96.006,196.683 95.873,196.508 95.873 C 196.333 95.873,196.190 96.000,196.190 96.156 C 196.190 96.311,195.686 96.497,195.069 96.569 C 194.242 96.666,193.990 96.592,194.107 96.287 C 194.194 96.059,194.194 95.873,194.107 95.873 C 194.020 95.873,193.866 96.086,193.766 96.347 M196.288 100.839 C 196.079 100.924,195.985 101.192,196.078 101.434 C 196.213 101.786,196.369 101.799,196.854 101.496 C 197.870 100.861,197.445 100.368,196.288 100.839 M175.132 110.053 C 175.016 110.169,174.904 110.634,174.883 111.085 C 174.847 111.873,174.836 111.868,174.603 110.952 L 174.361 110.000 174.323 111.032 C 174.303 111.599,174.405 112.063,174.550 112.063 C 174.696 112.063,174.815 112.278,174.815 112.540 C 174.815 112.802,174.687 113.016,174.532 113.016 C 174.376 113.016,174.337 113.160,174.446 113.336 C 174.555 113.511,174.420 113.741,174.147 113.846 C 173.382 114.139,173.521 115.238,174.323 115.238 C 174.845 115.238,174.957 115.384,174.824 115.891 C 174.715 116.307,174.788 116.499,175.025 116.420 C 175.322 116.321,175.692 109.841,175.400 109.841 C 175.369 109.841,175.249 109.937,175.132 110.053 M240.363 110.964 C 239.604 111.293,239.352 111.572,239.489 111.930 C 239.596 112.207,239.683 112.635,239.683 112.883 C 239.683 113.152,240.003 113.333,240.476 113.333 C 241.330 113.333,241.481 113.037,240.917 112.472 C 240.509 112.064,240.800 111.429,241.394 111.429 C 241.617 111.429,241.799 111.214,241.799 110.952 C 241.799 110.376,241.715 110.377,240.363 110.964 M212.063 113.016 C 212.063 113.190,212.358 113.333,212.717 113.333 C 213.077 113.333,213.283 113.190,213.175 113.016 C 213.067 112.841,212.773 112.698,212.521 112.698 C 212.269 112.698,212.063 112.841,212.063 113.016 M199.568 114.127 C 199.668 114.389,199.878 114.603,200.034 114.603 C 200.190 114.603,200.317 114.389,200.317 114.127 C 200.317 113.865,200.108 113.651,199.851 113.651 C 199.567 113.651,199.456 113.837,199.568 114.127 M200.952 114.921 C 200.765 115.270,200.332 115.556,199.989 115.556 C 199.339 115.556,199.147 116.018,199.664 116.338 C 199.936 116.506,201.905 114.852,201.905 114.455 C 201.905 114.033,201.259 114.348,200.952 114.921 M211.926 115.397 C 211.710 116.549,211.467 116.737,210.913 116.183 C 210.448 115.718,209.206 115.530,209.206 115.925 C 209.206 116.108,209.409 116.181,209.656 116.086 C 209.904 115.991,210.180 116.107,210.271 116.343 C 210.362 116.579,210.231 116.852,209.980 116.948 C 209.275 117.218,209.441 117.773,210.238 117.815 C 210.752 117.841,210.801 117.891,210.412 117.994 C 210.114 118.072,209.781 118.420,209.671 118.768 C 209.411 119.585,208.701 119.352,208.825 118.491 C 208.954 117.591,208.258 117.219,208.035 118.070 C 207.897 118.598,207.765 118.666,207.425 118.384 C 207.092 118.107,206.946 118.143,206.795 118.536 C 206.547 119.181,205.714 119.209,205.714 118.571 C 205.714 118.310,205.866 118.095,206.050 118.095 C 206.235 118.095,206.299 117.954,206.192 117.781 C 206.070 117.583,205.840 117.613,205.572 117.860 C 205.338 118.077,205.211 118.361,205.290 118.492 C 205.369 118.623,205.033 118.732,204.543 118.735 C 203.856 118.739,203.761 118.809,204.127 119.041 C 204.543 119.304,204.534 119.404,204.051 119.834 C 203.748 120.104,203.568 120.229,203.652 120.112 C 204.000 119.626,203.111 119.059,202.506 119.383 C 202.013 119.647,201.905 119.595,201.905 119.096 C 201.905 118.735,201.613 118.405,201.190 118.286 C 200.539 118.103,200.525 118.056,201.032 117.757 C 201.750 117.333,201.745 116.825,201.023 116.825 C 200.214 116.825,199.252 117.984,199.865 118.219 C 200.114 118.315,200.317 118.540,200.317 118.720 C 200.317 119.228,199.455 119.106,199.249 118.568 C 199.148 118.305,198.954 118.108,198.818 118.130 C 197.976 118.268,197.767 118.075,198.095 117.460 C 198.402 116.888,198.332 116.821,197.392 116.782 C 196.527 116.746,196.484 116.715,197.143 116.597 C 198.409 116.369,198.608 115.931,197.616 115.554 C 196.474 115.120,195.950 115.323,195.818 116.250 C 195.653 117.420,192.684 116.814,191.672 115.404 C 191.280 114.859,191.392 115.824,191.796 116.470 C 192.024 116.836,192.394 116.997,192.776 116.897 C 193.274 116.767,193.369 116.880,193.282 117.495 C 193.195 118.109,193.013 118.235,192.332 118.156 C 191.868 118.102,191.389 118.220,191.266 118.418 C 190.993 118.861,192.087 119.939,192.626 119.760 C 192.840 119.688,193.016 119.856,193.016 120.132 C 193.016 120.414,192.752 120.635,192.415 120.635 C 192.084 120.635,191.727 120.861,191.621 121.137 C 191.304 121.965,191.401 122.062,191.895 121.410 C 192.316 120.852,192.362 120.847,192.371 121.349 C 192.376 121.655,192.540 121.905,192.735 121.905 C 192.930 121.905,193.019 122.175,192.933 122.505 C 192.847 122.834,192.899 123.299,193.050 123.536 C 193.261 123.869,193.325 123.875,193.328 123.560 C 193.332 123.251,193.487 123.234,193.968 123.492 C 194.356 123.700,194.603 124.157,194.603 124.667 C 194.603 125.127,194.692 125.414,194.800 125.306 C 195.041 125.065,195.873 125.857,195.873 126.327 C 195.873 126.514,195.985 126.667,196.121 126.667 C 196.258 126.667,196.401 127.043,196.439 127.503 C 196.477 127.963,196.833 128.642,197.230 129.011 C 198.166 129.881,198.031 131.680,196.792 134.856 C 196.636 135.257,196.508 136.007,196.508 136.523 C 196.508 137.038,196.365 137.460,196.190 137.460 C 196.016 137.460,195.873 137.766,195.873 138.140 C 195.873 138.513,195.623 139.013,195.317 139.251 C 194.721 139.714,195.591 140.846,196.237 140.447 C 196.564 140.245,196.528 139.376,196.604 149.365 C 196.677 159.040,196.384 157.770,200.641 166.825 C 201.380 168.397,202.897 171.007,204.012 172.625 C 205.127 174.243,206.069 175.924,206.106 176.361 L 206.171 177.156 212.213 177.070 L 218.254 176.984 218.339 169.416 C 218.422 162.056,218.407 161.844,217.784 161.681 C 217.431 161.589,217.143 161.387,217.143 161.233 C 217.143 161.079,216.643 160.952,216.032 160.952 C 215.421 160.952,214.921 160.810,214.921 160.635 C 214.921 160.460,214.563 160.317,214.127 160.317 C 213.690 160.317,213.369 160.156,213.413 159.960 C 213.456 159.763,213.063 159.540,212.540 159.464 C 212.016 159.388,211.452 159.192,211.286 159.028 C 211.120 158.864,210.782 158.730,210.535 158.730 C 209.912 158.730,207.937 156.510,207.937 155.811 C 207.937 155.496,207.722 155.238,207.460 155.238 C 207.161 155.238,206.984 154.936,206.984 154.426 C 206.984 153.965,206.847 153.698,206.667 153.810 C 206.492 153.917,206.349 153.720,206.349 153.371 C 206.349 153.022,206.206 152.648,206.032 152.540 C 205.857 152.432,205.714 152.066,205.714 151.727 C 205.714 151.388,205.607 151.110,205.476 151.109 C 205.107 151.106,204.127 149.230,204.127 148.527 C 204.127 148.182,203.984 147.987,203.810 148.095 C 203.635 148.203,203.492 148.006,203.492 147.657 C 203.492 147.307,203.349 146.933,203.175 146.825 C 203.000 146.717,202.857 146.352,202.857 146.013 C 202.857 145.674,202.709 145.397,202.527 145.397 C 202.317 145.397,202.215 144.242,202.247 142.226 C 202.282 139.960,202.399 139.117,202.656 139.271 C 202.878 139.404,202.865 139.300,202.622 139.000 C 202.405 138.732,202.334 138.407,202.463 138.278 C 202.698 138.043,202.743 137.880,202.817 136.984 C 202.867 136.384,203.492 136.352,203.492 136.950 C 203.492 137.193,203.706 137.475,203.968 137.575 C 204.230 137.676,204.444 137.977,204.444 138.244 C 204.444 138.511,204.587 138.730,204.762 138.730 C 204.937 138.730,205.079 138.940,205.079 139.197 C 205.079 139.453,205.365 140.172,205.714 140.794 C 206.063 141.415,206.349 142.134,206.349 142.391 C 206.349 142.647,206.533 142.857,206.758 142.857 C 206.983 142.857,207.188 143.138,207.213 143.481 C 207.269 144.220,210.876 147.937,211.538 147.937 C 211.790 147.937,212.078 148.152,212.179 148.416 C 212.281 148.679,212.474 148.867,212.610 148.833 C 212.746 148.799,213.429 149.021,214.127 149.327 C 214.825 149.632,215.793 149.963,216.276 150.062 C 216.760 150.160,217.233 150.365,217.327 150.517 C 217.421 150.669,217.889 150.794,218.368 150.794 C 218.847 150.794,219.374 150.924,219.540 151.084 C 219.706 151.243,220.198 151.422,220.635 151.480 C 221.071 151.539,221.523 151.717,221.637 151.876 C 221.752 152.035,222.324 152.217,222.907 152.281 C 224.627 152.470,225.048 152.562,225.282 152.795 C 225.403 152.917,226.130 153.016,226.897 153.016 C 227.746 153.016,228.215 153.140,228.095 153.333 C 227.971 153.534,228.733 153.651,230.159 153.651 C 231.402 153.651,232.341 153.777,232.245 153.931 C 232.050 154.247,237.158 154.643,239.405 154.486 C 240.364 154.419,241.129 154.146,241.608 153.700 C 242.012 153.324,242.434 153.016,242.547 153.016 C 242.659 153.016,242.751 152.808,242.751 152.554 C 242.751 152.299,242.623 152.171,242.465 152.268 C 242.308 152.365,242.101 152.145,242.005 151.778 C 241.786 150.939,241.391 150.927,240.952 151.746 C 239.969 153.583,235.556 151.569,235.556 149.283 C 235.556 146.986,240.187 144.677,241.720 146.210 C 241.996 146.486,242.222 146.559,242.222 146.372 C 242.222 146.185,242.427 146.032,242.677 146.032 C 243.265 146.032,243.458 145.300,243.389 143.333 C 243.348 142.174,243.216 141.771,242.898 141.838 C 242.609 141.900,242.530 141.753,242.664 141.405 C 242.835 140.959,242.707 140.910,241.829 141.082 C 241.260 141.194,240.256 141.276,239.599 141.264 C 238.942 141.253,237.746 141.535,236.940 141.892 C 234.731 142.869,234.165 142.763,233.479 141.241 C 232.268 138.556,232.872 136.220,235.528 133.312 C 237.225 131.455,236.486 130.306,234.309 131.416 C 230.821 133.196,224.288 133.348,222.397 131.693 C 222.231 131.547,221.912 131.429,221.687 131.429 C 220.296 131.429,215.191 127.250,213.348 124.603 C 211.822 122.413,211.825 121.248,213.360 118.338 C 213.807 117.491,213.705 115.882,213.172 115.349 C 212.908 115.085,212.774 114.738,212.873 114.578 C 212.972 114.417,212.847 114.286,212.594 114.286 C 212.320 114.286,212.050 114.735,211.926 115.397 M238.020 115.453 C 237.036 117.252,238.417 131.045,239.791 133.143 C 240.407 134.082,242.731 134.684,243.350 134.065 C 243.751 133.664,243.810 133.669,243.810 134.104 C 243.810 134.411,244.084 134.601,244.524 134.598 C 245.022 134.595,245.113 134.514,244.825 134.331 C 244.497 134.124,244.490 133.898,244.790 133.241 C 245.126 132.502,245.006 132.082,243.695 129.405 C 242.885 127.751,242.222 126.244,242.222 126.056 C 242.222 125.868,242.079 125.714,241.905 125.714 C 241.730 125.714,241.587 125.427,241.587 125.077 C 241.587 124.726,241.166 123.857,240.650 123.146 C 240.102 122.389,239.625 121.238,239.499 120.371 C 239.381 119.556,239.168 118.741,239.025 118.560 C 238.883 118.380,238.722 117.380,238.669 116.338 L 238.571 114.444 238.020 115.453 M226.777 115.281 C 227.197 115.525,227.462 115.522,227.713 115.271 C 227.969 115.015,227.810 114.923,227.127 114.930 C 226.306 114.939,226.263 114.982,226.777 115.281 M229.365 115.813 C 229.947 116.375,231.202 116.622,231.045 116.144 C 230.967 115.908,230.486 115.668,229.976 115.610 C 229.374 115.543,229.159 115.614,229.365 115.813 M173.016 123.349 L 173.016 125.079 174.778 125.079 L 176.541 125.079 176.472 123.393 L 176.404 121.706 174.710 121.662 L 173.016 121.618 173.016 123.349 M175.040 124.036 C 174.234 124.625,173.968 124.543,173.968 123.704 C 173.968 122.653,174.299 122.453,174.995 123.083 C 175.567 123.601,175.569 123.649,175.040 124.036 M168.002 128.333 L 168.095 130.635 169.292 130.734 C 169.951 130.788,170.426 130.936,170.347 131.063 C 170.269 131.189,170.470 131.293,170.794 131.293 C 171.117 131.293,171.313 131.180,171.228 131.043 C 171.143 130.906,171.225 130.794,171.410 130.794 C 172.666 130.794,173.257 128.469,172.407 126.876 C 171.991 126.097,171.799 126.032,169.932 126.032 L 167.909 126.032 168.002 128.333 M190.270 130.719 C 190.150 131.177,189.933 131.323,189.572 131.188 C 189.108 131.015,189.100 131.057,189.503 131.552 C 189.899 132.039,189.899 132.150,189.503 132.400 C 189.225 132.576,189.193 132.691,189.421 132.694 C 189.627 132.696,189.860 132.948,189.940 133.254 C 190.061 133.716,190.091 133.701,190.122 133.165 C 190.142 132.811,190.444 132.315,190.794 132.063 C 191.556 131.514,191.600 131.014,190.936 130.463 C 190.521 130.118,190.417 130.159,190.270 130.719 M192.411 148.870 C 192.185 149.010,192.000 149.642,192.000 150.276 C 192.000 150.909,191.871 151.347,191.714 151.250 C 191.557 151.153,191.429 151.411,191.429 151.823 C 191.429 152.234,191.250 152.764,191.032 152.999 C 190.714 153.341,190.714 153.382,191.032 153.202 C 191.278 153.063,191.429 153.173,191.429 153.492 C 191.429 153.775,191.310 153.932,191.164 153.842 C 191.019 153.752,190.899 153.893,190.899 154.155 C 190.899 154.435,191.084 154.559,191.349 154.458 C 191.596 154.363,191.929 154.286,192.089 154.286 C 192.576 154.286,192.416 153.588,191.825 153.140 C 191.296 152.739,191.296 152.718,191.825 152.709 C 192.131 152.703,192.381 152.482,192.381 152.218 C 192.381 151.954,192.560 151.449,192.778 151.097 C 193.105 150.569,193.091 150.404,192.698 150.154 C 192.313 149.909,192.355 149.850,192.918 149.846 C 193.300 149.843,193.697 149.706,193.800 149.540 C 194.061 149.117,192.911 148.562,192.411 148.870 M241.456 149.623 C 241.003 149.955,240.954 150.122,241.257 150.310 C 241.485 150.450,241.764 150.386,241.903 150.161 C 242.085 149.867,242.235 149.918,242.485 150.359 C 242.800 150.912,242.819 150.906,242.774 150.260 C 242.747 149.879,242.624 149.630,242.501 149.707 C 242.377 149.783,242.227 149.697,242.166 149.515 C 242.097 149.306,241.835 149.346,241.456 149.623 M189.762 157.988 C 189.980 158.076,190.159 158.351,190.159 158.598 C 190.159 158.845,190.373 159.048,190.635 159.048 C 190.897 159.048,191.111 158.910,191.111 158.741 C 191.111 158.419,190.067 157.760,189.624 157.803 C 189.482 157.817,189.544 157.900,189.762 157.988 M186.825 166.275 C 186.324 166.643,186.257 167.635,186.746 167.447 C 186.978 167.358,187.189 167.003,187.215 166.658 C 187.268 165.955,187.265 165.952,186.825 166.275 M186.354 168.311 C 186.362 169.084,186.738 170.159,187.001 170.159 C 187.400 170.159,187.219 168.785,186.757 168.311 C 186.419 167.963,186.350 167.963,186.354 168.311 " stroke="none" fill="#79bde8" fill-rule="evenodd"></path><path id="path2" d="M184.769 73.644 C 184.315 74.098,183.887 74.222,183.227 74.090 C 182.565 73.957,182.260 74.046,182.119 74.414 C 182.007 74.706,182.088 74.923,182.312 74.925 C 182.556 74.929,182.523 75.043,182.222 75.238 C 181.520 75.692,180.952 75.621,180.952 75.079 C 180.952 74.817,180.702 74.605,180.397 74.608 C 179.922 74.612,179.911 74.658,180.317 74.921 C 180.687 75.159,180.593 75.229,179.898 75.233 C 179.405 75.236,178.783 75.457,178.515 75.725 C 178.235 76.005,177.772 76.131,177.425 76.021 C 177.038 75.898,176.754 76.008,176.631 76.327 C 176.526 76.601,176.178 76.825,175.858 76.825 C 175.538 76.825,175.187 76.968,175.079 77.143 C 174.971 77.317,174.570 77.463,174.188 77.465 C 173.622 77.469,173.581 77.528,173.968 77.778 C 174.338 78.017,174.245 78.087,173.553 78.090 C 173.040 78.093,172.744 78.230,172.857 78.413 C 172.968 78.593,172.702 78.730,172.241 78.730 C 171.730 78.730,171.429 78.907,171.429 79.206 C 171.429 79.471,171.146 79.683,170.794 79.683 C 170.444 79.683,170.159 79.809,170.159 79.964 C 170.159 80.119,169.693 80.466,169.123 80.737 C 168.553 81.007,167.787 81.559,167.419 81.963 C 167.051 82.368,166.235 83.127,165.604 83.651 C 164.974 84.175,164.455 84.782,164.451 85.000 C 164.448 85.218,164.297 85.397,164.116 85.397 C 163.733 85.397,161.587 87.479,161.587 87.851 C 161.587 87.990,161.230 88.371,160.794 88.699 C 160.357 89.027,160.000 89.490,160.000 89.727 C 160.000 89.964,159.857 90.159,159.683 90.159 C 159.508 90.159,159.365 90.373,159.365 90.635 C 159.365 90.897,159.222 91.111,159.048 91.111 C 158.873 91.111,158.730 91.332,158.730 91.601 C 158.730 91.871,158.373 92.476,157.937 92.947 C 157.500 93.418,157.143 94.126,157.143 94.521 C 157.143 94.915,157.000 95.238,156.825 95.238 C 156.651 95.238,156.508 95.452,156.508 95.714 C 156.508 95.976,156.365 96.190,156.190 96.190 C 156.016 96.190,155.873 96.619,155.873 97.143 C 155.873 97.667,155.730 98.095,155.556 98.095 C 155.381 98.095,155.238 98.391,155.238 98.753 C 155.238 99.115,155.024 99.625,154.762 99.887 C 154.500 100.149,154.286 100.916,154.286 101.591 C 154.286 102.267,154.143 102.908,153.968 103.016 C 153.794 103.124,153.651 103.847,153.651 104.622 C 153.651 105.397,153.508 106.032,153.333 106.032 C 153.131 106.032,153.016 108.565,153.016 112.997 C 153.016 117.298,153.137 120.038,153.333 120.159 C 153.508 120.267,153.651 120.918,153.651 121.606 C 153.651 122.294,153.794 122.857,153.968 122.857 C 154.143 122.857,154.286 123.485,154.286 124.252 C 154.286 125.199,154.439 125.705,154.762 125.829 C 155.024 125.930,155.238 126.365,155.238 126.797 C 155.238 127.228,155.381 127.670,155.556 127.778 C 155.730 127.886,155.873 128.323,155.873 128.749 C 155.873 129.175,156.016 129.524,156.190 129.524 C 156.365 129.524,156.508 129.810,156.508 130.159 C 156.508 130.508,156.651 130.794,156.825 130.794 C 157.000 130.794,157.143 131.084,157.143 131.439 C 157.143 131.793,157.357 132.166,157.619 132.266 C 157.881 132.367,158.095 132.719,158.095 133.050 C 158.095 133.380,158.238 133.651,158.413 133.651 C 158.587 133.651,158.730 133.922,158.730 134.254 C 158.730 134.586,159.230 135.357,159.841 135.968 C 160.452 136.579,160.952 137.215,160.952 137.381 C 160.952 137.548,161.381 138.132,161.905 138.680 C 162.429 139.228,162.857 139.793,162.857 139.935 C 162.857 140.342,164.907 142.222,165.351 142.222 C 165.572 142.222,165.663 142.365,165.556 142.540 C 165.448 142.714,165.481 142.857,165.629 142.857 C 165.778 142.857,166.430 143.357,167.077 143.968 C 167.725 144.579,168.406 145.079,168.591 145.079 C 168.775 145.079,168.838 145.222,168.730 145.397 C 168.622 145.571,168.734 145.714,168.980 145.714 C 169.225 145.714,169.840 146.071,170.347 146.508 C 170.855 146.944,171.448 147.301,171.667 147.301 C 171.885 147.301,172.063 147.444,172.063 147.619 C 172.063 147.794,172.278 147.937,172.540 147.937 C 172.802 147.937,173.016 148.079,173.016 148.254 C 173.016 148.429,173.306 148.571,173.661 148.571 C 174.015 148.571,174.388 148.786,174.488 149.048 C 174.589 149.310,174.942 149.524,175.272 149.524 C 175.603 149.524,175.873 149.667,175.873 149.841 C 175.873 150.016,176.222 150.159,176.648 150.159 C 177.074 150.159,177.513 150.304,177.622 150.481 C 177.732 150.659,177.964 150.716,178.137 150.609 C 178.311 150.502,178.754 150.678,179.122 151.001 C 179.490 151.323,179.687 151.409,179.560 151.190 C 179.432 150.972,179.479 150.794,179.664 150.794 C 179.849 150.794,180.000 150.999,180.000 151.250 C 180.000 151.505,180.270 151.686,180.611 151.661 C 181.082 151.625,181.156 151.492,180.934 151.077 C 180.700 150.639,180.763 150.569,181.275 150.703 C 181.622 150.794,181.905 151.002,181.905 151.167 C 181.905 151.331,182.050 151.376,182.227 151.267 C 182.405 151.157,182.465 150.930,182.362 150.763 C 181.831 149.903,181.940 148.503,182.551 148.343 C 183.310 148.144,183.313 148.106,182.628 147.305 C 181.984 146.554,181.530 146.466,181.790 147.143 C 181.890 147.405,181.815 147.619,181.621 147.619 C 181.428 147.619,181.270 147.405,181.270 147.143 C 181.270 146.878,180.988 146.667,180.635 146.667 C 180.162 146.667,180.000 146.455,180.000 145.836 C 180.000 145.126,179.887 145.027,179.222 145.154 C 178.747 145.245,178.380 145.136,178.280 144.874 C 178.189 144.638,177.896 144.444,177.629 144.444 C 177.362 144.444,177.143 144.302,177.143 144.127 C 177.143 143.952,176.929 143.810,176.667 143.810 C 176.405 143.810,176.190 143.667,176.190 143.492 C 176.190 143.317,175.976 143.175,175.714 143.175 C 175.452 143.175,174.974 142.925,174.651 142.619 C 173.735 141.752,172.709 140.952,172.513 140.952 C 172.269 140.952,171.429 140.092,171.429 139.841 C 171.429 139.512,170.551 138.730,170.181 138.730 C 169.994 138.730,169.841 138.579,169.841 138.394 C 169.841 138.209,169.698 138.146,169.524 138.254 C 169.349 138.362,169.206 138.289,169.206 138.091 C 169.206 137.894,169.028 137.552,168.810 137.331 C 168.591 137.111,168.129 136.549,167.782 136.084 C 167.435 135.619,167.032 135.238,166.886 135.238 C 166.466 135.238,165.714 134.374,165.714 133.892 C 165.714 133.651,165.429 133.146,165.079 132.772 C 164.730 132.397,164.444 131.959,164.444 131.798 C 164.444 131.638,164.230 131.328,163.968 131.111 C 163.706 130.894,163.492 130.509,163.492 130.256 C 163.492 130.003,163.276 129.580,163.013 129.317 C 162.749 129.053,162.615 128.706,162.714 128.546 C 162.813 128.385,162.743 128.254,162.558 128.254 C 162.374 128.254,162.222 127.977,162.222 127.638 C 162.222 127.299,162.079 126.933,161.905 126.825 C 161.730 126.717,161.587 126.367,161.587 126.047 C 161.587 125.727,161.373 125.383,161.111 125.282 C 160.830 125.174,160.635 124.697,160.635 124.118 C 160.635 123.545,160.503 123.219,160.317 123.333 C 160.132 123.448,160.000 123.125,160.000 122.558 C 160.000 122.024,159.868 121.587,159.706 121.587 C 159.148 121.587,158.540 109.660,159.065 109.027 C 159.282 108.766,159.433 107.629,159.421 106.353 C 159.402 104.366,159.981 102.222,160.472 102.460 C 161.038 102.736,161.265 102.489,160.964 101.926 C 160.503 101.064,160.548 99.366,161.032 99.363 C 161.465 99.360,162.222 97.952,162.222 97.150 C 162.222 96.874,162.508 96.442,162.857 96.190 C 163.206 95.939,163.492 95.557,163.492 95.343 C 163.492 95.129,163.849 94.568,164.286 94.097 C 164.722 93.626,165.079 93.047,165.079 92.811 C 165.079 92.574,165.214 92.381,165.379 92.381 C 165.543 92.381,165.619 92.687,165.547 93.061 C 165.371 93.975,165.671 94.399,166.190 93.968 C 166.482 93.727,166.673 93.722,166.816 93.954 C 166.953 94.175,167.216 94.184,167.597 93.980 C 167.912 93.811,168.261 93.763,168.371 93.874 C 168.481 93.984,168.571 93.880,168.571 93.643 C 168.571 93.356,168.714 93.408,168.999 93.797 C 169.303 94.213,169.494 94.274,169.658 94.007 C 169.792 93.791,169.577 93.373,169.151 93.018 C 168.745 92.679,168.590 92.397,168.806 92.392 C 169.022 92.386,169.485 92.625,169.834 92.924 C 170.589 93.571,172.079 93.742,171.854 93.156 C 171.771 92.940,171.855 92.668,172.042 92.553 C 172.228 92.438,172.381 92.495,172.381 92.680 C 172.381 92.865,172.952 93.016,173.651 93.016 C 174.349 93.016,174.921 92.889,174.921 92.735 C 174.921 92.580,175.385 92.232,175.952 91.961 C 176.520 91.690,177.194 91.174,177.451 90.813 C 177.708 90.453,178.109 90.159,178.343 90.159 C 178.576 90.159,178.679 90.016,178.571 89.841 C 178.464 89.667,178.613 89.524,178.904 89.524 C 179.195 89.524,179.720 89.158,180.072 88.711 C 180.424 88.264,180.908 87.974,181.149 88.066 C 181.404 88.164,181.587 88.031,181.587 87.749 C 181.587 87.482,181.712 87.341,181.863 87.435 C 182.151 87.613,183.810 86.341,183.810 85.942 C 183.810 85.817,183.560 85.711,183.254 85.707 C 182.948 85.703,182.341 85.412,181.905 85.059 L 181.111 84.419 182.063 84.507 C 182.688 84.566,182.989 84.461,182.937 84.203 C 182.893 83.987,183.063 83.810,183.315 83.810 C 183.566 83.810,183.853 83.678,183.952 83.518 C 184.205 83.109,183.198 82.170,182.782 82.427 C 182.580 82.552,182.534 82.489,182.668 82.271 C 182.793 82.070,182.743 81.905,182.558 81.905 C 182.250 81.905,182.091 82.344,182.185 82.937 C 182.247 83.332,181.654 83.203,181.455 82.778 C 181.307 82.460,181.233 82.460,181.085 82.778 C 180.983 82.996,180.583 83.175,180.196 83.175 C 179.380 83.175,177.784 83.857,177.780 84.206 C 177.779 84.337,177.492 84.444,177.143 84.444 C 176.794 84.444,176.508 84.641,176.508 84.882 C 176.508 85.123,176.074 85.499,175.544 85.719 C 175.014 85.939,174.121 86.564,173.560 87.109 C 172.999 87.654,172.147 88.301,171.667 88.548 C 171.165 88.805,170.794 89.260,170.794 89.616 C 170.794 90.076,170.691 90.151,170.397 89.908 C 170.179 89.728,169.612 89.532,169.137 89.473 L 168.274 89.365 169.179 88.333 C 169.676 87.766,170.177 87.302,170.290 87.302 C 170.404 87.302,170.997 86.802,171.608 86.190 C 172.220 85.579,172.866 85.079,173.045 85.079 C 173.224 85.079,173.283 84.937,173.175 84.762 C 173.067 84.587,173.241 84.444,173.562 84.444 C 173.883 84.444,174.351 84.159,174.603 83.810 C 174.855 83.460,175.325 83.175,175.648 83.175 C 175.971 83.175,176.435 82.996,176.678 82.778 C 177.775 81.794,178.099 81.587,178.539 81.587 C 178.798 81.587,179.098 81.444,179.206 81.270 C 179.314 81.095,179.688 80.952,180.037 80.952 C 180.387 80.952,180.593 80.824,180.497 80.668 C 180.287 80.329,181.205 79.922,181.612 80.174 C 181.769 80.271,181.805 80.093,181.692 79.778 C 181.579 79.464,181.605 79.314,181.749 79.446 C 181.894 79.577,182.364 79.454,182.794 79.173 C 183.306 78.837,183.945 78.721,184.646 78.834 C 185.595 78.988,185.682 78.945,185.414 78.445 C 185.199 78.044,184.684 77.866,183.620 77.826 C 182.622 77.788,181.994 77.587,181.727 77.221 C 181.315 76.659,181.428 76.054,181.891 76.340 C 182.033 76.429,182.226 76.211,182.318 75.857 C 182.452 75.345,182.654 75.255,183.302 75.417 C 183.989 75.590,184.170 75.483,184.452 74.742 C 184.636 74.257,185.031 73.676,185.330 73.449 C 185.629 73.222,185.766 73.032,185.635 73.026 C 185.504 73.020,185.114 73.299,184.769 73.644 M198.262 76.495 C 197.993 76.931,198.231 77.258,198.700 77.097 C 198.892 77.031,198.917 76.806,198.760 76.553 C 198.561 76.234,198.433 76.219,198.262 76.495 M195.952 76.905 C 196.152 77.505,197.143 77.591,197.143 77.007 C 197.143 76.713,196.871 76.508,196.481 76.508 C 196.094 76.508,195.875 76.672,195.952 76.905 M186.133 80.524 C 186.246 80.638,186.092 80.926,185.789 81.164 C 185.313 81.539,185.356 81.547,186.111 81.224 C 187.083 80.808,187.269 80.317,186.455 80.317 C 186.164 80.317,186.019 80.410,186.133 80.524 M184.762 81.270 C 184.762 81.444,184.405 81.587,183.968 81.587 C 183.532 81.587,183.175 81.726,183.175 81.895 C 183.175 82.064,183.412 82.111,183.703 82.000 C 184.058 81.863,184.156 81.919,184.002 82.168 C 183.858 82.400,183.991 82.540,184.356 82.540 C 184.751 82.540,184.962 82.281,185.007 81.746 C 185.043 81.310,185.002 80.952,184.917 80.952 C 184.832 80.952,184.762 81.095,184.762 81.270 M183.632 86.815 C 183.109 87.211,183.095 87.283,183.537 87.291 C 183.824 87.297,184.141 87.087,184.242 86.825 C 184.469 86.234,184.402 86.233,183.632 86.815 M183.757 91.426 C 183.698 91.599,183.258 91.773,182.778 91.813 C 182.298 91.852,181.905 91.996,181.905 92.133 C 181.905 92.269,181.655 92.383,181.349 92.386 C 180.920 92.390,180.891 92.452,181.221 92.662 C 181.535 92.860,181.387 93.024,180.666 93.275 C 180.125 93.464,179.682 93.518,179.680 93.396 C 179.679 93.274,179.419 93.569,179.101 94.050 C 178.783 94.532,178.444 94.846,178.346 94.748 C 178.248 94.650,177.885 94.930,177.539 95.369 C 177.193 95.809,176.819 96.079,176.709 95.968 C 176.598 95.858,176.508 95.934,176.508 96.137 C 176.508 96.340,176.008 97.037,175.397 97.684 C 174.786 98.332,174.286 99.047,174.286 99.272 C 174.286 99.498,174.143 99.683,173.968 99.683 C 173.794 99.683,173.651 99.916,173.651 100.201 C 173.651 100.486,173.331 100.996,172.941 101.335 C 172.550 101.674,172.223 102.119,172.213 102.325 C 172.188 102.865,171.365 104.444,171.108 104.444 C 170.988 104.444,170.877 104.906,170.861 105.470 C 170.845 106.034,170.680 106.546,170.495 106.607 C 170.310 106.669,170.159 107.114,170.159 107.597 C 170.159 108.079,169.955 108.889,169.706 109.396 C 169.384 110.050,169.269 111.330,169.309 113.810 L 169.365 117.302 171.508 117.344 L 173.651 117.386 173.676 116.391 C 173.690 115.844,173.773 115.575,173.861 115.794 C 174.045 116.250,174.921 116.337,174.921 115.899 C 174.921 115.739,175.003 115.346,175.103 115.026 C 175.270 114.494,175.256 114.491,174.936 114.987 C 174.533 115.612,173.651 115.404,173.651 114.684 C 173.651 114.416,173.901 113.992,174.206 113.742 C 174.512 113.491,174.582 113.377,174.363 113.489 C 173.853 113.747,173.506 112.869,173.832 112.143 C 173.970 111.837,174.108 111.340,174.140 111.037 C 174.224 110.251,174.929 109.495,175.353 109.737 C 175.552 109.851,175.368 109.563,174.945 109.099 C 174.521 108.634,174.343 108.254,174.548 108.254 C 174.753 108.254,174.921 107.897,174.921 107.460 C 174.921 107.024,175.072 106.667,175.257 106.667 C 175.442 106.667,175.513 106.537,175.415 106.379 C 175.317 106.220,175.559 106.151,175.952 106.224 C 176.345 106.297,176.488 106.271,176.270 106.168 C 175.709 105.901,175.776 105.079,176.359 105.079 C 176.627 105.079,176.927 104.866,177.027 104.605 C 177.127 104.344,177.373 104.226,177.573 104.342 C 177.773 104.458,177.651 104.219,177.302 103.810 C 176.952 103.400,176.870 103.185,177.117 103.331 C 177.454 103.529,177.517 103.462,177.365 103.068 C 177.153 102.514,177.439 102.373,177.952 102.778 C 178.118 102.909,178.147 102.880,178.016 102.714 C 177.612 102.203,177.752 101.587,178.273 101.587 C 178.545 101.587,178.679 101.444,178.571 101.270 C 178.464 101.095,178.527 100.952,178.711 100.952 C 178.896 100.952,179.048 100.743,179.048 100.486 C 179.048 100.222,179.236 100.092,179.482 100.187 C 179.740 100.286,179.986 100.088,180.087 99.701 C 180.181 99.343,180.592 98.915,181.002 98.751 C 181.411 98.587,181.629 98.444,181.485 98.433 C 181.109 98.404,182.110 97.460,182.517 97.460 C 182.704 97.460,182.857 97.246,182.857 96.984 C 182.857 96.722,183.000 96.508,183.175 96.508 C 183.349 96.508,183.492 96.307,183.492 96.061 C 183.492 95.771,183.714 95.673,184.127 95.781 C 184.569 95.897,184.762 95.791,184.762 95.434 C 184.762 95.152,185.005 94.921,185.302 94.921 C 185.731 94.921,185.761 94.840,185.447 94.526 C 185.168 94.248,184.987 94.234,184.828 94.479 C 184.327 95.251,183.216 95.587,182.547 95.169 C 181.711 94.647,181.704 94.669,183.179 93.081 C 183.875 92.332,184.444 91.582,184.444 91.415 C 184.444 91.014,183.892 91.023,183.757 91.426 M166.783 92.768 C 166.510 93.209,166.049 92.706,166.249 92.185 C 166.396 91.801,166.493 91.782,166.690 92.101 C 166.829 92.326,166.870 92.626,166.783 92.768 M186.746 92.558 C 186.291 93.053,186.210 94.286,186.632 94.286 C 186.788 94.286,187.019 93.893,187.145 93.413 C 187.356 92.610,187.395 92.591,187.633 93.175 C 187.830 93.658,187.897 93.686,187.914 93.293 C 187.948 92.499,187.222 92.042,186.746 92.558 M182.222 95.873 C 182.222 96.048,182.008 96.190,181.746 96.190 C 181.484 96.190,181.270 96.048,181.270 95.873 C 181.270 95.698,181.484 95.556,181.746 95.556 C 182.008 95.556,182.222 95.698,182.222 95.873 M162.412 123.125 C 162.302 123.303,162.367 123.544,162.556 123.661 C 163.044 123.962,163.359 123.549,162.951 123.142 C 162.723 122.914,162.546 122.908,162.412 123.125 M169.137 131.186 C 169.673 131.444,169.959 131.438,170.233 131.164 C 170.515 130.882,170.343 130.799,169.508 130.815 C 168.479 130.835,168.457 130.858,169.137 131.186 M172.514 131.152 C 171.988 132.005,171.982 136.179,172.508 136.381 C 172.787 136.488,173.016 136.747,173.016 136.957 C 173.016 137.578,178.210 137.391,178.855 136.746 C 179.443 136.158,179.628 130.911,179.048 131.270 C 178.873 131.378,178.730 131.315,178.730 131.130 C 178.730 130.657,172.807 130.678,172.514 131.152 " stroke="none" fill="#d55391" fill-rule="evenodd"></path><path id="path3" d="M206.168 73.164 C 205.886 73.595,205.704 74.076,205.764 74.234 C 205.824 74.391,206.105 74.038,206.388 73.450 C 206.995 72.192,206.892 72.059,206.168 73.164 M205.079 76.155 C 205.079 76.454,205.253 76.872,205.465 77.084 C 205.677 77.296,205.850 78.253,205.850 79.211 C 205.850 80.913,205.871 80.952,206.753 80.952 C 207.275 80.952,207.574 81.087,207.460 81.270 C 207.347 81.454,207.656 81.587,208.196 81.587 C 208.709 81.587,209.309 81.805,209.530 82.071 C 209.751 82.337,210.009 82.478,210.103 82.384 C 210.197 82.290,210.676 82.599,211.168 83.071 C 211.661 83.542,212.063 83.814,212.063 83.674 C 212.063 83.534,212.432 83.661,212.883 83.956 C 213.812 84.565,214.687 84.397,214.405 83.663 C 213.953 82.485,218.315 84.095,220.653 85.969 C 225.690 90.008,226.649 92.109,229.952 106.349 C 230.215 107.484,230.723 109.627,231.080 111.111 C 231.437 112.595,231.769 114.595,231.817 115.556 L 231.905 117.302 230.531 117.239 C 227.974 117.123,223.693 114.964,221.931 112.902 C 220.464 111.185,220.320 111.111,218.469 111.112 C 215.264 111.114,214.691 111.725,214.545 115.294 C 214.454 117.503,214.245 118.632,213.720 119.744 C 212.856 121.574,212.848 121.993,213.648 123.645 C 214.787 125.998,219.312 129.740,222.284 130.787 C 223.124 131.083,223.906 131.420,224.022 131.535 C 224.138 131.651,224.823 131.746,225.545 131.746 C 226.267 131.746,227.011 131.900,227.198 132.087 C 227.570 132.459,231.327 131.897,231.889 131.386 C 232.055 131.235,232.519 131.111,232.921 131.111 C 233.322 131.111,233.651 131.003,233.651 130.871 C 233.651 130.377,235.635 129.736,236.159 130.061 C 237.444 130.859,237.665 132.885,236.567 133.808 C 236.011 134.276,235.556 134.960,235.556 135.326 L 235.556 135.993 236.203 135.298 C 237.018 134.423,237.300 134.426,237.927 135.317 C 238.313 135.865,238.491 135.934,238.691 135.614 C 239.010 135.103,238.767 133.651,238.363 133.651 C 238.202 133.651,238.088 133.115,238.111 132.460 C 238.162 131.031,237.420 124.891,236.357 117.937 C 235.930 115.143,235.424 111.669,235.232 110.217 C 235.041 108.765,234.812 107.388,234.724 107.157 C 234.635 106.927,234.370 105.543,234.135 104.083 C 232.124 91.587,226.427 83.745,216.141 79.310 C 213.281 78.077,208.460 76.825,206.571 76.825 C 205.776 76.825,205.696 76.754,206.032 76.349 C 206.249 76.087,206.374 75.862,206.309 75.849 C 205.238 75.629,205.079 75.668,205.079 76.155 M216.032 86.349 C 216.140 86.524,216.442 86.667,216.704 86.667 C 216.966 86.667,217.092 86.524,216.984 86.349 C 216.876 86.175,216.574 86.032,216.312 86.032 C 216.050 86.032,215.924 86.175,216.032 86.349 M233.666 88.108 C 232.561 88.714,232.641 92.867,233.833 96.774 C 235.416 101.964,239.822 107.619,242.283 107.619 C 243.453 107.619,243.907 107.204,243.095 106.877 C 242.778 106.749,242.778 106.712,243.095 106.692 C 243.313 106.678,243.492 106.373,243.492 106.013 C 243.492 105.653,243.635 105.448,243.810 105.556 C 243.995 105.670,244.127 105.347,244.127 104.781 C 244.127 104.218,243.960 103.807,243.730 103.805 C 243.438 103.801,243.447 103.728,243.764 103.527 C 244.120 103.301,244.106 103.121,243.683 102.475 C 243.402 102.046,243.268 101.600,243.385 101.483 C 243.502 101.366,243.431 101.270,243.228 101.270 C 243.021 101.270,242.857 100.810,242.857 100.229 C 242.857 99.574,242.617 98.983,242.209 98.634 C 241.852 98.328,241.646 97.939,241.751 97.769 C 241.856 97.599,241.791 97.460,241.606 97.460 C 241.421 97.460,241.270 97.196,241.270 96.872 C 241.270 96.549,240.849 95.844,240.335 95.306 C 239.735 94.679,239.536 94.272,239.779 94.173 C 239.994 94.085,239.927 94.008,239.625 93.993 C 239.326 93.979,239.044 93.654,238.983 93.254 C 238.923 92.861,238.688 92.579,238.461 92.627 C 238.234 92.675,238.117 92.602,238.202 92.465 C 238.388 92.164,237.527 90.921,237.209 91.028 C 237.085 91.070,236.982 90.899,236.980 90.649 C 236.976 90.203,234.916 87.610,234.603 87.657 C 234.516 87.671,234.094 87.873,233.666 88.108 M194.683 96.092 C 194.988 96.172,195.488 96.172,195.794 96.092 C 196.099 96.012,195.849 95.947,195.238 95.947 C 194.627 95.947,194.377 96.012,194.683 96.092 M185.616 110.818 C 185.512 111.214,185.213 111.454,184.865 111.419 C 182.962 111.231,181.781 112.954,181.957 115.661 C 182.098 117.837,183.021 119.502,186.667 124.165 C 188.521 126.536,189.644 128.251,189.583 128.615 C 189.518 129.003,189.751 129.308,190.260 129.502 C 191.046 129.801,192.381 131.394,192.381 132.033 C 192.381 132.343,192.792 132.506,193.380 132.429 C 193.493 132.415,193.518 132.660,193.436 132.974 C 193.339 133.345,193.462 133.545,193.786 133.545 C 194.061 133.545,194.286 133.354,194.286 133.122 C 194.286 132.889,194.429 132.698,194.603 132.698 C 194.778 132.698,194.921 132.331,194.921 131.882 C 194.921 131.433,195.148 130.838,195.426 130.560 C 196.120 129.866,195.786 128.415,194.685 127.344 C 194.203 126.876,193.590 126.068,193.321 125.548 C 193.053 125.028,192.695 124.617,192.528 124.635 C 192.100 124.679,191.451 123.760,191.439 123.095 C 191.433 122.790,191.286 122.540,191.111 122.540 C 190.937 122.540,190.794 122.350,190.794 122.117 C 190.794 121.885,190.468 121.520,190.070 121.308 C 189.673 121.095,189.148 120.463,188.905 119.905 C 188.662 119.346,188.359 118.817,188.231 118.730 C 188.104 118.643,187.919 118.143,187.822 117.619 C 187.724 117.095,187.509 116.122,187.343 115.455 C 187.105 114.500,187.136 114.207,187.489 114.072 C 187.735 113.978,187.937 113.764,187.937 113.598 C 187.937 113.432,187.807 113.376,187.648 113.474 C 187.258 113.715,186.349 113.344,186.349 112.945 C 186.349 112.769,186.654 112.704,187.026 112.801 C 187.611 112.954,188.872 112.226,188.530 111.933 C 188.001 111.479,186.984 111.140,186.984 111.417 C 186.984 111.598,186.752 111.746,186.469 111.746 C 186.054 111.746,186.029 111.656,186.338 111.284 C 186.719 110.824,186.549 110.159,186.050 110.159 C 185.906 110.159,185.711 110.455,185.616 110.818 M239.782 117.381 C 239.867 118.560,240.042 119.810,240.170 120.159 C 240.711 121.632,244.889 130.009,245.132 130.106 C 245.277 130.164,245.400 130.521,245.404 130.899 C 245.413 131.802,246.496 133.232,246.799 132.742 C 246.921 132.543,246.910 132.202,246.773 131.984 C 246.636 131.766,246.563 131.350,246.610 131.060 C 246.658 130.770,246.547 130.440,246.364 130.327 C 246.181 130.214,246.032 129.844,246.032 129.505 C 246.032 129.166,245.879 128.889,245.692 128.889 C 245.504 128.889,245.377 128.567,245.409 128.175 C 245.514 126.879,245.401 126.309,245.079 126.508 C 244.905 126.616,244.762 126.481,244.762 126.209 C 244.762 125.937,244.619 125.714,244.444 125.714 C 244.270 125.714,244.127 125.426,244.127 125.073 C 244.127 124.720,243.770 123.866,243.333 123.175 C 242.897 122.483,242.540 121.629,242.540 121.276 C 242.540 120.923,242.397 120.635,242.222 120.635 C 242.048 120.635,241.907 119.885,241.910 118.968 C 241.913 117.915,242.015 117.460,242.187 117.732 C 242.363 118.009,242.533 118.046,242.663 117.835 C 242.775 117.654,242.593 117.419,242.259 117.313 C 241.827 117.176,241.703 116.928,241.829 116.447 C 241.936 116.037,241.879 115.851,241.684 115.972 C 241.508 116.081,241.092 115.965,240.761 115.714 C 239.746 114.946,239.620 115.160,239.782 117.381 M239.899 135.542 C 239.573 135.872,239.455 136.208,239.628 136.315 C 239.796 136.419,240.015 136.291,240.116 136.030 C 240.216 135.769,240.525 135.556,240.802 135.556 C 241.080 135.556,241.219 135.413,241.111 135.238 C 240.839 134.797,240.568 134.865,239.899 135.542 " stroke="none" fill="#b7e0fb" fill-rule="evenodd"></path><path id="path4" d="M206.757 73.178 C 206.404 73.426,206.061 73.574,205.994 73.507 C 205.927 73.441,205.861 73.696,205.846 74.074 C 205.831 74.452,205.706 75.018,205.569 75.330 C 205.431 75.643,205.444 75.876,205.596 75.848 C 206.248 75.729,206.401 75.904,206.032 76.349 C 205.696 76.754,205.776 76.825,206.571 76.825 C 208.460 76.825,213.281 78.077,216.141 79.310 C 226.427 83.745,232.124 91.587,234.135 104.083 C 234.370 105.543,234.635 106.927,234.724 107.157 C 234.812 107.388,235.041 108.765,235.232 110.217 C 235.424 111.669,235.930 115.143,236.357 117.937 C 237.420 124.891,238.162 131.031,238.111 132.460 C 238.088 133.115,238.202 133.651,238.363 133.651 C 238.767 133.651,239.010 135.103,238.691 135.614 C 238.491 135.934,238.313 135.865,237.927 135.317 C 237.300 134.426,237.018 134.423,236.203 135.298 L 235.556 135.993 235.556 135.326 C 235.556 134.960,236.011 134.276,236.567 133.808 C 237.665 132.885,237.444 130.859,236.159 130.061 C 235.635 129.736,233.651 130.377,233.651 130.871 C 233.651 131.003,233.322 131.111,232.921 131.111 C 232.519 131.111,232.055 131.235,231.889 131.386 C 231.327 131.897,227.570 132.459,227.198 132.087 C 227.011 131.900,226.267 131.746,225.545 131.746 C 224.823 131.746,224.138 131.651,224.022 131.535 C 223.906 131.420,223.124 131.083,222.284 130.787 C 219.312 129.740,214.787 125.998,213.648 123.645 C 212.848 121.993,212.856 121.574,213.720 119.744 C 214.245 118.632,214.454 117.503,214.545 115.294 C 214.691 111.725,215.264 111.114,218.469 111.112 C 220.320 111.111,220.464 111.185,221.931 112.902 C 223.693 114.964,227.974 117.123,230.531 117.239 L 231.905 117.302 231.817 115.556 C 231.769 114.595,231.437 112.595,231.080 111.111 C 230.723 109.627,230.215 107.484,229.952 106.349 C 227.038 93.787,226.025 91.107,223.081 88.179 C 219.099 84.218,214.415 82.042,214.355 84.127 C 214.337 84.764,214.482 85.079,214.793 85.079 C 215.049 85.079,215.340 85.294,215.441 85.556 C 215.541 85.817,215.898 86.032,216.234 86.032 C 216.570 86.032,216.940 86.279,217.056 86.580 C 217.172 86.882,217.596 87.434,217.998 87.807 C 218.401 88.180,218.730 88.656,218.730 88.865 C 218.730 89.073,218.873 89.156,219.048 89.048 C 219.351 88.860,219.512 89.326,219.376 90.000 C 219.341 90.175,219.418 90.211,219.548 90.081 C 219.800 89.830,220.841 91.107,220.712 91.508 C 220.670 91.639,220.864 91.746,221.145 91.746 C 221.464 91.746,221.588 91.921,221.476 92.213 C 221.377 92.470,221.471 92.863,221.684 93.086 C 221.898 93.309,222.120 93.992,222.177 94.603 C 222.235 95.214,222.430 95.893,222.609 96.111 C 222.835 96.387,222.814 96.653,222.540 96.984 C 222.221 97.368,222.229 97.461,222.580 97.465 C 222.849 97.468,222.892 97.559,222.692 97.703 C 222.513 97.832,222.321 98.437,222.265 99.048 C 222.209 99.659,222.034 100.206,221.875 100.265 C 221.717 100.323,221.587 100.510,221.587 100.680 C 221.587 100.850,221.766 100.898,221.984 100.787 C 222.202 100.675,221.952 100.976,221.429 101.456 C 220.905 101.936,220.492 102.412,220.511 102.513 C 220.530 102.615,220.339 103.014,220.087 103.399 C 219.834 103.784,219.729 104.264,219.854 104.464 C 220.010 104.718,219.872 104.764,219.405 104.616 C 218.894 104.454,218.730 104.535,218.730 104.952 C 218.730 105.255,218.639 105.411,218.527 105.299 C 218.328 105.101,216.519 105.964,216.177 106.421 C 216.082 106.547,215.725 106.704,215.383 106.769 C 214.343 106.967,213.016 107.587,213.016 107.875 C 213.016 108.024,212.694 108.319,212.302 108.531 C 210.891 109.289,210.064 111.054,210.101 113.229 C 210.120 114.321,209.995 115.302,209.824 115.407 C 209.653 115.513,209.596 115.732,209.696 115.895 C 209.797 116.057,209.620 116.194,209.304 116.198 C 208.989 116.201,208.373 116.484,207.937 116.825 C 207.500 117.167,206.884 117.449,206.569 117.453 C 206.253 117.457,206.083 117.603,206.190 117.778 C 206.298 117.952,206.235 118.095,206.050 118.095 C 205.866 118.095,205.714 118.310,205.714 118.571 C 205.714 119.209,206.547 119.181,206.795 118.536 C 206.946 118.143,207.092 118.107,207.425 118.384 C 207.765 118.666,207.897 118.598,208.035 118.070 C 208.258 117.219,208.954 117.591,208.825 118.491 C 208.701 119.352,209.411 119.585,209.671 118.768 C 209.781 118.420,210.114 118.072,210.412 117.994 C 210.801 117.891,210.752 117.841,210.238 117.815 C 209.433 117.773,209.278 117.217,209.994 116.942 C 210.369 116.798,210.392 116.626,210.106 116.091 C 209.753 115.432,209.761 115.430,210.576 115.964 C 211.676 116.684,211.685 116.681,211.926 115.397 C 212.050 114.735,212.320 114.286,212.594 114.286 C 212.847 114.286,212.972 114.417,212.873 114.578 C 212.774 114.738,212.908 115.085,213.172 115.349 C 213.705 115.882,213.807 117.491,213.360 118.338 C 211.825 121.248,211.822 122.413,213.348 124.603 C 215.191 127.250,220.296 131.429,221.687 131.429 C 221.912 131.429,222.231 131.547,222.397 131.693 C 224.288 133.348,230.821 133.196,234.309 131.416 C 236.486 130.306,237.225 131.455,235.528 133.312 C 231.227 138.021,232.209 143.985,236.940 141.892 C 237.746 141.535,238.942 141.252,239.599 141.262 C 241.478 141.291,243.321 140.840,243.458 140.317 C 243.709 139.354,243.465 137.926,242.988 137.569 C 242.718 137.366,242.471 137.081,242.439 136.934 C 242.407 136.787,242.274 136.702,242.143 136.746 C 242.012 136.790,241.905 136.540,241.905 136.190 C 241.905 135.799,242.118 135.554,242.460 135.551 C 242.935 135.547,242.947 135.501,242.540 135.238 C 242.067 134.933,242.090 134.919,243.250 134.802 C 243.465 134.780,243.695 134.486,243.760 134.149 C 243.867 133.595,243.831 133.584,243.384 134.030 C 242.732 134.683,240.427 134.114,239.791 133.143 C 238.417 131.045,237.036 117.252,238.020 115.453 L 238.571 114.444 238.669 116.338 C 238.722 117.380,238.883 118.380,239.025 118.560 C 239.168 118.741,239.381 119.556,239.499 120.371 C 239.625 121.238,240.102 122.389,240.650 123.146 C 241.166 123.857,241.587 124.726,241.587 125.077 C 241.587 125.427,241.730 125.714,241.905 125.714 C 242.079 125.714,242.222 125.868,242.222 126.056 C 242.222 126.244,242.885 127.751,243.695 129.405 C 244.979 132.028,245.121 132.513,244.806 133.205 C 244.349 134.207,244.345 134.180,244.967 134.418 C 245.265 134.533,245.755 134.377,246.111 134.055 C 246.453 133.746,246.790 133.528,246.859 133.571 C 247.302 133.852,247.668 133.555,247.530 133.027 C 247.440 132.683,247.459 132.415,247.572 132.429 C 248.303 132.525,248.553 132.304,248.434 131.667 C 248.361 131.274,248.291 130.765,248.278 130.537 C 248.265 130.308,248.136 130.194,247.992 130.283 C 247.849 130.372,247.552 129.746,247.333 128.891 C 247.114 128.037,246.839 127.294,246.721 127.240 C 246.394 127.091,244.614 123.386,244.655 122.940 C 244.674 122.724,244.597 122.604,244.483 122.675 C 244.369 122.745,244.112 122.458,243.913 122.036 C 243.714 121.614,243.681 121.349,243.839 121.447 C 244.498 121.854,244.051 121.053,242.985 119.915 C 242.793 119.710,242.701 119.293,242.780 118.989 C 242.860 118.685,242.696 118.206,242.415 117.925 C 241.946 117.457,241.905 117.546,241.905 119.025 C 241.905 119.910,242.048 120.635,242.222 120.635 C 242.397 120.635,242.540 120.923,242.540 121.276 C 242.540 121.629,242.897 122.483,243.333 123.175 C 243.770 123.866,244.127 124.720,244.127 125.073 C 244.127 125.426,244.270 125.714,244.444 125.714 C 244.619 125.714,244.762 125.937,244.762 126.209 C 244.762 126.481,244.905 126.616,245.079 126.508 C 245.401 126.309,245.514 126.879,245.409 128.175 C 245.377 128.567,245.504 128.889,245.692 128.889 C 245.879 128.889,246.032 129.166,246.032 129.505 C 246.032 129.844,246.181 130.214,246.364 130.327 C 246.547 130.440,246.658 130.770,246.610 131.060 C 246.563 131.350,246.636 131.766,246.773 131.984 C 246.910 132.202,246.921 132.543,246.799 132.742 C 246.496 133.232,245.413 131.802,245.404 130.899 C 245.400 130.521,245.277 130.164,245.132 130.106 C 244.889 130.009,240.711 121.632,240.170 120.159 C 239.814 119.188,239.591 115.237,239.892 115.248 C 240.039 115.254,240.430 115.463,240.761 115.714 C 241.376 116.179,241.905 116.089,241.905 115.518 C 241.905 115.343,241.762 115.289,241.587 115.397 C 241.398 115.514,241.270 115.136,241.270 114.463 C 241.270 113.470,241.174 113.333,240.476 113.333 C 240.003 113.333,239.683 113.152,239.683 112.883 C 239.683 112.635,239.594 112.202,239.486 111.920 C 239.339 111.538,239.615 111.279,240.570 110.904 C 241.311 110.613,241.920 110.136,242.015 109.772 C 242.105 109.426,242.316 109.227,242.483 109.330 C 242.650 109.433,242.849 109.090,242.925 108.568 C 243.055 107.687,242.994 107.619,242.070 107.619 C 240.783 107.619,237.891 104.783,235.987 101.653 C 232.749 96.332,231.672 86.914,234.444 88.159 C 234.619 88.237,234.485 88.076,234.146 87.801 C 233.691 87.433,233.650 87.296,233.987 87.281 C 234.239 87.270,234.114 87.129,233.710 86.967 C 233.306 86.805,233.066 86.524,233.178 86.344 C 233.289 86.164,233.191 86.055,232.960 86.103 C 232.729 86.151,232.577 86.006,232.624 85.780 C 232.689 85.460,232.561 85.448,232.041 85.726 C 231.275 86.137,230.734 85.830,231.438 85.384 C 231.718 85.207,231.755 85.087,231.529 85.084 C 231.323 85.082,231.063 84.794,230.952 84.444 C 230.842 84.095,230.609 83.810,230.436 83.810 C 230.263 83.810,230.222 83.988,230.345 84.206 C 230.469 84.425,230.263 84.288,229.888 83.902 C 229.513 83.517,229.206 83.052,229.206 82.870 C 229.206 82.689,228.984 82.540,228.711 82.540 C 228.439 82.540,228.305 82.397,228.413 82.222 C 228.521 82.048,228.393 81.905,228.130 81.905 C 227.866 81.905,227.511 81.656,227.341 81.352 C 227.171 81.048,226.930 80.901,226.805 81.026 C 226.681 81.150,226.134 80.897,225.591 80.463 C 225.048 80.028,224.453 79.568,224.268 79.440 C 223.237 78.721,222.639 78.374,222.143 78.208 C 221.837 78.105,221.587 77.895,221.587 77.741 C 221.587 77.587,221.302 77.460,220.952 77.460 C 220.603 77.460,220.317 77.317,220.317 77.143 C 220.317 76.968,220.093 76.825,219.819 76.825 C 219.544 76.825,219.104 76.610,218.841 76.346 C 218.577 76.083,218.223 75.953,218.054 76.057 C 217.884 76.162,217.251 76.013,216.647 75.726 C 216.043 75.440,215.385 75.306,215.186 75.429 C 214.970 75.562,214.909 75.514,215.035 75.309 C 215.370 74.768,214.686 74.536,213.937 74.938 C 213.563 75.138,213.344 75.161,213.450 74.988 C 213.557 74.816,213.404 74.480,213.110 74.242 C 212.651 73.870,212.614 73.876,212.843 74.286 C 213.059 74.673,213.029 74.688,212.681 74.365 C 212.446 74.147,211.937 73.968,211.550 73.968 C 211.163 73.968,210.788 73.793,210.717 73.579 C 210.642 73.356,210.153 73.223,209.569 73.267 C 209.009 73.310,208.292 73.206,207.976 73.037 C 207.570 72.820,207.209 72.862,206.757 73.178 M195.010 87.843 C 194.924 88.067,194.726 88.171,194.570 88.075 C 194.414 87.978,194.286 88.113,194.286 88.375 C 194.286 89.062,194.891 89.336,195.116 88.750 C 195.229 88.454,195.687 88.254,196.251 88.254 C 196.829 88.254,197.148 88.110,197.072 87.884 C 196.903 87.375,195.203 87.341,195.010 87.843 M197.551 87.816 C 197.901 88.166,196.893 88.889,196.054 88.889 C 195.329 88.889,195.238 89.016,195.238 90.034 C 195.238 90.880,195.123 91.135,194.798 91.010 C 194.489 90.892,194.405 91.024,194.517 91.452 C 194.710 92.189,194.340 92.117,198.527 92.230 C 200.464 92.283,202.126 92.475,202.320 92.670 C 202.740 93.089,203.284 93.132,203.033 92.726 C 202.934 92.566,203.017 92.381,203.217 92.314 C 203.416 92.247,203.834 91.557,204.145 90.779 C 204.479 89.944,204.883 89.407,205.133 89.467 C 205.464 89.547,205.472 89.484,205.172 89.179 C 204.700 88.699,203.812 89.308,203.805 90.118 C 203.802 90.436,203.710 90.504,203.567 90.294 C 203.438 90.107,203.074 89.858,202.758 89.741 C 202.110 89.502,202.322 88.889,203.053 88.889 C 203.315 88.889,203.441 88.746,203.333 88.571 C 203.225 88.397,202.225 88.254,201.111 88.254 C 199.997 88.254,198.997 88.111,198.889 87.937 C 198.781 87.762,198.392 87.619,198.024 87.619 C 197.656 87.619,197.443 87.707,197.551 87.816 M204.762 91.606 C 204.762 92.067,204.899 92.333,205.079 92.222 C 205.254 92.114,205.397 91.749,205.397 91.410 C 205.397 91.071,205.254 90.794,205.079 90.794 C 204.905 90.794,204.762 91.159,204.762 91.606 M205.635 92.553 C 205.000 93.400,204.946 93.651,205.397 93.651 C 205.571 93.651,205.714 93.437,205.714 93.175 C 205.714 92.913,205.929 92.698,206.190 92.698 C 206.686 92.698,206.843 92.208,206.429 91.956 C 206.298 91.877,205.940 92.145,205.635 92.553 M167.278 95.599 C 167.079 95.972,166.990 96.741,167.082 97.308 C 167.174 97.874,167.099 98.488,166.916 98.671 C 166.732 98.855,166.675 99.246,166.788 99.542 C 166.961 99.993,167.166 99.895,168.079 98.928 C 168.676 98.295,169.316 97.778,169.502 97.778 C 170.359 97.778,169.836 95.917,168.840 95.420 C 167.601 94.802,167.712 94.789,167.278 95.599 M193.202 96.147 C 193.094 96.321,193.151 96.554,193.328 96.663 C 193.506 96.773,193.653 96.676,193.656 96.447 C 193.659 96.187,193.748 96.153,193.894 96.356 C 194.027 96.542,194.602 96.594,195.238 96.477 L 196.349 96.274 195.343 96.232 C 194.790 96.209,194.126 96.109,193.868 96.010 C 193.609 95.911,193.309 95.972,193.202 96.147 M196.705 96.099 C 196.581 96.223,196.778 96.551,197.144 96.826 C 197.576 97.152,197.736 97.517,197.601 97.870 C 197.376 98.455,196.825 98.615,196.825 98.095 C 196.825 97.921,196.683 97.778,196.508 97.778 C 196.007 97.778,196.138 98.730,196.667 98.933 C 197.310 99.180,197.268 99.600,196.578 99.819 C 195.544 100.147,195.181 101.795,196.022 102.345 C 196.577 102.709,196.830 102.730,197.139 102.440 C 197.458 102.138,197.464 102.207,197.169 102.781 C 196.965 103.176,196.841 103.704,196.892 103.954 C 196.943 104.204,196.709 104.612,196.374 104.860 C 195.814 105.273,195.912 105.329,197.559 105.534 C 200.355 105.884,199.422 106.811,196.290 106.795 C 195.908 106.793,195.659 106.895,195.738 107.022 C 195.977 107.409,205.209 107.255,205.471 106.859 C 205.634 106.615,205.706 106.629,205.709 106.905 C 205.721 107.859,209.833 107.050,209.839 106.092 C 209.840 105.864,209.984 105.765,210.159 105.873 C 210.333 105.981,210.476 105.928,210.476 105.756 C 210.476 105.583,210.683 105.235,210.936 104.982 C 211.338 104.581,211.279 104.391,210.470 103.485 C 209.960 102.914,209.633 102.303,209.741 102.127 C 209.850 101.951,209.785 101.902,209.596 102.019 C 209.407 102.136,209.170 101.972,209.069 101.654 C 208.937 101.239,208.521 101.055,207.590 101.000 C 206.753 100.950,206.366 101.041,206.499 101.255 C 206.615 101.443,206.435 101.587,206.084 101.587 C 205.744 101.587,205.375 101.822,205.265 102.109 C 205.154 102.396,204.981 102.548,204.880 102.446 C 204.779 102.345,204.908 101.836,205.168 101.316 C 205.521 100.608,205.549 100.272,205.280 99.980 C 205.009 99.686,205.018 99.644,205.314 99.811 C 205.578 99.960,205.645 99.871,205.518 99.540 C 205.414 99.269,205.193 99.048,205.027 99.048 C 204.860 99.048,204.803 98.920,204.900 98.763 C 204.997 98.607,204.851 98.393,204.575 98.287 C 203.865 98.015,203.810 98.037,203.810 98.590 C 203.810 98.862,203.661 98.993,203.479 98.881 C 203.297 98.769,203.236 98.403,203.342 98.069 C 203.515 97.523,203.366 97.460,201.903 97.460 C 199.995 97.460,199.365 97.894,199.365 99.206 C 199.365 99.468,199.151 99.683,198.889 99.683 C 198.555 99.683,198.413 99.346,198.413 98.560 C 198.413 96.956,197.362 95.442,196.705 96.099 M215.603 96.492 C 215.740 96.901,216.175 96.975,216.214 96.595 C 216.227 96.469,216.067 96.308,215.857 96.238 C 215.648 96.168,215.533 96.283,215.603 96.492 M197.460 100.876 C 197.460 101.409,196.255 101.896,196.078 101.434 C 195.911 101.001,196.282 100.709,197.063 100.660 C 197.282 100.646,197.460 100.743,197.460 100.876 M188.217 106.701 C 187.975 106.819,187.421 107.081,186.984 107.283 C 185.334 108.046,184.272 108.694,183.877 109.180 C 182.943 110.328,181.905 112.082,181.905 112.511 C 181.905 112.764,181.665 113.210,181.373 113.502 C 180.944 113.931,180.914 114.151,181.214 114.632 C 181.419 114.961,181.587 115.648,181.587 116.160 C 181.587 117.604,182.608 119.645,184.479 121.942 C 189.177 127.708,189.532 128.282,188.968 129.192 C 188.451 130.028,188.463 130.326,188.997 129.883 C 189.564 129.412,189.937 129.820,189.462 130.392 C 189.171 130.742,189.189 130.904,189.542 131.122 C 189.865 131.322,190.065 131.214,190.239 130.744 C 190.439 130.203,190.566 130.156,190.956 130.479 C 191.601 131.014,191.549 131.519,190.794 132.063 C 189.756 132.811,189.975 133.651,191.206 133.651 C 191.783 133.651,192.426 133.823,192.637 134.034 C 192.937 134.333,193.142 134.289,193.574 133.831 C 193.889 133.496,193.935 133.353,193.680 133.497 C 193.339 133.690,193.275 133.590,193.409 133.076 C 193.506 132.706,193.493 132.415,193.380 132.429 C 192.792 132.506,192.381 132.343,192.381 132.033 C 192.381 131.394,191.046 129.801,190.260 129.502 C 189.751 129.308,189.518 129.003,189.583 128.615 C 189.644 128.251,188.521 126.536,186.667 124.165 C 183.021 119.502,182.098 117.837,181.957 115.661 C 181.781 112.954,182.962 111.231,184.865 111.419 C 185.213 111.454,185.512 111.214,185.616 110.818 C 185.711 110.455,185.906 110.159,186.050 110.159 C 186.549 110.159,186.719 110.824,186.338 111.284 C 186.029 111.656,186.054 111.746,186.469 111.746 C 186.752 111.746,186.984 111.598,186.984 111.417 C 186.984 111.191,187.175 111.191,187.598 111.417 C 188.343 111.816,188.666 111.839,188.442 111.477 C 188.351 111.328,188.548 110.915,188.881 110.558 C 189.213 110.201,189.399 109.822,189.293 109.716 C 189.187 109.610,189.267 109.524,189.471 109.524 C 190.087 109.524,190.290 109.414,190.952 108.722 C 191.690 107.952,193.860 106.880,194.225 107.105 C 194.362 107.190,194.682 107.116,194.936 106.941 C 195.276 106.706,195.125 106.655,194.365 106.748 C 193.798 106.817,193.333 106.775,193.333 106.654 C 193.333 106.373,188.801 106.414,188.217 106.701 M193.750 109.142 C 193.886 109.401,192.817 110.489,192.620 110.291 C 192.547 110.219,192.297 110.517,192.063 110.953 C 191.830 111.389,191.449 111.746,191.216 111.746 C 190.984 111.746,190.794 112.023,190.794 112.362 C 190.794 112.701,190.651 113.067,190.476 113.175 C 190.297 113.285,190.159 114.818,190.159 116.685 C 190.159 118.683,190.285 120.000,190.476 120.000 C 190.651 120.000,190.794 120.199,190.794 120.442 C 190.794 120.685,191.008 120.967,191.270 121.067 C 191.532 121.168,191.746 121.112,191.746 120.942 C 191.746 120.773,192.032 120.635,192.381 120.635 C 192.749 120.635,193.016 120.423,193.016 120.132 C 193.016 119.856,192.840 119.688,192.626 119.760 C 192.087 119.939,190.993 118.861,191.266 118.418 C 191.389 118.220,191.868 118.102,192.332 118.156 C 193.013 118.235,193.195 118.109,193.282 117.495 C 193.369 116.880,193.274 116.767,192.776 116.897 C 192.394 116.997,192.024 116.836,191.796 116.470 C 191.392 115.824,191.280 114.859,191.672 115.404 C 192.684 116.814,195.653 117.420,195.818 116.250 C 195.950 115.323,196.474 115.120,197.616 115.554 C 198.608 115.931,198.409 116.369,197.143 116.597 C 196.484 116.715,196.527 116.746,197.392 116.782 C 198.332 116.821,198.402 116.888,198.095 117.460 C 197.767 118.075,197.976 118.268,198.818 118.130 C 198.954 118.108,199.148 118.305,199.249 118.568 C 199.455 119.106,200.317 119.228,200.317 118.720 C 200.317 118.540,200.114 118.315,199.865 118.219 C 199.252 117.984,200.214 116.825,201.023 116.825 C 201.745 116.825,201.750 117.333,201.032 117.757 C 200.525 118.056,200.539 118.103,201.190 118.286 C 201.613 118.405,201.905 118.735,201.905 119.096 C 201.905 119.595,202.013 119.647,202.506 119.383 C 203.165 119.030,204.007 119.660,203.569 120.177 C 203.439 120.330,203.583 120.264,203.889 120.030 C 204.570 119.509,204.607 119.048,203.968 119.048 C 203.578 119.048,203.492 118.501,203.492 116.032 C 203.492 114.233,203.364 113.016,203.175 113.016 C 203.000 113.016,202.857 112.742,202.857 112.407 C 202.857 112.073,202.679 111.727,202.460 111.639 C 202.151 111.514,202.154 111.473,202.473 111.454 C 203.088 111.416,201.944 110.341,200.737 109.823 C 200.182 109.584,199.788 109.292,199.861 109.174 C 199.934 109.056,198.562 108.950,196.813 108.939 C 195.063 108.928,193.685 109.019,193.750 109.142 M186.349 112.982 C 186.349 113.369,187.284 113.699,187.682 113.453 C 187.884 113.328,187.844 113.152,187.574 112.981 C 187.009 112.624,186.349 112.624,186.349 112.982 M213.175 113.016 C 213.283 113.190,213.077 113.333,212.717 113.333 C 212.358 113.333,212.063 113.190,212.063 113.016 C 212.063 112.841,212.269 112.698,212.521 112.698 C 212.773 112.698,213.067 112.841,213.175 113.016 M200.317 114.127 C 200.317 114.389,200.190 114.603,200.034 114.603 C 199.878 114.603,199.668 114.389,199.568 114.127 C 199.456 113.837,199.567 113.651,199.851 113.651 C 200.108 113.651,200.317 113.865,200.317 114.127 M201.905 114.455 C 201.905 114.852,199.936 116.506,199.664 116.338 C 199.147 116.018,199.339 115.556,199.989 115.556 C 200.332 115.556,200.765 115.270,200.952 114.921 C 201.259 114.348,201.905 114.033,201.905 114.455 M227.713 115.271 C 227.462 115.522,227.197 115.525,226.777 115.281 C 226.263 114.982,226.306 114.939,227.127 114.930 C 227.810 114.923,227.969 115.015,227.713 115.271 M231.045 116.144 C 231.150 116.464,230.993 116.516,230.434 116.347 C 229.221 115.979,228.918 115.492,229.976 115.610 C 230.486 115.668,230.967 115.908,231.045 116.144 M191.788 121.509 C 191.466 122.110,191.486 122.222,191.912 122.222 C 192.191 122.222,192.336 122.355,192.236 122.518 C 192.135 122.680,192.199 122.904,192.378 123.014 C 192.799 123.274,193.209 122.224,192.792 121.952 C 192.618 121.839,192.407 121.532,192.323 121.271 C 192.205 120.904,192.082 120.959,191.788 121.509 M174.181 122.751 C 173.880 123.052,173.916 124.444,174.225 124.444 C 175.131 124.444,175.594 123.625,174.995 123.083 C 174.664 122.784,174.297 122.634,174.181 122.751 M193.333 123.442 C 193.333 123.601,193.548 123.910,193.810 124.127 C 194.071 124.344,194.286 124.714,194.286 124.949 C 194.286 125.554,196.120 127.356,196.352 126.979 C 196.459 126.807,196.394 126.667,196.209 126.667 C 196.024 126.667,195.873 126.514,195.873 126.327 C 195.873 125.857,195.041 125.065,194.800 125.306 C 194.692 125.414,194.603 125.127,194.603 124.667 C 194.603 124.157,194.356 123.700,193.968 123.492 C 193.619 123.305,193.333 123.283,193.333 123.442 M241.111 135.238 C 241.219 135.413,241.080 135.556,240.802 135.556 C 240.525 135.556,240.216 135.769,240.116 136.030 C 240.015 136.291,239.796 136.419,239.628 136.315 C 239.455 136.208,239.573 135.872,239.899 135.542 C 240.568 134.865,240.839 134.797,241.111 135.238 M195.058 140.601 C 195.153 140.755,195.033 141.045,194.791 141.246 C 194.549 141.446,194.419 141.870,194.502 142.187 C 194.585 142.503,194.463 142.966,194.231 143.214 C 193.630 143.858,193.551 144.498,194.031 144.836 C 194.357 145.066,194.360 145.162,194.048 145.289 C 193.829 145.377,193.651 145.661,193.651 145.918 C 193.651 146.176,193.538 146.317,193.401 146.232 C 192.977 145.970,192.987 147.720,193.411 148.026 C 193.694 148.230,193.655 148.265,193.277 148.144 C 192.984 148.051,192.556 148.203,192.325 148.483 C 191.970 148.913,191.979 148.966,192.381 148.825 C 192.990 148.611,194.045 149.143,193.800 149.540 C 193.697 149.706,193.300 149.843,192.918 149.846 C 192.355 149.850,192.313 149.909,192.698 150.154 C 193.091 150.404,193.105 150.569,192.778 151.097 C 192.560 151.449,192.381 151.963,192.381 152.238 C 192.381 152.571,192.149 152.705,191.686 152.639 C 191.127 152.559,190.981 152.708,190.942 153.401 C 190.915 153.874,191.013 154.187,191.161 154.096 C 191.308 154.005,191.429 153.729,191.429 153.483 C 191.429 153.216,191.620 153.109,191.905 153.219 C 192.619 153.493,192.478 154.192,191.667 154.401 C 190.935 154.590,190.159 155.870,190.159 156.889 C 190.159 157.203,189.980 157.466,189.762 157.473 C 189.544 157.480,189.758 157.699,190.238 157.959 C 191.187 158.474,191.396 159.048,190.635 159.048 C 190.373 159.048,190.159 158.833,190.159 158.571 C 190.159 158.310,190.025 158.095,189.863 158.095 C 189.505 158.095,189.071 159.336,189.337 159.601 C 189.440 159.705,189.288 160.051,188.999 160.371 C 188.710 160.691,188.583 160.952,188.717 160.952 C 188.852 160.952,188.731 161.304,188.449 161.735 C 188.167 162.165,187.937 162.959,187.937 163.500 C 187.937 164.074,187.805 164.400,187.619 164.286 C 187.427 164.167,187.302 164.600,187.302 165.378 C 187.302 167.040,187.291 167.081,186.742 167.482 C 186.345 167.772,186.342 167.886,186.722 168.275 C 187.211 168.776,187.415 170.159,187.001 170.159 C 186.858 170.159,186.662 169.859,186.566 169.492 C 186.461 169.091,186.246 168.915,186.025 169.052 C 185.824 169.176,185.728 169.542,185.813 169.865 C 185.897 170.189,185.790 170.599,185.575 170.777 C 185.361 170.955,185.210 171.425,185.241 171.821 C 185.272 172.216,185.081 172.873,184.817 173.281 C 184.460 173.831,184.432 174.082,184.708 174.252 C 184.973 174.416,184.897 174.679,184.445 175.164 C 183.741 175.920,183.582 176.682,184.206 176.307 C 184.486 176.139,184.478 176.223,184.177 176.595 C 183.781 177.083,184.558 177.116,194.970 177.053 L 206.190 176.984 206.085 176.231 C 206.026 175.818,205.080 174.175,203.982 172.581 C 202.883 170.987,201.380 168.397,200.641 166.825 C 196.384 157.770,196.677 159.040,196.604 149.365 C 196.570 144.825,196.534 140.964,196.525 140.784 C 196.515 140.603,196.143 140.426,195.697 140.389 C 195.251 140.352,194.963 140.447,195.058 140.601 M237.920 146.346 C 235.793 147.270,234.975 149.188,236.051 150.725 C 237.181 152.338,240.289 152.986,240.952 151.746 C 241.391 150.927,241.786 150.939,242.005 151.778 C 242.271 152.797,242.864 152.169,242.776 150.962 C 242.703 149.953,242.310 149.661,241.861 150.279 C 241.749 150.432,241.478 150.446,241.257 150.310 C 240.954 150.122,241.003 149.949,241.460 149.598 C 241.882 149.273,241.944 149.089,241.667 148.985 C 241.448 148.903,241.270 148.411,241.270 147.891 C 241.270 147.342,241.403 147.029,241.587 147.143 C 241.762 147.251,241.905 147.048,241.905 146.691 C 241.905 145.630,239.956 145.461,237.920 146.346 " stroke="none" fill="#97cdf7" fill-rule="evenodd"></path></g></svg>