<svg id="svg" version="1.1" xmlns="http://www.w3.org/2000/svg" xmlns:xlink="http://www.w3.org/1999/xlink" width="400" height="400" viewBox="0, 0, 400,400"><g id="svgg"><path id="path0" d="M209.871 94.262 C 209.722 94.411,209.600 95.123,209.600 95.843 C 209.600 96.563,209.420 97.264,209.200 97.400 C 208.629 97.753,208.705 100.230,209.300 100.680 C 209.575 100.888,211.405 101.667,213.366 102.412 C 232.751 109.770,236.159 128.567,219.616 136.880 C 216.636 138.378,215.959 138.946,215.282 140.519 C 214.700 141.871,214.681 142.121,215.184 141.810 C 217.176 140.579,218.106 147.455,216.400 150.800 C 214.898 153.745,215.746 156.210,219.584 160.048 C 226.234 166.698,235.459 169.118,242.000 165.927 C 245.020 164.454,245.245 164.441,245.688 165.714 C 246.035 166.712,245.902 167.017,244.408 168.638 C 241.524 171.766,240.732 175.571,242.396 178.300 C 243.396 179.940,243.543 179.931,247.404 178.010 C 249.162 177.136,250.900 176.416,251.267 176.410 C 253.373 176.378,253.635 175.632,252.157 173.876 C 251.266 172.817,251.148 172.383,251.351 170.903 C 251.528 169.616,251.444 169.115,251.025 168.954 C 249.813 168.489,249.058 165.540,247.566 155.444 C 246.107 145.570,245.648 140.464,246.306 141.432 C 246.949 142.377,248.975 141.855,249.538 140.600 C 250.522 138.408,251.324 137.012,252.238 135.904 C 254.869 132.714,253.517 127.444,247.790 118.566 C 241.934 109.490,227.769 99.302,216.133 95.797 C 213.530 95.013,211.117 94.286,210.771 94.182 C 210.425 94.077,210.020 94.113,209.871 94.262 M195.098 112.636 C 194.058 113.675,194.897 114.000,198.624 114.000 C 202.703 114.000,203.399 113.487,199.912 113.050 C 198.750 112.904,197.259 112.684,196.598 112.562 C 195.936 112.439,195.261 112.472,195.098 112.636 M159.443 121.833 C 158.806 123.492,159.134 124.052,160.200 123.125 C 160.750 122.647,161.200 122.018,161.200 121.728 C 161.200 120.982,159.736 121.069,159.443 121.833 M200.272 126.460 C 199.651 127.356,198.813 128.176,198.409 128.282 C 197.596 128.494,197.032 131.861,197.686 132.600 C 198.237 133.222,210.280 133.397,211.007 132.794 C 212.657 131.425,210.105 128.786,208.344 130.040 C 205.763 131.877,203.696 130.520,204.390 127.443 C 204.695 126.091,204.633 125.934,203.580 125.390 C 201.914 124.528,201.521 124.656,200.272 126.460 M184.546 134.836 C 178.466 136.598,175.012 143.804,177.604 149.319 C 178.310 150.822,184.565 158.893,187.131 161.613 C 187.643 162.156,188.633 163.498,189.331 164.596 C 190.968 167.171,191.708 167.313,192.549 165.211 C 193.442 162.979,193.634 163.413,189.325 157.930 C 183.521 150.547,183.101 149.770,182.885 146.041 C 182.608 141.263,183.990 137.972,187.268 135.597 L 188.920 134.400 187.360 134.436 C 186.502 134.456,185.236 134.636,184.546 134.836 M193.531 139.632 C 191.664 140.579,191.342 141.114,192.153 141.924 C 192.594 142.366,192.800 142.412,192.800 142.070 C 192.800 141.492,196.281 141.533,197.086 142.120 C 197.647 142.530,200.137 140.945,199.797 140.395 C 198.861 138.881,195.757 138.503,193.531 139.632 M234.446 141.891 C 235.447 142.482,235.740 142.505,236.473 142.047 C 237.687 141.289,240.460 146.073,239.414 147.120 C 238.634 147.899,231.264 144.569,229.497 142.639 C 228.617 141.677,228.857 141.379,229.958 142.067 C 230.665 142.508,230.965 142.483,231.897 141.905 C 233.254 141.064,233.048 141.065,234.446 141.891 M249.488 142.933 C 248.206 146.192,249.370 150.948,253.596 159.718 C 255.358 163.375,256.800 166.567,256.800 166.811 C 256.800 167.056,257.205 167.198,257.700 167.128 C 259.417 166.884,259.059 165.061,256.061 158.798 C 253.611 153.679,250.340 145.259,249.924 143.000 C 249.786 142.250,249.758 142.246,249.488 142.933 M195.009 179.300 C 194.918 179.575,194.461 181.150,193.993 182.800 C 193.526 184.450,192.820 186.790,192.425 188.000 C 192.030 189.210,191.513 190.920,191.275 191.800 C 190.599 194.303,188.415 201.313,188.034 202.200 C 187.846 202.640,187.472 203.810,187.205 204.800 C 186.938 205.790,185.861 209.300,184.812 212.600 C 183.764 215.900,182.796 219.185,182.663 219.900 L 182.420 221.200 194.653 221.200 C 205.351 221.200,206.857 221.125,206.656 220.601 C 206.529 220.272,205.506 218.638,204.381 216.971 C 197.444 206.692,195.029 198.650,195.410 187.100 C 195.653 179.722,195.548 177.675,195.009 179.300 M248.200 184.230 C 243.626 185.869,243.967 190.843,248.696 191.477 C 251.311 191.827,251.756 191.226,250.757 188.690 C 250.014 186.805,249.991 185.931,250.641 184.237 C 250.940 183.459,250.357 183.457,248.200 184.230 M198.800 242.545 C 191.328 244.726,187.534 252.847,190.403 260.517 C 193.098 267.720,202.093 270.806,209.479 267.061 C 212.655 265.450,212.980 264.872,213.139 260.542 C 213.363 254.476,213.653 254.800,207.992 254.800 L 203.200 254.800 203.200 256.800 L 203.200 258.800 204.626 258.800 C 207.700 258.800,208.902 261.528,206.518 263.091 C 203.164 265.288,197.757 263.437,195.791 259.418 C 192.229 252.137,199.140 244.182,206.102 247.552 C 208.418 248.674,208.533 248.653,209.966 246.842 C 211.621 244.753,211.555 244.518,208.978 243.339 C 206.291 242.108,201.560 241.740,198.800 242.545 M254.000 242.608 C 239.444 246.626,242.802 268.391,258.000 268.534 C 262.152 268.573,267.600 266.437,267.600 264.770 C 267.600 263.678,264.409 261.389,263.645 261.932 C 258.115 265.860,251.122 263.288,250.176 256.977 C 249.111 249.878,255.256 244.909,261.680 247.673 L 263.709 248.545 265.287 246.853 C 267.138 244.869,267.013 244.534,263.932 243.209 C 261.266 242.062,256.929 241.800,254.000 242.608 M39.300 242.665 C 38.988 242.791,38.800 243.666,38.800 244.991 C 38.800 247.523,38.924 247.600,43.009 247.600 C 46.759 247.600,46.555 247.053,46.444 256.838 C 46.393 261.397,46.471 265.774,46.620 266.564 L 46.889 268.000 49.245 268.000 L 51.600 268.000 51.600 258.574 C 51.600 247.182,51.456 247.600,55.381 247.600 C 57.006 247.600,58.619 247.491,58.967 247.357 C 59.869 247.011,59.869 242.989,58.967 242.643 C 58.213 242.353,40.021 242.374,39.300 242.665 M70.960 242.961 C 70.841 243.270,70.802 247.545,70.872 252.461 L 71.000 261.400 72.154 263.483 C 76.415 271.171,89.297 269.903,91.777 261.551 C 92.253 259.949,92.400 257.503,92.400 251.170 C 92.400 242.035,92.508 242.400,89.800 242.400 C 87.094 242.400,87.200 242.048,87.200 251.056 C 87.200 261.294,86.553 263.085,82.585 263.829 C 77.326 264.816,75.606 261.493,75.602 250.343 C 75.600 242.046,75.727 242.400,72.755 242.400 C 71.768 242.400,71.094 242.611,70.960 242.961 M105.694 242.702 C 105.301 242.976,105.212 245.808,105.294 255.427 L 105.400 267.800 107.800 267.800 L 110.200 267.800 110.315 263.623 C 110.506 256.667,112.506 256.226,115.871 262.400 C 119.011 268.161,118.846 268.000,121.619 268.000 C 124.515 268.000,124.510 268.208,121.740 262.974 L 119.480 258.705 121.540 256.852 C 126.273 252.596,125.759 246.097,120.487 243.545 C 118.577 242.621,106.777 241.948,105.694 242.702 M137.294 242.733 C 136.900 242.983,136.812 245.795,136.894 255.427 L 137.000 267.800 139.500 267.919 L 142.000 268.038 142.000 255.462 C 142.000 241.508,142.186 242.394,139.267 242.406 C 138.460 242.409,137.572 242.557,137.294 242.733 M155.694 242.733 C 155.300 242.983,155.212 245.795,155.294 255.427 L 155.400 267.800 157.900 267.919 L 160.400 268.038 160.405 261.319 C 160.415 250.136,160.063 250.060,168.144 262.999 L 171.288 268.033 174.144 267.917 L 177.000 267.800 177.106 255.309 L 177.211 242.818 176.268 242.581 C 175.748 242.451,174.621 242.402,173.762 242.472 L 172.200 242.600 172.000 249.995 C 171.834 256.143,171.699 257.409,171.200 257.504 C 170.653 257.608,166.496 251.476,162.674 244.929 C 162.009 243.790,161.090 242.757,160.632 242.634 C 159.396 242.303,156.274 242.365,155.694 242.733 M280.267 242.667 C 280.120 242.813,280.000 248.577,280.000 255.474 L 280.000 268.015 288.900 267.908 L 297.800 267.800 297.920 265.713 C 298.068 263.160,298.266 263.232,290.800 263.097 L 285.400 263.000 285.293 253.019 C 285.214 245.646,285.057 242.957,284.693 242.725 C 284.090 242.343,280.636 242.297,280.267 242.667 M308.866 242.741 C 308.440 243.019,308.359 244.904,308.466 252.045 L 308.600 261.000 309.834 263.200 C 313.565 269.853,323.944 270.541,328.189 264.416 C 330.031 261.758,330.400 259.478,330.400 250.756 C 330.400 242.033,330.518 242.394,327.667 242.406 C 325.255 242.416,325.295 242.276,325.141 251.400 C 324.961 262.095,323.701 264.548,318.729 263.881 C 314.415 263.303,313.849 261.902,313.600 251.200 L 313.400 242.600 311.400 242.496 C 310.300 242.439,309.160 242.549,308.866 242.741 M343.500 242.622 C 343.335 242.793,343.200 248.584,343.200 255.491 L 343.200 268.049 350.572 267.925 C 357.283 267.811,358.043 267.726,359.047 266.975 C 362.635 264.294,363.020 259.922,359.960 256.603 L 358.371 254.879 359.375 253.399 C 361.821 249.794,361.048 245.448,357.602 243.430 C 356.210 242.615,344.172 241.926,343.500 242.622 M118.045 248.024 C 119.770 248.947,119.730 252.274,117.984 253.208 C 116.933 253.771,111.463 253.703,110.880 253.120 C 110.378 252.618,110.204 248.329,110.667 247.867 C 111.100 247.433,117.183 247.563,118.045 248.024 M354.800 248.400 C 357.007 250.607,354.895 253.300,351.099 253.119 L 348.600 253.000 348.477 250.848 C 348.298 247.696,348.384 247.600,351.387 247.600 C 353.467 247.600,354.163 247.763,354.800 248.400 M355.746 258.429 C 358.651 260.714,356.537 263.280,351.884 263.116 L 348.600 263.000 348.478 260.868 C 348.312 257.967,348.707 257.600,351.995 257.600 C 354.118 257.600,354.916 257.776,355.746 258.429 " stroke="none" fill="#b3d9f6" fill-rule="evenodd"></path><path id="path1" d="M0.000 200.000 L 0.000 400.000 200.000 400.000 L 400.000 400.000 400.000 200.000 L 400.000 0.000 200.000 0.000 L 0.000 0.000 0.000 200.000 M198.571 92.629 C 199.320 93.377,199.420 96.420,198.720 97.120 C 198.402 97.438,196.673 97.600,193.590 97.600 C 164.641 97.600,142.636 122.124,147.357 149.126 C 150.375 166.381,163.408 181.122,180.303 186.388 C 184.414 187.670,184.824 188.130,183.826 190.342 C 182.675 192.895,181.307 192.765,173.099 189.323 C 131.416 171.842,130.981 114.119,172.400 96.467 C 180.801 92.886,196.523 90.581,198.571 92.629 M212.833 93.208 C 230.732 97.778,246.493 110.688,253.111 126.200 C 254.915 130.427,254.823 133.550,252.765 138.016 C 250.587 142.741,251.256 145.943,256.864 157.659 C 260.015 164.243,260.580 166.219,259.636 167.357 C 259.136 167.959,255.921 169.200,254.860 169.200 C 252.977 169.200,252.222 171.838,253.600 173.600 C 255.030 175.428,254.677 176.729,252.600 177.284 C 250.478 177.852,250.290 178.300,252.100 178.475 C 253.921 178.650,254.543 182.344,253.031 184.000 C 251.635 185.528,251.554 186.209,252.483 188.637 C 254.818 194.739,250.641 195.482,233.800 191.962 C 217.801 188.618,212.602 185.782,208.457 178.137 C 205.898 173.415,203.708 170.000,203.241 170.000 C 202.786 170.000,202.195 175.881,202.215 180.200 C 202.231 183.389,202.243 183.424,205.542 190.128 C 210.053 199.295,211.207 200.445,218.513 203.060 C 220.101 203.628,221.625 204.274,221.900 204.495 C 222.733 205.166,222.607 222.235,221.767 222.557 C 220.290 223.124,180.783 222.822,180.561 222.242 C 180.443 221.936,181.161 219.101,182.157 215.942 C 183.153 212.784,185.780 204.350,187.994 197.200 C 190.209 190.050,193.470 179.656,195.240 174.103 L 198.459 164.006 197.669 162.903 C 197.235 162.296,194.995 159.486,192.691 156.658 C 186.382 148.915,185.794 143.914,190.688 139.606 C 196.723 134.294,203.968 138.383,203.991 147.113 C 204.002 151.340,204.115 151.373,208.926 148.572 L 212.800 146.315 212.800 144.217 C 212.800 139.577,214.233 137.578,219.380 135.041 C 234.932 127.373,230.396 110.110,210.804 102.400 C 208.053 101.317,208.014 101.249,208.006 97.526 C 207.995 92.145,208.145 92.011,212.833 93.208 M198.426 101.214 C 199.320 101.692,199.518 104.322,198.720 105.120 C 198.419 105.421,196.921 105.600,194.703 105.600 C 186.306 105.600,177.445 108.742,170.485 114.188 C 167.210 116.751,167.007 116.791,165.289 115.223 C 163.626 113.704,163.647 113.579,165.888 111.607 C 173.222 105.150,184.160 101.014,194.326 100.853 C 196.156 100.824,198.001 100.986,198.426 101.214 M203.004 111.779 C 212.139 113.934,221.526 120.926,218.700 123.471 C 217.063 124.944,216.872 124.913,214.651 122.813 C 209.980 118.395,204.491 116.089,197.628 115.661 L 193.449 115.400 193.112 114.097 C 192.356 111.170,196.404 110.222,203.004 111.779 M182.813 116.100 C 184.063 118.129,183.727 118.827,180.746 120.400 C 172.013 125.006,166.874 133.032,166.085 143.300 L 165.800 147.000 164.099 147.123 C 161.867 147.284,161.608 146.580,162.087 141.658 C 163.141 130.820,169.703 120.810,178.997 115.863 C 181.543 114.507,181.843 114.526,182.813 116.100 M161.238 119.714 C 163.137 120.993,163.103 121.461,160.834 125.420 C 156.526 132.932,155.128 140.896,156.618 149.440 C 157.317 153.450,157.190 153.741,154.512 154.243 C 152.858 154.553,152.826 154.522,152.109 151.911 C 149.926 143.959,151.551 132.289,156.056 123.562 C 158.574 118.685,159.115 118.283,161.238 119.714 M197.277 123.200 C 197.438 123.750,197.671 124.695,197.793 125.300 C 198.089 126.765,198.558 126.686,199.603 124.995 C 200.954 122.809,201.576 122.657,204.052 123.912 C 206.319 125.060,206.398 125.241,205.795 127.900 C 205.439 129.469,206.365 129.679,208.000 128.400 C 209.485 127.238,210.195 127.416,211.773 129.341 C 213.416 131.346,213.504 131.905,212.399 133.310 L 211.598 134.328 201.699 134.464 L 191.800 134.600 189.656 135.787 C 181.605 140.247,181.642 146.426,189.784 156.966 C 194.514 163.091,194.554 163.213,192.923 166.629 C 191.402 169.816,187.200 168.584,187.200 164.951 C 187.200 162.419,186.999 162.343,185.200 164.200 C 182.470 167.017,177.869 163.779,179.800 160.400 C 180.730 158.773,180.568 158.275,179.200 158.555 C 178.540 158.690,177.468 158.909,176.818 159.043 C 175.744 159.263,175.526 159.112,174.418 157.364 C 172.899 154.968,172.884 155.125,174.800 153.352 C 176.855 151.451,176.828 151.346,174.199 151.017 C 171.616 150.694,171.200 150.173,171.200 147.258 L 171.200 145.264 173.220 144.593 C 175.575 143.811,175.578 143.354,173.235 142.051 C 171.601 141.141,171.541 141.040,171.797 139.651 C 172.358 136.604,172.752 136.220,175.542 136.000 L 178.078 135.800 176.839 134.245 C 175.228 132.223,175.275 131.575,177.183 129.569 L 178.767 127.905 180.555 128.952 C 182.910 130.332,183.363 130.305,183.050 128.800 C 182.913 128.140,182.690 127.073,182.556 126.429 C 182.329 125.341,182.456 125.185,184.343 124.229 C 187.031 122.867,187.401 122.917,188.656 124.813 C 189.928 126.735,190.468 126.677,190.923 124.569 C 191.510 121.849,191.369 121.954,194.286 122.082 C 196.773 122.191,197.007 122.278,197.277 123.200 M169.523 155.687 C 169.632 156.996,169.524 157.204,168.618 157.431 C 167.304 157.761,166.400 157.022,166.400 155.618 C 166.400 153.228,169.325 153.292,169.523 155.687 M164.320 159.680 C 164.941 160.301,164.941 162.899,164.320 163.520 C 162.787 165.053,159.600 163.756,159.600 161.600 C 159.600 159.444,162.787 158.147,164.320 159.680 M172.717 168.916 L 172.834 172.033 169.517 171.916 L 166.200 171.800 166.079 169.242 C 165.904 165.522,165.880 165.547,169.494 165.683 L 172.600 165.800 172.717 168.916 M183.357 175.033 C 183.852 176.322,183.606 177.544,182.800 177.800 C 180.931 178.393,179.509 176.866,180.392 175.215 C 180.926 174.218,182.996 174.091,183.357 175.033 M207.600 241.676 C 212.458 243.109,213.262 244.634,210.737 247.628 C 208.882 249.828,208.285 249.977,206.212 248.754 C 204.021 247.461,200.078 247.795,198.371 249.419 C 192.524 254.978,197.028 264.330,204.685 262.530 C 207.190 261.942,207.156 260.000,204.641 260.000 C 202.502 260.000,202.000 259.374,202.000 256.703 C 202.000 253.669,202.233 253.559,208.404 253.688 L 213.800 253.800 213.800 259.583 L 213.800 265.366 211.862 266.832 C 202.316 274.046,188.447 267.387,188.409 255.571 C 188.377 245.173,197.372 238.660,207.600 241.676 M262.806 241.622 C 264.538 242.063,268.000 244.214,268.000 244.848 C 268.000 245.569,264.410 249.600,263.768 249.600 C 263.454 249.600,262.525 249.240,261.704 248.800 C 256.727 246.132,251.200 249.583,251.200 255.358 C 251.200 261.591,257.441 264.875,262.614 261.365 C 264.366 260.176,264.806 260.287,267.400 262.576 C 269.696 264.603,269.658 264.930,266.872 267.069 C 259.921 272.406,248.668 269.499,244.934 261.400 C 239.585 249.799,249.937 238.343,262.806 241.622 M60.717 244.888 C 60.852 248.477,61.046 248.329,56.000 248.499 L 53.000 248.600 52.800 258.600 L 52.600 268.600 49.151 268.715 C 44.884 268.857,45.213 269.775,45.205 257.700 L 45.200 248.400 42.033 248.400 C 37.548 248.400,37.600 248.440,37.600 245.024 C 37.600 241.274,36.546 241.573,49.373 241.694 L 60.600 241.800 60.717 244.888 M76.810 250.600 C 77.063 261.194,77.691 262.800,81.580 262.800 C 85.307 262.800,86.000 260.958,86.000 251.053 C 86.000 240.846,85.694 241.600,89.835 241.600 C 93.986 241.600,93.708 240.785,93.534 252.462 L 93.400 261.400 92.213 263.544 C 87.295 272.422,73.030 271.406,70.230 261.977 C 69.570 259.755,69.271 242.462,69.882 241.852 C 70.036 241.697,71.611 241.622,73.382 241.685 L 76.600 241.800 76.810 250.600 M119.728 242.029 C 126.069 243.790,127.838 253.304,122.601 257.482 C 120.812 258.910,120.797 258.794,123.430 263.768 C 126.097 268.808,126.100 268.800,121.610 268.800 L 118.067 268.800 115.617 264.200 C 112.299 257.969,111.603 257.882,111.594 263.700 C 111.586 268.976,111.679 268.861,107.566 268.717 L 104.200 268.600 104.094 255.648 C 104.019 246.423,104.120 242.538,104.443 242.148 C 105.009 241.466,117.356 241.370,119.728 242.029 M143.000 255.200 L 143.000 268.600 139.500 268.716 L 136.000 268.831 136.000 255.482 C 136.000 248.140,136.127 242.007,136.282 241.852 C 136.436 241.697,138.011 241.622,139.782 241.685 L 143.000 241.800 143.000 255.200 M163.800 244.863 C 164.900 246.548,166.922 249.698,168.292 251.863 L 170.785 255.800 170.798 249.200 C 170.815 241.180,170.635 241.533,174.635 241.682 L 177.800 241.800 177.800 255.200 L 177.800 268.600 174.256 268.716 C 170.098 268.853,171.001 269.635,165.937 261.500 C 163.917 258.255,162.119 255.600,161.942 255.600 C 161.765 255.600,161.570 258.525,161.510 262.100 L 161.400 268.600 157.947 268.715 C 153.640 268.858,153.993 270.098,154.026 254.957 C 154.056 240.651,153.770 241.534,158.322 241.685 L 161.800 241.800 163.800 244.863 M285.920 242.080 C 286.267 242.427,286.400 245.253,286.400 252.280 L 286.400 262.000 291.774 262.000 C 299.178 262.000,299.266 262.044,299.118 265.697 L 299.000 268.600 289.000 268.600 L 279.000 268.600 278.888 256.000 C 278.749 240.287,278.435 241.600,282.328 241.600 C 284.215 241.600,285.629 241.789,285.920 242.080 M314.557 242.233 C 314.691 242.581,314.801 246.316,314.802 250.533 C 314.805 260.750,315.551 262.793,319.281 262.799 C 323.104 262.804,323.638 261.426,323.647 251.537 C 323.655 241.238,323.512 241.600,327.576 241.600 C 331.850 241.600,331.699 241.203,331.533 251.946 L 331.400 260.620 330.063 263.334 C 325.379 272.843,310.700 271.416,307.825 261.174 C 307.026 258.328,306.909 242.851,307.680 242.080 C 308.449 241.311,314.253 241.439,314.557 242.233 M357.846 242.365 C 361.684 244.108,363.189 249.566,360.864 253.306 L 359.927 254.812 361.147 256.201 C 364.270 259.757,363.553 265.248,359.619 267.899 C 358.297 268.790,358.028 268.813,350.229 268.708 L 342.200 268.600 342.094 255.603 C 342.036 248.455,342.076 242.380,342.182 242.103 C 342.526 241.207,355.785 241.429,357.846 242.365 M111.600 250.400 L 111.600 252.400 114.609 252.400 C 117.416 252.400,117.647 252.334,118.065 251.416 C 118.958 249.457,117.671 248.400,114.391 248.400 L 111.600 248.400 111.600 250.400 M349.600 250.400 L 349.600 252.400 351.111 252.400 C 352.959 252.400,354.400 251.461,354.400 250.257 C 354.400 248.895,353.633 248.400,351.520 248.400 L 349.600 248.400 349.600 250.400 M349.600 260.418 L 349.600 262.035 352.500 261.918 C 357.289 261.723,356.962 258.800,352.151 258.800 L 349.600 258.800 349.600 260.418 " stroke="none" fill="#0c0c43" fill-rule="evenodd"></path><path id="path2" d="M209.067 93.467 C 208.625 93.908,208.753 97.676,209.200 97.400 C 209.420 97.264,209.600 96.544,209.600 95.800 C 209.600 93.864,209.734 93.860,215.566 95.619 C 223.856 98.121,231.977 102.745,238.248 108.534 C 239.761 109.932,241.403 111.288,241.895 111.549 C 242.706 111.978,245.495 115.096,247.317 117.610 C 248.007 118.562,248.007 118.546,247.317 117.205 C 246.220 115.071,236.606 105.632,232.959 103.108 C 225.711 98.092,210.557 91.977,209.067 93.467 M208.454 99.251 C 208.424 99.830,208.714 100.548,209.100 100.851 C 209.709 101.329,209.740 101.322,209.338 100.800 C 209.084 100.470,208.794 99.750,208.693 99.200 L 208.509 98.200 208.454 99.251 M214.005 103.123 C 232.246 112.091,234.852 127.771,219.429 135.746 C 214.613 138.237,213.600 139.644,213.600 143.844 C 213.600 146.667,213.451 146.827,207.902 149.959 C 204.279 152.004,203.847 151.747,203.571 147.379 C 202.804 135.276,188.297 134.604,188.326 146.673 C 188.333 149.924,188.702 150.651,193.105 156.092 C 195.247 158.740,197.428 161.434,197.951 162.080 C 199.219 163.648,199.038 164.778,196.066 173.800 C 194.762 177.760,191.683 187.480,189.226 195.400 C 186.768 203.320,184.038 212.077,183.159 214.859 C 182.281 217.642,181.525 220.432,181.481 221.059 L 181.400 222.200 188.600 222.328 C 192.560 222.399,201.605 222.333,208.700 222.182 L 221.600 221.908 221.600 213.603 C 221.600 204.381,221.778 204.963,218.600 203.816 C 210.598 200.928,209.584 199.942,205.004 190.586 C 200.958 182.320,200.474 178.691,202.242 169.900 C 202.729 167.483,204.716 169.780,209.034 177.750 C 211.347 182.019,213.515 184.522,216.000 185.791 C 221.639 188.671,242.131 193.591,248.518 193.598 C 251.749 193.601,253.221 191.383,251.798 188.654 C 250.919 186.970,251.050 185.044,252.132 183.731 C 253.886 181.602,253.220 179.359,250.735 179.029 C 248.326 178.710,248.358 178.082,250.824 177.278 C 254.108 176.208,254.375 175.711,252.763 173.662 C 250.920 171.319,252.015 169.420,255.817 168.370 C 260.278 167.137,260.413 166.446,257.382 160.334 C 250.735 146.929,249.818 142.875,252.227 137.541 C 253.017 135.791,253.576 133.984,253.481 133.491 C 253.332 132.717,253.302 132.740,253.254 133.669 C 253.225 134.257,252.780 135.247,252.267 135.869 C 251.327 137.009,250.529 138.392,249.538 140.600 C 248.975 141.855,246.949 142.377,246.306 141.432 C 245.648 140.464,246.107 145.570,247.566 155.444 C 249.058 165.540,249.813 168.489,251.025 168.954 C 251.444 169.115,251.528 169.616,251.351 170.903 C 251.148 172.383,251.266 172.817,252.157 173.876 C 253.635 175.632,253.373 176.378,251.267 176.410 C 250.900 176.416,249.162 177.136,247.404 178.010 C 243.543 179.931,243.396 179.940,242.396 178.300 C 240.732 175.571,241.524 171.766,244.408 168.638 C 245.902 167.017,246.035 166.712,245.688 165.714 C 245.245 164.441,245.020 164.454,242.000 165.927 C 231.617 170.992,212.009 159.406,216.400 150.800 C 218.106 147.455,217.176 140.579,215.184 141.810 C 214.681 142.121,214.700 141.871,215.282 140.519 C 215.959 138.946,216.636 138.378,219.616 136.880 C 235.654 128.821,233.025 110.663,214.701 102.935 C 210.558 101.187,210.242 101.272,214.005 103.123 M194.100 111.865 C 193.555 112.085,193.436 113.535,193.906 114.242 C 194.068 114.486,195.820 114.811,197.800 114.964 C 204.689 115.500,209.255 117.334,214.351 121.613 C 216.940 123.787,217.169 123.897,217.958 123.345 C 222.698 120.025,200.431 109.310,194.100 111.865 M199.912 113.050 C 203.399 113.487,202.703 114.000,198.624 114.000 C 195.704 114.000,194.800 113.874,194.800 113.467 C 194.800 112.590,195.327 112.325,196.598 112.562 C 197.259 112.684,198.750 112.904,199.912 113.050 M248.605 119.765 C 250.548 123.002,250.998 123.862,252.243 126.714 C 252.984 128.411,253.592 129.529,253.595 129.197 C 253.602 128.353,249.806 120.813,248.764 119.600 L 247.905 118.600 248.605 119.765 M158.404 120.795 C 152.842 128.605,150.623 141.754,153.018 152.700 C 153.242 153.721,154.610 153.923,155.724 153.100 C 156.355 152.633,156.357 152.361,155.757 149.000 C 154.258 140.607,156.266 130.959,160.993 123.837 C 162.703 121.261,162.700 121.371,161.100 120.396 C 159.431 119.378,159.411 119.381,158.404 120.795 M161.200 121.728 C 161.200 122.018,160.750 122.647,160.200 123.125 C 159.134 124.052,158.806 123.492,159.443 121.833 C 159.736 121.069,161.200 120.982,161.200 121.728 M192.017 123.300 C 191.816 123.795,191.541 124.875,191.407 125.700 C 191.077 127.734,190.058 127.672,188.260 125.507 L 186.854 123.814 184.983 124.723 C 183.291 125.546,183.136 125.735,183.359 126.716 C 184.355 131.100,183.920 131.632,180.780 129.867 L 178.883 128.800 177.641 130.214 C 176.112 131.955,176.111 132.120,177.600 134.000 C 179.501 136.400,178.940 137.211,175.601 136.890 C 173.492 136.688,173.157 136.977,172.625 139.458 C 172.374 140.628,172.475 140.781,174.078 141.665 C 176.569 143.040,176.503 144.342,173.900 145.150 C 172.039 145.728,172.000 145.774,172.006 147.370 C 172.015 149.645,172.390 150.037,174.847 150.337 C 177.617 150.675,177.979 151.765,175.858 153.383 C 173.988 154.809,173.891 155.254,175.072 156.991 C 176.135 158.557,176.230 158.573,179.099 157.667 C 181.257 156.985,181.770 157.884,180.697 160.466 L 179.842 162.523 181.206 163.661 C 182.882 165.061,183.207 165.071,184.430 163.763 C 186.781 161.250,188.000 161.683,188.000 165.030 C 188.000 167.210,189.545 168.457,191.376 167.754 C 191.934 167.540,192.944 165.611,192.651 165.318 C 192.553 165.220,192.351 165.524,192.202 165.993 C 191.783 167.315,190.736 166.806,189.331 164.596 C 188.633 163.498,187.643 162.156,187.131 161.613 C 184.493 158.816,178.300 150.800,177.557 149.220 C 174.588 142.904,179.388 135.226,186.751 134.514 L 189.000 134.297 187.308 135.546 C 180.638 140.466,181.040 147.491,188.530 156.900 C 190.196 158.992,192.018 161.380,192.579 162.207 C 193.141 163.035,193.600 163.529,193.600 163.305 C 193.600 163.081,191.713 160.457,189.407 157.474 C 183.121 149.344,181.991 146.081,183.810 141.318 C 186.119 135.272,190.583 133.438,201.951 133.867 C 212.293 134.258,214.634 133.246,211.242 129.853 C 209.478 128.090,209.772 128.101,207.199 129.697 C 206.010 130.434,204.952 129.629,205.162 128.146 C 205.564 125.296,205.503 125.158,203.493 124.363 C 201.589 123.609,201.584 123.609,200.893 124.457 C 198.400 127.515,198.495 127.444,197.812 126.772 C 197.461 126.427,197.061 125.437,196.925 124.572 C 196.547 122.181,192.860 121.225,192.017 123.300 M203.580 125.390 C 204.633 125.934,204.695 126.091,204.390 127.443 C 203.696 130.520,205.763 131.877,208.344 130.040 C 210.105 128.786,212.657 131.425,211.007 132.794 C 210.280 133.397,198.237 133.222,197.686 132.600 C 197.032 131.861,197.596 128.494,198.409 128.282 C 198.813 128.176,199.651 127.356,200.272 126.460 C 201.521 124.656,201.914 124.528,203.580 125.390 M253.693 131.200 C 253.693 131.970,253.775 132.285,253.876 131.900 C 253.976 131.515,253.976 130.885,253.876 130.500 C 253.775 130.115,253.693 130.430,253.693 131.200 M198.331 139.425 C 199.020 139.769,199.680 140.205,199.797 140.395 C 200.137 140.945,197.647 142.530,197.086 142.120 C 196.281 141.533,192.800 141.492,192.800 142.070 C 192.800 142.412,192.594 142.366,192.153 141.924 C 190.385 140.157,195.583 138.055,198.331 139.425 M231.897 141.905 C 230.965 142.483,230.665 142.508,229.958 142.067 C 228.857 141.379,228.617 141.677,229.497 142.639 C 231.264 144.569,238.634 147.899,239.414 147.120 C 240.460 146.073,237.687 141.289,236.473 142.047 C 235.740 142.505,235.447 142.482,234.446 141.891 C 233.048 141.065,233.254 141.064,231.897 141.905 M251.679 148.400 C 252.563 150.930,254.535 155.609,256.061 158.798 C 259.059 165.061,259.417 166.884,257.700 167.128 C 257.205 167.198,256.800 167.056,256.800 166.811 C 256.800 166.567,255.358 163.375,253.596 159.718 C 249.835 151.913,249.200 149.984,249.200 146.360 C 249.200 143.492,249.639 141.454,249.924 143.000 C 250.005 143.440,250.795 145.870,251.679 148.400 M167.242 154.949 C 166.624 155.695,167.109 156.800,168.055 156.800 C 169.026 156.800,169.445 155.778,168.796 154.995 C 168.183 154.256,167.826 154.246,167.242 154.949 M160.565 160.547 C 159.959 162.125,160.542 163.000,162.200 163.000 C 163.762 163.000,163.800 162.967,163.800 161.600 C 163.800 160.038,161.098 159.158,160.565 160.547 M195.410 187.100 C 195.029 198.650,197.444 206.692,204.381 216.971 C 205.506 218.638,206.529 220.272,206.656 220.601 C 206.857 221.125,205.351 221.200,194.653 221.200 L 182.420 221.200 182.663 219.900 C 182.796 219.185,183.764 215.900,184.812 212.600 C 185.861 209.300,186.938 205.790,187.205 204.800 C 187.472 203.810,187.846 202.640,188.034 202.200 C 188.415 201.313,190.599 194.303,191.275 191.800 C 191.513 190.920,192.030 189.210,192.425 188.000 C 192.820 186.790,193.526 184.450,193.993 182.800 C 195.107 178.870,195.132 178.800,195.429 178.800 C 195.569 178.800,195.560 182.535,195.410 187.100 M250.641 184.237 C 249.991 185.931,250.014 186.805,250.757 188.690 C 251.756 191.226,251.311 191.827,248.696 191.477 C 245.474 191.045,243.831 187.944,245.700 185.824 C 247.089 184.248,251.136 182.949,250.641 184.237 M197.800 242.450 C 183.967 247.195,186.901 267.640,201.600 268.935 L 204.200 269.163 201.064 268.570 C 193.486 267.137,189.600 262.692,189.600 255.458 C 189.600 245.059,199.410 238.958,209.039 243.366 C 211.552 244.517,211.616 244.759,209.966 246.842 C 208.533 248.653,208.418 248.674,206.102 247.552 C 199.140 244.182,192.229 252.137,195.791 259.418 C 197.757 263.437,203.164 265.288,206.518 263.091 C 208.902 261.528,207.700 258.800,204.626 258.800 L 203.200 258.800 203.200 256.800 L 203.200 254.800 207.992 254.800 C 213.653 254.800,213.363 254.476,213.139 260.542 C 212.960 265.394,211.158 267.335,205.858 268.384 C 204.622 268.629,204.476 268.723,205.285 268.756 C 207.001 268.825,210.675 267.264,212.216 265.811 L 213.625 264.482 213.513 259.541 L 213.400 254.600 208.100 254.488 L 202.800 254.377 202.800 256.788 L 202.800 259.200 204.520 259.200 C 206.441 259.200,207.200 259.726,207.200 261.057 C 207.200 264.125,199.641 264.012,197.199 260.908 C 191.593 253.782,198.555 244.222,206.460 248.192 L 208.436 249.185 210.211 247.292 C 212.261 245.107,212.269 245.081,211.177 244.064 C 208.747 241.800,202.050 240.992,197.800 242.450 M253.766 242.195 C 242.204 245.846,240.918 262.506,251.800 267.662 C 253.154 268.304,254.810 268.780,255.600 268.756 C 256.956 268.714,256.944 268.701,255.218 268.363 C 242.603 265.890,240.915 247.109,252.932 242.923 C 256.008 241.851,261.173 241.966,263.887 243.165 C 267.019 244.549,267.140 244.867,265.287 246.853 L 263.709 248.545 261.680 247.673 C 256.446 245.421,251.007 248.349,250.171 253.868 C 248.956 261.894,256.957 266.683,263.645 261.932 C 264.409 261.389,267.600 263.678,267.600 264.770 C 267.600 265.855,263.469 268.008,260.400 268.523 C 259.650 268.649,259.749 268.702,260.800 268.737 C 263.058 268.810,268.403 265.957,268.398 264.680 C 268.397 264.193,264.945 261.200,264.386 261.200 C 264.218 261.200,263.298 261.648,262.341 262.195 C 258.764 264.240,253.860 263.344,251.991 260.304 C 247.579 253.124,254.275 244.367,261.400 248.000 C 263.624 249.134,264.120 249.024,265.752 247.033 C 267.539 244.852,267.540 244.676,265.790 243.594 C 262.766 241.725,257.277 241.086,253.766 242.195 M38.700 242.432 C 38.197 242.725,38.000 243.348,38.000 244.646 C 38.000 247.773,38.299 248.000,42.414 248.000 L 46.000 248.000 46.000 257.567 C 46.000 269.168,45.773 268.400,49.200 268.400 C 52.627 268.400,52.400 269.168,52.400 257.567 L 52.400 248.000 55.771 248.000 C 59.784 248.000,60.400 247.601,60.400 245.000 C 60.400 241.977,60.478 241.998,49.271 242.012 C 43.314 242.020,39.122 242.186,38.700 242.432 M70.401 242.599 C 69.443 243.753,70.060 260.151,71.155 262.647 C 75.063 271.556,88.887 271.050,92.270 261.874 C 92.574 261.048,92.750 257.412,92.770 251.543 C 92.804 241.410,92.987 242.000,89.800 242.000 C 86.640 242.000,86.800 241.555,86.798 250.343 C 86.795 261.358,86.025 263.200,81.428 263.200 C 77.041 263.200,76.400 261.643,76.400 250.988 C 76.400 243.330,76.352 242.803,75.626 242.414 C 74.434 241.776,70.983 241.898,70.401 242.599 M105.294 242.305 C 104.901 242.577,104.812 245.486,104.894 255.427 L 105.000 268.200 107.800 268.200 L 110.600 268.200 110.800 263.842 C 111.099 257.326,112.449 256.919,115.400 262.455 C 118.762 268.763,118.385 268.400,121.563 268.400 C 125.153 268.400,125.130 268.526,122.492 263.336 L 120.239 258.905 122.284 256.913 C 126.842 252.474,126.043 245.916,120.600 243.092 C 118.865 242.192,106.388 241.550,105.294 242.305 M136.894 242.333 C 136.500 242.583,136.412 245.475,136.494 255.427 L 136.600 268.200 139.400 268.200 L 142.200 268.200 142.306 255.427 C 142.424 241.149,142.611 242.012,139.400 242.012 C 138.300 242.012,137.172 242.157,136.894 242.333 M155.243 242.548 C 154.920 242.938,154.819 246.719,154.894 255.648 L 155.000 268.200 157.900 268.318 L 160.800 268.435 160.806 261.718 C 160.815 251.861,160.639 251.869,166.642 261.466 C 171.247 268.828,170.832 268.464,174.463 268.318 L 177.400 268.200 177.506 255.427 C 177.623 241.207,177.791 242.016,174.733 242.006 C 171.455 241.995,171.601 241.663,171.594 249.143 C 171.588 255.351,171.251 257.642,170.500 256.573 C 170.335 256.338,168.419 253.278,166.241 249.773 C 164.064 246.268,161.929 243.085,161.497 242.700 C 160.503 241.814,155.944 241.703,155.243 242.548 M280.094 242.333 C 279.700 242.583,279.612 245.475,279.694 255.427 L 279.800 268.200 289.000 268.200 L 298.200 268.200 298.200 265.600 L 298.200 263.000 292.000 262.800 L 285.800 262.600 285.693 252.545 C 285.587 242.520,285.584 242.489,284.693 242.250 C 283.413 241.907,280.688 241.956,280.094 242.333 M308.500 242.265 C 307.566 242.642,307.815 259.476,308.793 262.089 C 310.136 265.679,314.093 268.850,317.133 268.773 C 317.893 268.754,317.645 268.597,316.269 268.227 C 313.502 267.483,311.276 265.743,309.842 263.200 L 308.600 261.000 308.467 251.916 L 308.335 242.832 309.306 242.588 C 309.839 242.454,310.979 242.402,311.838 242.472 L 313.400 242.600 313.600 251.200 C 313.849 261.902,314.415 263.303,318.729 263.881 C 323.701 264.548,324.961 262.095,325.141 251.400 C 325.295 242.276,325.255 242.416,327.667 242.406 C 330.518 242.394,330.400 242.033,330.400 250.756 C 330.400 263.742,328.681 266.987,320.955 268.580 L 318.200 269.148 320.588 268.917 C 328.496 268.152,330.524 264.784,330.726 252.081 C 330.887 241.890,330.918 242.000,327.925 242.000 C 324.266 242.000,324.400 241.649,324.400 251.234 C 324.400 261.991,323.886 263.200,319.317 263.200 C 314.786 263.200,314.023 261.324,314.010 250.143 C 314.001 243.535,313.913 242.452,313.367 242.243 C 312.624 241.958,309.223 241.973,308.500 242.265 M343.100 242.432 C 342.336 242.877,342.004 266.756,342.745 267.925 C 343.005 268.335,344.733 268.422,350.671 268.325 L 358.265 268.200 359.775 267.047 C 363.210 264.425,363.342 259.386,360.066 255.885 C 359.189 254.949,359.102 254.661,359.519 254.085 C 363.106 249.136,361.220 243.449,355.645 242.404 C 352.863 241.882,344.009 241.902,343.100 242.432 M58.967 242.643 C 59.869 242.989,59.869 247.011,58.967 247.357 C 58.619 247.491,57.006 247.600,55.381 247.600 C 51.456 247.600,51.600 247.182,51.600 258.574 L 51.600 268.000 49.245 268.000 L 46.889 268.000 46.620 266.564 C 46.471 265.774,46.393 261.397,46.444 256.838 C 46.555 247.053,46.759 247.600,43.009 247.600 C 38.924 247.600,38.800 247.523,38.800 244.991 C 38.800 243.666,38.988 242.791,39.300 242.665 C 40.021 242.374,58.213 242.353,58.967 242.643 M74.967 242.643 C 75.513 242.852,75.600 243.913,75.602 250.343 C 75.606 261.493,77.326 264.816,82.585 263.829 C 86.553 263.085,87.200 261.294,87.200 251.056 C 87.200 242.048,87.094 242.400,89.800 242.400 C 92.508 242.400,92.400 242.035,92.400 251.170 C 92.400 257.503,92.253 259.949,91.777 261.551 C 89.297 269.903,76.415 271.171,72.154 263.483 L 71.000 261.400 70.872 252.461 C 70.719 241.777,70.994 241.118,74.967 242.643 M120.487 243.545 C 125.759 246.097,126.273 252.596,121.540 256.852 L 119.480 258.705 121.740 262.974 C 124.510 268.208,124.515 268.000,121.619 268.000 C 118.846 268.000,119.011 268.161,115.871 262.400 C 112.506 256.226,110.506 256.667,110.315 263.623 L 110.200 267.800 107.800 267.800 L 105.400 267.800 105.294 255.427 C 105.212 245.808,105.301 242.976,105.694 242.702 C 106.777 241.948,118.577 242.621,120.487 243.545 M141.367 242.643 C 141.926 242.857,142.000 244.363,142.000 255.462 L 142.000 268.038 139.500 267.919 L 137.000 267.800 136.894 255.427 C 136.812 245.795,136.900 242.983,137.294 242.733 C 137.892 242.354,140.465 242.297,141.367 242.643 M160.632 242.634 C 161.090 242.757,162.009 243.790,162.674 244.929 C 166.496 251.476,170.653 257.608,171.200 257.504 C 171.699 257.409,171.834 256.143,172.000 249.995 L 172.200 242.600 173.762 242.472 C 174.621 242.402,175.748 242.451,176.268 242.581 L 177.211 242.818 177.106 255.309 L 177.000 267.800 174.144 267.917 L 171.288 268.033 168.144 262.999 C 160.063 250.060,160.415 250.136,160.405 261.319 L 160.400 268.038 157.900 267.919 L 155.400 267.800 155.294 255.427 C 155.212 245.795,155.300 242.983,155.694 242.733 C 156.274 242.365,159.396 242.303,160.632 242.634 M284.693 242.725 C 285.057 242.957,285.214 245.646,285.293 253.019 L 285.400 263.000 290.800 263.097 C 298.266 263.232,298.068 263.160,297.920 265.713 L 297.800 267.800 288.900 267.908 L 280.000 268.015 280.000 255.474 C 280.000 248.577,280.120 242.813,280.267 242.667 C 280.636 242.297,284.090 242.343,284.693 242.725 M357.602 243.430 C 361.048 245.448,361.821 249.794,359.375 253.399 L 358.371 254.879 359.960 256.603 C 363.020 259.922,362.635 264.294,359.047 266.975 C 358.043 267.726,357.283 267.811,350.572 267.925 L 343.200 268.049 343.200 255.491 C 343.200 248.584,343.335 242.793,343.500 242.622 C 344.172 241.926,356.210 242.615,357.602 243.430 M110.667 247.867 C 110.204 248.329,110.378 252.618,110.880 253.120 C 111.463 253.703,116.933 253.771,117.984 253.208 C 119.730 252.274,119.770 248.947,118.045 248.024 C 117.183 247.563,111.100 247.433,110.667 247.867 M348.565 248.148 C 348.449 248.449,348.410 249.664,348.477 250.848 L 348.600 253.000 351.099 253.119 C 354.895 253.300,357.007 250.607,354.800 248.400 C 353.810 247.410,348.924 247.212,348.565 248.148 M118.069 248.662 C 119.119 249.613,119.032 251.792,117.911 252.577 C 116.828 253.336,112.000 253.440,111.280 252.720 C 110.776 252.216,110.608 248.725,111.067 248.267 C 111.665 247.668,117.323 247.988,118.069 248.662 M354.469 248.662 C 356.518 250.517,354.648 252.896,351.281 252.719 L 349.000 252.600 348.880 250.300 L 348.760 248.000 351.249 248.000 C 353.003 248.000,353.953 248.195,354.469 248.662 M348.827 258.168 C 348.556 258.494,348.408 259.639,348.478 260.868 L 348.600 263.000 351.884 263.116 C 356.537 263.280,358.651 260.714,355.746 258.429 C 354.443 257.404,349.612 257.221,348.827 258.168 M355.564 258.613 C 357.715 260.811,355.860 262.879,351.883 262.717 L 349.000 262.600 348.876 260.639 C 348.794 259.348,348.931 258.556,349.276 258.322 C 349.949 257.866,355.065 258.102,355.564 258.613 " stroke="none" fill="#71b3dd" fill-rule="evenodd"></path><path id="path3" d="M186.200 93.236 C 180.953 94.173,179.151 94.610,176.000 95.708 C 130.412 111.593,131.092 174.292,177.026 190.324 C 181.098 191.745,182.236 191.825,182.934 190.738 C 184.254 188.683,184.030 188.308,180.800 187.174 C 166.588 182.185,157.164 174.245,151.060 162.118 C 135.512 131.228,158.488 96.800,194.651 96.800 L 198.444 96.800 198.322 94.900 L 198.200 93.000 193.200 92.939 C 190.450 92.906,187.300 93.039,186.200 93.236 M186.200 102.423 C 179.363 103.841,172.976 106.737,167.991 110.679 C 164.516 113.427,164.361 113.706,165.700 114.823 C 167.017 115.921,167.279 115.836,170.898 113.138 C 177.804 107.989,187.283 104.802,195.700 104.801 L 198.400 104.800 198.400 103.200 L 198.400 101.600 194.100 101.638 C 191.609 101.661,188.286 101.991,186.200 102.423 M178.899 116.582 C 169.155 122.154,162.833 132.506,162.657 143.179 C 162.602 146.466,162.636 146.605,163.522 146.731 C 165.125 146.958,165.600 146.150,165.600 143.196 C 165.600 133.954,171.669 124.405,180.375 119.949 C 183.326 118.439,183.396 118.340,182.606 116.812 C 181.850 115.350,181.132 115.305,178.899 116.582 M166.827 166.568 C 166.556 166.894,166.408 168.039,166.478 169.268 L 166.600 171.400 169.164 171.521 C 170.944 171.605,171.828 171.482,172.057 171.121 C 172.561 170.327,172.463 167.023,171.920 166.480 C 171.237 165.797,167.412 165.863,166.827 166.568 M181.084 175.450 C 180.314 176.219,180.817 177.251,181.900 177.127 C 182.691 177.036,183.000 176.775,183.000 176.200 C 183.000 175.396,181.661 174.872,181.084 175.450 " stroke="none" fill="#d64f8e" fill-rule="evenodd"></path><path id="path4" d="M186.400 92.648 C 151.122 97.402,131.599 132.546,146.598 164.293 C 152.664 177.132,166.032 188.197,179.814 191.787 C 182.544 192.498,182.914 192.364,183.826 190.342 C 184.824 188.130,184.414 187.670,180.303 186.388 C 163.408 181.122,150.375 166.381,147.357 149.126 C 142.636 122.124,164.641 97.600,193.590 97.600 C 198.874 97.600,199.200 97.446,199.200 94.949 C 199.200 91.794,196.432 91.296,186.400 92.648 M208.390 93.426 C 207.935 94.624,207.874 100.383,208.310 101.068 C 208.474 101.325,209.596 101.925,210.804 102.400 C 220.920 106.381,228.348 114.286,228.726 121.471 C 229.048 127.606,226.266 131.646,219.380 135.041 C 214.233 137.578,212.800 139.577,212.800 144.217 L 212.800 146.315 208.926 148.572 C 204.115 151.373,204.002 151.340,203.991 147.113 C 203.968 138.383,196.723 134.294,190.688 139.606 C 185.794 143.914,186.382 148.915,192.691 156.658 C 194.995 159.486,197.235 162.296,197.669 162.903 L 198.459 164.006 195.240 174.103 C 193.470 179.656,190.209 190.050,187.994 197.200 C 185.780 204.350,183.153 212.784,182.157 215.942 C 181.161 219.101,180.443 221.936,180.561 222.242 C 180.783 222.822,220.290 223.124,221.767 222.557 C 222.607 222.235,222.733 205.166,221.900 204.495 C 221.625 204.274,220.101 203.628,218.513 203.060 C 211.207 200.445,210.053 199.295,205.542 190.128 C 202.243 183.424,202.231 183.389,202.215 180.200 C 202.195 175.881,202.786 170.000,203.241 170.000 C 203.708 170.000,205.898 173.415,208.457 178.137 C 212.602 185.782,217.801 188.618,233.800 191.962 C 250.641 195.482,254.818 194.739,252.483 188.637 C 251.554 186.209,251.635 185.528,253.031 184.000 C 254.543 182.344,253.921 178.650,252.100 178.475 C 250.290 178.300,250.478 177.852,252.600 177.284 C 254.677 176.729,255.030 175.428,253.600 173.600 C 252.222 171.838,252.977 169.200,254.860 169.200 C 255.921 169.200,259.136 167.959,259.636 167.357 C 260.580 166.219,260.015 164.243,256.864 157.659 C 251.256 145.943,250.587 142.741,252.765 138.016 C 254.823 133.550,254.915 130.427,253.111 126.200 C 246.493 110.688,230.732 97.778,212.833 93.208 C 208.854 92.192,208.859 92.192,208.390 93.426 M198.322 94.900 L 198.444 96.800 194.651 96.800 C 158.488 96.800,135.512 131.228,151.060 162.118 C 157.164 174.245,166.588 182.185,180.800 187.174 C 184.030 188.308,184.254 188.683,182.934 190.738 C 180.966 193.802,165.393 186.093,157.200 178.000 C 128.782 149.926,142.947 101.589,181.800 94.058 C 187.307 92.991,188.427 92.881,193.200 92.939 L 198.200 93.000 198.322 94.900 M212.542 93.824 C 229.812 98.206,244.814 110.240,252.154 125.600 C 254.349 130.193,254.371 132.792,252.254 137.480 C 249.815 142.882,250.713 146.884,257.382 160.334 C 260.413 166.446,260.278 167.137,255.817 168.370 C 252.015 169.420,250.920 171.319,252.763 173.662 C 254.375 175.711,254.108 176.208,250.824 177.278 C 248.358 178.082,248.326 178.710,250.735 179.029 C 253.220 179.359,253.886 181.602,252.132 183.731 C 251.050 185.044,250.919 186.970,251.798 188.654 C 253.221 191.383,251.749 193.601,248.518 193.598 C 242.131 193.591,221.639 188.671,216.000 185.791 C 213.515 184.522,211.347 182.019,209.034 177.750 C 204.716 169.780,202.729 167.483,202.242 169.900 C 200.474 178.691,200.958 182.320,205.004 190.586 C 209.584 199.942,210.598 200.928,218.600 203.816 C 221.778 204.963,221.600 204.381,221.600 213.603 L 221.600 221.908 208.700 222.182 C 201.605 222.333,192.560 222.399,188.600 222.328 L 181.400 222.200 181.481 221.059 C 181.525 220.432,182.281 217.642,183.159 214.859 C 184.038 212.077,186.768 203.320,189.226 195.400 C 191.683 187.480,194.762 177.760,196.066 173.800 C 199.038 164.778,199.219 163.648,197.951 162.080 C 187.903 149.664,188.334 150.355,188.326 146.673 C 188.305 138.027,198.856 134.717,202.571 142.205 C 203.077 143.225,203.420 145.000,203.571 147.379 C 203.847 151.747,204.279 152.004,207.902 149.959 C 213.451 146.827,213.600 146.667,213.600 143.844 C 213.600 139.644,214.613 138.237,219.429 135.746 C 235.239 127.571,231.876 110.913,212.727 102.554 C 208.182 100.570,208.380 100.827,208.642 97.258 C 208.985 92.607,208.708 92.851,212.542 93.824 M188.066 101.438 C 179.152 103.057,171.740 106.455,165.888 111.607 C 163.647 113.579,163.626 113.704,165.289 115.223 C 167.007 116.791,167.210 116.751,170.485 114.188 C 177.445 108.742,186.306 105.600,194.703 105.600 C 198.722 105.600,199.200 105.338,199.200 103.134 C 199.200 100.691,195.383 100.110,188.066 101.438 M198.400 103.200 L 198.400 104.800 195.700 104.801 C 187.283 104.802,177.804 107.989,170.898 113.138 C 167.279 115.836,167.017 115.921,165.700 114.823 C 164.361 113.706,164.516 113.427,167.991 110.679 C 175.116 105.045,184.711 101.722,194.100 101.638 L 198.400 101.600 198.400 103.200 M193.202 111.997 C 192.935 112.494,192.902 113.283,193.112 114.097 L 193.449 115.400 197.628 115.661 C 204.491 116.089,209.980 118.395,214.651 122.813 C 216.872 124.913,217.063 124.944,218.700 123.471 C 220.354 121.982,219.471 120.640,214.333 116.833 C 208.317 112.376,194.670 109.253,193.202 111.997 M199.947 112.017 C 209.146 113.171,221.442 120.904,217.958 123.345 C 217.169 123.897,216.940 123.787,214.351 121.613 C 209.255 117.334,204.689 115.500,197.800 114.964 C 194.111 114.678,193.617 114.438,193.606 112.933 C 193.596 111.514,194.684 111.357,199.947 112.017 M178.997 115.863 C 169.703 120.810,163.141 130.820,162.087 141.658 C 161.608 146.580,161.867 147.284,164.099 147.123 L 165.800 147.000 166.085 143.300 C 166.874 133.032,172.013 125.006,180.746 120.400 C 183.727 118.827,184.063 118.129,182.813 116.100 C 181.843 114.526,181.543 114.507,178.997 115.863 M182.606 116.812 C 183.396 118.340,183.326 118.439,180.375 119.949 C 171.669 124.405,165.600 133.954,165.600 143.196 C 165.600 146.150,165.125 146.958,163.522 146.731 C 162.636 146.605,162.602 146.466,162.657 143.179 C 162.833 132.506,169.155 122.154,178.899 116.582 C 181.132 115.305,181.850 115.350,182.606 116.812 M158.428 119.662 C 152.946 125.546,149.583 142.710,152.109 151.911 C 152.826 154.522,152.858 154.553,154.512 154.243 C 157.190 153.741,157.317 153.450,156.618 149.440 C 155.128 140.896,156.526 132.932,160.834 125.420 C 163.103 121.461,163.137 120.993,161.238 119.714 C 159.571 118.590,159.429 118.588,158.428 119.662 M161.100 120.396 C 162.700 121.371,162.703 121.261,160.993 123.837 C 156.266 130.959,154.258 140.607,155.757 149.000 C 156.357 152.361,156.355 152.633,155.724 153.100 C 154.610 153.923,153.242 153.721,153.018 152.700 C 150.623 141.754,152.842 128.605,158.404 120.795 C 159.411 119.381,159.431 119.378,161.100 120.396 M191.425 122.482 C 191.335 122.767,191.109 123.706,190.923 124.569 C 190.468 126.677,189.928 126.735,188.656 124.813 C 187.401 122.917,187.031 122.867,184.343 124.229 C 182.456 125.185,182.329 125.341,182.556 126.429 C 182.690 127.073,182.913 128.140,183.050 128.800 C 183.363 130.305,182.910 130.332,180.555 128.952 L 178.767 127.905 177.183 129.569 C 175.275 131.575,175.228 132.223,176.839 134.245 L 178.078 135.800 175.542 136.000 C 172.752 136.220,172.358 136.604,171.797 139.651 C 171.541 141.040,171.601 141.141,173.235 142.051 C 175.578 143.354,175.575 143.811,173.220 144.593 L 171.200 145.264 171.200 147.258 C 171.200 150.173,171.616 150.694,174.199 151.017 C 176.828 151.346,176.855 151.451,174.800 153.352 C 172.884 155.125,172.899 154.968,174.418 157.364 C 175.526 159.112,175.744 159.263,176.818 159.043 C 177.468 158.909,178.540 158.690,179.200 158.555 C 180.568 158.275,180.730 158.773,179.800 160.400 C 178.818 162.118,179.067 163.033,180.879 164.365 C 183.014 165.935,183.538 165.915,185.200 164.200 C 186.999 162.343,187.200 162.419,187.200 164.951 C 187.200 168.584,191.402 169.816,192.923 166.629 C 194.554 163.213,194.514 163.091,189.784 156.966 C 181.642 146.426,181.605 140.247,189.656 135.787 L 191.800 134.600 201.699 134.464 L 211.598 134.328 212.399 133.310 C 214.434 130.724,210.559 126.399,208.000 128.400 C 206.365 129.679,205.439 129.469,205.795 127.900 C 206.398 125.241,206.319 125.060,204.052 123.912 C 201.576 122.657,200.954 122.809,199.603 124.995 C 198.558 126.686,198.089 126.765,197.793 125.300 C 197.158 122.161,197.212 122.210,194.286 122.082 C 192.344 121.996,191.543 122.108,191.425 122.482 M196.238 122.706 C 196.479 122.868,196.788 123.708,196.925 124.572 C 197.061 125.437,197.461 126.427,197.812 126.772 C 198.495 127.444,198.400 127.515,200.893 124.457 C 201.584 123.609,201.589 123.609,203.493 124.363 C 205.503 125.158,205.564 125.296,205.162 128.146 C 204.952 129.629,206.010 130.434,207.199 129.697 C 209.772 128.101,209.478 128.090,211.242 129.853 C 214.634 133.246,212.293 134.258,201.951 133.867 C 190.583 133.438,186.119 135.272,183.810 141.318 C 182.014 146.021,183.152 149.399,189.144 157.145 C 191.294 159.925,193.179 162.412,193.332 162.671 C 193.702 163.295,192.124 167.467,191.415 167.739 C 189.548 168.455,188.000 167.228,188.000 165.030 C 188.000 161.683,186.781 161.250,184.430 163.763 C 183.207 165.071,182.882 165.061,181.206 163.661 L 179.842 162.523 180.697 160.466 C 181.770 157.884,181.257 156.985,179.099 157.667 C 176.230 158.573,176.135 158.557,175.072 156.991 C 173.891 155.254,173.988 154.809,175.858 153.383 C 177.979 151.765,177.617 150.675,174.847 150.337 C 172.390 150.037,172.015 149.645,172.006 147.370 C 172.000 145.774,172.039 145.728,173.900 145.150 C 176.503 144.342,176.569 143.040,174.078 141.665 C 172.475 140.781,172.374 140.628,172.625 139.458 C 173.157 136.977,173.492 136.688,175.601 136.890 C 178.940 137.211,179.501 136.400,177.600 134.000 C 176.111 132.120,176.112 131.955,177.641 130.214 L 178.883 128.800 180.780 129.867 C 183.920 131.632,184.355 131.100,183.359 126.716 C 183.136 125.735,183.291 125.546,184.983 124.723 L 186.854 123.814 188.260 125.507 C 190.058 127.672,191.077 127.734,191.407 125.700 C 191.877 122.808,192.210 122.399,194.091 122.406 C 195.031 122.409,195.997 122.544,196.238 122.706 M166.686 154.248 C 165.485 155.448,166.944 157.851,168.618 157.431 C 170.272 157.016,169.915 154.250,168.186 154.081 C 167.518 154.016,166.843 154.091,166.686 154.248 M168.796 154.995 C 169.445 155.778,169.026 156.800,168.055 156.800 C 167.109 156.800,166.624 155.695,167.242 154.949 C 167.826 154.246,168.183 154.256,168.796 154.995 M160.014 159.974 C 158.522 162.761,162.118 165.722,164.320 163.520 C 164.941 162.899,164.941 160.301,164.320 159.680 C 163.509 158.869,160.495 159.075,160.014 159.974 M163.800 161.600 C 163.800 163.409,160.720 163.844,160.468 162.071 C 160.234 160.414,160.667 159.941,162.297 160.076 C 163.724 160.194,163.800 160.270,163.800 161.600 M166.173 166.125 C 166.055 166.433,166.013 167.835,166.079 169.242 L 166.200 171.800 169.517 171.916 L 172.834 172.033 172.717 168.916 L 172.600 165.800 169.494 165.683 C 167.122 165.594,166.337 165.698,166.173 166.125 M171.920 166.480 C 172.463 167.023,172.561 170.327,172.057 171.121 C 171.828 171.482,170.944 171.605,169.164 171.521 L 166.600 171.400 166.478 169.268 C 166.408 168.039,166.556 166.894,166.827 166.568 C 167.412 165.863,171.237 165.797,171.920 166.480 M180.392 175.215 C 179.509 176.866,180.931 178.393,182.800 177.800 C 183.606 177.544,183.852 176.322,183.357 175.033 C 182.996 174.091,180.926 174.218,180.392 175.215 M183.000 176.200 C 183.000 176.775,182.691 177.036,181.900 177.127 C 180.817 177.251,180.314 176.219,181.084 175.450 C 181.661 174.872,183.000 175.396,183.000 176.200 M199.347 241.389 C 183.141 244.967,185.352 268.837,201.955 269.544 C 206.124 269.721,209.125 268.900,211.862 266.832 L 213.800 265.366 213.800 259.583 L 213.800 253.800 208.404 253.688 C 202.233 253.559,202.000 253.669,202.000 256.703 C 202.000 259.374,202.502 260.000,204.641 260.000 C 207.156 260.000,207.190 261.942,204.685 262.530 C 197.028 264.330,192.524 254.978,198.371 249.419 C 200.078 247.795,204.021 247.461,206.212 248.754 C 208.285 249.977,208.882 249.828,210.737 247.628 C 212.873 245.096,212.866 244.301,210.700 243.061 C 207.344 241.141,203.221 240.534,199.347 241.389 M255.205 241.246 C 240.781 243.710,239.520 264.772,253.541 269.027 C 257.780 270.314,263.798 269.430,266.872 267.069 C 269.658 264.930,269.696 264.603,267.400 262.576 C 264.806 260.287,264.366 260.176,262.614 261.365 C 257.441 264.875,251.200 261.591,251.200 255.358 C 251.200 249.583,256.727 246.132,261.704 248.800 C 263.828 249.938,264.126 249.848,266.169 247.457 C 268.438 244.801,268.436 244.659,266.106 243.181 C 263.113 241.283,259.128 240.575,255.205 241.246 M37.873 241.861 C 37.723 242.011,37.600 243.434,37.600 245.024 C 37.600 248.440,37.548 248.400,42.033 248.400 L 45.200 248.400 45.205 257.700 C 45.213 269.775,44.884 268.857,49.151 268.715 L 52.600 268.600 52.800 258.600 L 53.000 248.600 56.000 248.499 C 61.046 248.329,60.852 248.477,60.717 244.888 L 60.600 241.800 49.373 241.694 C 43.198 241.636,38.023 241.711,37.873 241.861 M69.882 241.852 C 69.271 242.462,69.570 259.755,70.230 261.977 C 73.030 271.406,87.295 272.422,92.213 263.544 L 93.400 261.400 93.534 252.462 C 93.708 240.785,93.986 241.600,89.835 241.600 C 85.694 241.600,86.000 240.846,86.000 251.053 C 86.000 260.958,85.307 262.800,81.580 262.800 C 77.691 262.800,77.063 261.194,76.810 250.600 L 76.600 241.800 73.382 241.685 C 71.611 241.622,70.036 241.697,69.882 241.852 M104.443 242.148 C 104.120 242.538,104.019 246.423,104.094 255.648 L 104.200 268.600 107.566 268.717 C 111.679 268.861,111.586 268.976,111.594 263.700 C 111.603 257.882,112.299 257.969,115.617 264.200 L 118.067 268.800 121.610 268.800 C 126.100 268.800,126.097 268.808,123.430 263.768 C 120.797 258.794,120.812 258.910,122.601 257.482 C 127.838 253.304,126.069 243.790,119.728 242.029 C 117.356 241.370,105.009 241.466,104.443 242.148 M136.282 241.852 C 136.127 242.007,136.000 248.140,136.000 255.482 L 136.000 268.831 139.500 268.716 L 143.000 268.600 143.000 255.200 L 143.000 241.800 139.782 241.685 C 138.011 241.622,136.436 241.697,136.282 241.852 M154.448 242.311 C 154.014 243.121,153.833 266.195,154.247 267.846 C 154.489 268.808,154.571 268.827,157.947 268.715 L 161.400 268.600 161.510 262.100 C 161.570 258.525,161.765 255.600,161.942 255.600 C 162.119 255.600,163.917 258.255,165.937 261.500 C 171.001 269.635,170.098 268.853,174.256 268.716 L 177.800 268.600 177.800 255.200 L 177.800 241.800 174.635 241.682 C 170.635 241.533,170.815 241.180,170.798 249.200 L 170.785 255.800 168.292 251.863 C 166.922 249.698,164.900 246.548,163.800 244.863 L 161.800 241.800 158.322 241.685 C 155.276 241.584,154.795 241.661,154.448 242.311 M207.768 242.449 C 212.316 243.941,212.679 244.662,210.211 247.292 L 208.436 249.185 206.460 248.192 C 198.555 244.222,191.593 253.782,197.199 260.908 C 199.641 264.012,207.200 264.125,207.200 261.057 C 207.200 259.726,206.441 259.200,204.520 259.200 L 202.800 259.200 202.800 256.788 L 202.800 254.377 208.100 254.488 L 213.400 254.600 213.513 259.541 L 213.625 264.482 212.216 265.811 C 206.148 271.533,194.038 269.315,190.407 261.815 C 184.767 250.163,195.340 238.369,207.768 242.449 M262.290 242.166 C 267.077 243.440,267.829 244.497,265.752 247.033 C 264.120 249.024,263.624 249.134,261.400 248.000 C 254.275 244.367,247.579 253.124,251.991 260.304 C 253.860 263.344,258.764 264.240,262.341 262.195 C 264.531 260.943,264.344 260.921,266.543 262.700 C 268.751 264.487,268.807 264.849,267.078 266.168 C 257.476 273.491,244.580 267.195,244.611 255.200 C 244.637 245.402,252.545 239.572,262.290 242.166 M278.996 242.500 C 278.875 242.995,278.827 249.070,278.888 256.000 L 279.000 268.600 289.000 268.600 L 299.000 268.600 299.118 265.697 C 299.266 262.044,299.178 262.000,291.774 262.000 L 286.400 262.000 286.400 252.280 C 286.400 240.965,286.642 241.600,282.328 241.600 C 279.432 241.600,279.200 241.663,278.996 242.500 M307.680 242.080 C 306.909 242.851,307.026 258.328,307.825 261.174 C 310.700 271.416,325.379 272.843,330.063 263.334 L 331.400 260.620 331.533 251.946 C 331.699 241.203,331.850 241.600,327.576 241.600 C 323.512 241.600,323.655 241.238,323.647 251.537 C 323.638 261.426,323.104 262.804,319.281 262.799 C 315.551 262.793,314.805 260.750,314.802 250.533 C 314.801 246.316,314.691 242.581,314.557 242.233 C 314.253 241.439,308.449 241.311,307.680 242.080 M342.182 242.103 C 342.076 242.380,342.036 248.455,342.094 255.603 L 342.200 268.600 350.229 268.708 C 358.028 268.813,358.297 268.790,359.619 267.899 C 363.553 265.248,364.270 259.757,361.147 256.201 L 359.927 254.812 360.864 253.306 C 363.189 249.566,361.684 244.108,357.846 242.365 C 355.785 241.429,342.526 241.207,342.182 242.103 M59.771 242.629 C 60.605 243.462,60.605 246.538,59.771 247.371 C 59.299 247.843,58.303 248.000,55.771 248.000 L 52.400 248.000 52.400 257.567 C 52.400 269.168,52.627 268.400,49.200 268.400 C 45.773 268.400,46.000 269.168,46.000 257.567 L 46.000 248.000 42.414 248.000 C 38.299 248.000,38.000 247.773,38.000 244.646 C 38.000 243.348,38.197 242.725,38.700 242.432 C 39.961 241.698,59.018 241.876,59.771 242.629 M75.626 242.414 C 76.352 242.803,76.400 243.330,76.400 250.988 C 76.400 261.643,77.041 263.200,81.428 263.200 C 86.025 263.200,86.795 261.358,86.798 250.343 C 86.800 241.555,86.640 242.000,89.800 242.000 C 92.987 242.000,92.804 241.410,92.770 251.543 C 92.750 257.412,92.574 261.048,92.270 261.874 C 88.887 271.050,75.063 271.556,71.155 262.647 C 70.060 260.151,69.443 243.753,70.401 242.599 C 70.983 241.898,74.434 241.776,75.626 242.414 M120.600 243.092 C 126.043 245.916,126.842 252.474,122.284 256.913 L 120.239 258.905 122.492 263.336 C 125.130 268.526,125.153 268.400,121.563 268.400 C 118.385 268.400,118.762 268.763,115.400 262.455 C 112.449 256.919,111.099 257.326,110.800 263.842 L 110.600 268.200 107.800 268.200 L 105.000 268.200 104.894 255.427 C 104.812 245.486,104.901 242.577,105.294 242.305 C 106.388 241.550,118.865 242.192,120.600 243.092 M141.906 242.333 C 142.300 242.583,142.388 245.475,142.306 255.427 L 142.200 268.200 139.400 268.200 L 136.600 268.200 136.494 255.427 C 136.376 241.149,136.189 242.012,139.400 242.012 C 140.500 242.012,141.628 242.157,141.906 242.333 M161.497 242.700 C 161.929 243.085,164.064 246.268,166.241 249.773 C 168.419 253.278,170.335 256.338,170.500 256.573 C 171.251 257.642,171.588 255.351,171.594 249.143 C 171.601 241.663,171.455 241.995,174.733 242.006 C 177.791 242.016,177.623 241.207,177.506 255.427 L 177.400 268.200 174.463 268.318 C 170.832 268.464,171.247 268.828,166.642 261.466 C 160.639 251.869,160.815 251.861,160.806 261.718 L 160.800 268.435 157.900 268.318 L 155.000 268.200 154.894 255.648 C 154.819 246.719,154.920 242.938,155.243 242.548 C 155.944 241.703,160.503 241.814,161.497 242.700 M284.693 242.250 C 285.584 242.489,285.587 242.520,285.693 252.545 L 285.800 262.600 292.000 262.800 L 298.200 263.000 298.200 265.600 L 298.200 268.200 289.000 268.200 L 279.800 268.200 279.694 255.427 C 279.612 245.475,279.700 242.583,280.094 242.333 C 280.688 241.956,283.413 241.907,284.693 242.250 M313.367 242.243 C 313.913 242.452,314.001 243.535,314.010 250.143 C 314.023 261.324,314.786 263.200,319.317 263.200 C 323.886 263.200,324.400 261.991,324.400 251.234 C 324.400 241.649,324.266 242.000,327.925 242.000 C 330.918 242.000,330.887 241.890,330.726 252.081 C 330.593 260.456,330.527 261.115,329.653 262.888 C 325.426 271.467,312.111 270.957,308.793 262.089 C 307.815 259.476,307.566 242.642,308.500 242.265 C 309.223 241.973,312.624 241.958,313.367 242.243 M355.645 242.404 C 361.220 243.449,363.106 249.136,359.519 254.085 C 359.102 254.661,359.189 254.949,360.066 255.885 C 363.342 259.386,363.210 264.425,359.775 267.047 L 358.265 268.200 350.671 268.325 C 344.733 268.422,343.005 268.335,342.745 267.925 C 342.004 266.756,342.336 242.877,343.100 242.432 C 344.009 241.902,352.863 241.882,355.645 242.404 M111.067 248.267 C 110.608 248.725,110.776 252.216,111.280 252.720 C 112.000 253.440,116.828 253.336,117.911 252.577 C 119.032 251.792,119.119 249.613,118.069 248.662 C 117.323 247.988,111.665 247.668,111.067 248.267 M348.880 250.300 L 349.000 252.600 351.281 252.719 C 353.842 252.853,355.200 252.002,355.200 250.262 C 355.200 248.675,354.021 248.000,351.249 248.000 L 348.760 248.000 348.880 250.300 M117.848 249.416 C 119.181 251.452,118.152 252.400,114.609 252.400 L 111.600 252.400 111.600 250.400 L 111.600 248.400 114.391 248.400 C 116.938 248.400,117.240 248.489,117.848 249.416 M353.920 248.880 C 355.372 250.332,353.721 252.400,351.111 252.400 L 349.600 252.400 349.600 250.400 L 349.600 248.400 351.520 248.400 C 352.576 248.400,353.656 248.616,353.920 248.880 M349.276 258.322 C 348.931 258.556,348.794 259.348,348.876 260.639 L 349.000 262.600 351.883 262.717 C 355.860 262.879,357.715 260.811,355.564 258.613 C 355.065 258.102,349.949 257.866,349.276 258.322 M355.182 259.378 C 356.475 260.936,355.570 261.793,352.500 261.918 L 349.600 262.035 349.600 260.418 L 349.600 258.800 352.151 258.800 C 353.887 258.800,354.855 258.985,355.182 259.378 " stroke="none" fill="#5b5382" fill-rule="evenodd"></path></g></svg>